999
DXF from OpenSCAD
  0
SECTION
  2
HEADER
  9
$ACADVER
  1
AC1006
  9
$INSBASE
 10
0.0
 20
0.0
 30
0.0
  9
$EXTMIN
 10
0
 20
0
  9
$EXTMAX
 10
116
 20
70
  9
$LINMIN
 10
0
 20
0
  9
$LINMAX
 10
116
 20
70
  0
ENDSEC
  0
SECTION
  2
TABLES
  0
TABLE
  2
LTYPE
 70
1
  0
LTYPE
  2
CONTINUOUS
 70
64
  3
Solid line
 72
65
 73
0
 40
0.000000
  0
ENDTAB
  0
TABLE
  2
LAYER
 70
6
  0
LAYER
  2
0
 70
64
 62
7
  6
CONTINUOUS
  0
ENDTAB
  0
TABLE
  2
STYLE
 70
0
  0
ENDTAB
  0
ENDSEC
  0
SECTION
  2
BLOCKS
  0
ENDSEC
  0
SECTION
  2
ENTITIES
  0
LWPOLYLINE
100
AcDbEntity
  8
0
100
AcDbPolyline
 90
104
 70
1
 10
51.314
 20
0.00986636
 10
51.6267
 20
0.0394265
 10
51.9369
 20
0.0885637
 10
52.2434
 20
0.157084
 10
52.5451
 20
0.244717
 10
52.8406
 20
0.351118
 10
53.1289
 20
0.475865
 10
53.4088
 20
0.618467
 10
53.6791
 20
0.77836
 10
53.9389
 20
0.954915
 10
54.1871
 20
1.14743
 10
54.4227
 20
1.35516
 10
54.6448
 20
1.57726
 10
54.8526
 20
1.81288
 10
55.0451
 20
2.06107
 10
55.2216
 20
2.32087
 10
55.3815
 20
2.59123
 10
55.5241
 20
2.8711
 10
55.6489
 20
3.15938
 10
55.7553
 20
3.45492
 10
55.8429
 20
3.75655
 10
55.9114
 20
4.06309
 10
55.9606
 20
4.37333
 10
55.9901
 20
4.68605
 10
56
 20
5
 10
56
 20
65
 10
55.9901
 20
65.314
 10
55.9606
 20
65.6267
 10
55.9114
 20
65.9369
 10
55.8429
 20
66.2434
 10
55.7553
 20
66.5451
 10
55.6489
 20
66.8406
 10
55.5241
 20
67.1289
 10
55.3815
 20
67.4088
 10
55.2216
 20
67.6791
 10
55.0451
 20
67.9389
 10
54.8526
 20
68.1871
 10
54.6448
 20
68.4227
 10
54.4227
 20
68.6448
 10
54.1871
 20
68.8526
 10
53.9389
 20
69.0451
 10
53.6791
 20
69.2216
 10
53.4088
 20
69.3815
 10
53.1289
 20
69.5241
 10
52.8406
 20
69.6489
 10
52.5451
 20
69.7553
 10
52.2434
 20
69.8429
 10
51.9369
 20
69.9114
 10
51.6267
 20
69.9606
 10
51.314
 20
69.9901
 10
51
 20
70
 10
5
 20
70
 10
4.68605
 20
69.9901
 10
4.37333
 20
69.9606
 10
4.06309
 20
69.9114
 10
3.75655
 20
69.8429
 10
3.45492
 20
69.7553
 10
3.15938
 20
69.6489
 10
2.8711
 20
69.5241
 10
2.59123
 20
69.3815
 10
2.32087
 20
69.2216
 10
2.06107
 20
69.0451
 10
1.81288
 20
68.8526
 10
1.57726
 20
68.6448
 10
1.35516
 20
68.4227
 10
1.14743
 20
68.1871
 10
0.954915
 20
67.9389
 10
0.77836
 20
67.6791
 10
0.618467
 20
67.4088
 10
0.475865
 20
67.1289
 10
0.351118
 20
66.8406
 10
0.244717
 20
66.5451
 10
0.157084
 20
66.2434
 10
0.0885637
 20
65.9369
 10
0.0394265
 20
65.6267
 10
0.00986636
 20
65.314
 10
0
 20
65
 10
0
 20
5
 10
0.00986636
 20
4.68605
 10
0.0394265
 20
4.37333
 10
0.0885637
 20
4.06309
 10
0.157084
 20
3.75655
 10
0.244717
 20
3.45492
 10
0.351118
 20
3.15938
 10
0.475865
 20
2.8711
 10
0.618467
 20
2.59123
 10
0.77836
 20
2.32087
 10
0.954915
 20
2.06107
 10
1.14743
 20
1.81288
 10
1.35516
 20
1.57726
 10
1.57726
 20
1.35516
 10
1.81288
 20
1.14743
 10
2.06107
 20
0.954915
 10
2.32087
 20
0.77836
 10
2.59123
 20
0.618467
 10
2.8711
 20
0.475865
 10
3.15938
 20
0.351118
 10
3.45492
 20
0.244717
 10
3.75655
 20
0.157084
 10
4.06309
 20
0.0885637
 10
4.37333
 20
0.0394265
 10
4.68605
 20
0.00986636
 10
5
 20
0
 10
51
 20
0
  0
LWPOLYLINE
100
AcDbEntity
  8
0
100
AcDbPolyline
 90
100
 70
1
 10
46.343
 20
63.5049
 10
46.1867
 20
63.5197
 10
46.0315
 20
63.5443
 10
45.8783
 20
63.5785
 10
45.7275
 20
63.6224
 10
45.5797
 20
63.6756
 10
45.4356
 20
63.7379
 10
45.2956
 20
63.8092
 10
45.1604
 20
63.8892
 10
45.0305
 20
63.9775
 10
44.9064
 20
64.0737
 10
44.7886
 20
64.1776
 10
44.6776
 20
64.2886
 10
44.5737
 20
64.4064
 10
44.4775
 20
64.5305
 10
44.3892
 20
64.6604
 10
44.3092
 20
64.7956
 10
44.2379
 20
64.9356
 10
44.1756
 20
65.0797
 10
44.1224
 20
65.2275
 10
44.0785
 20
65.3783
 10
44.0443
 20
65.5315
 10
44.0197
 20
65.6867
 10
44.0049
 20
65.843
 10
44
 20
66
 10
44.0049
 20
66.157
 10
44.0197
 20
66.3133
 10
44.0443
 20
66.4685
 10
44.0785
 20
66.6217
 10
44.1224
 20
66.7725
 10
44.1756
 20
66.9203
 10
44.2379
 20
67.0644
 10
44.3092
 20
67.2044
 10
44.3892
 20
67.3396
 10
44.4775
 20
67.4695
 10
44.5737
 20
67.5936
 10
44.6776
 20
67.7114
 10
44.7886
 20
67.8224
 10
44.9064
 20
67.9263
 10
45.0305
 20
68.0225
 10
45.1604
 20
68.1108
 10
45.2956
 20
68.1908
 10
45.4356
 20
68.2621
 10
45.5797
 20
68.3244
 10
45.7275
 20
68.3776
 10
45.8783
 20
68.4215
 10
46.0315
 20
68.4557
 10
46.1867
 20
68.4803
 10
46.343
 20
68.4951
 10
46.5
 20
68.5
 10
46.657
 20
68.4951
 10
46.8133
 20
68.4803
 10
46.9685
 20
68.4557
 10
47.1217
 20
68.4215
 10
47.2725
 20
68.3776
 10
47.4203
 20
68.3244
 10
47.5644
 20
68.2621
 10
47.7044
 20
68.1908
 10
47.8396
 20
68.1108
 10
47.9695
 20
68.0225
 10
48.0936
 20
67.9263
 10
48.2114
 20
67.8224
 10
48.3224
 20
67.7114
 10
48.4263
 20
67.5936
 10
48.5225
 20
67.4695
 10
48.6108
 20
67.3396
 10
48.6908
 20
67.2044
 10
48.7621
 20
67.0644
 10
48.8244
 20
66.9203
 10
48.8776
 20
66.7725
 10
48.9215
 20
66.6217
 10
48.9557
 20
66.4685
 10
48.9803
 20
66.3133
 10
48.9951
 20
66.157
 10
49
 20
66
 10
48.9951
 20
65.843
 10
48.9803
 20
65.6867
 10
48.9557
 20
65.5315
 10
48.9215
 20
65.3783
 10
48.8776
 20
65.2275
 10
48.8244
 20
65.0797
 10
48.7621
 20
64.9356
 10
48.6908
 20
64.7956
 10
48.6108
 20
64.6604
 10
48.5225
 20
64.5305
 10
48.4263
 20
64.4064
 10
48.3224
 20
64.2886
 10
48.2114
 20
64.1776
 10
48.0936
 20
64.0737
 10
47.9695
 20
63.9775
 10
47.8396
 20
63.8892
 10
47.7044
 20
63.8092
 10
47.5644
 20
63.7379
 10
47.4203
 20
63.6756
 10
47.2725
 20
63.6224
 10
47.1217
 20
63.5785
 10
46.9685
 20
63.5443
 10
46.8133
 20
63.5197
 10
46.657
 20
63.5049
 10
46.5
 20
63.5
  0
LWPOLYLINE
100
AcDbEntity
  8
0
100
AcDbPolyline
 90
104
 70
1
 10
15.25
 20
45
 10
15.1872
 20
45.002
 10
15.1247
 20
45.0079
 10
15.0626
 20
45.0177
 10
15.0013
 20
45.0314
 10
14.941
 20
45.0489
 10
14.8819
 20
45.0702
 10
14.8242
 20
45.0952
 10
14.7682
 20
45.1237
 10
14.7142
 20
45.1557
 10
14.6622
 20
45.191
 10
14.6126
 20
45.2295
 10
14.5655
 20
45.271
 10
14.521
 20
45.3155
 10
14.4795
 20
45.3626
 10
14.441
 20
45.4122
 10
14.4057
 20
45.4642
 10
14.3737
 20
45.5182
 10
14.3452
 20
45.5742
 10
14.3202
 20
45.6319
 10
14.2989
 20
45.691
 10
14.2814
 20
45.7513
 10
14.2677
 20
45.8126
 10
14.2579
 20
45.8747
 10
14.252
 20
45.9372
 10
14.25
 20
46
 10
14.25
 20
66
 10
14.252
 20
66.0628
 10
14.2579
 20
66.1253
 10
14.2677
 20
66.1874
 10
14.2814
 20
66.2487
 10
14.2989
 20
66.309
 10
14.3202
 20
66.3681
 10
14.3452
 20
66.4258
 10
14.3737
 20
66.4818
 10
14.4057
 20
66.5358
 10
14.441
 20
66.5878
 10
14.4795
 20
66.6374
 10
14.521
 20
66.6845
 10
14.5655
 20
66.729
 10
14.6126
 20
66.7705
 10
14.6622
 20
66.809
 10
14.7142
 20
66.8443
 10
14.7682
 20
66.8763
 10
14.8242
 20
66.9048
 10
14.8819
 20
66.9298
 10
14.941
 20
66.9511
 10
15.0013
 20
66.9686
 10
15.0626
 20
66.9823
 10
15.1247
 20
66.9921
 10
15.1872
 20
66.998
 10
15.25
 20
67
 10
16.25
 20
67
 10
16.3128
 20
66.998
 10
16.3753
 20
66.9921
 10
16.4374
 20
66.9823
 10
16.4987
 20
66.9686
 10
16.559
 20
66.9511
 10
16.6181
 20
66.9298
 10
16.6758
 20
66.9048
 10
16.7318
 20
66.8763
 10
16.7858
 20
66.8443
 10
16.8378
 20
66.809
 10
16.8874
 20
66.7705
 10
16.9345
 20
66.729
 10
16.979
 20
66.6845
 10
17.0205
 20
66.6374
 10
17.059
 20
66.5878
 10
17.0943
 20
66.5358
 10
17.1263
 20
66.4818
 10
17.1548
 20
66.4258
 10
17.1798
 20
66.3681
 10
17.2011
 20
66.309
 10
17.2186
 20
66.2487
 10
17.2323
 20
66.1874
 10
17.2421
 20
66.1253
 10
17.248
 20
66.0628
 10
17.25
 20
66
 10
17.25
 20
46
 10
17.248
 20
45.9372
 10
17.2421
 20
45.8747
 10
17.2323
 20
45.8126
 10
17.2186
 20
45.7513
 10
17.2011
 20
45.691
 10
17.1798
 20
45.6319
 10
17.1548
 20
45.5742
 10
17.1263
 20
45.5182
 10
17.0943
 20
45.4642
 10
17.059
 20
45.4122
 10
17.0205
 20
45.3626
 10
16.979
 20
45.3155
 10
16.9345
 20
45.271
 10
16.8874
 20
45.2295
 10
16.8378
 20
45.191
 10
16.7858
 20
45.1557
 10
16.7318
 20
45.1237
 10
16.6758
 20
45.0952
 10
16.6181
 20
45.0702
 10
16.559
 20
45.0489
 10
16.4987
 20
45.0314
 10
16.4374
 20
45.0177
 10
16.3753
 20
45.0079
 10
16.3128
 20
45.002
 10
16.25
 20
45
  0
LWPOLYLINE
100
AcDbEntity
  8
0
100
AcDbPolyline
 90
100
 70
1
 10
4.89012
 20
63.2535
 10
4.78067
 20
63.2638
 10
4.67208
 20
63.281
 10
4.56479
 20
63.305
 10
4.45922
 20
63.3357
 10
4.35578
 20
63.3729
 10
4.25489
 20
63.4166
 10
4.15693
 20
63.4665
 10
4.0623
 20
63.5224
 10
3.97138
 20
63.5842
 10
3.88451
 20
63.6516
 10
3.80204
 20
63.7243
 10
3.7243
 20
63.802
 10
3.6516
 20
63.8845
 10
3.58422
 20
63.9714
 10
3.52243
 20
64.0623
 10
3.46646
 20
64.1569
 10
3.41655
 20
64.2549
 10
3.37289
 20
64.3558
 10
3.33565
 20
64.4592
 10
3.30498
 20
64.5648
 10
3.281
 20
64.6721
 10
3.2638
 20
64.7807
 10
3.25345
 20
64.8901
 10
3.25
 20
65
 10
3.25345
 20
65.1099
 10
3.2638
 20
65.2193
 10
3.281
 20
65.3279
 10
3.30498
 20
65.4352
 10
3.33565
 20
65.5408
 10
3.37289
 20
65.6442
 10
3.41655
 20
65.7451
 10
3.46646
 20
65.8431
 10
3.52243
 20
65.9377
 10
3.58422
 20
66.0286
 10
3.6516
 20
66.1155
 10
3.7243
 20
66.198
 10
3.80204
 20
66.2757
 10
3.88451
 20
66.3484
 10
3.97138
 20
66.4158
 10
4.0623
 20
66.4776
 10
4.15693
 20
66.5335
 10
4.25489
 20
66.5834
 10
4.35578
 20
66.6271
 10
4.45922
 20
66.6643
 10
4.56479
 20
66.695
 10
4.67208
 20
66.719
 10
4.78067
 20
66.7362
 10
4.89012
 20
66.7465
 10
5
 20
66.75
 10
5.10988
 20
66.7465
 10
5.21933
 20
66.7362
 10
5.32792
 20
66.719
 10
5.43521
 20
66.695
 10
5.54078
 20
66.6643
 10
5.64422
 20
66.6271
 10
5.74511
 20
66.5834
 10
5.84307
 20
66.5335
 10
5.9377
 20
66.4776
 10
6.02862
 20
66.4158
 10
6.11549
 20
66.3484
 10
6.19796
 20
66.2757
 10
6.2757
 20
66.198
 10
6.3484
 20
66.1155
 10
6.41578
 20
66.0286
 10
6.47757
 20
65.9377
 10
6.53354
 20
65.8431
 10
6.58345
 20
65.7451
 10
6.62711
 20
65.6442
 10
6.66435
 20
65.5408
 10
6.69502
 20
65.4352
 10
6.719
 20
65.3279
 10
6.7362
 20
65.2193
 10
6.74655
 20
65.1099
 10
6.75
 20
65
 10
6.74655
 20
64.8901
 10
6.7362
 20
64.7807
 10
6.719
 20
64.6721
 10
6.69502
 20
64.5648
 10
6.66435
 20
64.4592
 10
6.62711
 20
64.3558
 10
6.58345
 20
64.2549
 10
6.53354
 20
64.1569
 10
6.47757
 20
64.0623
 10
6.41578
 20
63.9714
 10
6.3484
 20
63.8845
 10
6.2757
 20
63.802
 10
6.19796
 20
63.7243
 10
6.11549
 20
63.6516
 10
6.02862
 20
63.5842
 10
5.9377
 20
63.5224
 10
5.84307
 20
63.4665
 10
5.74511
 20
63.4166
 10
5.64422
 20
63.3729
 10
5.54078
 20
63.3357
 10
5.43521
 20
63.305
 10
5.32792
 20
63.281
 10
5.21933
 20
63.2638
 10
5.10988
 20
63.2535
 10
5
 20
63.25
  0
LWPOLYLINE
100
AcDbEntity
  8
0
100
AcDbPolyline
 90
100
 70
1
 10
37.8901
 20
63.2535
 10
37.7807
 20
63.2638
 10
37.6721
 20
63.281
 10
37.5648
 20
63.305
 10
37.4592
 20
63.3357
 10
37.3558
 20
63.3729
 10
37.2549
 20
63.4166
 10
37.1569
 20
63.4665
 10
37.0623
 20
63.5224
 10
36.9714
 20
63.5842
 10
36.8845
 20
63.6516
 10
36.802
 20
63.7243
 10
36.7243
 20
63.802
 10
36.6516
 20
63.8845
 10
36.5842
 20
63.9714
 10
36.5224
 20
64.0623
 10
36.4665
 20
64.1569
 10
36.4166
 20
64.2549
 10
36.3729
 20
64.3558
 10
36.3357
 20
64.4592
 10
36.305
 20
64.5648
 10
36.281
 20
64.6721
 10
36.2638
 20
64.7807
 10
36.2535
 20
64.8901
 10
36.25
 20
65
 10
36.2535
 20
65.1099
 10
36.2638
 20
65.2193
 10
36.281
 20
65.3279
 10
36.305
 20
65.4352
 10
36.3357
 20
65.5408
 10
36.3729
 20
65.6442
 10
36.4166
 20
65.7451
 10
36.4665
 20
65.8431
 10
36.5224
 20
65.9377
 10
36.5842
 20
66.0286
 10
36.6516
 20
66.1155
 10
36.7243
 20
66.198
 10
36.802
 20
66.2757
 10
36.8845
 20
66.3484
 10
36.9714
 20
66.4158
 10
37.0623
 20
66.4776
 10
37.1569
 20
66.5335
 10
37.2549
 20
66.5834
 10
37.3558
 20
66.6271
 10
37.4592
 20
66.6643
 10
37.5648
 20
66.695
 10
37.6721
 20
66.719
 10
37.7807
 20
66.7362
 10
37.8901
 20
66.7465
 10
38
 20
66.75
 10
38.1099
 20
66.7465
 10
38.2193
 20
66.7362
 10
38.3279
 20
66.719
 10
38.4352
 20
66.695
 10
38.5408
 20
66.6643
 10
38.6442
 20
66.6271
 10
38.7451
 20
66.5834
 10
38.8431
 20
66.5335
 10
38.9377
 20
66.4776
 10
39.0286
 20
66.4158
 10
39.1155
 20
66.3484
 10
39.198
 20
66.2757
 10
39.2757
 20
66.198
 10
39.3484
 20
66.1155
 10
39.4158
 20
66.0286
 10
39.4776
 20
65.9377
 10
39.5335
 20
65.8431
 10
39.5834
 20
65.7451
 10
39.6271
 20
65.6442
 10
39.6643
 20
65.5408
 10
39.695
 20
65.4352
 10
39.719
 20
65.3279
 10
39.7362
 20
65.2193
 10
39.7465
 20
65.1099
 10
39.75
 20
65
 10
39.7465
 20
64.8901
 10
39.7362
 20
64.7807
 10
39.719
 20
64.6721
 10
39.695
 20
64.5648
 10
39.6643
 20
64.4592
 10
39.6271
 20
64.3558
 10
39.5834
 20
64.2549
 10
39.5335
 20
64.1569
 10
39.4776
 20
64.0623
 10
39.4158
 20
63.9714
 10
39.3484
 20
63.8845
 10
39.2757
 20
63.802
 10
39.198
 20
63.7243
 10
39.1155
 20
63.6516
 10
39.0286
 20
63.5842
 10
38.9377
 20
63.5224
 10
38.8431
 20
63.4665
 10
38.7451
 20
63.4166
 10
38.6442
 20
63.3729
 10
38.5408
 20
63.3357
 10
38.4352
 20
63.305
 10
38.3279
 20
63.281
 10
38.2193
 20
63.2638
 10
38.1099
 20
63.2535
 10
38
 20
63.25
  0
LWPOLYLINE
100
AcDbEntity
  8
0
100
AcDbPolyline
 90
104
 70
1
 10
44.5
 20
46
 10
44.4372
 20
46.002
 10
44.3747
 20
46.0079
 10
44.3126
 20
46.0177
 10
44.2513
 20
46.0314
 10
44.191
 20
46.0489
 10
44.1319
 20
46.0702
 10
44.0742
 20
46.0952
 10
44.0182
 20
46.1237
 10
43.9642
 20
46.1557
 10
43.9122
 20
46.191
 10
43.8626
 20
46.2295
 10
43.8155
 20
46.271
 10
43.771
 20
46.3155
 10
43.7295
 20
46.3626
 10
43.691
 20
46.4122
 10
43.6557
 20
46.4642
 10
43.6237
 20
46.5182
 10
43.5952
 20
46.5742
 10
43.5702
 20
46.6319
 10
43.5489
 20
46.691
 10
43.5314
 20
46.7513
 10
43.5177
 20
46.8126
 10
43.5079
 20
46.8747
 10
43.502
 20
46.9372
 10
43.5
 20
47
 10
43.5
 20
60
 10
43.502
 20
60.0628
 10
43.5079
 20
60.1253
 10
43.5177
 20
60.1874
 10
43.5314
 20
60.2487
 10
43.5489
 20
60.309
 10
43.5702
 20
60.3681
 10
43.5952
 20
60.4258
 10
43.6237
 20
60.4818
 10
43.6557
 20
60.5358
 10
43.691
 20
60.5878
 10
43.7295
 20
60.6374
 10
43.771
 20
60.6845
 10
43.8155
 20
60.729
 10
43.8626
 20
60.7705
 10
43.9122
 20
60.809
 10
43.9642
 20
60.8443
 10
44.0182
 20
60.8763
 10
44.0742
 20
60.9048
 10
44.1319
 20
60.9298
 10
44.191
 20
60.9511
 10
44.2513
 20
60.9686
 10
44.3126
 20
60.9823
 10
44.3747
 20
60.9921
 10
44.4372
 20
60.998
 10
44.5
 20
61
 10
48.5
 20
61
 10
48.5628
 20
60.998
 10
48.6253
 20
60.9921
 10
48.6874
 20
60.9823
 10
48.7487
 20
60.9686
 10
48.809
 20
60.9511
 10
48.8681
 20
60.9298
 10
48.9258
 20
60.9048
 10
48.9818
 20
60.8763
 10
49.0358
 20
60.8443
 10
49.0878
 20
60.809
 10
49.1374
 20
60.7705
 10
49.1845
 20
60.729
 10
49.229
 20
60.6845
 10
49.2705
 20
60.6374
 10
49.309
 20
60.5878
 10
49.3443
 20
60.5358
 10
49.3763
 20
60.4818
 10
49.4048
 20
60.4258
 10
49.4298
 20
60.3681
 10
49.4511
 20
60.309
 10
49.4686
 20
60.2487
 10
49.4823
 20
60.1874
 10
49.4921
 20
60.1253
 10
49.498
 20
60.0628
 10
49.5
 20
60
 10
49.5
 20
47
 10
49.498
 20
46.9372
 10
49.4921
 20
46.8747
 10
49.4823
 20
46.8126
 10
49.4686
 20
46.7513
 10
49.4511
 20
46.691
 10
49.4298
 20
46.6319
 10
49.4048
 20
46.5742
 10
49.3763
 20
46.5182
 10
49.3443
 20
46.4642
 10
49.309
 20
46.4122
 10
49.2705
 20
46.3626
 10
49.229
 20
46.3155
 10
49.1845
 20
46.271
 10
49.1374
 20
46.2295
 10
49.0878
 20
46.191
 10
49.0358
 20
46.1557
 10
48.9818
 20
46.1237
 10
48.9258
 20
46.0952
 10
48.8681
 20
46.0702
 10
48.809
 20
46.0489
 10
48.7487
 20
46.0314
 10
48.6874
 20
46.0177
 10
48.6253
 20
46.0079
 10
48.5628
 20
46.002
 10
48.5
 20
46
  0
LWPOLYLINE
100
AcDbEntity
  8
0
100
AcDbPolyline
 90
100
 70
1
 10
46.343
 20
38.5049
 10
46.1867
 20
38.5197
 10
46.0315
 20
38.5443
 10
45.8783
 20
38.5785
 10
45.7275
 20
38.6224
 10
45.5797
 20
38.6756
 10
45.4356
 20
38.7379
 10
45.2956
 20
38.8092
 10
45.1604
 20
38.8892
 10
45.0305
 20
38.9775
 10
44.9064
 20
39.0737
 10
44.7886
 20
39.1776
 10
44.6776
 20
39.2886
 10
44.5737
 20
39.4064
 10
44.4775
 20
39.5305
 10
44.3892
 20
39.6604
 10
44.3092
 20
39.7956
 10
44.2379
 20
39.9356
 10
44.1756
 20
40.0797
 10
44.1224
 20
40.2275
 10
44.0785
 20
40.3783
 10
44.0443
 20
40.5315
 10
44.0197
 20
40.6867
 10
44.0049
 20
40.843
 10
44
 20
41
 10
44.0049
 20
41.157
 10
44.0197
 20
41.3133
 10
44.0443
 20
41.4685
 10
44.0785
 20
41.6217
 10
44.1224
 20
41.7725
 10
44.1756
 20
41.9203
 10
44.2379
 20
42.0644
 10
44.3092
 20
42.2044
 10
44.3892
 20
42.3396
 10
44.4775
 20
42.4695
 10
44.5737
 20
42.5936
 10
44.6776
 20
42.7114
 10
44.7886
 20
42.8224
 10
44.9064
 20
42.9263
 10
45.0305
 20
43.0225
 10
45.1604
 20
43.1108
 10
45.2956
 20
43.1908
 10
45.4356
 20
43.2621
 10
45.5797
 20
43.3244
 10
45.7275
 20
43.3776
 10
45.8783
 20
43.4215
 10
46.0315
 20
43.4557
 10
46.1867
 20
43.4803
 10
46.343
 20
43.4951
 10
46.5
 20
43.5
 10
46.657
 20
43.4951
 10
46.8133
 20
43.4803
 10
46.9685
 20
43.4557
 10
47.1217
 20
43.4215
 10
47.2725
 20
43.3776
 10
47.4203
 20
43.3244
 10
47.5644
 20
43.2621
 10
47.7044
 20
43.1908
 10
47.8396
 20
43.1108
 10
47.9695
 20
43.0225
 10
48.0936
 20
42.9263
 10
48.2114
 20
42.8224
 10
48.3224
 20
42.7114
 10
48.4263
 20
42.5936
 10
48.5225
 20
42.4695
 10
48.6108
 20
42.3396
 10
48.6908
 20
42.2044
 10
48.7621
 20
42.0644
 10
48.8244
 20
41.9203
 10
48.8776
 20
41.7725
 10
48.9215
 20
41.6217
 10
48.9557
 20
41.4685
 10
48.9803
 20
41.3133
 10
48.9951
 20
41.157
 10
49
 20
41
 10
48.9951
 20
40.843
 10
48.9803
 20
40.6867
 10
48.9557
 20
40.5315
 10
48.9215
 20
40.3783
 10
48.8776
 20
40.2275
 10
48.8244
 20
40.0797
 10
48.7621
 20
39.9356
 10
48.6908
 20
39.7956
 10
48.6108
 20
39.6604
 10
48.5225
 20
39.5305
 10
48.4263
 20
39.4064
 10
48.3224
 20
39.2886
 10
48.2114
 20
39.1776
 10
48.0936
 20
39.0737
 10
47.9695
 20
38.9775
 10
47.8396
 20
38.8892
 10
47.7044
 20
38.8092
 10
47.5644
 20
38.7379
 10
47.4203
 20
38.6756
 10
47.2725
 20
38.6224
 10
47.1217
 20
38.5785
 10
46.9685
 20
38.5443
 10
46.8133
 20
38.5197
 10
46.657
 20
38.5049
 10
46.5
 20
38.5
  0
LWPOLYLINE
100
AcDbEntity
  8
0
100
AcDbPolyline
 90
100
 70
1
 10
46.343
 20
26.5049
 10
46.1867
 20
26.5197
 10
46.0315
 20
26.5443
 10
45.8783
 20
26.5785
 10
45.7275
 20
26.6224
 10
45.5797
 20
26.6756
 10
45.4356
 20
26.7379
 10
45.2956
 20
26.8092
 10
45.1604
 20
26.8892
 10
45.0305
 20
26.9775
 10
44.9064
 20
27.0737
 10
44.7886
 20
27.1776
 10
44.6776
 20
27.2886
 10
44.5737
 20
27.4064
 10
44.4775
 20
27.5305
 10
44.3892
 20
27.6604
 10
44.3092
 20
27.7956
 10
44.2379
 20
27.9356
 10
44.1756
 20
28.0797
 10
44.1224
 20
28.2275
 10
44.0785
 20
28.3783
 10
44.0443
 20
28.5315
 10
44.0197
 20
28.6867
 10
44.0049
 20
28.843
 10
44
 20
29
 10
44.0049
 20
29.157
 10
44.0197
 20
29.3133
 10
44.0443
 20
29.4685
 10
44.0785
 20
29.6217
 10
44.1224
 20
29.7725
 10
44.1756
 20
29.9203
 10
44.2379
 20
30.0644
 10
44.3092
 20
30.2044
 10
44.3892
 20
30.3396
 10
44.4775
 20
30.4695
 10
44.5737
 20
30.5936
 10
44.6776
 20
30.7114
 10
44.7886
 20
30.8224
 10
44.9064
 20
30.9263
 10
45.0305
 20
31.0225
 10
45.1604
 20
31.1108
 10
45.2956
 20
31.1908
 10
45.4356
 20
31.2621
 10
45.5797
 20
31.3244
 10
45.7275
 20
31.3776
 10
45.8783
 20
31.4215
 10
46.0315
 20
31.4557
 10
46.1867
 20
31.4803
 10
46.343
 20
31.4951
 10
46.5
 20
31.5
 10
46.657
 20
31.4951
 10
46.8133
 20
31.4803
 10
46.9685
 20
31.4557
 10
47.1217
 20
31.4215
 10
47.2725
 20
31.3776
 10
47.4203
 20
31.3244
 10
47.5644
 20
31.2621
 10
47.7044
 20
31.1908
 10
47.8396
 20
31.1108
 10
47.9695
 20
31.0225
 10
48.0936
 20
30.9263
 10
48.2114
 20
30.8224
 10
48.3224
 20
30.7114
 10
48.4263
 20
30.5936
 10
48.5225
 20
30.4695
 10
48.6108
 20
30.3396
 10
48.6908
 20
30.2044
 10
48.7621
 20
30.0644
 10
48.8244
 20
29.9203
 10
48.8776
 20
29.7725
 10
48.9215
 20
29.6217
 10
48.9557
 20
29.4685
 10
48.9803
 20
29.3133
 10
48.9951
 20
29.157
 10
49
 20
29
 10
48.9951
 20
28.843
 10
48.9803
 20
28.6867
 10
48.9557
 20
28.5315
 10
48.9215
 20
28.3783
 10
48.8776
 20
28.2275
 10
48.8244
 20
28.0797
 10
48.7621
 20
27.9356
 10
48.6908
 20
27.7956
 10
48.6108
 20
27.6604
 10
48.5225
 20
27.5305
 10
48.4263
 20
27.4064
 10
48.3224
 20
27.2886
 10
48.2114
 20
27.1776
 10
48.0936
 20
27.0737
 10
47.9695
 20
26.9775
 10
47.8396
 20
26.8892
 10
47.7044
 20
26.8092
 10
47.5644
 20
26.7379
 10
47.4203
 20
26.6756
 10
47.2725
 20
26.6224
 10
47.1217
 20
26.5785
 10
46.9685
 20
26.5443
 10
46.8133
 20
26.5197
 10
46.657
 20
26.5049
 10
46.5
 20
26.5
  0
LWPOLYLINE
100
AcDbEntity
  8
0
100
AcDbPolyline
 90
104
 70
1
 10
44.5
 20
9
 10
44.4372
 20
9.00197
 10
44.3747
 20
9.00789
 10
44.3126
 20
9.01771
 10
44.2513
 20
9.03142
 10
44.191
 20
9.04894
 10
44.1319
 20
9.07022
 10
44.0742
 20
9.09517
 10
44.0182
 20
9.12369
 10
43.9642
 20
9.15567
 10
43.9122
 20
9.19098
 10
43.8626
 20
9.22949
 10
43.8155
 20
9.27103
 10
43.771
 20
9.31545
 10
43.7295
 20
9.36258
 10
43.691
 20
9.41221
 10
43.6557
 20
9.46417
 10
43.6237
 20
9.51825
 10
43.5952
 20
9.57422
 10
43.5702
 20
9.63188
 10
43.5489
 20
9.69098
 10
43.5314
 20
9.75131
 10
43.5177
 20
9.81262
 10
43.5079
 20
9.87467
 10
43.502
 20
9.93721
 10
43.5
 20
10
 10
43.5
 20
23
 10
43.502
 20
23.0628
 10
43.5079
 20
23.1253
 10
43.5177
 20
23.1874
 10
43.5314
 20
23.2487
 10
43.5489
 20
23.309
 10
43.5702
 20
23.3681
 10
43.5952
 20
23.4258
 10
43.6237
 20
23.4818
 10
43.6557
 20
23.5358
 10
43.691
 20
23.5878
 10
43.7295
 20
23.6374
 10
43.771
 20
23.6845
 10
43.8155
 20
23.729
 10
43.8626
 20
23.7705
 10
43.9122
 20
23.809
 10
43.9642
 20
23.8443
 10
44.0182
 20
23.8763
 10
44.0742
 20
23.9048
 10
44.1319
 20
23.9298
 10
44.191
 20
23.9511
 10
44.2513
 20
23.9686
 10
44.3126
 20
23.9823
 10
44.3747
 20
23.9921
 10
44.4372
 20
23.998
 10
44.5
 20
24
 10
48.5
 20
24
 10
48.5628
 20
23.998
 10
48.6253
 20
23.9921
 10
48.6874
 20
23.9823
 10
48.7487
 20
23.9686
 10
48.809
 20
23.9511
 10
48.8681
 20
23.9298
 10
48.9258
 20
23.9048
 10
48.9818
 20
23.8763
 10
49.0358
 20
23.8443
 10
49.0878
 20
23.809
 10
49.1374
 20
23.7705
 10
49.1845
 20
23.729
 10
49.229
 20
23.6845
 10
49.2705
 20
23.6374
 10
49.309
 20
23.5878
 10
49.3443
 20
23.5358
 10
49.3763
 20
23.4818
 10
49.4048
 20
23.4258
 10
49.4298
 20
23.3681
 10
49.4511
 20
23.309
 10
49.4686
 20
23.2487
 10
49.4823
 20
23.1874
 10
49.4921
 20
23.1253
 10
49.498
 20
23.0628
 10
49.5
 20
23
 10
49.5
 20
10
 10
49.498
 20
9.93721
 10
49.4921
 20
9.87467
 10
49.4823
 20
9.81262
 10
49.4686
 20
9.75131
 10
49.4511
 20
9.69098
 10
49.4298
 20
9.63188
 10
49.4048
 20
9.57422
 10
49.3763
 20
9.51825
 10
49.3443
 20
9.46417
 10
49.309
 20
9.41221
 10
49.2705
 20
9.36258
 10
49.229
 20
9.31545
 10
49.1845
 20
9.27103
 10
49.1374
 20
9.22949
 10
49.0878
 20
9.19098
 10
49.0358
 20
9.15567
 10
48.9818
 20
9.12369
 10
48.9258
 20
9.09517
 10
48.8681
 20
9.07022
 10
48.809
 20
9.04894
 10
48.7487
 20
9.03142
 10
48.6874
 20
9.01771
 10
48.6253
 20
9.00789
 10
48.5628
 20
9.00197
 10
48.5
 20
9
  0
LWPOLYLINE
100
AcDbEntity
  8
0
100
AcDbPolyline
 90
100
 70
1
 10
4.89012
 20
3.25345
 10
4.78067
 20
3.2638
 10
4.67208
 20
3.281
 10
4.56479
 20
3.30498
 10
4.45922
 20
3.33565
 10
4.35578
 20
3.37289
 10
4.25489
 20
3.41655
 10
4.15693
 20
3.46646
 10
4.0623
 20
3.52243
 10
3.97138
 20
3.58422
 10
3.88451
 20
3.6516
 10
3.80204
 20
3.7243
 10
3.7243
 20
3.80204
 10
3.6516
 20
3.88451
 10
3.58422
 20
3.97138
 10
3.52243
 20
4.0623
 10
3.46646
 20
4.15693
 10
3.41655
 20
4.25489
 10
3.37289
 20
4.35578
 10
3.33565
 20
4.45922
 10
3.30498
 20
4.56479
 10
3.281
 20
4.67208
 10
3.2638
 20
4.78067
 10
3.25345
 20
4.89012
 10
3.25
 20
5
 10
3.25345
 20
5.10988
 10
3.2638
 20
5.21933
 10
3.281
 20
5.32792
 10
3.30498
 20
5.43521
 10
3.33565
 20
5.54078
 10
3.37289
 20
5.64422
 10
3.41655
 20
5.74511
 10
3.46646
 20
5.84307
 10
3.52243
 20
5.9377
 10
3.58422
 20
6.02862
 10
3.6516
 20
6.11549
 10
3.7243
 20
6.19796
 10
3.80204
 20
6.2757
 10
3.88451
 20
6.3484
 10
3.97138
 20
6.41578
 10
4.0623
 20
6.47757
 10
4.15693
 20
6.53354
 10
4.25489
 20
6.58345
 10
4.35578
 20
6.62711
 10
4.45922
 20
6.66435
 10
4.56479
 20
6.69502
 10
4.67208
 20
6.719
 10
4.78067
 20
6.7362
 10
4.89012
 20
6.74655
 10
5
 20
6.75
 10
5.10988
 20
6.74655
 10
5.21933
 20
6.7362
 10
5.32792
 20
6.719
 10
5.43521
 20
6.69502
 10
5.54078
 20
6.66435
 10
5.64422
 20
6.62711
 10
5.74511
 20
6.58345
 10
5.84307
 20
6.53354
 10
5.9377
 20
6.47757
 10
6.02862
 20
6.41578
 10
6.11549
 20
6.3484
 10
6.19796
 20
6.2757
 10
6.2757
 20
6.19796
 10
6.3484
 20
6.11549
 10
6.41578
 20
6.02862
 10
6.47757
 20
5.9377
 10
6.53354
 20
5.84307
 10
6.58345
 20
5.74511
 10
6.62711
 20
5.64422
 10
6.66435
 20
5.54078
 10
6.69502
 20
5.43521
 10
6.719
 20
5.32792
 10
6.7362
 20
5.21933
 10
6.74655
 20
5.10988
 10
6.75
 20
5
 10
6.74655
 20
4.89012
 10
6.7362
 20
4.78067
 10
6.719
 20
4.67208
 10
6.69502
 20
4.56479
 10
6.66435
 20
4.45922
 10
6.62711
 20
4.35578
 10
6.58345
 20
4.25489
 10
6.53354
 20
4.15693
 10
6.47757
 20
4.0623
 10
6.41578
 20
3.97138
 10
6.3484
 20
3.88451
 10
6.2757
 20
3.80204
 10
6.19796
 20
3.7243
 10
6.11549
 20
3.6516
 10
6.02862
 20
3.58422
 10
5.9377
 20
3.52243
 10
5.84307
 20
3.46646
 10
5.74511
 20
3.41655
 10
5.64422
 20
3.37289
 10
5.54078
 20
3.33565
 10
5.43521
 20
3.30498
 10
5.32792
 20
3.281
 10
5.21933
 20
3.2638
 10
5.10988
 20
3.25345
 10
5
 20
3.25
  0
LWPOLYLINE
100
AcDbEntity
  8
0
100
AcDbPolyline
 90
100
 70
1
 10
37.8901
 20
3.25345
 10
37.7807
 20
3.2638
 10
37.6721
 20
3.281
 10
37.5648
 20
3.30498
 10
37.4592
 20
3.33565
 10
37.3558
 20
3.37289
 10
37.2549
 20
3.41655
 10
37.1569
 20
3.46646
 10
37.0623
 20
3.52243
 10
36.9714
 20
3.58422
 10
36.8845
 20
3.6516
 10
36.802
 20
3.7243
 10
36.7243
 20
3.80204
 10
36.6516
 20
3.88451
 10
36.5842
 20
3.97138
 10
36.5224
 20
4.0623
 10
36.4665
 20
4.15693
 10
36.4166
 20
4.25489
 10
36.3729
 20
4.35578
 10
36.3357
 20
4.45922
 10
36.305
 20
4.56479
 10
36.281
 20
4.67208
 10
36.2638
 20
4.78067
 10
36.2535
 20
4.89012
 10
36.25
 20
5
 10
36.2535
 20
5.10988
 10
36.2638
 20
5.21933
 10
36.281
 20
5.32792
 10
36.305
 20
5.43521
 10
36.3357
 20
5.54078
 10
36.3729
 20
5.64422
 10
36.4166
 20
5.74511
 10
36.4665
 20
5.84307
 10
36.5224
 20
5.9377
 10
36.5842
 20
6.02862
 10
36.6516
 20
6.11549
 10
36.7243
 20
6.19796
 10
36.802
 20
6.2757
 10
36.8845
 20
6.3484
 10
36.9714
 20
6.41578
 10
37.0623
 20
6.47757
 10
37.1569
 20
6.53354
 10
37.2549
 20
6.58345
 10
37.3558
 20
6.62711
 10
37.4592
 20
6.66435
 10
37.5648
 20
6.69502
 10
37.6721
 20
6.719
 10
37.7807
 20
6.7362
 10
37.8901
 20
6.74655
 10
38
 20
6.75
 10
38.1099
 20
6.74655
 10
38.2193
 20
6.7362
 10
38.3279
 20
6.719
 10
38.4352
 20
6.69502
 10
38.5408
 20
6.66435
 10
38.6442
 20
6.62711
 10
38.7451
 20
6.58345
 10
38.8431
 20
6.53354
 10
38.9377
 20
6.47757
 10
39.0286
 20
6.41578
 10
39.1155
 20
6.3484
 10
39.198
 20
6.2757
 10
39.2757
 20
6.19796
 10
39.3484
 20
6.11549
 10
39.4158
 20
6.02862
 10
39.4776
 20
5.9377
 10
39.5335
 20
5.84307
 10
39.5834
 20
5.74511
 10
39.6271
 20
5.64422
 10
39.6643
 20
5.54078
 10
39.695
 20
5.43521
 10
39.719
 20
5.32792
 10
39.7362
 20
5.21933
 10
39.7465
 20
5.10988
 10
39.75
 20
5
 10
39.7465
 20
4.89012
 10
39.7362
 20
4.78067
 10
39.719
 20
4.67208
 10
39.695
 20
4.56479
 10
39.6643
 20
4.45922
 10
39.6271
 20
4.35578
 10
39.5834
 20
4.25489
 10
39.5335
 20
4.15693
 10
39.4776
 20
4.0623
 10
39.4158
 20
3.97138
 10
39.3484
 20
3.88451
 10
39.2757
 20
3.80204
 10
39.198
 20
3.7243
 10
39.1155
 20
3.6516
 10
39.0286
 20
3.58422
 10
38.9377
 20
3.52243
 10
38.8431
 20
3.46646
 10
38.7451
 20
3.41655
 10
38.6442
 20
3.37289
 10
38.5408
 20
3.33565
 10
38.4352
 20
3.30498
 10
38.3279
 20
3.281
 10
38.2193
 20
3.2638
 10
38.1099
 20
3.25345
 10
38
 20
3.25
  0
LWPOLYLINE
100
AcDbEntity
  8
0
100
AcDbPolyline
 90
100
 70
1
 10
46.343
 20
1.50493
 10
46.1867
 20
1.51971
 10
46.0315
 20
1.54428
 10
45.8783
 20
1.57854
 10
45.7275
 20
1.62236
 10
45.5797
 20
1.67556
 10
45.4356
 20
1.73793
 10
45.2956
 20
1.80923
 10
45.1604
 20
1.88918
 10
45.0305
 20
1.97746
 10
44.9064
 20
2.07372
 10
44.7886
 20
2.17758
 10
44.6776
 20
2.28863
 10
44.5737
 20
2.40644
 10
44.4775
 20
2.53054
 10
44.3892
 20
2.66043
 10
44.3092
 20
2.79562
 10
44.2379
 20
2.93555
 10
44.1756
 20
3.07969
 10
44.1224
 20
3.22746
 10
44.0785
 20
3.37828
 10
44.0443
 20
3.53155
 10
44.0197
 20
3.68667
 10
44.0049
 20
3.84302
 10
44
 20
4
 10
44.0049
 20
4.15698
 10
44.0197
 20
4.31333
 10
44.0443
 20
4.46845
 10
44.0785
 20
4.62172
 10
44.1224
 20
4.77254
 10
44.1756
 20
4.92031
 10
44.2379
 20
5.06445
 10
44.3092
 20
5.20438
 10
44.3892
 20
5.33957
 10
44.4775
 20
5.46946
 10
44.5737
 20
5.59356
 10
44.6776
 20
5.71137
 10
44.7886
 20
5.82242
 10
44.9064
 20
5.92628
 10
45.0305
 20
6.02254
 10
45.1604
 20
6.11082
 10
45.2956
 20
6.19077
 10
45.4356
 20
6.26207
 10
45.5797
 20
6.32444
 10
45.7275
 20
6.37764
 10
45.8783
 20
6.42146
 10
46.0315
 20
6.45572
 10
46.1867
 20
6.48029
 10
46.343
 20
6.49507
 10
46.5
 20
6.5
 10
46.657
 20
6.49507
 10
46.8133
 20
6.48029
 10
46.9685
 20
6.45572
 10
47.1217
 20
6.42146
 10
47.2725
 20
6.37764
 10
47.4203
 20
6.32444
 10
47.5644
 20
6.26207
 10
47.7044
 20
6.19077
 10
47.8396
 20
6.11082
 10
47.9695
 20
6.02254
 10
48.0936
 20
5.92628
 10
48.2114
 20
5.82242
 10
48.3224
 20
5.71137
 10
48.4263
 20
5.59356
 10
48.5225
 20
5.46946
 10
48.6108
 20
5.33957
 10
48.6908
 20
5.20438
 10
48.7621
 20
5.06445
 10
48.8244
 20
4.92031
 10
48.8776
 20
4.77254
 10
48.9215
 20
4.62172
 10
48.9557
 20
4.46845
 10
48.9803
 20
4.31333
 10
48.9951
 20
4.15698
 10
49
 20
4
 10
48.9951
 20
3.84302
 10
48.9803
 20
3.68667
 10
48.9557
 20
3.53155
 10
48.9215
 20
3.37828
 10
48.8776
 20
3.22746
 10
48.8244
 20
3.07969
 10
48.7621
 20
2.93555
 10
48.6908
 20
2.79562
 10
48.6108
 20
2.66043
 10
48.5225
 20
2.53054
 10
48.4263
 20
2.40644
 10
48.3224
 20
2.28863
 10
48.2114
 20
2.17758
 10
48.0936
 20
2.07372
 10
47.9695
 20
1.97746
 10
47.8396
 20
1.88918
 10
47.7044
 20
1.80923
 10
47.5644
 20
1.73793
 10
47.4203
 20
1.67556
 10
47.2725
 20
1.62236
 10
47.1217
 20
1.57854
 10
46.9685
 20
1.54428
 10
46.8133
 20
1.51971
 10
46.657
 20
1.50493
 10
46.5
 20
1.5
  0
LWPOLYLINE
100
AcDbEntity
  8
0
100
AcDbPolyline
 90
66
 70
1
 10
109
 20
7.5
 10
103.5
 20
7.5
 10
103.5
 20
25.5
 10
109
 20
25.5
 10
109
 20
33
 10
116
 20
33
 10
116
 20
37
 10
109
 20
37
 10
109
 20
44.5
 10
103.5
 20
44.5
 10
103.5
 20
62.5
 10
109
 20
62.5
 10
109
 20
70
 10
65
 20
70
 10
64.686
 20
69.9901
 10
64.3733
 20
69.9606
 10
64.0631
 20
69.9114
 10
63.7566
 20
69.8429
 10
63.4549
 20
69.7553
 10
63.1594
 20
69.6489
 10
62.8711
 20
69.5241
 10
62.5912
 20
69.3815
 10
62.3209
 20
69.2216
 10
62.0611
 20
69.0451
 10
61.8129
 20
68.8526
 10
61.5773
 20
68.6448
 10
61.3552
 20
68.4227
 10
61.1474
 20
68.1871
 10
60.9549
 20
67.9389
 10
60.7784
 20
67.6791
 10
60.6185
 20
67.4088
 10
60.4759
 20
67.1289
 10
60.3511
 20
66.8406
 10
60.2447
 20
66.5451
 10
60.1571
 20
66.2434
 10
60.0886
 20
65.9369
 10
60.0394
 20
65.6267
 10
60.0099
 20
65.314
 10
60
 20
65
 10
60
 20
5
 10
60.0099
 20
4.68605
 10
60.0394
 20
4.37333
 10
60.0886
 20
4.06309
 10
60.1571
 20
3.75655
 10
60.2447
 20
3.45492
 10
60.3511
 20
3.15938
 10
60.4759
 20
2.8711
 10
60.6185
 20
2.59123
 10
60.7784
 20
2.32087
 10
60.9549
 20
2.06107
 10
61.1474
 20
1.81288
 10
61.3552
 20
1.57726
 10
61.5773
 20
1.35516
 10
61.8129
 20
1.14743
 10
62.0611
 20
0.954915
 10
62.3209
 20
0.77836
 10
62.5912
 20
0.618467
 10
62.8711
 20
0.475865
 10
63.1594
 20
0.351118
 10
63.4549
 20
0.244717
 10
63.7566
 20
0.157084
 10
64.0631
 20
0.0885637
 10
64.3733
 20
0.0394265
 10
64.686
 20
0.00986636
 10
65
 20
0
 10
109
 20
0
  0
LWPOLYLINE
100
AcDbEntity
  8
0
100
AcDbPolyline
 90
104
 70
1
 10
75.25
 20
45
 10
75.1872
 20
45.002
 10
75.1247
 20
45.0079
 10
75.0626
 20
45.0177
 10
75.0013
 20
45.0314
 10
74.941
 20
45.0489
 10
74.8819
 20
45.0702
 10
74.8242
 20
45.0952
 10
74.7682
 20
45.1237
 10
74.7142
 20
45.1557
 10
74.6622
 20
45.191
 10
74.6126
 20
45.2295
 10
74.5655
 20
45.271
 10
74.521
 20
45.3155
 10
74.4795
 20
45.3626
 10
74.441
 20
45.4122
 10
74.4057
 20
45.4642
 10
74.3737
 20
45.5182
 10
74.3452
 20
45.5742
 10
74.3202
 20
45.6319
 10
74.2989
 20
45.691
 10
74.2814
 20
45.7513
 10
74.2677
 20
45.8126
 10
74.2579
 20
45.8747
 10
74.252
 20
45.9372
 10
74.25
 20
46
 10
74.25
 20
66
 10
74.252
 20
66.0628
 10
74.2579
 20
66.1253
 10
74.2677
 20
66.1874
 10
74.2814
 20
66.2487
 10
74.2989
 20
66.309
 10
74.3202
 20
66.3681
 10
74.3452
 20
66.4258
 10
74.3737
 20
66.4818
 10
74.4057
 20
66.5358
 10
74.441
 20
66.5878
 10
74.4795
 20
66.6374
 10
74.521
 20
66.6845
 10
74.5655
 20
66.729
 10
74.6126
 20
66.7705
 10
74.6622
 20
66.809
 10
74.7142
 20
66.8443
 10
74.7682
 20
66.8763
 10
74.8242
 20
66.9048
 10
74.8819
 20
66.9298
 10
74.941
 20
66.9511
 10
75.0013
 20
66.9686
 10
75.0626
 20
66.9823
 10
75.1247
 20
66.9921
 10
75.1872
 20
66.998
 10
75.25
 20
67
 10
76.25
 20
67
 10
76.3128
 20
66.998
 10
76.3753
 20
66.9921
 10
76.4374
 20
66.9823
 10
76.4987
 20
66.9686
 10
76.559
 20
66.9511
 10
76.6181
 20
66.9298
 10
76.6758
 20
66.9048
 10
76.7318
 20
66.8763
 10
76.7858
 20
66.8443
 10
76.8378
 20
66.809
 10
76.8874
 20
66.7705
 10
76.9345
 20
66.729
 10
76.979
 20
66.6845
 10
77.0205
 20
66.6374
 10
77.059
 20
66.5878
 10
77.0943
 20
66.5358
 10
77.1263
 20
66.4818
 10
77.1548
 20
66.4258
 10
77.1798
 20
66.3681
 10
77.2011
 20
66.309
 10
77.2186
 20
66.2487
 10
77.2323
 20
66.1874
 10
77.2421
 20
66.1253
 10
77.248
 20
66.0628
 10
77.25
 20
66
 10
77.25
 20
46
 10
77.248
 20
45.9372
 10
77.2421
 20
45.8747
 10
77.2323
 20
45.8126
 10
77.2186
 20
45.7513
 10
77.2011
 20
45.691
 10
77.1798
 20
45.6319
 10
77.1548
 20
45.5742
 10
77.1263
 20
45.5182
 10
77.0943
 20
45.4642
 10
77.059
 20
45.4122
 10
77.0205
 20
45.3626
 10
76.979
 20
45.3155
 10
76.9345
 20
45.271
 10
76.8874
 20
45.2295
 10
76.8378
 20
45.191
 10
76.7858
 20
45.1557
 10
76.7318
 20
45.1237
 10
76.6758
 20
45.0952
 10
76.6181
 20
45.0702
 10
76.559
 20
45.0489
 10
76.4987
 20
45.0314
 10
76.4374
 20
45.0177
 10
76.3753
 20
45.0079
 10
76.3128
 20
45.002
 10
76.25
 20
45
  0
LWPOLYLINE
100
AcDbEntity
  8
0
100
AcDbPolyline
 90
100
 70
1
 10
64.8901
 20
63.2535
 10
64.7807
 20
63.2638
 10
64.6721
 20
63.281
 10
64.5648
 20
63.305
 10
64.4592
 20
63.3357
 10
64.3558
 20
63.3729
 10
64.2549
 20
63.4166
 10
64.1569
 20
63.4665
 10
64.0623
 20
63.5224
 10
63.9714
 20
63.5842
 10
63.8845
 20
63.6516
 10
63.802
 20
63.7243
 10
63.7243
 20
63.802
 10
63.6516
 20
63.8845
 10
63.5842
 20
63.9714
 10
63.5224
 20
64.0623
 10
63.4665
 20
64.1569
 10
63.4166
 20
64.2549
 10
63.3729
 20
64.3558
 10
63.3357
 20
64.4592
 10
63.305
 20
64.5648
 10
63.281
 20
64.6721
 10
63.2638
 20
64.7807
 10
63.2535
 20
64.8901
 10
63.25
 20
65
 10
63.2535
 20
65.1099
 10
63.2638
 20
65.2193
 10
63.281
 20
65.3279
 10
63.305
 20
65.4352
 10
63.3357
 20
65.5408
 10
63.3729
 20
65.6442
 10
63.4166
 20
65.7451
 10
63.4665
 20
65.8431
 10
63.5224
 20
65.9377
 10
63.5842
 20
66.0286
 10
63.6516
 20
66.1155
 10
63.7243
 20
66.198
 10
63.802
 20
66.2757
 10
63.8845
 20
66.3484
 10
63.9714
 20
66.4158
 10
64.0623
 20
66.4776
 10
64.1569
 20
66.5335
 10
64.2549
 20
66.5834
 10
64.3558
 20
66.6271
 10
64.4592
 20
66.6643
 10
64.5648
 20
66.695
 10
64.6721
 20
66.719
 10
64.7807
 20
66.7362
 10
64.8901
 20
66.7465
 10
65
 20
66.75
 10
65.1099
 20
66.7465
 10
65.2193
 20
66.7362
 10
65.3279
 20
66.719
 10
65.4352
 20
66.695
 10
65.5408
 20
66.6643
 10
65.6442
 20
66.6271
 10
65.7451
 20
66.5834
 10
65.8431
 20
66.5335
 10
65.9377
 20
66.4776
 10
66.0286
 20
66.4158
 10
66.1155
 20
66.3484
 10
66.198
 20
66.2757
 10
66.2757
 20
66.198
 10
66.3484
 20
66.1155
 10
66.4158
 20
66.0286
 10
66.4776
 20
65.9377
 10
66.5335
 20
65.8431
 10
66.5834
 20
65.7451
 10
66.6271
 20
65.6442
 10
66.6643
 20
65.5408
 10
66.695
 20
65.4352
 10
66.719
 20
65.3279
 10
66.7362
 20
65.2193
 10
66.7465
 20
65.1099
 10
66.75
 20
65
 10
66.7465
 20
64.8901
 10
66.7362
 20
64.7807
 10
66.719
 20
64.6721
 10
66.695
 20
64.5648
 10
66.6643
 20
64.4592
 10
66.6271
 20
64.3558
 10
66.5834
 20
64.2549
 10
66.5335
 20
64.1569
 10
66.4776
 20
64.0623
 10
66.4158
 20
63.9714
 10
66.3484
 20
63.8845
 10
66.2757
 20
63.802
 10
66.198
 20
63.7243
 10
66.1155
 20
63.6516
 10
66.0286
 20
63.5842
 10
65.9377
 20
63.5224
 10
65.8431
 20
63.4665
 10
65.7451
 20
63.4166
 10
65.6442
 20
63.3729
 10
65.5408
 20
63.3357
 10
65.4352
 20
63.305
 10
65.3279
 20
63.281
 10
65.2193
 20
63.2638
 10
65.1099
 20
63.2535
 10
65
 20
63.25
  0
LWPOLYLINE
100
AcDbEntity
  8
0
100
AcDbPolyline
 90
100
 70
1
 10
97.8901
 20
63.2535
 10
97.7807
 20
63.2638
 10
97.6721
 20
63.281
 10
97.5648
 20
63.305
 10
97.4592
 20
63.3357
 10
97.3558
 20
63.3729
 10
97.2549
 20
63.4166
 10
97.1569
 20
63.4665
 10
97.0623
 20
63.5224
 10
96.9714
 20
63.5842
 10
96.8845
 20
63.6516
 10
96.802
 20
63.7243
 10
96.7243
 20
63.802
 10
96.6516
 20
63.8845
 10
96.5842
 20
63.9714
 10
96.5224
 20
64.0623
 10
96.4665
 20
64.1569
 10
96.4166
 20
64.2549
 10
96.3729
 20
64.3558
 10
96.3357
 20
64.4592
 10
96.305
 20
64.5648
 10
96.281
 20
64.6721
 10
96.2638
 20
64.7807
 10
96.2535
 20
64.8901
 10
96.25
 20
65
 10
96.2535
 20
65.1099
 10
96.2638
 20
65.2193
 10
96.281
 20
65.3279
 10
96.305
 20
65.4352
 10
96.3357
 20
65.5408
 10
96.3729
 20
65.6442
 10
96.4166
 20
65.7451
 10
96.4665
 20
65.8431
 10
96.5224
 20
65.9377
 10
96.5842
 20
66.0286
 10
96.6516
 20
66.1155
 10
96.7243
 20
66.198
 10
96.802
 20
66.2757
 10
96.8845
 20
66.3484
 10
96.9714
 20
66.4158
 10
97.0623
 20
66.4776
 10
97.1569
 20
66.5335
 10
97.2549
 20
66.5834
 10
97.3558
 20
66.6271
 10
97.4592
 20
66.6643
 10
97.5648
 20
66.695
 10
97.6721
 20
66.719
 10
97.7807
 20
66.7362
 10
97.8901
 20
66.7465
 10
98
 20
66.75
 10
98.1099
 20
66.7465
 10
98.2193
 20
66.7362
 10
98.3279
 20
66.719
 10
98.4352
 20
66.695
 10
98.5408
 20
66.6643
 10
98.6442
 20
66.6271
 10
98.7451
 20
66.5834
 10
98.8431
 20
66.5335
 10
98.9377
 20
66.4776
 10
99.0286
 20
66.4158
 10
99.1155
 20
66.3484
 10
99.198
 20
66.2757
 10
99.2757
 20
66.198
 10
99.3484
 20
66.1155
 10
99.4158
 20
66.0286
 10
99.4776
 20
65.9377
 10
99.5335
 20
65.8431
 10
99.5834
 20
65.7451
 10
99.6271
 20
65.6442
 10
99.6643
 20
65.5408
 10
99.695
 20
65.4352
 10
99.719
 20
65.3279
 10
99.7362
 20
65.2193
 10
99.7465
 20
65.1099
 10
99.75
 20
65
 10
99.7465
 20
64.8901
 10
99.7362
 20
64.7807
 10
99.719
 20
64.6721
 10
99.695
 20
64.5648
 10
99.6643
 20
64.4592
 10
99.6271
 20
64.3558
 10
99.5834
 20
64.2549
 10
99.5335
 20
64.1569
 10
99.4776
 20
64.0623
 10
99.4158
 20
63.9714
 10
99.3484
 20
63.8845
 10
99.2757
 20
63.802
 10
99.198
 20
63.7243
 10
99.1155
 20
63.6516
 10
99.0286
 20
63.5842
 10
98.9377
 20
63.5224
 10
98.8431
 20
63.4665
 10
98.7451
 20
63.4166
 10
98.6442
 20
63.3729
 10
98.5408
 20
63.3357
 10
98.4352
 20
63.305
 10
98.3279
 20
63.281
 10
98.2193
 20
63.2638
 10
98.1099
 20
63.2535
 10
98
 20
63.25
  0
LWPOLYLINE
100
AcDbEntity
  8
0
100
AcDbPolyline
 90
100
 70
1
 10
65.8744
 20
50.0039
 10
65.7493
 20
50.0158
 10
65.6252
 20
50.0354
 10
65.5026
 20
50.0628
 10
65.382
 20
50.0979
 10
65.2638
 20
50.1404
 10
65.1484
 20
50.1903
 10
65.0365
 20
50.2474
 10
64.9283
 20
50.3113
 10
64.8244
 20
50.382
 10
64.7252
 20
50.459
 10
64.6309
 20
50.5421
 10
64.5421
 20
50.6309
 10
64.459
 20
50.7252
 10
64.382
 20
50.8244
 10
64.3113
 20
50.9283
 10
64.2474
 20
51.0365
 10
64.1903
 20
51.1484
 10
64.1404
 20
51.2638
 10
64.0979
 20
51.382
 10
64.0628
 20
51.5026
 10
64.0354
 20
51.6252
 10
64.0158
 20
51.7493
 10
64.0039
 20
51.8744
 10
64
 20
52
 10
64.0039
 20
52.1256
 10
64.0158
 20
52.2507
 10
64.0354
 20
52.3748
 10
64.0628
 20
52.4974
 10
64.0979
 20
52.618
 10
64.1404
 20
52.7362
 10
64.1903
 20
52.8516
 10
64.2474
 20
52.9635
 10
64.3113
 20
53.0717
 10
64.382
 20
53.1756
 10
64.459
 20
53.2748
 10
64.5421
 20
53.3691
 10
64.6309
 20
53.4579
 10
64.7252
 20
53.541
 10
64.8244
 20
53.618
 10
64.9283
 20
53.6887
 10
65.0365
 20
53.7526
 10
65.1484
 20
53.8097
 10
65.2638
 20
53.8596
 10
65.382
 20
53.9021
 10
65.5026
 20
53.9372
 10
65.6252
 20
53.9646
 10
65.7493
 20
53.9842
 10
65.8744
 20
53.9961
 10
66
 20
54
 10
66.1256
 20
53.9961
 10
66.2507
 20
53.9842
 10
66.3748
 20
53.9646
 10
66.4974
 20
53.9372
 10
66.618
 20
53.9021
 10
66.7362
 20
53.8596
 10
66.8516
 20
53.8097
 10
66.9635
 20
53.7526
 10
67.0717
 20
53.6887
 10
67.1756
 20
53.618
 10
67.2748
 20
53.541
 10
67.3691
 20
53.4579
 10
67.4579
 20
53.3691
 10
67.541
 20
53.2748
 10
67.618
 20
53.1756
 10
67.6887
 20
53.0717
 10
67.7526
 20
52.9635
 10
67.8097
 20
52.8516
 10
67.8596
 20
52.7362
 10
67.9021
 20
52.618
 10
67.9372
 20
52.4974
 10
67.9646
 20
52.3748
 10
67.9842
 20
52.2507
 10
67.9961
 20
52.1256
 10
68
 20
52
 10
67.9961
 20
51.8744
 10
67.9842
 20
51.7493
 10
67.9646
 20
51.6252
 10
67.9372
 20
51.5026
 10
67.9021
 20
51.382
 10
67.8596
 20
51.2638
 10
67.8097
 20
51.1484
 10
67.7526
 20
51.0365
 10
67.6887
 20
50.9283
 10
67.618
 20
50.8244
 10
67.541
 20
50.7252
 10
67.4579
 20
50.6309
 10
67.3691
 20
50.5421
 10
67.2748
 20
50.459
 10
67.1756
 20
50.382
 10
67.0717
 20
50.3113
 10
66.9635
 20
50.2474
 10
66.8516
 20
50.1903
 10
66.7362
 20
50.1404
 10
66.618
 20
50.0979
 10
66.4974
 20
50.0628
 10
66.3748
 20
50.0354
 10
66.2507
 20
50.0158
 10
66.1256
 20
50.0039
 10
66
 20
50
  0
LWPOLYLINE
100
AcDbEntity
  8
0
100
AcDbPolyline
 90
100
 70
1
 10
64.8901
 20
3.25345
 10
64.7807
 20
3.2638
 10
64.6721
 20
3.281
 10
64.5648
 20
3.30498
 10
64.4592
 20
3.33565
 10
64.3558
 20
3.37289
 10
64.2549
 20
3.41655
 10
64.1569
 20
3.46646
 10
64.0623
 20
3.52243
 10
63.9714
 20
3.58422
 10
63.8845
 20
3.6516
 10
63.802
 20
3.7243
 10
63.7243
 20
3.80204
 10
63.6516
 20
3.88451
 10
63.5842
 20
3.97138
 10
63.5224
 20
4.0623
 10
63.4665
 20
4.15693
 10
63.4166
 20
4.25489
 10
63.3729
 20
4.35578
 10
63.3357
 20
4.45922
 10
63.305
 20
4.56479
 10
63.281
 20
4.67208
 10
63.2638
 20
4.78067
 10
63.2535
 20
4.89012
 10
63.25
 20
5
 10
63.2535
 20
5.10988
 10
63.2638
 20
5.21933
 10
63.281
 20
5.32792
 10
63.305
 20
5.43521
 10
63.3357
 20
5.54078
 10
63.3729
 20
5.64422
 10
63.4166
 20
5.74511
 10
63.4665
 20
5.84307
 10
63.5224
 20
5.9377
 10
63.5842
 20
6.02862
 10
63.6516
 20
6.11549
 10
63.7243
 20
6.19796
 10
63.802
 20
6.2757
 10
63.8845
 20
6.3484
 10
63.9714
 20
6.41578
 10
64.0623
 20
6.47757
 10
64.1569
 20
6.53354
 10
64.2549
 20
6.58345
 10
64.3558
 20
6.62711
 10
64.4592
 20
6.66435
 10
64.5648
 20
6.69502
 10
64.6721
 20
6.719
 10
64.7807
 20
6.7362
 10
64.8901
 20
6.74655
 10
65
 20
6.75
 10
65.1099
 20
6.74655
 10
65.2193
 20
6.7362
 10
65.3279
 20
6.719
 10
65.4352
 20
6.69502
 10
65.5408
 20
6.66435
 10
65.6442
 20
6.62711
 10
65.7451
 20
6.58345
 10
65.8431
 20
6.53354
 10
65.9377
 20
6.47757
 10
66.0286
 20
6.41578
 10
66.1155
 20
6.3484
 10
66.198
 20
6.2757
 10
66.2757
 20
6.19796
 10
66.3484
 20
6.11549
 10
66.4158
 20
6.02862
 10
66.4776
 20
5.9377
 10
66.5335
 20
5.84307
 10
66.5834
 20
5.74511
 10
66.6271
 20
5.64422
 10
66.6643
 20
5.54078
 10
66.695
 20
5.43521
 10
66.719
 20
5.32792
 10
66.7362
 20
5.21933
 10
66.7465
 20
5.10988
 10
66.75
 20
5
 10
66.7465
 20
4.89012
 10
66.7362
 20
4.78067
 10
66.719
 20
4.67208
 10
66.695
 20
4.56479
 10
66.6643
 20
4.45922
 10
66.6271
 20
4.35578
 10
66.5834
 20
4.25489
 10
66.5335
 20
4.15693
 10
66.4776
 20
4.0623
 10
66.4158
 20
3.97138
 10
66.3484
 20
3.88451
 10
66.2757
 20
3.80204
 10
66.198
 20
3.7243
 10
66.1155
 20
3.6516
 10
66.0286
 20
3.58422
 10
65.9377
 20
3.52243
 10
65.8431
 20
3.46646
 10
65.7451
 20
3.41655
 10
65.6442
 20
3.37289
 10
65.5408
 20
3.33565
 10
65.4352
 20
3.30498
 10
65.3279
 20
3.281
 10
65.2193
 20
3.2638
 10
65.1099
 20
3.25345
 10
65
 20
3.25
  0
LWPOLYLINE
100
AcDbEntity
  8
0
100
AcDbPolyline
 90
100
 70
1
 10
97.8901
 20
3.25345
 10
97.7807
 20
3.2638
 10
97.6721
 20
3.281
 10
97.5648
 20
3.30498
 10
97.4592
 20
3.33565
 10
97.3558
 20
3.37289
 10
97.2549
 20
3.41655
 10
97.1569
 20
3.46646
 10
97.0623
 20
3.52243
 10
96.9714
 20
3.58422
 10
96.8845
 20
3.6516
 10
96.802
 20
3.7243
 10
96.7243
 20
3.80204
 10
96.6516
 20
3.88451
 10
96.5842
 20
3.97138
 10
96.5224
 20
4.0623
 10
96.4665
 20
4.15693
 10
96.4166
 20
4.25489
 10
96.3729
 20
4.35578
 10
96.3357
 20
4.45922
 10
96.305
 20
4.56479
 10
96.281
 20
4.67208
 10
96.2638
 20
4.78067
 10
96.2535
 20
4.89012
 10
96.25
 20
5
 10
96.2535
 20
5.10988
 10
96.2638
 20
5.21933
 10
96.281
 20
5.32792
 10
96.305
 20
5.43521
 10
96.3357
 20
5.54078
 10
96.3729
 20
5.64422
 10
96.4166
 20
5.74511
 10
96.4665
 20
5.84307
 10
96.5224
 20
5.9377
 10
96.5842
 20
6.02862
 10
96.6516
 20
6.11549
 10
96.7243
 20
6.19796
 10
96.802
 20
6.2757
 10
96.8845
 20
6.3484
 10
96.9714
 20
6.41578
 10
97.0623
 20
6.47757
 10
97.1569
 20
6.53354
 10
97.2549
 20
6.58345
 10
97.3558
 20
6.62711
 10
97.4592
 20
6.66435
 10
97.5648
 20
6.69502
 10
97.6721
 20
6.719
 10
97.7807
 20
6.7362
 10
97.8901
 20
6.74655
 10
98
 20
6.75
 10
98.1099
 20
6.74655
 10
98.2193
 20
6.7362
 10
98.3279
 20
6.719
 10
98.4352
 20
6.69502
 10
98.5408
 20
6.66435
 10
98.6442
 20
6.62711
 10
98.7451
 20
6.58345
 10
98.8431
 20
6.53354
 10
98.9377
 20
6.47757
 10
99.0286
 20
6.41578
 10
99.1155
 20
6.3484
 10
99.198
 20
6.2757
 10
99.2757
 20
6.19796
 10
99.3484
 20
6.11549
 10
99.4158
 20
6.02862
 10
99.4776
 20
5.9377
 10
99.5335
 20
5.84307
 10
99.5834
 20
5.74511
 10
99.6271
 20
5.64422
 10
99.6643
 20
5.54078
 10
99.695
 20
5.43521
 10
99.719
 20
5.32792
 10
99.7362
 20
5.21933
 10
99.7465
 20
5.10988
 10
99.75
 20
5
 10
99.7465
 20
4.89012
 10
99.7362
 20
4.78067
 10
99.719
 20
4.67208
 10
99.695
 20
4.56479
 10
99.6643
 20
4.45922
 10
99.6271
 20
4.35578
 10
99.5834
 20
4.25489
 10
99.5335
 20
4.15693
 10
99.4776
 20
4.0623
 10
99.4158
 20
3.97138
 10
99.3484
 20
3.88451
 10
99.2757
 20
3.80204
 10
99.198
 20
3.7243
 10
99.1155
 20
3.6516
 10
99.0286
 20
3.58422
 10
98.9377
 20
3.52243
 10
98.8431
 20
3.46646
 10
98.7451
 20
3.41655
 10
98.6442
 20
3.37289
 10
98.5408
 20
3.33565
 10
98.4352
 20
3.30498
 10
98.3279
 20
3.281
 10
98.2193
 20
3.2638
 10
98.1099
 20
3.25345
 10
98
 20
3.25
  0
ENDSEC
  0
EOF
