G04 #@! TF.GenerationSoftware,KiCad,Pcbnew,8.0.5*
G04 #@! TF.CreationDate,2024-10-15T19:31:52+02:00*
G04 #@! TF.ProjectId,CANbardo,43414e62-6172-4646-9f2e-6b696361645f,Rev1*
G04 #@! TF.SameCoordinates,Original*
G04 #@! TF.FileFunction,Legend,Top*
G04 #@! TF.FilePolarity,Positive*
%FSLAX46Y46*%
G04 Gerber Fmt 4.6, Leading zero omitted, Abs format (unit mm)*
G04 Created by KiCad (PCBNEW 8.0.5) date 2024-10-15 19:31:52*
%MOMM*%
%LPD*%
G01*
G04 APERTURE LIST*
G04 Aperture macros list*
%AMRoundRect*
0 Rectangle with rounded corners*
0 $1 Rounding radius*
0 $2 $3 $4 $5 $6 $7 $8 $9 X,Y pos of 4 corners*
0 Add a 4 corners polygon primitive as box body*
4,1,4,$2,$3,$4,$5,$6,$7,$8,$9,$2,$3,0*
0 Add four circle primitives for the rounded corners*
1,1,$1+$1,$2,$3*
1,1,$1+$1,$4,$5*
1,1,$1+$1,$6,$7*
1,1,$1+$1,$8,$9*
0 Add four rect primitives between the rounded corners*
20,1,$1+$1,$2,$3,$4,$5,0*
20,1,$1+$1,$4,$5,$6,$7,0*
20,1,$1+$1,$6,$7,$8,$9,0*
20,1,$1+$1,$8,$9,$2,$3,0*%
%AMFreePoly0*
4,1,6,1.000000,0.000000,0.500000,-0.750000,-0.500000,-0.750000,-0.500000,0.750000,0.500000,0.750000,1.000000,0.000000,1.000000,0.000000,$1*%
G04 Aperture macros list end*
%ADD10C,0.200000*%
%ADD11C,0.150000*%
%ADD12C,0.300000*%
%ADD13C,0.120000*%
%ADD14C,0.000000*%
%ADD15C,0.152400*%
%ADD16C,0.254000*%
%ADD17C,0.010000*%
%ADD18RoundRect,0.225000X-0.250000X0.225000X-0.250000X-0.225000X0.250000X-0.225000X0.250000X0.225000X0*%
%ADD19RoundRect,0.200000X-0.275000X0.200000X-0.275000X-0.200000X0.275000X-0.200000X0.275000X0.200000X0*%
%ADD20RoundRect,0.175000X-0.475000X-0.175000X0.475000X-0.175000X0.475000X0.175000X-0.475000X0.175000X0*%
%ADD21RoundRect,0.200000X0.275000X-0.200000X0.275000X0.200000X-0.275000X0.200000X-0.275000X-0.200000X0*%
%ADD22RoundRect,0.225000X0.225000X0.250000X-0.225000X0.250000X-0.225000X-0.250000X0.225000X-0.250000X0*%
%ADD23RoundRect,0.250000X0.250000X0.475000X-0.250000X0.475000X-0.250000X-0.475000X0.250000X-0.475000X0*%
%ADD24RoundRect,0.200000X0.200000X0.275000X-0.200000X0.275000X-0.200000X-0.275000X0.200000X-0.275000X0*%
%ADD25RoundRect,0.218750X-0.218750X-0.256250X0.218750X-0.256250X0.218750X0.256250X-0.218750X0.256250X0*%
%ADD26RoundRect,0.250000X-0.475000X0.250000X-0.475000X-0.250000X0.475000X-0.250000X0.475000X0.250000X0*%
%ADD27RoundRect,0.218750X0.256250X-0.218750X0.256250X0.218750X-0.256250X0.218750X-0.256250X-0.218750X0*%
%ADD28RoundRect,0.200000X-0.200000X-0.275000X0.200000X-0.275000X0.200000X0.275000X-0.200000X0.275000X0*%
%ADD29RoundRect,0.225000X-0.225000X-0.250000X0.225000X-0.250000X0.225000X0.250000X-0.225000X0.250000X0*%
%ADD30RoundRect,0.150000X-0.512500X-0.150000X0.512500X-0.150000X0.512500X0.150000X-0.512500X0.150000X0*%
%ADD31RoundRect,0.150000X-0.587500X-0.150000X0.587500X-0.150000X0.587500X0.150000X-0.587500X0.150000X0*%
%ADD32RoundRect,0.218750X-0.256250X0.218750X-0.256250X-0.218750X0.256250X-0.218750X0.256250X0.218750X0*%
%ADD33RoundRect,0.150000X0.587500X0.150000X-0.587500X0.150000X-0.587500X-0.150000X0.587500X-0.150000X0*%
%ADD34C,3.500000*%
%ADD35RoundRect,0.225000X0.250000X-0.225000X0.250000X0.225000X-0.250000X0.225000X-0.250000X-0.225000X0*%
%ADD36C,2.000000*%
%ADD37C,3.810000*%
%ADD38RoundRect,0.218750X0.218750X0.256250X-0.218750X0.256250X-0.218750X-0.256250X0.218750X-0.256250X0*%
%ADD39C,0.650000*%
%ADD40RoundRect,0.150000X-0.425000X0.150000X-0.425000X-0.150000X0.425000X-0.150000X0.425000X0.150000X0*%
%ADD41RoundRect,0.075000X-0.500000X0.075000X-0.500000X-0.075000X0.500000X-0.075000X0.500000X0.075000X0*%
%ADD42O,2.100000X1.000000*%
%ADD43O,1.800000X1.000000*%
%ADD44R,1.400000X2.100000*%
%ADD45R,1.500000X1.500000*%
%ADD46FreePoly0,270.000000*%
%ADD47FreePoly0,90.000000*%
%ADD48R,1.700000X1.700000*%
%ADD49O,1.700000X1.700000*%
%ADD50R,2.100000X1.800000*%
%ADD51RoundRect,0.150000X-0.825000X-0.150000X0.825000X-0.150000X0.825000X0.150000X-0.825000X0.150000X0*%
%ADD52RoundRect,0.075000X0.075000X-0.725000X0.075000X0.725000X-0.075000X0.725000X-0.075000X-0.725000X0*%
%ADD53RoundRect,0.075000X0.725000X-0.075000X0.725000X0.075000X-0.725000X0.075000X-0.725000X-0.075000X0*%
%ADD54RoundRect,0.175000X-0.325000X0.175000X-0.325000X-0.175000X0.325000X-0.175000X0.325000X0.175000X0*%
%ADD55RoundRect,0.150000X-0.150000X0.200000X-0.150000X-0.200000X0.150000X-0.200000X0.150000X0.200000X0*%
G04 APERTURE END LIST*
D10*
G36*
X96196605Y-26402240D02*
G01*
X96263678Y-26469313D01*
X96299130Y-26540218D01*
X96341101Y-26708099D01*
X96341101Y-26826337D01*
X96299130Y-26994218D01*
X96263677Y-27065124D01*
X96196606Y-27132197D01*
X96091541Y-27167219D01*
X95969673Y-27167219D01*
X95969673Y-26367219D01*
X96091541Y-26367219D01*
X96196605Y-26402240D01*
G37*
G36*
X95286627Y-26397024D02*
G01*
X95311296Y-26421692D01*
X95341101Y-26481302D01*
X95341101Y-26576945D01*
X95311296Y-26636554D01*
X95286627Y-26661222D01*
X95227018Y-26691028D01*
X94969673Y-26691028D01*
X94969673Y-26367219D01*
X95227018Y-26367219D01*
X95286627Y-26397024D01*
G37*
G36*
X97604568Y-27478330D02*
G01*
X94658562Y-27478330D01*
X94658562Y-26267219D01*
X94769673Y-26267219D01*
X94769673Y-27267219D01*
X94771594Y-27286728D01*
X94786526Y-27322776D01*
X94814116Y-27350366D01*
X94850164Y-27365298D01*
X94889182Y-27365298D01*
X94925230Y-27350366D01*
X94952820Y-27322776D01*
X94967752Y-27286728D01*
X94969673Y-27267219D01*
X94969673Y-26891028D01*
X95055703Y-26891028D01*
X95359178Y-27324565D01*
X95371939Y-27339446D01*
X95404844Y-27360415D01*
X95443269Y-27367196D01*
X95481363Y-27358756D01*
X95513328Y-27336381D01*
X95534297Y-27303476D01*
X95541078Y-27265052D01*
X95532638Y-27226957D01*
X95523024Y-27209873D01*
X95293056Y-26881347D01*
X95295346Y-26880471D01*
X95390584Y-26832852D01*
X95398980Y-26827566D01*
X95401420Y-26826556D01*
X95404166Y-26824302D01*
X95407174Y-26822409D01*
X95408903Y-26820414D01*
X95416574Y-26814120D01*
X95464192Y-26766501D01*
X95470484Y-26758834D01*
X95472482Y-26757102D01*
X95474375Y-26754093D01*
X95476629Y-26751348D01*
X95477639Y-26748907D01*
X95482925Y-26740511D01*
X95530544Y-26645274D01*
X95537550Y-26626965D01*
X95537804Y-26623381D01*
X95539180Y-26620061D01*
X95541101Y-26600552D01*
X95541101Y-26457695D01*
X95539180Y-26438186D01*
X95537804Y-26434865D01*
X95537550Y-26431282D01*
X95530544Y-26412973D01*
X95482925Y-26317736D01*
X95477639Y-26309339D01*
X95476629Y-26306899D01*
X95474375Y-26304153D01*
X95472482Y-26301145D01*
X95470484Y-26299412D01*
X95464192Y-26291746D01*
X95439666Y-26267219D01*
X95769673Y-26267219D01*
X95769673Y-27267219D01*
X95771594Y-27286728D01*
X95786526Y-27322776D01*
X95814116Y-27350366D01*
X95850164Y-27365298D01*
X95869673Y-27367219D01*
X96107768Y-27367219D01*
X96117641Y-27366246D01*
X96120275Y-27366434D01*
X96123738Y-27365646D01*
X96127277Y-27365298D01*
X96129719Y-27364286D01*
X96139391Y-27362087D01*
X96282247Y-27314468D01*
X96300148Y-27306477D01*
X96302863Y-27304122D01*
X96306183Y-27302747D01*
X96321336Y-27290310D01*
X96416574Y-27195071D01*
X96422866Y-27187404D01*
X96424863Y-27185673D01*
X96426756Y-27182665D01*
X96429011Y-27179918D01*
X96430022Y-27177476D01*
X96435306Y-27169082D01*
X96482925Y-27073845D01*
X96483471Y-27072416D01*
X96483901Y-27071837D01*
X96486822Y-27063660D01*
X96489931Y-27055536D01*
X96489982Y-27054815D01*
X96490496Y-27053377D01*
X96538115Y-26862901D01*
X96538615Y-26859519D01*
X96539180Y-26858156D01*
X96539903Y-26850805D01*
X96540983Y-26843508D01*
X96540765Y-26842049D01*
X96541101Y-26838647D01*
X96541101Y-26695790D01*
X96540765Y-26692387D01*
X96540983Y-26690929D01*
X96539903Y-26683631D01*
X96539180Y-26676281D01*
X96538615Y-26674917D01*
X96538115Y-26671536D01*
X96490496Y-26481060D01*
X96489982Y-26479621D01*
X96489931Y-26478901D01*
X96486822Y-26470776D01*
X96483901Y-26462600D01*
X96483471Y-26462020D01*
X96482925Y-26460592D01*
X96435306Y-26365355D01*
X96430019Y-26356956D01*
X96429010Y-26354519D01*
X96426758Y-26351775D01*
X96424863Y-26348764D01*
X96422865Y-26347031D01*
X96416574Y-26339365D01*
X96342196Y-26264987D01*
X96626841Y-26264987D01*
X96633597Y-26303416D01*
X96642450Y-26320907D01*
X96960149Y-26820148D01*
X96960149Y-27267219D01*
X96962070Y-27286728D01*
X96977002Y-27322776D01*
X97004592Y-27350366D01*
X97040640Y-27365298D01*
X97079658Y-27365298D01*
X97115706Y-27350366D01*
X97143296Y-27322776D01*
X97158228Y-27286728D01*
X97160149Y-27267219D01*
X97160149Y-26820148D01*
X97477848Y-26320906D01*
X97486701Y-26303416D01*
X97493457Y-26264987D01*
X97484993Y-26226898D01*
X97462597Y-26194947D01*
X97429679Y-26173999D01*
X97391250Y-26167244D01*
X97353161Y-26175708D01*
X97321211Y-26198104D01*
X97309116Y-26213531D01*
X97060148Y-26604765D01*
X96811182Y-26213531D01*
X96799088Y-26198104D01*
X96767137Y-26175708D01*
X96729048Y-26167244D01*
X96690619Y-26174000D01*
X96657701Y-26194947D01*
X96635305Y-26226898D01*
X96626841Y-26264987D01*
X96342196Y-26264987D01*
X96321336Y-26244127D01*
X96306182Y-26231691D01*
X96302863Y-26230316D01*
X96300148Y-26227961D01*
X96282247Y-26219970D01*
X96139391Y-26172351D01*
X96129719Y-26170151D01*
X96127277Y-26169140D01*
X96123738Y-26168791D01*
X96120275Y-26168004D01*
X96117641Y-26168191D01*
X96107768Y-26167219D01*
X95869673Y-26167219D01*
X95850164Y-26169140D01*
X95814116Y-26184072D01*
X95786526Y-26211662D01*
X95771594Y-26247710D01*
X95769673Y-26267219D01*
X95439666Y-26267219D01*
X95416574Y-26244127D01*
X95408903Y-26237832D01*
X95407174Y-26235838D01*
X95404166Y-26233944D01*
X95401420Y-26231691D01*
X95398980Y-26230680D01*
X95390584Y-26225395D01*
X95295346Y-26177776D01*
X95277038Y-26170770D01*
X95273454Y-26170515D01*
X95270134Y-26169140D01*
X95250625Y-26167219D01*
X94869673Y-26167219D01*
X94850164Y-26169140D01*
X94814116Y-26184072D01*
X94786526Y-26211662D01*
X94771594Y-26247710D01*
X94769673Y-26267219D01*
X94658562Y-26267219D01*
X94658562Y-26056108D01*
X97604568Y-26056108D01*
X97604568Y-27478330D01*
G37*
G36*
X76696605Y-51902240D02*
G01*
X76763678Y-51969313D01*
X76799130Y-52040218D01*
X76841101Y-52208099D01*
X76841101Y-52326337D01*
X76799130Y-52494218D01*
X76763677Y-52565124D01*
X76696606Y-52632197D01*
X76591541Y-52667219D01*
X76469673Y-52667219D01*
X76469673Y-51867219D01*
X76591541Y-51867219D01*
X76696605Y-51902240D01*
G37*
G36*
X79009355Y-52978330D02*
G01*
X76158562Y-52978330D01*
X76158562Y-51767219D01*
X76269673Y-51767219D01*
X76269673Y-52767219D01*
X76271594Y-52786728D01*
X76286526Y-52822776D01*
X76314116Y-52850366D01*
X76350164Y-52865298D01*
X76369673Y-52867219D01*
X76607768Y-52867219D01*
X76617641Y-52866246D01*
X76620275Y-52866434D01*
X76623738Y-52865646D01*
X76627277Y-52865298D01*
X76629719Y-52864286D01*
X76639391Y-52862087D01*
X76782247Y-52814468D01*
X76800148Y-52806477D01*
X76802863Y-52804122D01*
X76806183Y-52802747D01*
X76821336Y-52790310D01*
X76916574Y-52695071D01*
X76922866Y-52687404D01*
X76924863Y-52685673D01*
X76926756Y-52682665D01*
X76929011Y-52679918D01*
X76930022Y-52677476D01*
X76935306Y-52669082D01*
X76982925Y-52573845D01*
X76983471Y-52572416D01*
X76983901Y-52571837D01*
X76986822Y-52563660D01*
X76989931Y-52555536D01*
X76989982Y-52554815D01*
X76990496Y-52553377D01*
X77038115Y-52362901D01*
X77038615Y-52359519D01*
X77039180Y-52358156D01*
X77039903Y-52350805D01*
X77040983Y-52343508D01*
X77040765Y-52342049D01*
X77041101Y-52338647D01*
X77041101Y-52195790D01*
X77040765Y-52192387D01*
X77040983Y-52190929D01*
X77039903Y-52183631D01*
X77039180Y-52176281D01*
X77038615Y-52174917D01*
X77038115Y-52171536D01*
X76990496Y-51981060D01*
X76989982Y-51979621D01*
X76989931Y-51978901D01*
X76986822Y-51970776D01*
X76983901Y-51962600D01*
X76983471Y-51962020D01*
X76982925Y-51960592D01*
X76935306Y-51865355D01*
X76930019Y-51856956D01*
X76929010Y-51854519D01*
X76926758Y-51851775D01*
X76924863Y-51848764D01*
X76922865Y-51847031D01*
X76916574Y-51839365D01*
X76844428Y-51767219D01*
X77269673Y-51767219D01*
X77269673Y-52767219D01*
X77271594Y-52786728D01*
X77286526Y-52822776D01*
X77314116Y-52850366D01*
X77350164Y-52865298D01*
X77389182Y-52865298D01*
X77425230Y-52850366D01*
X77452820Y-52822776D01*
X77467752Y-52786728D01*
X77469673Y-52767219D01*
X77469673Y-52343409D01*
X77703006Y-52343409D01*
X77722515Y-52341488D01*
X77758563Y-52326556D01*
X77786153Y-52298966D01*
X77801085Y-52262918D01*
X77801085Y-52223900D01*
X77786153Y-52187852D01*
X77758563Y-52160262D01*
X77722515Y-52145330D01*
X77703006Y-52143409D01*
X77469673Y-52143409D01*
X77469673Y-51867219D01*
X77845863Y-51867219D01*
X77865372Y-51865298D01*
X77901420Y-51850366D01*
X77929010Y-51822776D01*
X77943942Y-51786728D01*
X77943942Y-51767219D01*
X78126816Y-51767219D01*
X78126816Y-52576742D01*
X78128737Y-52596251D01*
X78130112Y-52599571D01*
X78130367Y-52603155D01*
X78137373Y-52621463D01*
X78184992Y-52716701D01*
X78190275Y-52725093D01*
X78191287Y-52727537D01*
X78193543Y-52730286D01*
X78195435Y-52733291D01*
X78197429Y-52735020D01*
X78203724Y-52742690D01*
X78251342Y-52790310D01*
X78259010Y-52796603D01*
X78260742Y-52798600D01*
X78263750Y-52800493D01*
X78266496Y-52802747D01*
X78268936Y-52803757D01*
X78277333Y-52809043D01*
X78372570Y-52856662D01*
X78390879Y-52863668D01*
X78394462Y-52863922D01*
X78397783Y-52865298D01*
X78417292Y-52867219D01*
X78607768Y-52867219D01*
X78627277Y-52865298D01*
X78630597Y-52863922D01*
X78634181Y-52863668D01*
X78652489Y-52856662D01*
X78747727Y-52809043D01*
X78756122Y-52803758D01*
X78758564Y-52802747D01*
X78761311Y-52800491D01*
X78764317Y-52798600D01*
X78766047Y-52796605D01*
X78773717Y-52790310D01*
X78821336Y-52742690D01*
X78827628Y-52735023D01*
X78829625Y-52733292D01*
X78831518Y-52730284D01*
X78833773Y-52727537D01*
X78834784Y-52725095D01*
X78840068Y-52716701D01*
X78887687Y-52621464D01*
X78894693Y-52603155D01*
X78894947Y-52599571D01*
X78896323Y-52596251D01*
X78898244Y-52576742D01*
X78898244Y-51767219D01*
X78896323Y-51747710D01*
X78881391Y-51711662D01*
X78853801Y-51684072D01*
X78817753Y-51669140D01*
X78778735Y-51669140D01*
X78742687Y-51684072D01*
X78715097Y-51711662D01*
X78700165Y-51747710D01*
X78698244Y-51767219D01*
X78698244Y-52553135D01*
X78668439Y-52612743D01*
X78643770Y-52637413D01*
X78584161Y-52667219D01*
X78440899Y-52667219D01*
X78381289Y-52637414D01*
X78356622Y-52612746D01*
X78326816Y-52553134D01*
X78326816Y-51767219D01*
X78324895Y-51747710D01*
X78309963Y-51711662D01*
X78282373Y-51684072D01*
X78246325Y-51669140D01*
X78207307Y-51669140D01*
X78171259Y-51684072D01*
X78143669Y-51711662D01*
X78128737Y-51747710D01*
X78126816Y-51767219D01*
X77943942Y-51767219D01*
X77943942Y-51747710D01*
X77929010Y-51711662D01*
X77901420Y-51684072D01*
X77865372Y-51669140D01*
X77845863Y-51667219D01*
X77369673Y-51667219D01*
X77350164Y-51669140D01*
X77314116Y-51684072D01*
X77286526Y-51711662D01*
X77271594Y-51747710D01*
X77269673Y-51767219D01*
X76844428Y-51767219D01*
X76821336Y-51744127D01*
X76806182Y-51731691D01*
X76802863Y-51730316D01*
X76800148Y-51727961D01*
X76782247Y-51719970D01*
X76639391Y-51672351D01*
X76629719Y-51670151D01*
X76627277Y-51669140D01*
X76623738Y-51668791D01*
X76620275Y-51668004D01*
X76617641Y-51668191D01*
X76607768Y-51667219D01*
X76369673Y-51667219D01*
X76350164Y-51669140D01*
X76314116Y-51684072D01*
X76286526Y-51711662D01*
X76271594Y-51747710D01*
X76269673Y-51767219D01*
X76158562Y-51767219D01*
X76158562Y-51556108D01*
X79009355Y-51556108D01*
X79009355Y-52978330D01*
G37*
X86525625Y-29765791D02*
X87097053Y-29765791D01*
X86811339Y-30765791D02*
X86811339Y-29765791D01*
X87335149Y-29765791D02*
X88001815Y-30765791D01*
X88001815Y-29765791D02*
X87335149Y-30765791D01*
X88382768Y-30765791D02*
X88382768Y-29765791D01*
X88382768Y-29765791D02*
X88620863Y-29765791D01*
X88620863Y-29765791D02*
X88763720Y-29813410D01*
X88763720Y-29813410D02*
X88858958Y-29908648D01*
X88858958Y-29908648D02*
X88906577Y-30003886D01*
X88906577Y-30003886D02*
X88954196Y-30194362D01*
X88954196Y-30194362D02*
X88954196Y-30337219D01*
X88954196Y-30337219D02*
X88906577Y-30527695D01*
X88906577Y-30527695D02*
X88858958Y-30622933D01*
X88858958Y-30622933D02*
X88763720Y-30718172D01*
X88763720Y-30718172D02*
X88620863Y-30765791D01*
X88620863Y-30765791D02*
X88382768Y-30765791D01*
G36*
X106091389Y-92897024D02*
G01*
X106116058Y-92921692D01*
X106145863Y-92981302D01*
X106145863Y-93076945D01*
X106116058Y-93136554D01*
X106091389Y-93161222D01*
X106031780Y-93191028D01*
X105774435Y-93191028D01*
X105774435Y-92867219D01*
X106031780Y-92867219D01*
X106091389Y-92897024D01*
G37*
G36*
X107091389Y-92897024D02*
G01*
X107116058Y-92921692D01*
X107145863Y-92981302D01*
X107145863Y-93076945D01*
X107116058Y-93136554D01*
X107091389Y-93161222D01*
X107031780Y-93191028D01*
X106774435Y-93191028D01*
X106774435Y-92867219D01*
X107031780Y-92867219D01*
X107091389Y-92897024D01*
G37*
G36*
X107456974Y-93978330D02*
G01*
X104558562Y-93978330D01*
X104558562Y-92767219D01*
X104669673Y-92767219D01*
X104669673Y-93767219D01*
X104671594Y-93786728D01*
X104686526Y-93822776D01*
X104714116Y-93850366D01*
X104750164Y-93865298D01*
X104769673Y-93867219D01*
X105245863Y-93867219D01*
X105265372Y-93865298D01*
X105301420Y-93850366D01*
X105329010Y-93822776D01*
X105343942Y-93786728D01*
X105343942Y-93747710D01*
X105329010Y-93711662D01*
X105301420Y-93684072D01*
X105265372Y-93669140D01*
X105245863Y-93667219D01*
X104869673Y-93667219D01*
X104869673Y-93343409D01*
X105103006Y-93343409D01*
X105122515Y-93341488D01*
X105158563Y-93326556D01*
X105186153Y-93298966D01*
X105201085Y-93262918D01*
X105201085Y-93223900D01*
X105186153Y-93187852D01*
X105158563Y-93160262D01*
X105122515Y-93145330D01*
X105103006Y-93143409D01*
X104869673Y-93143409D01*
X104869673Y-92867219D01*
X105245863Y-92867219D01*
X105265372Y-92865298D01*
X105301420Y-92850366D01*
X105329010Y-92822776D01*
X105343942Y-92786728D01*
X105343942Y-92767219D01*
X105574435Y-92767219D01*
X105574435Y-93767219D01*
X105576356Y-93786728D01*
X105591288Y-93822776D01*
X105618878Y-93850366D01*
X105654926Y-93865298D01*
X105693944Y-93865298D01*
X105729992Y-93850366D01*
X105757582Y-93822776D01*
X105772514Y-93786728D01*
X105774435Y-93767219D01*
X105774435Y-93391028D01*
X105860465Y-93391028D01*
X106163940Y-93824565D01*
X106176701Y-93839446D01*
X106209606Y-93860415D01*
X106248031Y-93867196D01*
X106286125Y-93858756D01*
X106318090Y-93836381D01*
X106339059Y-93803476D01*
X106345840Y-93765052D01*
X106337400Y-93726957D01*
X106327786Y-93709873D01*
X106097818Y-93381347D01*
X106100108Y-93380471D01*
X106195346Y-93332852D01*
X106203742Y-93327566D01*
X106206182Y-93326556D01*
X106208928Y-93324302D01*
X106211936Y-93322409D01*
X106213665Y-93320414D01*
X106221336Y-93314120D01*
X106268954Y-93266501D01*
X106275246Y-93258834D01*
X106277244Y-93257102D01*
X106279137Y-93254093D01*
X106281391Y-93251348D01*
X106282401Y-93248907D01*
X106287687Y-93240511D01*
X106335306Y-93145274D01*
X106342312Y-93126965D01*
X106342566Y-93123381D01*
X106343942Y-93120061D01*
X106345863Y-93100552D01*
X106345863Y-92957695D01*
X106343942Y-92938186D01*
X106342566Y-92934865D01*
X106342312Y-92931282D01*
X106335306Y-92912973D01*
X106287687Y-92817736D01*
X106282401Y-92809339D01*
X106281391Y-92806899D01*
X106279137Y-92804153D01*
X106277244Y-92801145D01*
X106275246Y-92799412D01*
X106268954Y-92791746D01*
X106244428Y-92767219D01*
X106574435Y-92767219D01*
X106574435Y-93767219D01*
X106576356Y-93786728D01*
X106591288Y-93822776D01*
X106618878Y-93850366D01*
X106654926Y-93865298D01*
X106693944Y-93865298D01*
X106729992Y-93850366D01*
X106757582Y-93822776D01*
X106772514Y-93786728D01*
X106774435Y-93767219D01*
X106774435Y-93391028D01*
X106860465Y-93391028D01*
X107163940Y-93824565D01*
X107176701Y-93839446D01*
X107209606Y-93860415D01*
X107248031Y-93867196D01*
X107286125Y-93858756D01*
X107318090Y-93836381D01*
X107339059Y-93803476D01*
X107345840Y-93765052D01*
X107337400Y-93726957D01*
X107327786Y-93709873D01*
X107097818Y-93381347D01*
X107100108Y-93380471D01*
X107195346Y-93332852D01*
X107203742Y-93327566D01*
X107206182Y-93326556D01*
X107208928Y-93324302D01*
X107211936Y-93322409D01*
X107213665Y-93320414D01*
X107221336Y-93314120D01*
X107268954Y-93266501D01*
X107275246Y-93258834D01*
X107277244Y-93257102D01*
X107279137Y-93254093D01*
X107281391Y-93251348D01*
X107282401Y-93248907D01*
X107287687Y-93240511D01*
X107335306Y-93145274D01*
X107342312Y-93126965D01*
X107342566Y-93123381D01*
X107343942Y-93120061D01*
X107345863Y-93100552D01*
X107345863Y-92957695D01*
X107343942Y-92938186D01*
X107342566Y-92934865D01*
X107342312Y-92931282D01*
X107335306Y-92912973D01*
X107287687Y-92817736D01*
X107282401Y-92809339D01*
X107281391Y-92806899D01*
X107279137Y-92804153D01*
X107277244Y-92801145D01*
X107275246Y-92799412D01*
X107268954Y-92791746D01*
X107221336Y-92744127D01*
X107213665Y-92737832D01*
X107211936Y-92735838D01*
X107208928Y-92733944D01*
X107206182Y-92731691D01*
X107203742Y-92730680D01*
X107195346Y-92725395D01*
X107100108Y-92677776D01*
X107081800Y-92670770D01*
X107078216Y-92670515D01*
X107074896Y-92669140D01*
X107055387Y-92667219D01*
X106674435Y-92667219D01*
X106654926Y-92669140D01*
X106618878Y-92684072D01*
X106591288Y-92711662D01*
X106576356Y-92747710D01*
X106574435Y-92767219D01*
X106244428Y-92767219D01*
X106221336Y-92744127D01*
X106213665Y-92737832D01*
X106211936Y-92735838D01*
X106208928Y-92733944D01*
X106206182Y-92731691D01*
X106203742Y-92730680D01*
X106195346Y-92725395D01*
X106100108Y-92677776D01*
X106081800Y-92670770D01*
X106078216Y-92670515D01*
X106074896Y-92669140D01*
X106055387Y-92667219D01*
X105674435Y-92667219D01*
X105654926Y-92669140D01*
X105618878Y-92684072D01*
X105591288Y-92711662D01*
X105576356Y-92747710D01*
X105574435Y-92767219D01*
X105343942Y-92767219D01*
X105343942Y-92747710D01*
X105329010Y-92711662D01*
X105301420Y-92684072D01*
X105265372Y-92669140D01*
X105245863Y-92667219D01*
X104769673Y-92667219D01*
X104750164Y-92669140D01*
X104714116Y-92684072D01*
X104686526Y-92711662D01*
X104671594Y-92747710D01*
X104669673Y-92767219D01*
X104558562Y-92767219D01*
X104558562Y-92556108D01*
X107456974Y-92556108D01*
X107456974Y-93978330D01*
G37*
D11*
G36*
X82666287Y-74404077D02*
G01*
X82696694Y-74434484D01*
X82730952Y-74503000D01*
X82730952Y-74610447D01*
X82696694Y-74678963D01*
X82666287Y-74709370D01*
X82597771Y-74743628D01*
X82309524Y-74743628D01*
X82309524Y-74369819D01*
X82597771Y-74369819D01*
X82666287Y-74404077D01*
G37*
G36*
X80523430Y-74404077D02*
G01*
X80553837Y-74434484D01*
X80588095Y-74503000D01*
X80588095Y-74610447D01*
X80553837Y-74678963D01*
X80523430Y-74709370D01*
X80454914Y-74743628D01*
X80166667Y-74743628D01*
X80166667Y-74369819D01*
X80454914Y-74369819D01*
X80523430Y-74404077D01*
G37*
G36*
X82992063Y-75480913D02*
G01*
X79905556Y-75480913D01*
X79905556Y-74294819D01*
X80016667Y-74294819D01*
X80016667Y-75294819D01*
X80018108Y-75309451D01*
X80029307Y-75336487D01*
X80049999Y-75357179D01*
X80077035Y-75368378D01*
X80106299Y-75368378D01*
X80133335Y-75357179D01*
X80154027Y-75336487D01*
X80165226Y-75309451D01*
X80166667Y-75294819D01*
X80166667Y-74893628D01*
X80472619Y-74893628D01*
X80487251Y-74892187D01*
X80489740Y-74891155D01*
X80492428Y-74890965D01*
X80506160Y-74885710D01*
X80601398Y-74838091D01*
X80607697Y-74834126D01*
X80609525Y-74833369D01*
X80611581Y-74831680D01*
X80613841Y-74830259D01*
X80615140Y-74828760D01*
X80620890Y-74824042D01*
X80668509Y-74776423D01*
X80673227Y-74770673D01*
X80674726Y-74769374D01*
X80676147Y-74767114D01*
X80677836Y-74765058D01*
X80678593Y-74763230D01*
X80682558Y-74756931D01*
X80730177Y-74661693D01*
X80735432Y-74647962D01*
X80735623Y-74645272D01*
X80736654Y-74642784D01*
X80738095Y-74628152D01*
X80738095Y-74485295D01*
X80736654Y-74470663D01*
X80735623Y-74468174D01*
X80735432Y-74465485D01*
X80730177Y-74451754D01*
X80682558Y-74356516D01*
X80678593Y-74350216D01*
X80677836Y-74348389D01*
X80676147Y-74346332D01*
X80674726Y-74344073D01*
X80673227Y-74342773D01*
X80668509Y-74337024D01*
X80629108Y-74297623D01*
X80921481Y-74297623D01*
X80923469Y-74312191D01*
X81161564Y-75312191D01*
X81163293Y-75317210D01*
X81163533Y-75319012D01*
X81164475Y-75320640D01*
X81166354Y-75326091D01*
X81172740Y-75334915D01*
X81178195Y-75344337D01*
X81181252Y-75346677D01*
X81183511Y-75349798D01*
X81192786Y-75355505D01*
X81201433Y-75362124D01*
X81205153Y-75363116D01*
X81208433Y-75365134D01*
X81219187Y-75366858D01*
X81229709Y-75369664D01*
X81233524Y-75369157D01*
X81237328Y-75369767D01*
X81247926Y-75367243D01*
X81258717Y-75365810D01*
X81262048Y-75363881D01*
X81265796Y-75362989D01*
X81274620Y-75356602D01*
X81284042Y-75351148D01*
X81286382Y-75348090D01*
X81289503Y-75345832D01*
X81295210Y-75336556D01*
X81301829Y-75327910D01*
X81303854Y-75322510D01*
X81304839Y-75320910D01*
X81305126Y-75319118D01*
X81306992Y-75314144D01*
X81424999Y-74871613D01*
X81543008Y-75314144D01*
X81544873Y-75319119D01*
X81545161Y-75320910D01*
X81546145Y-75322509D01*
X81548171Y-75327911D01*
X81554791Y-75336559D01*
X81560497Y-75345832D01*
X81563617Y-75348090D01*
X81565958Y-75351148D01*
X81575379Y-75356602D01*
X81584204Y-75362989D01*
X81587951Y-75363881D01*
X81591283Y-75365810D01*
X81602076Y-75367244D01*
X81612672Y-75369767D01*
X81616473Y-75369157D01*
X81620292Y-75369665D01*
X81630823Y-75366856D01*
X81641567Y-75365134D01*
X81644843Y-75363118D01*
X81648567Y-75362125D01*
X81657217Y-75355503D01*
X81666489Y-75349798D01*
X81668747Y-75346677D01*
X81671805Y-75344337D01*
X81677260Y-75334914D01*
X81683646Y-75326091D01*
X81685523Y-75320642D01*
X81686467Y-75319013D01*
X81686706Y-75317209D01*
X81688436Y-75312191D01*
X81926532Y-74312191D01*
X81928520Y-74297623D01*
X81928070Y-74294819D01*
X82159524Y-74294819D01*
X82159524Y-75294819D01*
X82160965Y-75309451D01*
X82172164Y-75336487D01*
X82192856Y-75357179D01*
X82219892Y-75368378D01*
X82249156Y-75368378D01*
X82276192Y-75357179D01*
X82296884Y-75336487D01*
X82308083Y-75309451D01*
X82309524Y-75294819D01*
X82309524Y-74893628D01*
X82433570Y-74893628D01*
X82744510Y-75337829D01*
X82754081Y-75348989D01*
X82778760Y-75364716D01*
X82807577Y-75369802D01*
X82836148Y-75363472D01*
X82860122Y-75346690D01*
X82875849Y-75322012D01*
X82880934Y-75293194D01*
X82874605Y-75264623D01*
X82867395Y-75251810D01*
X82616591Y-74893518D01*
X82630108Y-74892187D01*
X82632597Y-74891155D01*
X82635285Y-74890965D01*
X82649017Y-74885710D01*
X82744255Y-74838091D01*
X82750554Y-74834126D01*
X82752382Y-74833369D01*
X82754438Y-74831680D01*
X82756698Y-74830259D01*
X82757997Y-74828760D01*
X82763747Y-74824042D01*
X82811366Y-74776423D01*
X82816084Y-74770673D01*
X82817583Y-74769374D01*
X82819004Y-74767114D01*
X82820693Y-74765058D01*
X82821450Y-74763230D01*
X82825415Y-74756931D01*
X82873034Y-74661693D01*
X82878289Y-74647962D01*
X82878480Y-74645272D01*
X82879511Y-74642784D01*
X82880952Y-74628152D01*
X82880952Y-74485295D01*
X82879511Y-74470663D01*
X82878480Y-74468174D01*
X82878289Y-74465485D01*
X82873034Y-74451754D01*
X82825415Y-74356516D01*
X82821450Y-74350216D01*
X82820693Y-74348389D01*
X82819004Y-74346332D01*
X82817583Y-74344073D01*
X82816084Y-74342773D01*
X82811366Y-74337024D01*
X82763747Y-74289405D01*
X82757997Y-74284686D01*
X82756698Y-74283188D01*
X82754438Y-74281766D01*
X82752382Y-74280078D01*
X82750554Y-74279320D01*
X82744255Y-74275356D01*
X82649017Y-74227737D01*
X82635285Y-74222482D01*
X82632597Y-74222291D01*
X82630108Y-74221260D01*
X82615476Y-74219819D01*
X82234524Y-74219819D01*
X82219892Y-74221260D01*
X82192856Y-74232459D01*
X82172164Y-74253151D01*
X82160965Y-74280187D01*
X82159524Y-74294819D01*
X81928070Y-74294819D01*
X81923887Y-74268728D01*
X81908551Y-74243806D01*
X81884844Y-74226650D01*
X81856376Y-74219871D01*
X81827481Y-74224504D01*
X81802559Y-74239840D01*
X81785402Y-74263547D01*
X81780612Y-74277448D01*
X81611359Y-74988303D01*
X81497468Y-74561208D01*
X81496182Y-74557780D01*
X81495991Y-74556339D01*
X81494999Y-74554626D01*
X81492305Y-74547442D01*
X81486290Y-74539583D01*
X81481329Y-74531015D01*
X81477470Y-74528061D01*
X81474518Y-74524204D01*
X81465953Y-74519245D01*
X81458091Y-74513227D01*
X81453394Y-74511974D01*
X81449193Y-74509542D01*
X81439386Y-74508239D01*
X81429816Y-74505687D01*
X81424997Y-74506327D01*
X81420185Y-74505688D01*
X81410624Y-74508237D01*
X81400807Y-74509542D01*
X81396601Y-74511976D01*
X81391909Y-74513228D01*
X81384049Y-74519243D01*
X81375482Y-74524204D01*
X81372528Y-74528062D01*
X81368671Y-74531015D01*
X81363712Y-74539580D01*
X81357695Y-74547441D01*
X81354998Y-74554630D01*
X81354009Y-74556340D01*
X81353817Y-74557779D01*
X81352532Y-74561208D01*
X81238640Y-74988303D01*
X81069389Y-74277447D01*
X81064599Y-74263547D01*
X81047442Y-74239840D01*
X81022520Y-74224504D01*
X80993625Y-74219871D01*
X80965157Y-74226649D01*
X80941450Y-74243806D01*
X80926114Y-74268728D01*
X80921481Y-74297623D01*
X80629108Y-74297623D01*
X80620890Y-74289405D01*
X80615140Y-74284686D01*
X80613841Y-74283188D01*
X80611581Y-74281766D01*
X80609525Y-74280078D01*
X80607697Y-74279320D01*
X80601398Y-74275356D01*
X80506160Y-74227737D01*
X80492428Y-74222482D01*
X80489740Y-74222291D01*
X80487251Y-74221260D01*
X80472619Y-74219819D01*
X80091667Y-74219819D01*
X80077035Y-74221260D01*
X80049999Y-74232459D01*
X80029307Y-74253151D01*
X80018108Y-74280187D01*
X80016667Y-74294819D01*
X79905556Y-74294819D01*
X79905556Y-74108708D01*
X82992063Y-74108708D01*
X82992063Y-75480913D01*
G37*
D10*
G36*
X106141389Y-26397024D02*
G01*
X106166058Y-26421692D01*
X106195863Y-26481302D01*
X106195863Y-26576945D01*
X106166058Y-26636554D01*
X106141389Y-26661222D01*
X106081780Y-26691028D01*
X105824435Y-26691028D01*
X105824435Y-26367219D01*
X106081780Y-26367219D01*
X106141389Y-26397024D01*
G37*
G36*
X107141389Y-26397024D02*
G01*
X107166058Y-26421692D01*
X107195863Y-26481302D01*
X107195863Y-26576945D01*
X107166058Y-26636554D01*
X107141389Y-26661222D01*
X107081780Y-26691028D01*
X106824435Y-26691028D01*
X106824435Y-26367219D01*
X107081780Y-26367219D01*
X107141389Y-26397024D01*
G37*
G36*
X107506974Y-27478330D02*
G01*
X104608562Y-27478330D01*
X104608562Y-26267219D01*
X104719673Y-26267219D01*
X104719673Y-27267219D01*
X104721594Y-27286728D01*
X104736526Y-27322776D01*
X104764116Y-27350366D01*
X104800164Y-27365298D01*
X104819673Y-27367219D01*
X105295863Y-27367219D01*
X105315372Y-27365298D01*
X105351420Y-27350366D01*
X105379010Y-27322776D01*
X105393942Y-27286728D01*
X105393942Y-27247710D01*
X105379010Y-27211662D01*
X105351420Y-27184072D01*
X105315372Y-27169140D01*
X105295863Y-27167219D01*
X104919673Y-27167219D01*
X104919673Y-26843409D01*
X105153006Y-26843409D01*
X105172515Y-26841488D01*
X105208563Y-26826556D01*
X105236153Y-26798966D01*
X105251085Y-26762918D01*
X105251085Y-26723900D01*
X105236153Y-26687852D01*
X105208563Y-26660262D01*
X105172515Y-26645330D01*
X105153006Y-26643409D01*
X104919673Y-26643409D01*
X104919673Y-26367219D01*
X105295863Y-26367219D01*
X105315372Y-26365298D01*
X105351420Y-26350366D01*
X105379010Y-26322776D01*
X105393942Y-26286728D01*
X105393942Y-26267219D01*
X105624435Y-26267219D01*
X105624435Y-27267219D01*
X105626356Y-27286728D01*
X105641288Y-27322776D01*
X105668878Y-27350366D01*
X105704926Y-27365298D01*
X105743944Y-27365298D01*
X105779992Y-27350366D01*
X105807582Y-27322776D01*
X105822514Y-27286728D01*
X105824435Y-27267219D01*
X105824435Y-26891028D01*
X105910465Y-26891028D01*
X106213940Y-27324565D01*
X106226701Y-27339446D01*
X106259606Y-27360415D01*
X106298031Y-27367196D01*
X106336125Y-27358756D01*
X106368090Y-27336381D01*
X106389059Y-27303476D01*
X106395840Y-27265052D01*
X106387400Y-27226957D01*
X106377786Y-27209873D01*
X106147818Y-26881347D01*
X106150108Y-26880471D01*
X106245346Y-26832852D01*
X106253742Y-26827566D01*
X106256182Y-26826556D01*
X106258928Y-26824302D01*
X106261936Y-26822409D01*
X106263665Y-26820414D01*
X106271336Y-26814120D01*
X106318954Y-26766501D01*
X106325246Y-26758834D01*
X106327244Y-26757102D01*
X106329137Y-26754093D01*
X106331391Y-26751348D01*
X106332401Y-26748907D01*
X106337687Y-26740511D01*
X106385306Y-26645274D01*
X106392312Y-26626965D01*
X106392566Y-26623381D01*
X106393942Y-26620061D01*
X106395863Y-26600552D01*
X106395863Y-26457695D01*
X106393942Y-26438186D01*
X106392566Y-26434865D01*
X106392312Y-26431282D01*
X106385306Y-26412973D01*
X106337687Y-26317736D01*
X106332401Y-26309339D01*
X106331391Y-26306899D01*
X106329137Y-26304153D01*
X106327244Y-26301145D01*
X106325246Y-26299412D01*
X106318954Y-26291746D01*
X106294428Y-26267219D01*
X106624435Y-26267219D01*
X106624435Y-27267219D01*
X106626356Y-27286728D01*
X106641288Y-27322776D01*
X106668878Y-27350366D01*
X106704926Y-27365298D01*
X106743944Y-27365298D01*
X106779992Y-27350366D01*
X106807582Y-27322776D01*
X106822514Y-27286728D01*
X106824435Y-27267219D01*
X106824435Y-26891028D01*
X106910465Y-26891028D01*
X107213940Y-27324565D01*
X107226701Y-27339446D01*
X107259606Y-27360415D01*
X107298031Y-27367196D01*
X107336125Y-27358756D01*
X107368090Y-27336381D01*
X107389059Y-27303476D01*
X107395840Y-27265052D01*
X107387400Y-27226957D01*
X107377786Y-27209873D01*
X107147818Y-26881347D01*
X107150108Y-26880471D01*
X107245346Y-26832852D01*
X107253742Y-26827566D01*
X107256182Y-26826556D01*
X107258928Y-26824302D01*
X107261936Y-26822409D01*
X107263665Y-26820414D01*
X107271336Y-26814120D01*
X107318954Y-26766501D01*
X107325246Y-26758834D01*
X107327244Y-26757102D01*
X107329137Y-26754093D01*
X107331391Y-26751348D01*
X107332401Y-26748907D01*
X107337687Y-26740511D01*
X107385306Y-26645274D01*
X107392312Y-26626965D01*
X107392566Y-26623381D01*
X107393942Y-26620061D01*
X107395863Y-26600552D01*
X107395863Y-26457695D01*
X107393942Y-26438186D01*
X107392566Y-26434865D01*
X107392312Y-26431282D01*
X107385306Y-26412973D01*
X107337687Y-26317736D01*
X107332401Y-26309339D01*
X107331391Y-26306899D01*
X107329137Y-26304153D01*
X107327244Y-26301145D01*
X107325246Y-26299412D01*
X107318954Y-26291746D01*
X107271336Y-26244127D01*
X107263665Y-26237832D01*
X107261936Y-26235838D01*
X107258928Y-26233944D01*
X107256182Y-26231691D01*
X107253742Y-26230680D01*
X107245346Y-26225395D01*
X107150108Y-26177776D01*
X107131800Y-26170770D01*
X107128216Y-26170515D01*
X107124896Y-26169140D01*
X107105387Y-26167219D01*
X106724435Y-26167219D01*
X106704926Y-26169140D01*
X106668878Y-26184072D01*
X106641288Y-26211662D01*
X106626356Y-26247710D01*
X106624435Y-26267219D01*
X106294428Y-26267219D01*
X106271336Y-26244127D01*
X106263665Y-26237832D01*
X106261936Y-26235838D01*
X106258928Y-26233944D01*
X106256182Y-26231691D01*
X106253742Y-26230680D01*
X106245346Y-26225395D01*
X106150108Y-26177776D01*
X106131800Y-26170770D01*
X106128216Y-26170515D01*
X106124896Y-26169140D01*
X106105387Y-26167219D01*
X105724435Y-26167219D01*
X105704926Y-26169140D01*
X105668878Y-26184072D01*
X105641288Y-26211662D01*
X105626356Y-26247710D01*
X105624435Y-26267219D01*
X105393942Y-26267219D01*
X105393942Y-26247710D01*
X105379010Y-26211662D01*
X105351420Y-26184072D01*
X105315372Y-26169140D01*
X105295863Y-26167219D01*
X104819673Y-26167219D01*
X104800164Y-26169140D01*
X104764116Y-26184072D01*
X104736526Y-26211662D01*
X104721594Y-26247710D01*
X104719673Y-26267219D01*
X104608562Y-26267219D01*
X104608562Y-26056108D01*
X107506974Y-26056108D01*
X107506974Y-27478330D01*
G37*
G36*
X123934502Y-58481504D02*
G01*
X123735797Y-58481504D01*
X123835149Y-58183446D01*
X123934502Y-58481504D01*
G37*
G36*
X126282434Y-59078330D02*
G01*
X122385943Y-59078330D01*
X122385943Y-58295790D01*
X122497054Y-58295790D01*
X122497054Y-58438647D01*
X122497389Y-58442049D01*
X122497172Y-58443508D01*
X122498251Y-58450805D01*
X122498975Y-58458156D01*
X122499539Y-58459519D01*
X122500040Y-58462901D01*
X122547659Y-58653376D01*
X122548172Y-58654813D01*
X122548224Y-58655536D01*
X122551332Y-58663660D01*
X122554254Y-58671837D01*
X122554684Y-58672417D01*
X122555230Y-58673844D01*
X122602849Y-58769082D01*
X122608131Y-58777474D01*
X122609144Y-58779918D01*
X122611400Y-58782667D01*
X122613292Y-58785672D01*
X122615286Y-58787401D01*
X122621581Y-58795071D01*
X122716819Y-58890311D01*
X122731972Y-58902747D01*
X122735291Y-58904122D01*
X122738007Y-58906477D01*
X122755907Y-58914468D01*
X122898764Y-58962087D01*
X122908436Y-58964286D01*
X122910878Y-58965298D01*
X122914415Y-58965646D01*
X122917879Y-58966434D01*
X122920513Y-58966246D01*
X122930387Y-58967219D01*
X123025625Y-58967219D01*
X123035498Y-58966246D01*
X123038132Y-58966434D01*
X123041595Y-58965646D01*
X123045134Y-58965298D01*
X123047576Y-58964286D01*
X123057248Y-58962087D01*
X123200104Y-58914468D01*
X123218005Y-58906477D01*
X123220720Y-58904122D01*
X123224040Y-58902747D01*
X123239193Y-58890310D01*
X123274790Y-58854712D01*
X123402601Y-58854712D01*
X123405367Y-58893632D01*
X123422817Y-58928531D01*
X123452293Y-58954096D01*
X123489309Y-58966434D01*
X123528229Y-58963668D01*
X123563128Y-58946218D01*
X123588693Y-58916742D01*
X123596684Y-58898842D01*
X123669130Y-58681504D01*
X124001168Y-58681504D01*
X124073614Y-58898841D01*
X124081605Y-58916742D01*
X124107170Y-58946218D01*
X124142069Y-58963667D01*
X124180989Y-58966434D01*
X124218005Y-58954095D01*
X124247481Y-58928530D01*
X124264931Y-58893631D01*
X124267697Y-58854711D01*
X124263350Y-58835596D01*
X123940558Y-57867219D01*
X124401816Y-57867219D01*
X124401816Y-58867219D01*
X124403737Y-58886728D01*
X124418669Y-58922776D01*
X124446259Y-58950366D01*
X124482307Y-58965298D01*
X124521325Y-58965298D01*
X124557373Y-58950366D01*
X124584963Y-58922776D01*
X124599895Y-58886728D01*
X124601816Y-58867219D01*
X124601816Y-58243775D01*
X124986420Y-58916833D01*
X124989338Y-58920943D01*
X124990097Y-58922776D01*
X124991963Y-58924642D01*
X124997767Y-58932818D01*
X125008283Y-58940962D01*
X125017687Y-58950366D01*
X125023574Y-58952804D01*
X125028616Y-58956709D01*
X125041448Y-58960208D01*
X125053735Y-58965298D01*
X125060111Y-58965298D01*
X125066260Y-58966975D01*
X125079453Y-58965298D01*
X125092753Y-58965298D01*
X125098641Y-58962858D01*
X125104966Y-58962055D01*
X125116515Y-58955454D01*
X125128801Y-58950366D01*
X125133308Y-58945858D01*
X125138843Y-58942696D01*
X125146987Y-58932179D01*
X125156391Y-58922776D01*
X125158829Y-58916888D01*
X125162734Y-58911847D01*
X125166233Y-58899014D01*
X125171323Y-58886728D01*
X125172305Y-58876750D01*
X125173000Y-58874204D01*
X125172749Y-58872236D01*
X125173244Y-58867219D01*
X125173244Y-58140426D01*
X125402601Y-58140426D01*
X125405367Y-58179346D01*
X125422816Y-58214245D01*
X125452293Y-58239809D01*
X125489309Y-58252148D01*
X125528229Y-58249382D01*
X125546537Y-58242376D01*
X125641775Y-58194757D01*
X125650171Y-58189471D01*
X125652611Y-58188461D01*
X125655357Y-58186207D01*
X125658365Y-58184314D01*
X125660094Y-58182319D01*
X125667765Y-58176025D01*
X125687530Y-58156260D01*
X125687530Y-58767219D01*
X125501816Y-58767219D01*
X125482307Y-58769140D01*
X125446259Y-58784072D01*
X125418669Y-58811662D01*
X125403737Y-58847710D01*
X125403737Y-58886728D01*
X125418669Y-58922776D01*
X125446259Y-58950366D01*
X125482307Y-58965298D01*
X125501816Y-58967219D01*
X126073244Y-58967219D01*
X126092753Y-58965298D01*
X126128801Y-58950366D01*
X126156391Y-58922776D01*
X126171323Y-58886728D01*
X126171323Y-58847710D01*
X126156391Y-58811662D01*
X126128801Y-58784072D01*
X126092753Y-58769140D01*
X126073244Y-58767219D01*
X125887530Y-58767219D01*
X125887530Y-57867219D01*
X125887523Y-57867148D01*
X125887530Y-57867114D01*
X125887509Y-57867012D01*
X125885609Y-57847710D01*
X125881819Y-57838561D01*
X125879878Y-57828854D01*
X125874426Y-57820713D01*
X125870677Y-57811662D01*
X125863677Y-57804662D01*
X125858167Y-57796434D01*
X125850012Y-57790997D01*
X125843087Y-57784072D01*
X125833943Y-57780284D01*
X125825702Y-57774790D01*
X125816088Y-57772888D01*
X125807039Y-57769140D01*
X125797138Y-57769140D01*
X125787426Y-57767219D01*
X125777821Y-57769140D01*
X125768021Y-57769140D01*
X125758872Y-57772929D01*
X125749165Y-57774871D01*
X125741024Y-57780322D01*
X125731973Y-57784072D01*
X125724973Y-57791071D01*
X125716745Y-57796582D01*
X125704456Y-57811588D01*
X125704383Y-57811662D01*
X125704369Y-57811694D01*
X125704325Y-57811749D01*
X125614581Y-57946365D01*
X125537817Y-58023128D01*
X125457095Y-58063490D01*
X125440504Y-58073933D01*
X125414940Y-58103410D01*
X125402601Y-58140426D01*
X125173244Y-58140426D01*
X125173244Y-57867219D01*
X125171323Y-57847710D01*
X125156391Y-57811662D01*
X125128801Y-57784072D01*
X125092753Y-57769140D01*
X125053735Y-57769140D01*
X125017687Y-57784072D01*
X124990097Y-57811662D01*
X124975165Y-57847710D01*
X124973244Y-57867219D01*
X124973244Y-58490662D01*
X124588640Y-57817605D01*
X124585721Y-57813494D01*
X124584963Y-57811662D01*
X124583096Y-57809795D01*
X124577293Y-57801620D01*
X124566778Y-57793477D01*
X124557373Y-57784072D01*
X124551482Y-57781632D01*
X124546444Y-57777730D01*
X124533615Y-57774231D01*
X124521325Y-57769140D01*
X124514950Y-57769140D01*
X124508801Y-57767463D01*
X124495608Y-57769140D01*
X124482307Y-57769140D01*
X124476418Y-57771579D01*
X124470094Y-57772383D01*
X124458544Y-57778983D01*
X124446259Y-57784072D01*
X124441751Y-57788579D01*
X124436217Y-57791742D01*
X124428074Y-57802256D01*
X124418669Y-57811662D01*
X124416229Y-57817552D01*
X124412327Y-57822591D01*
X124408828Y-57835419D01*
X124403737Y-57847710D01*
X124402754Y-57857687D01*
X124402060Y-57860234D01*
X124402310Y-57862201D01*
X124401816Y-57867219D01*
X123940558Y-57867219D01*
X123930017Y-57835596D01*
X123922026Y-57817696D01*
X123917341Y-57812294D01*
X123914148Y-57805908D01*
X123904679Y-57797695D01*
X123896461Y-57788220D01*
X123890069Y-57785023D01*
X123884672Y-57780343D01*
X123872778Y-57776378D01*
X123861562Y-57770770D01*
X123854434Y-57770263D01*
X123847656Y-57768004D01*
X123835151Y-57768893D01*
X123822642Y-57768004D01*
X123815860Y-57770264D01*
X123808736Y-57770771D01*
X123797527Y-57776374D01*
X123785626Y-57780342D01*
X123780225Y-57785025D01*
X123773837Y-57788220D01*
X123765621Y-57797691D01*
X123756150Y-57805907D01*
X123752955Y-57812296D01*
X123748272Y-57817696D01*
X123740281Y-57835597D01*
X123406948Y-58835596D01*
X123402601Y-58854712D01*
X123274790Y-58854712D01*
X123286812Y-58842690D01*
X123299249Y-58827537D01*
X123314180Y-58791488D01*
X123314179Y-58752470D01*
X123299248Y-58716422D01*
X123271657Y-58688832D01*
X123235609Y-58673901D01*
X123196591Y-58673902D01*
X123160543Y-58688833D01*
X123145389Y-58701270D01*
X123114462Y-58732197D01*
X123009398Y-58767219D01*
X122946613Y-58767219D01*
X122841548Y-58732197D01*
X122774478Y-58665127D01*
X122739024Y-58594218D01*
X122697054Y-58426337D01*
X122697054Y-58308100D01*
X122739024Y-58140218D01*
X122774477Y-58069312D01*
X122841549Y-58002240D01*
X122946613Y-57967219D01*
X123009398Y-57967219D01*
X123114463Y-58002240D01*
X123145390Y-58033167D01*
X123160543Y-58045604D01*
X123196592Y-58060535D01*
X123235610Y-58060535D01*
X123271658Y-58045604D01*
X123299248Y-58018014D01*
X123314179Y-57981966D01*
X123314179Y-57942948D01*
X123299248Y-57906899D01*
X123286811Y-57891746D01*
X123239193Y-57844127D01*
X123224039Y-57831691D01*
X123220720Y-57830316D01*
X123218005Y-57827961D01*
X123200104Y-57819970D01*
X123057248Y-57772351D01*
X123047576Y-57770151D01*
X123045134Y-57769140D01*
X123041595Y-57768791D01*
X123038132Y-57768004D01*
X123035498Y-57768191D01*
X123025625Y-57767219D01*
X122930387Y-57767219D01*
X122920513Y-57768191D01*
X122917879Y-57768004D01*
X122914415Y-57768791D01*
X122910878Y-57769140D01*
X122908436Y-57770151D01*
X122898764Y-57772351D01*
X122755907Y-57819970D01*
X122738007Y-57827961D01*
X122735291Y-57830316D01*
X122731973Y-57831691D01*
X122716819Y-57844127D01*
X122621581Y-57939365D01*
X122615286Y-57947035D01*
X122613292Y-57948765D01*
X122611398Y-57951772D01*
X122609145Y-57954519D01*
X122608134Y-57956958D01*
X122602849Y-57965355D01*
X122555230Y-58060593D01*
X122554684Y-58062019D01*
X122554254Y-58062600D01*
X122551332Y-58070776D01*
X122548224Y-58078901D01*
X122548172Y-58079623D01*
X122547659Y-58081061D01*
X122500040Y-58271536D01*
X122499539Y-58274917D01*
X122498975Y-58276281D01*
X122498251Y-58283631D01*
X122497172Y-58290929D01*
X122497389Y-58292387D01*
X122497054Y-58295790D01*
X122385943Y-58295790D01*
X122385943Y-57656108D01*
X126282434Y-57656108D01*
X126282434Y-59078330D01*
G37*
G36*
X125871151Y-61372024D02*
G01*
X125895820Y-61396692D01*
X125931273Y-61467599D01*
X125973244Y-61635480D01*
X125973244Y-61848956D01*
X125931273Y-62016837D01*
X125895820Y-62087743D01*
X125871151Y-62112413D01*
X125811542Y-62142219D01*
X125763518Y-62142219D01*
X125703908Y-62112414D01*
X125679241Y-62087746D01*
X125643786Y-62016837D01*
X125601816Y-61848956D01*
X125601816Y-61635481D01*
X125643786Y-61467599D01*
X125679240Y-61396692D01*
X125703908Y-61372023D01*
X125763518Y-61342219D01*
X125811542Y-61342219D01*
X125871151Y-61372024D01*
G37*
G36*
X123934502Y-61856504D02*
G01*
X123735797Y-61856504D01*
X123835149Y-61558446D01*
X123934502Y-61856504D01*
G37*
G36*
X126284355Y-62453330D02*
G01*
X122385943Y-62453330D01*
X122385943Y-61670790D01*
X122497054Y-61670790D01*
X122497054Y-61813647D01*
X122497389Y-61817049D01*
X122497172Y-61818508D01*
X122498251Y-61825805D01*
X122498975Y-61833156D01*
X122499539Y-61834519D01*
X122500040Y-61837901D01*
X122547659Y-62028376D01*
X122548172Y-62029813D01*
X122548224Y-62030536D01*
X122551332Y-62038660D01*
X122554254Y-62046837D01*
X122554684Y-62047417D01*
X122555230Y-62048844D01*
X122602849Y-62144082D01*
X122608131Y-62152474D01*
X122609144Y-62154918D01*
X122611400Y-62157667D01*
X122613292Y-62160672D01*
X122615286Y-62162401D01*
X122621581Y-62170071D01*
X122716819Y-62265311D01*
X122731972Y-62277747D01*
X122735291Y-62279122D01*
X122738007Y-62281477D01*
X122755907Y-62289468D01*
X122898764Y-62337087D01*
X122908436Y-62339286D01*
X122910878Y-62340298D01*
X122914415Y-62340646D01*
X122917879Y-62341434D01*
X122920513Y-62341246D01*
X122930387Y-62342219D01*
X123025625Y-62342219D01*
X123035498Y-62341246D01*
X123038132Y-62341434D01*
X123041595Y-62340646D01*
X123045134Y-62340298D01*
X123047576Y-62339286D01*
X123057248Y-62337087D01*
X123200104Y-62289468D01*
X123218005Y-62281477D01*
X123220720Y-62279122D01*
X123224040Y-62277747D01*
X123239193Y-62265310D01*
X123274790Y-62229712D01*
X123402601Y-62229712D01*
X123405367Y-62268632D01*
X123422817Y-62303531D01*
X123452293Y-62329096D01*
X123489309Y-62341434D01*
X123528229Y-62338668D01*
X123563128Y-62321218D01*
X123588693Y-62291742D01*
X123596684Y-62273842D01*
X123669130Y-62056504D01*
X124001168Y-62056504D01*
X124073614Y-62273841D01*
X124081605Y-62291742D01*
X124107170Y-62321218D01*
X124142069Y-62338667D01*
X124180989Y-62341434D01*
X124218005Y-62329095D01*
X124247481Y-62303530D01*
X124264931Y-62268631D01*
X124267697Y-62229711D01*
X124263350Y-62210596D01*
X123940558Y-61242219D01*
X124401816Y-61242219D01*
X124401816Y-62242219D01*
X124403737Y-62261728D01*
X124418669Y-62297776D01*
X124446259Y-62325366D01*
X124482307Y-62340298D01*
X124521325Y-62340298D01*
X124557373Y-62325366D01*
X124584963Y-62297776D01*
X124599895Y-62261728D01*
X124601816Y-62242219D01*
X124601816Y-61618775D01*
X124986420Y-62291833D01*
X124989338Y-62295943D01*
X124990097Y-62297776D01*
X124991963Y-62299642D01*
X124997767Y-62307818D01*
X125008283Y-62315962D01*
X125017687Y-62325366D01*
X125023574Y-62327804D01*
X125028616Y-62331709D01*
X125041448Y-62335208D01*
X125053735Y-62340298D01*
X125060111Y-62340298D01*
X125066260Y-62341975D01*
X125079453Y-62340298D01*
X125092753Y-62340298D01*
X125098641Y-62337858D01*
X125104966Y-62337055D01*
X125116515Y-62330454D01*
X125128801Y-62325366D01*
X125133308Y-62320858D01*
X125138843Y-62317696D01*
X125146987Y-62307179D01*
X125156391Y-62297776D01*
X125158829Y-62291888D01*
X125162734Y-62286847D01*
X125166233Y-62274014D01*
X125171323Y-62261728D01*
X125172305Y-62251750D01*
X125173000Y-62249204D01*
X125172749Y-62247236D01*
X125173244Y-62242219D01*
X125173244Y-61623171D01*
X125401816Y-61623171D01*
X125401816Y-61861266D01*
X125402151Y-61864668D01*
X125401934Y-61866127D01*
X125403013Y-61873424D01*
X125403737Y-61880775D01*
X125404301Y-61882138D01*
X125404802Y-61885520D01*
X125452421Y-62075995D01*
X125452934Y-62077432D01*
X125452986Y-62078155D01*
X125456094Y-62086279D01*
X125459016Y-62094456D01*
X125459446Y-62095036D01*
X125459992Y-62096463D01*
X125507611Y-62191701D01*
X125512894Y-62200093D01*
X125513906Y-62202537D01*
X125516162Y-62205286D01*
X125518054Y-62208291D01*
X125520048Y-62210020D01*
X125526343Y-62217690D01*
X125573961Y-62265310D01*
X125581629Y-62271603D01*
X125583361Y-62273600D01*
X125586369Y-62275493D01*
X125589115Y-62277747D01*
X125591555Y-62278757D01*
X125599952Y-62284043D01*
X125695189Y-62331662D01*
X125713498Y-62338668D01*
X125717081Y-62338922D01*
X125720402Y-62340298D01*
X125739911Y-62342219D01*
X125835149Y-62342219D01*
X125854658Y-62340298D01*
X125857978Y-62338922D01*
X125861562Y-62338668D01*
X125879870Y-62331662D01*
X125975108Y-62284043D01*
X125983503Y-62278758D01*
X125985945Y-62277747D01*
X125988692Y-62275491D01*
X125991698Y-62273600D01*
X125993428Y-62271605D01*
X126001098Y-62265310D01*
X126048717Y-62217690D01*
X126055009Y-62210023D01*
X126057006Y-62208292D01*
X126058899Y-62205284D01*
X126061154Y-62202537D01*
X126062165Y-62200095D01*
X126067449Y-62191701D01*
X126115068Y-62096464D01*
X126115614Y-62095035D01*
X126116044Y-62094456D01*
X126118965Y-62086279D01*
X126122074Y-62078155D01*
X126122125Y-62077434D01*
X126122639Y-62075996D01*
X126170258Y-61885520D01*
X126170758Y-61882138D01*
X126171323Y-61880775D01*
X126172046Y-61873424D01*
X126173126Y-61866127D01*
X126172908Y-61864668D01*
X126173244Y-61861266D01*
X126173244Y-61623171D01*
X126172908Y-61619768D01*
X126173126Y-61618310D01*
X126172046Y-61611012D01*
X126171323Y-61603662D01*
X126170758Y-61602298D01*
X126170258Y-61598917D01*
X126122639Y-61408441D01*
X126122125Y-61407002D01*
X126122074Y-61406282D01*
X126118965Y-61398157D01*
X126116044Y-61389981D01*
X126115614Y-61389401D01*
X126115068Y-61387973D01*
X126067449Y-61292736D01*
X126062163Y-61284339D01*
X126061153Y-61281899D01*
X126058899Y-61279153D01*
X126057006Y-61276145D01*
X126055008Y-61274412D01*
X126048716Y-61266746D01*
X126001098Y-61219127D01*
X125993427Y-61212832D01*
X125991698Y-61210838D01*
X125988690Y-61208944D01*
X125985944Y-61206691D01*
X125983504Y-61205680D01*
X125975108Y-61200395D01*
X125879870Y-61152776D01*
X125861562Y-61145770D01*
X125857978Y-61145515D01*
X125854658Y-61144140D01*
X125835149Y-61142219D01*
X125739911Y-61142219D01*
X125720402Y-61144140D01*
X125717081Y-61145515D01*
X125713498Y-61145770D01*
X125695189Y-61152776D01*
X125599952Y-61200395D01*
X125591555Y-61205680D01*
X125589115Y-61206691D01*
X125586369Y-61208944D01*
X125583361Y-61210838D01*
X125581628Y-61212835D01*
X125573962Y-61219128D01*
X125526343Y-61266746D01*
X125520048Y-61274416D01*
X125518054Y-61276146D01*
X125516160Y-61279153D01*
X125513907Y-61281900D01*
X125512896Y-61284339D01*
X125507611Y-61292736D01*
X125459992Y-61387974D01*
X125459446Y-61389400D01*
X125459016Y-61389981D01*
X125456094Y-61398157D01*
X125452986Y-61406282D01*
X125452934Y-61407004D01*
X125452421Y-61408442D01*
X125404802Y-61598917D01*
X125404301Y-61602298D01*
X125403737Y-61603662D01*
X125403013Y-61611012D01*
X125401934Y-61618310D01*
X125402151Y-61619768D01*
X125401816Y-61623171D01*
X125173244Y-61623171D01*
X125173244Y-61242219D01*
X125171323Y-61222710D01*
X125156391Y-61186662D01*
X125128801Y-61159072D01*
X125092753Y-61144140D01*
X125053735Y-61144140D01*
X125017687Y-61159072D01*
X124990097Y-61186662D01*
X124975165Y-61222710D01*
X124973244Y-61242219D01*
X124973244Y-61865662D01*
X124588640Y-61192605D01*
X124585721Y-61188494D01*
X124584963Y-61186662D01*
X124583096Y-61184795D01*
X124577293Y-61176620D01*
X124566778Y-61168477D01*
X124557373Y-61159072D01*
X124551482Y-61156632D01*
X124546444Y-61152730D01*
X124533615Y-61149231D01*
X124521325Y-61144140D01*
X124514950Y-61144140D01*
X124508801Y-61142463D01*
X124495608Y-61144140D01*
X124482307Y-61144140D01*
X124476418Y-61146579D01*
X124470094Y-61147383D01*
X124458544Y-61153983D01*
X124446259Y-61159072D01*
X124441751Y-61163579D01*
X124436217Y-61166742D01*
X124428074Y-61177256D01*
X124418669Y-61186662D01*
X124416229Y-61192552D01*
X124412327Y-61197591D01*
X124408828Y-61210419D01*
X124403737Y-61222710D01*
X124402754Y-61232687D01*
X124402060Y-61235234D01*
X124402310Y-61237201D01*
X124401816Y-61242219D01*
X123940558Y-61242219D01*
X123930017Y-61210596D01*
X123922026Y-61192696D01*
X123917341Y-61187294D01*
X123914148Y-61180908D01*
X123904679Y-61172695D01*
X123896461Y-61163220D01*
X123890069Y-61160023D01*
X123884672Y-61155343D01*
X123872778Y-61151378D01*
X123861562Y-61145770D01*
X123854434Y-61145263D01*
X123847656Y-61143004D01*
X123835151Y-61143893D01*
X123822642Y-61143004D01*
X123815860Y-61145264D01*
X123808736Y-61145771D01*
X123797527Y-61151374D01*
X123785626Y-61155342D01*
X123780225Y-61160025D01*
X123773837Y-61163220D01*
X123765621Y-61172691D01*
X123756150Y-61180907D01*
X123752955Y-61187296D01*
X123748272Y-61192696D01*
X123740281Y-61210597D01*
X123406948Y-62210596D01*
X123402601Y-62229712D01*
X123274790Y-62229712D01*
X123286812Y-62217690D01*
X123299249Y-62202537D01*
X123314180Y-62166488D01*
X123314179Y-62127470D01*
X123299248Y-62091422D01*
X123271657Y-62063832D01*
X123235609Y-62048901D01*
X123196591Y-62048902D01*
X123160543Y-62063833D01*
X123145389Y-62076270D01*
X123114462Y-62107197D01*
X123009398Y-62142219D01*
X122946613Y-62142219D01*
X122841548Y-62107197D01*
X122774478Y-62040127D01*
X122739024Y-61969218D01*
X122697054Y-61801337D01*
X122697054Y-61683100D01*
X122739024Y-61515218D01*
X122774477Y-61444312D01*
X122841549Y-61377240D01*
X122946613Y-61342219D01*
X123009398Y-61342219D01*
X123114463Y-61377240D01*
X123145390Y-61408167D01*
X123160543Y-61420604D01*
X123196592Y-61435535D01*
X123235610Y-61435535D01*
X123271658Y-61420604D01*
X123299248Y-61393014D01*
X123314179Y-61356966D01*
X123314179Y-61317948D01*
X123299248Y-61281899D01*
X123286811Y-61266746D01*
X123239193Y-61219127D01*
X123224039Y-61206691D01*
X123220720Y-61205316D01*
X123218005Y-61202961D01*
X123200104Y-61194970D01*
X123057248Y-61147351D01*
X123047576Y-61145151D01*
X123045134Y-61144140D01*
X123041595Y-61143791D01*
X123038132Y-61143004D01*
X123035498Y-61143191D01*
X123025625Y-61142219D01*
X122930387Y-61142219D01*
X122920513Y-61143191D01*
X122917879Y-61143004D01*
X122914415Y-61143791D01*
X122910878Y-61144140D01*
X122908436Y-61145151D01*
X122898764Y-61147351D01*
X122755907Y-61194970D01*
X122738007Y-61202961D01*
X122735291Y-61205316D01*
X122731973Y-61206691D01*
X122716819Y-61219127D01*
X122621581Y-61314365D01*
X122615286Y-61322035D01*
X122613292Y-61323765D01*
X122611398Y-61326772D01*
X122609145Y-61329519D01*
X122608134Y-61331958D01*
X122602849Y-61340355D01*
X122555230Y-61435593D01*
X122554684Y-61437019D01*
X122554254Y-61437600D01*
X122551332Y-61445776D01*
X122548224Y-61453901D01*
X122548172Y-61454623D01*
X122547659Y-61456061D01*
X122500040Y-61646536D01*
X122499539Y-61649917D01*
X122498975Y-61651281D01*
X122498251Y-61658631D01*
X122497172Y-61665929D01*
X122497389Y-61667387D01*
X122497054Y-61670790D01*
X122385943Y-61670790D01*
X122385943Y-61031108D01*
X126284355Y-61031108D01*
X126284355Y-62453330D01*
G37*
X84430387Y-48478172D02*
X84573244Y-48525791D01*
X84573244Y-48525791D02*
X84811339Y-48525791D01*
X84811339Y-48525791D02*
X84906577Y-48478172D01*
X84906577Y-48478172D02*
X84954196Y-48430552D01*
X84954196Y-48430552D02*
X85001815Y-48335314D01*
X85001815Y-48335314D02*
X85001815Y-48240076D01*
X85001815Y-48240076D02*
X84954196Y-48144838D01*
X84954196Y-48144838D02*
X84906577Y-48097219D01*
X84906577Y-48097219D02*
X84811339Y-48049600D01*
X84811339Y-48049600D02*
X84620863Y-48001981D01*
X84620863Y-48001981D02*
X84525625Y-47954362D01*
X84525625Y-47954362D02*
X84478006Y-47906743D01*
X84478006Y-47906743D02*
X84430387Y-47811505D01*
X84430387Y-47811505D02*
X84430387Y-47716267D01*
X84430387Y-47716267D02*
X84478006Y-47621029D01*
X84478006Y-47621029D02*
X84525625Y-47573410D01*
X84525625Y-47573410D02*
X84620863Y-47525791D01*
X84620863Y-47525791D02*
X84858958Y-47525791D01*
X84858958Y-47525791D02*
X85001815Y-47573410D01*
X85335149Y-47525791D02*
X85573244Y-48525791D01*
X85573244Y-48525791D02*
X85763720Y-47811505D01*
X85763720Y-47811505D02*
X85954196Y-48525791D01*
X85954196Y-48525791D02*
X86192292Y-47525791D01*
X87144672Y-48430552D02*
X87097053Y-48478172D01*
X87097053Y-48478172D02*
X86954196Y-48525791D01*
X86954196Y-48525791D02*
X86858958Y-48525791D01*
X86858958Y-48525791D02*
X86716101Y-48478172D01*
X86716101Y-48478172D02*
X86620863Y-48382933D01*
X86620863Y-48382933D02*
X86573244Y-48287695D01*
X86573244Y-48287695D02*
X86525625Y-48097219D01*
X86525625Y-48097219D02*
X86525625Y-47954362D01*
X86525625Y-47954362D02*
X86573244Y-47763886D01*
X86573244Y-47763886D02*
X86620863Y-47668648D01*
X86620863Y-47668648D02*
X86716101Y-47573410D01*
X86716101Y-47573410D02*
X86858958Y-47525791D01*
X86858958Y-47525791D02*
X86954196Y-47525791D01*
X86954196Y-47525791D02*
X87097053Y-47573410D01*
X87097053Y-47573410D02*
X87144672Y-47621029D01*
X88049434Y-48525791D02*
X87573244Y-48525791D01*
X87573244Y-48525791D02*
X87573244Y-47525791D01*
X88382768Y-48525791D02*
X88382768Y-47525791D01*
X88954196Y-48525791D02*
X88525625Y-47954362D01*
X88954196Y-47525791D02*
X88382768Y-48097219D01*
D12*
G36*
X86520002Y-80595535D02*
G01*
X86557006Y-80632539D01*
X86601712Y-80721951D01*
X86601712Y-81079704D01*
X86557005Y-81169117D01*
X86520000Y-81206122D01*
X86430588Y-81250828D01*
X86215693Y-81250828D01*
X86187426Y-81236694D01*
X86187426Y-80564962D01*
X86215694Y-80550828D01*
X86430588Y-80550828D01*
X86520002Y-80595535D01*
G37*
G36*
X87887427Y-81236694D02*
G01*
X87859160Y-81250828D01*
X87572836Y-81250828D01*
X87506373Y-81217597D01*
X87473141Y-81151133D01*
X87473141Y-81079094D01*
X87506372Y-81012631D01*
X87572836Y-80979400D01*
X87887427Y-80979400D01*
X87887427Y-81236694D01*
G37*
G36*
X90173141Y-80564962D02*
G01*
X90173141Y-81236694D01*
X90144874Y-81250828D01*
X89929979Y-81250828D01*
X89840565Y-81206121D01*
X89803560Y-81169116D01*
X89758855Y-81079704D01*
X89758855Y-80721951D01*
X89803560Y-80632540D01*
X89840565Y-80595535D01*
X89929979Y-80550828D01*
X90144873Y-80550828D01*
X90173141Y-80564962D01*
G37*
G36*
X91520002Y-80595535D02*
G01*
X91557006Y-80632539D01*
X91601712Y-80721951D01*
X91601712Y-81079704D01*
X91557005Y-81169117D01*
X91520000Y-81206122D01*
X91430588Y-81250828D01*
X91287122Y-81250828D01*
X91197708Y-81206121D01*
X91160703Y-81169116D01*
X91115998Y-81079704D01*
X91115998Y-80721951D01*
X91160703Y-80632540D01*
X91197708Y-80595535D01*
X91287122Y-80550828D01*
X91430588Y-80550828D01*
X91520002Y-80595535D01*
G37*
G36*
X83615028Y-80822257D02*
G01*
X83316969Y-80822257D01*
X83465998Y-80375169D01*
X83615028Y-80822257D01*
G37*
G36*
X95779783Y-81717495D02*
G01*
X81292188Y-81717495D01*
X81292188Y-80543685D01*
X81458855Y-80543685D01*
X81458855Y-80757971D01*
X81459357Y-80763074D01*
X81459032Y-80765262D01*
X81460651Y-80776212D01*
X81461737Y-80787235D01*
X81462584Y-80789279D01*
X81463334Y-80794351D01*
X81534762Y-81080065D01*
X81535533Y-81082223D01*
X81535610Y-81083304D01*
X81540268Y-81095478D01*
X81544655Y-81107756D01*
X81545299Y-81108626D01*
X81546119Y-81110767D01*
X81617548Y-81253624D01*
X81625475Y-81266217D01*
X81626991Y-81269877D01*
X81630372Y-81273996D01*
X81633213Y-81278510D01*
X81636206Y-81281106D01*
X81645646Y-81292608D01*
X81788503Y-81435466D01*
X81811233Y-81454121D01*
X81816212Y-81456183D01*
X81820284Y-81459715D01*
X81847135Y-81471703D01*
X82061421Y-81543131D01*
X82075933Y-81546430D01*
X82079591Y-81547946D01*
X82084893Y-81548468D01*
X82090095Y-81549651D01*
X82094049Y-81549369D01*
X82108855Y-81550828D01*
X82251712Y-81550828D01*
X82266517Y-81549369D01*
X82270472Y-81549651D01*
X82275673Y-81548468D01*
X82280976Y-81547946D01*
X82284633Y-81546430D01*
X82299146Y-81543131D01*
X82513432Y-81471703D01*
X82540283Y-81459715D01*
X82544356Y-81456181D01*
X82549334Y-81454120D01*
X82572065Y-81435465D01*
X82625462Y-81382067D01*
X82817176Y-81382067D01*
X82821325Y-81440448D01*
X82847499Y-81492795D01*
X82891713Y-81531142D01*
X82947237Y-81549650D01*
X83005618Y-81545501D01*
X83057965Y-81519327D01*
X83096312Y-81475113D01*
X83108300Y-81448262D01*
X83216969Y-81122257D01*
X83715028Y-81122257D01*
X83823696Y-81448262D01*
X83835684Y-81475113D01*
X83874031Y-81519328D01*
X83926379Y-81545501D01*
X83984759Y-81549651D01*
X84040283Y-81531142D01*
X84084497Y-81492795D01*
X84110671Y-81440448D01*
X84114821Y-81382068D01*
X84108301Y-81353394D01*
X83624111Y-79900828D01*
X84315997Y-79900828D01*
X84315997Y-81400828D01*
X84318879Y-81430092D01*
X84341277Y-81484164D01*
X84382661Y-81525548D01*
X84436733Y-81547946D01*
X84495261Y-81547946D01*
X84549333Y-81525548D01*
X84590717Y-81484164D01*
X84613115Y-81430092D01*
X84615997Y-81400828D01*
X84615997Y-80465661D01*
X85192904Y-81475249D01*
X85197281Y-81481416D01*
X85198420Y-81484164D01*
X85201219Y-81486963D01*
X85209925Y-81499227D01*
X85225698Y-81511442D01*
X85239804Y-81525548D01*
X85248637Y-81529206D01*
X85256199Y-81535063D01*
X85275447Y-81540312D01*
X85293876Y-81547946D01*
X85303438Y-81547946D01*
X85312663Y-81550462D01*
X85332454Y-81547946D01*
X85352404Y-81547946D01*
X85361237Y-81544286D01*
X85370723Y-81543081D01*
X85388045Y-81533182D01*
X85406476Y-81525548D01*
X85413236Y-81518787D01*
X85421539Y-81514043D01*
X85433752Y-81498271D01*
X85447860Y-81484164D01*
X85451519Y-81475328D01*
X85457374Y-81467769D01*
X85462622Y-81448524D01*
X85470258Y-81430092D01*
X85471731Y-81415127D01*
X85472774Y-81411306D01*
X85472398Y-81408354D01*
X85473140Y-81400828D01*
X85473140Y-79900828D01*
X85887426Y-79900828D01*
X85887426Y-81400828D01*
X85890308Y-81430092D01*
X85912706Y-81484164D01*
X85954090Y-81525548D01*
X86008162Y-81547946D01*
X86066690Y-81547946D01*
X86106296Y-81531539D01*
X86113203Y-81534993D01*
X86140666Y-81545502D01*
X86146041Y-81545883D01*
X86151020Y-81547946D01*
X86180284Y-81550828D01*
X86465998Y-81550828D01*
X86495262Y-81547946D01*
X86500240Y-81545883D01*
X86505616Y-81545502D01*
X86533080Y-81534992D01*
X86675937Y-81463564D01*
X86688530Y-81455636D01*
X86692190Y-81454121D01*
X86696309Y-81450739D01*
X86700823Y-81447899D01*
X86703419Y-81444905D01*
X86714921Y-81435466D01*
X86786350Y-81364037D01*
X86795791Y-81352532D01*
X86798783Y-81349938D01*
X86801621Y-81345428D01*
X86805005Y-81341306D01*
X86806521Y-81337644D01*
X86814448Y-81325053D01*
X86885876Y-81182195D01*
X86896386Y-81154732D01*
X86896767Y-81149356D01*
X86898830Y-81144378D01*
X86901712Y-81115114D01*
X86901712Y-81043685D01*
X87173141Y-81043685D01*
X87173141Y-81186542D01*
X87176023Y-81215806D01*
X87178085Y-81220784D01*
X87178467Y-81226160D01*
X87188977Y-81253623D01*
X87260405Y-81396482D01*
X87263484Y-81401374D01*
X87264255Y-81403685D01*
X87266750Y-81406562D01*
X87276070Y-81421367D01*
X87290276Y-81433688D01*
X87302602Y-81447900D01*
X87317406Y-81457218D01*
X87320284Y-81459714D01*
X87322595Y-81460484D01*
X87327488Y-81463564D01*
X87470346Y-81534993D01*
X87497809Y-81545502D01*
X87503184Y-81545883D01*
X87508163Y-81547946D01*
X87537427Y-81550828D01*
X87894569Y-81550828D01*
X87923833Y-81547946D01*
X87928811Y-81545883D01*
X87934187Y-81545502D01*
X87961650Y-81534992D01*
X87968555Y-81531539D01*
X88008163Y-81547946D01*
X88066691Y-81547946D01*
X88120763Y-81525548D01*
X88162147Y-81484164D01*
X88184545Y-81430092D01*
X88187427Y-81400828D01*
X88187427Y-80615114D01*
X88184545Y-80585850D01*
X88182481Y-80580869D01*
X88182100Y-80575495D01*
X88171591Y-80548031D01*
X88100162Y-80405175D01*
X88097426Y-80400828D01*
X88601712Y-80400828D01*
X88601712Y-81400828D01*
X88604594Y-81430092D01*
X88626992Y-81484164D01*
X88668376Y-81525548D01*
X88722448Y-81547946D01*
X88780976Y-81547946D01*
X88835048Y-81525548D01*
X88876432Y-81484164D01*
X88898830Y-81430092D01*
X88901712Y-81400828D01*
X88901712Y-80721952D01*
X88919417Y-80686542D01*
X89458855Y-80686542D01*
X89458855Y-81115114D01*
X89461737Y-81144378D01*
X89463799Y-81149356D01*
X89464181Y-81154732D01*
X89474691Y-81182196D01*
X89546119Y-81325053D01*
X89554046Y-81337646D01*
X89555562Y-81341306D01*
X89558943Y-81345425D01*
X89561784Y-81349939D01*
X89564777Y-81352535D01*
X89574217Y-81364037D01*
X89645646Y-81435466D01*
X89657150Y-81444907D01*
X89659745Y-81447899D01*
X89664254Y-81450737D01*
X89668377Y-81454121D01*
X89672038Y-81455637D01*
X89684630Y-81463564D01*
X89827488Y-81534992D01*
X89854951Y-81545502D01*
X89860326Y-81545883D01*
X89865305Y-81547946D01*
X89894569Y-81550828D01*
X90180283Y-81550828D01*
X90209547Y-81547946D01*
X90214525Y-81545883D01*
X90219901Y-81545502D01*
X90247364Y-81534992D01*
X90254269Y-81531539D01*
X90293877Y-81547946D01*
X90352405Y-81547946D01*
X90406477Y-81525548D01*
X90447861Y-81484164D01*
X90470259Y-81430092D01*
X90473141Y-81400828D01*
X90473141Y-80686542D01*
X90815998Y-80686542D01*
X90815998Y-81115114D01*
X90818880Y-81144378D01*
X90820942Y-81149356D01*
X90821324Y-81154732D01*
X90831834Y-81182196D01*
X90903262Y-81325053D01*
X90911189Y-81337646D01*
X90912705Y-81341306D01*
X90916086Y-81345425D01*
X90918927Y-81349939D01*
X90921920Y-81352535D01*
X90931360Y-81364037D01*
X91002789Y-81435466D01*
X91014293Y-81444907D01*
X91016888Y-81447899D01*
X91021397Y-81450737D01*
X91025520Y-81454121D01*
X91029181Y-81455637D01*
X91041773Y-81463564D01*
X91184631Y-81534992D01*
X91212094Y-81545502D01*
X91217469Y-81545883D01*
X91222448Y-81547946D01*
X91251712Y-81550828D01*
X91465998Y-81550828D01*
X91495262Y-81547946D01*
X91500240Y-81545883D01*
X91505616Y-81545502D01*
X91533080Y-81534992D01*
X91675937Y-81463564D01*
X91688530Y-81455636D01*
X91692190Y-81454121D01*
X91696309Y-81450739D01*
X91700823Y-81447899D01*
X91703419Y-81444905D01*
X91714921Y-81435466D01*
X91786350Y-81364037D01*
X91795791Y-81352532D01*
X91798783Y-81349938D01*
X91801621Y-81345428D01*
X91805005Y-81341306D01*
X91806521Y-81337644D01*
X91814448Y-81325053D01*
X91885876Y-81182195D01*
X91896386Y-81154732D01*
X91896767Y-81149356D01*
X91898830Y-81144378D01*
X91901712Y-81115114D01*
X91901712Y-80686542D01*
X91898830Y-80657278D01*
X91896767Y-80652299D01*
X91896386Y-80646924D01*
X91885876Y-80619461D01*
X91814448Y-80476603D01*
X91806519Y-80464008D01*
X91805004Y-80460349D01*
X91801622Y-80456228D01*
X91798783Y-80451718D01*
X91795791Y-80449123D01*
X91786349Y-80437618D01*
X91771481Y-80422750D01*
X93246179Y-80422750D01*
X93253308Y-80451278D01*
X93610451Y-81451278D01*
X93623007Y-81477868D01*
X93628060Y-81483450D01*
X93631283Y-81490253D01*
X93647555Y-81504984D01*
X93662287Y-81521257D01*
X93669089Y-81524479D01*
X93674672Y-81529533D01*
X93695346Y-81536916D01*
X93715179Y-81546311D01*
X93722697Y-81546684D01*
X93729790Y-81549218D01*
X93751712Y-81548127D01*
X93773634Y-81549218D01*
X93780726Y-81546684D01*
X93788245Y-81546311D01*
X93808077Y-81536916D01*
X93828752Y-81529533D01*
X93834334Y-81524479D01*
X93841137Y-81521257D01*
X93855868Y-81504984D01*
X93872141Y-81490253D01*
X93875363Y-81483450D01*
X93880417Y-81477868D01*
X93892973Y-81451278D01*
X94250116Y-80451279D01*
X94257245Y-80422750D01*
X94254338Y-80364295D01*
X94229284Y-80311403D01*
X94228440Y-80310639D01*
X94460033Y-80310639D01*
X94464182Y-80369019D01*
X94490356Y-80421368D01*
X94534571Y-80459715D01*
X94590094Y-80478222D01*
X94648474Y-80474073D01*
X94675937Y-80463564D01*
X94818794Y-80392135D01*
X94831387Y-80384207D01*
X94835047Y-80382692D01*
X94839166Y-80379310D01*
X94843680Y-80376470D01*
X94846276Y-80373476D01*
X94857778Y-80364037D01*
X94887426Y-80334389D01*
X94887426Y-81250828D01*
X94608855Y-81250828D01*
X94579591Y-81253710D01*
X94525519Y-81276108D01*
X94484135Y-81317492D01*
X94461737Y-81371564D01*
X94461737Y-81430092D01*
X94484135Y-81484164D01*
X94525519Y-81525548D01*
X94579591Y-81547946D01*
X94608855Y-81550828D01*
X95465998Y-81550828D01*
X95495262Y-81547946D01*
X95549334Y-81525548D01*
X95590718Y-81484164D01*
X95613116Y-81430092D01*
X95613116Y-81371564D01*
X95590718Y-81317492D01*
X95549334Y-81276108D01*
X95495262Y-81253710D01*
X95465998Y-81250828D01*
X95187426Y-81250828D01*
X95187426Y-79900828D01*
X95187415Y-79900722D01*
X95187426Y-79900670D01*
X95187395Y-79900516D01*
X95184544Y-79871564D01*
X95178860Y-79857843D01*
X95175948Y-79843281D01*
X95167769Y-79831068D01*
X95162146Y-79817492D01*
X95151647Y-79806993D01*
X95143382Y-79794651D01*
X95131151Y-79786497D01*
X95120762Y-79776108D01*
X95107043Y-79770425D01*
X95094683Y-79762185D01*
X95080264Y-79759332D01*
X95066690Y-79753710D01*
X95051839Y-79753710D01*
X95037269Y-79750828D01*
X95022859Y-79753710D01*
X95008162Y-79753710D01*
X94994440Y-79759393D01*
X94979879Y-79762306D01*
X94967666Y-79770484D01*
X94954090Y-79776108D01*
X94943591Y-79786606D01*
X94931249Y-79794872D01*
X94912817Y-79817380D01*
X94912706Y-79817492D01*
X94912685Y-79817542D01*
X94912619Y-79817623D01*
X94777999Y-80019551D01*
X94662858Y-80134692D01*
X94541773Y-80195236D01*
X94516887Y-80210901D01*
X94478540Y-80255116D01*
X94460033Y-80310639D01*
X94228440Y-80310639D01*
X94185895Y-80272123D01*
X94130777Y-80252438D01*
X94072322Y-80255345D01*
X94019430Y-80280399D01*
X93980150Y-80323788D01*
X93967594Y-80350378D01*
X93751712Y-80954847D01*
X93535830Y-80350378D01*
X93523274Y-80323788D01*
X93483994Y-80280399D01*
X93431102Y-80255345D01*
X93372647Y-80252438D01*
X93317529Y-80272123D01*
X93274140Y-80311403D01*
X93249086Y-80364295D01*
X93246179Y-80422750D01*
X91771481Y-80422750D01*
X91714920Y-80366190D01*
X91703420Y-80356752D01*
X91700823Y-80353758D01*
X91696306Y-80350915D01*
X91692189Y-80347536D01*
X91688532Y-80346021D01*
X91675937Y-80338093D01*
X91533080Y-80266664D01*
X91505617Y-80256155D01*
X91500242Y-80255773D01*
X91495262Y-80253710D01*
X91465998Y-80250828D01*
X91251712Y-80250828D01*
X91222448Y-80253710D01*
X91217467Y-80255773D01*
X91212093Y-80256155D01*
X91184629Y-80266664D01*
X91041773Y-80338093D01*
X91029179Y-80346020D01*
X91025520Y-80347536D01*
X91021399Y-80350917D01*
X91016887Y-80353758D01*
X91014290Y-80356751D01*
X91002790Y-80366190D01*
X90931361Y-80437618D01*
X90921921Y-80449120D01*
X90918927Y-80451717D01*
X90916085Y-80456231D01*
X90912706Y-80460349D01*
X90911190Y-80464007D01*
X90903262Y-80476603D01*
X90831834Y-80619460D01*
X90821324Y-80646924D01*
X90820942Y-80652299D01*
X90818880Y-80657278D01*
X90815998Y-80686542D01*
X90473141Y-80686542D01*
X90473141Y-79900828D01*
X90470259Y-79871564D01*
X90447861Y-79817492D01*
X90406477Y-79776108D01*
X90352405Y-79753710D01*
X90293877Y-79753710D01*
X90239805Y-79776108D01*
X90198421Y-79817492D01*
X90176023Y-79871564D01*
X90173141Y-79900828D01*
X90173141Y-80250828D01*
X89894569Y-80250828D01*
X89865305Y-80253710D01*
X89860324Y-80255773D01*
X89854950Y-80256155D01*
X89827486Y-80266664D01*
X89684630Y-80338093D01*
X89672036Y-80346020D01*
X89668377Y-80347536D01*
X89664256Y-80350917D01*
X89659744Y-80353758D01*
X89657147Y-80356751D01*
X89645647Y-80366190D01*
X89574218Y-80437618D01*
X89564778Y-80449120D01*
X89561784Y-80451717D01*
X89558942Y-80456231D01*
X89555563Y-80460349D01*
X89554047Y-80464007D01*
X89546119Y-80476603D01*
X89474691Y-80619460D01*
X89464181Y-80646924D01*
X89463799Y-80652299D01*
X89461737Y-80657278D01*
X89458855Y-80686542D01*
X88919417Y-80686542D01*
X88946419Y-80632538D01*
X88983423Y-80595535D01*
X89072837Y-80550828D01*
X89180284Y-80550828D01*
X89209548Y-80547946D01*
X89263620Y-80525548D01*
X89305004Y-80484164D01*
X89327402Y-80430092D01*
X89327402Y-80371564D01*
X89305004Y-80317492D01*
X89263620Y-80276108D01*
X89209548Y-80253710D01*
X89180284Y-80250828D01*
X89037427Y-80250828D01*
X89008163Y-80253710D01*
X89003182Y-80255773D01*
X88997808Y-80256155D01*
X88970344Y-80266664D01*
X88873851Y-80314911D01*
X88835048Y-80276108D01*
X88780976Y-80253710D01*
X88722448Y-80253710D01*
X88668376Y-80276108D01*
X88626992Y-80317492D01*
X88604594Y-80371564D01*
X88601712Y-80400828D01*
X88097426Y-80400828D01*
X88097081Y-80400280D01*
X88096312Y-80397973D01*
X88093819Y-80395098D01*
X88084497Y-80380289D01*
X88070287Y-80367965D01*
X88057966Y-80353758D01*
X88043160Y-80344438D01*
X88040282Y-80341942D01*
X88037970Y-80341171D01*
X88033080Y-80338093D01*
X87890223Y-80266664D01*
X87862760Y-80256155D01*
X87857385Y-80255773D01*
X87852405Y-80253710D01*
X87823141Y-80250828D01*
X87537427Y-80250828D01*
X87508163Y-80253710D01*
X87503185Y-80255771D01*
X87497808Y-80256154D01*
X87470345Y-80266664D01*
X87327487Y-80338093D01*
X87302601Y-80353758D01*
X87264255Y-80397973D01*
X87245747Y-80453495D01*
X87249895Y-80511876D01*
X87276070Y-80564225D01*
X87320285Y-80602571D01*
X87375807Y-80621079D01*
X87434188Y-80616931D01*
X87461651Y-80606421D01*
X87572837Y-80550828D01*
X87787731Y-80550828D01*
X87854195Y-80584060D01*
X87887427Y-80650524D01*
X87887427Y-80665266D01*
X87859159Y-80679400D01*
X87537427Y-80679400D01*
X87508163Y-80682282D01*
X87503184Y-80684344D01*
X87497809Y-80684726D01*
X87470346Y-80695235D01*
X87327488Y-80766664D01*
X87322594Y-80769744D01*
X87320285Y-80770514D01*
X87317409Y-80773007D01*
X87302602Y-80782328D01*
X87290277Y-80796538D01*
X87276070Y-80808860D01*
X87266749Y-80823666D01*
X87264255Y-80826543D01*
X87263484Y-80828853D01*
X87260405Y-80833746D01*
X87188977Y-80976603D01*
X87178467Y-81004067D01*
X87178085Y-81009442D01*
X87176023Y-81014421D01*
X87173141Y-81043685D01*
X86901712Y-81043685D01*
X86901712Y-80686542D01*
X86898830Y-80657278D01*
X86896767Y-80652299D01*
X86896386Y-80646924D01*
X86885876Y-80619461D01*
X86814448Y-80476603D01*
X86806519Y-80464008D01*
X86805004Y-80460349D01*
X86801622Y-80456228D01*
X86798783Y-80451718D01*
X86795791Y-80449123D01*
X86786349Y-80437618D01*
X86714920Y-80366190D01*
X86703420Y-80356752D01*
X86700823Y-80353758D01*
X86696306Y-80350915D01*
X86692189Y-80347536D01*
X86688532Y-80346021D01*
X86675937Y-80338093D01*
X86533080Y-80266664D01*
X86505617Y-80256155D01*
X86500242Y-80255773D01*
X86495262Y-80253710D01*
X86465998Y-80250828D01*
X86187426Y-80250828D01*
X86187426Y-79900828D01*
X86184544Y-79871564D01*
X86162146Y-79817492D01*
X86120762Y-79776108D01*
X86066690Y-79753710D01*
X86008162Y-79753710D01*
X85954090Y-79776108D01*
X85912706Y-79817492D01*
X85890308Y-79871564D01*
X85887426Y-79900828D01*
X85473140Y-79900828D01*
X85470258Y-79871564D01*
X85447860Y-79817492D01*
X85406476Y-79776108D01*
X85352404Y-79753710D01*
X85293876Y-79753710D01*
X85239804Y-79776108D01*
X85198420Y-79817492D01*
X85176022Y-79871564D01*
X85173140Y-79900828D01*
X85173140Y-80835992D01*
X84596233Y-79826407D01*
X84591855Y-79820239D01*
X84590717Y-79817492D01*
X84587917Y-79814692D01*
X84579212Y-79802429D01*
X84563440Y-79790215D01*
X84549333Y-79776108D01*
X84540497Y-79772448D01*
X84532938Y-79766594D01*
X84513693Y-79761345D01*
X84495261Y-79753710D01*
X84485699Y-79753710D01*
X84476474Y-79751194D01*
X84456683Y-79753710D01*
X84436733Y-79753710D01*
X84427899Y-79757369D01*
X84418414Y-79758575D01*
X84401091Y-79768473D01*
X84382661Y-79776108D01*
X84375900Y-79782868D01*
X84367598Y-79787613D01*
X84355384Y-79803384D01*
X84341277Y-79817492D01*
X84337617Y-79826327D01*
X84331763Y-79833887D01*
X84326514Y-79853131D01*
X84318879Y-79871564D01*
X84317405Y-79886530D01*
X84316363Y-79890351D01*
X84316738Y-79893302D01*
X84315997Y-79900828D01*
X83624111Y-79900828D01*
X83608300Y-79853394D01*
X83596312Y-79826543D01*
X83589289Y-79818446D01*
X83584497Y-79808861D01*
X83570288Y-79796537D01*
X83557965Y-79782329D01*
X83548379Y-79777536D01*
X83540283Y-79770514D01*
X83522439Y-79764565D01*
X83505618Y-79756155D01*
X83494929Y-79755395D01*
X83484759Y-79752005D01*
X83465993Y-79753338D01*
X83447237Y-79752006D01*
X83437069Y-79755395D01*
X83426379Y-79756155D01*
X83409555Y-79764566D01*
X83391713Y-79770514D01*
X83383618Y-79777534D01*
X83374031Y-79782328D01*
X83361705Y-79796539D01*
X83347499Y-79808861D01*
X83342706Y-79818445D01*
X83335684Y-79826543D01*
X83323696Y-79853394D01*
X82823696Y-81353394D01*
X82817176Y-81382067D01*
X82625462Y-81382067D01*
X82643493Y-81364036D01*
X82662147Y-81341306D01*
X82684544Y-81287233D01*
X82684543Y-81228707D01*
X82662146Y-81174635D01*
X82620760Y-81133250D01*
X82566688Y-81110853D01*
X82508162Y-81110854D01*
X82454090Y-81133251D01*
X82431359Y-81151906D01*
X82384971Y-81198294D01*
X82227369Y-81250828D01*
X82133198Y-81250828D01*
X81975595Y-81198294D01*
X81874990Y-81097688D01*
X81821809Y-80991328D01*
X81758855Y-80739507D01*
X81758855Y-80562148D01*
X81821809Y-80310327D01*
X81874990Y-80203967D01*
X81975596Y-80103361D01*
X82133198Y-80050828D01*
X82227372Y-80050828D01*
X82384970Y-80103361D01*
X82431360Y-80149751D01*
X82454090Y-80168406D01*
X82508163Y-80190802D01*
X82566689Y-80190802D01*
X82620761Y-80168406D01*
X82662147Y-80127020D01*
X82684543Y-80072948D01*
X82684543Y-80014422D01*
X82662147Y-79960349D01*
X82643492Y-79937619D01*
X82572064Y-79866191D01*
X82549333Y-79847536D01*
X82544353Y-79845473D01*
X82540283Y-79841943D01*
X82513432Y-79829954D01*
X82299146Y-79758526D01*
X82284638Y-79755227D01*
X82280976Y-79753710D01*
X82275667Y-79753187D01*
X82270473Y-79752006D01*
X82266523Y-79752286D01*
X82251712Y-79750828D01*
X82108855Y-79750828D01*
X82094043Y-79752286D01*
X82090094Y-79752006D01*
X82084899Y-79753187D01*
X82079591Y-79753710D01*
X82075929Y-79755226D01*
X82061420Y-79758526D01*
X81847135Y-79829955D01*
X81820284Y-79841943D01*
X81816214Y-79845472D01*
X81811233Y-79847536D01*
X81788503Y-79866191D01*
X81645646Y-80009048D01*
X81636206Y-80020549D01*
X81633213Y-80023146D01*
X81630372Y-80027659D01*
X81626991Y-80031779D01*
X81625475Y-80035438D01*
X81617548Y-80048032D01*
X81546119Y-80190889D01*
X81545299Y-80193029D01*
X81544655Y-80193900D01*
X81540268Y-80206177D01*
X81535610Y-80218352D01*
X81535533Y-80219432D01*
X81534762Y-80221591D01*
X81463334Y-80507305D01*
X81462584Y-80512376D01*
X81461737Y-80514421D01*
X81460651Y-80525443D01*
X81459032Y-80536394D01*
X81459357Y-80538581D01*
X81458855Y-80543685D01*
X81292188Y-80543685D01*
X81292188Y-79584161D01*
X95779783Y-79584161D01*
X95779783Y-81717495D01*
G37*
D10*
G36*
X100259502Y-26881504D02*
G01*
X100060797Y-26881504D01*
X100160149Y-26583446D01*
X100259502Y-26881504D01*
G37*
G36*
X102464577Y-27478330D02*
G01*
X99616490Y-27478330D01*
X99616490Y-27254712D01*
X99727601Y-27254712D01*
X99730367Y-27293632D01*
X99747817Y-27328531D01*
X99777293Y-27354096D01*
X99814309Y-27366434D01*
X99853229Y-27363668D01*
X99888128Y-27346218D01*
X99913693Y-27316742D01*
X99921684Y-27298842D01*
X99994130Y-27081504D01*
X100326168Y-27081504D01*
X100398614Y-27298841D01*
X100406605Y-27316742D01*
X100432170Y-27346218D01*
X100467069Y-27363667D01*
X100505989Y-27366434D01*
X100543005Y-27354095D01*
X100572481Y-27328530D01*
X100589931Y-27293631D01*
X100592697Y-27254711D01*
X100588350Y-27235596D01*
X100408415Y-26695790D01*
X100679197Y-26695790D01*
X100679197Y-26838647D01*
X100679532Y-26842049D01*
X100679315Y-26843508D01*
X100680394Y-26850805D01*
X100681118Y-26858156D01*
X100681682Y-26859519D01*
X100682183Y-26862901D01*
X100729802Y-27053376D01*
X100730315Y-27054813D01*
X100730367Y-27055536D01*
X100733475Y-27063660D01*
X100736397Y-27071837D01*
X100736827Y-27072417D01*
X100737373Y-27073844D01*
X100784992Y-27169082D01*
X100790274Y-27177474D01*
X100791287Y-27179918D01*
X100793543Y-27182667D01*
X100795435Y-27185672D01*
X100797429Y-27187401D01*
X100803724Y-27195071D01*
X100898962Y-27290311D01*
X100914115Y-27302747D01*
X100917434Y-27304122D01*
X100920150Y-27306477D01*
X100938050Y-27314468D01*
X101080907Y-27362087D01*
X101090579Y-27364286D01*
X101093021Y-27365298D01*
X101096558Y-27365646D01*
X101100022Y-27366434D01*
X101102656Y-27366246D01*
X101112530Y-27367219D01*
X101207768Y-27367219D01*
X101217641Y-27366246D01*
X101220275Y-27366434D01*
X101223738Y-27365646D01*
X101227277Y-27365298D01*
X101229719Y-27364286D01*
X101239391Y-27362087D01*
X101382247Y-27314468D01*
X101400148Y-27306477D01*
X101402863Y-27304122D01*
X101406183Y-27302747D01*
X101421336Y-27290310D01*
X101468955Y-27242690D01*
X101481392Y-27227537D01*
X101496323Y-27191488D01*
X101496322Y-27152470D01*
X101481391Y-27116422D01*
X101453800Y-27088832D01*
X101417752Y-27073901D01*
X101378734Y-27073902D01*
X101342686Y-27088833D01*
X101327532Y-27101270D01*
X101296605Y-27132197D01*
X101191541Y-27167219D01*
X101128756Y-27167219D01*
X101023691Y-27132197D01*
X100956621Y-27065127D01*
X100921167Y-26994218D01*
X100879197Y-26826337D01*
X100879197Y-26708100D01*
X100921167Y-26540218D01*
X100956620Y-26469312D01*
X101023692Y-26402240D01*
X101128756Y-26367219D01*
X101191541Y-26367219D01*
X101296606Y-26402240D01*
X101327533Y-26433167D01*
X101342686Y-26445604D01*
X101378735Y-26460535D01*
X101417753Y-26460535D01*
X101453801Y-26445604D01*
X101481391Y-26418014D01*
X101496322Y-26381966D01*
X101496322Y-26342948D01*
X101481391Y-26306899D01*
X101468954Y-26291746D01*
X101424919Y-26247710D01*
X101585880Y-26247710D01*
X101585880Y-26286728D01*
X101600812Y-26322776D01*
X101628402Y-26350366D01*
X101664450Y-26365298D01*
X101683959Y-26367219D01*
X101869673Y-26367219D01*
X101869673Y-27267219D01*
X101871594Y-27286728D01*
X101886526Y-27322776D01*
X101914116Y-27350366D01*
X101950164Y-27365298D01*
X101989182Y-27365298D01*
X102025230Y-27350366D01*
X102052820Y-27322776D01*
X102067752Y-27286728D01*
X102069673Y-27267219D01*
X102069673Y-26367219D01*
X102255387Y-26367219D01*
X102274896Y-26365298D01*
X102310944Y-26350366D01*
X102338534Y-26322776D01*
X102353466Y-26286728D01*
X102353466Y-26247710D01*
X102338534Y-26211662D01*
X102310944Y-26184072D01*
X102274896Y-26169140D01*
X102255387Y-26167219D01*
X101683959Y-26167219D01*
X101664450Y-26169140D01*
X101628402Y-26184072D01*
X101600812Y-26211662D01*
X101585880Y-26247710D01*
X101424919Y-26247710D01*
X101421336Y-26244127D01*
X101406182Y-26231691D01*
X101402863Y-26230316D01*
X101400148Y-26227961D01*
X101382247Y-26219970D01*
X101239391Y-26172351D01*
X101229719Y-26170151D01*
X101227277Y-26169140D01*
X101223738Y-26168791D01*
X101220275Y-26168004D01*
X101217641Y-26168191D01*
X101207768Y-26167219D01*
X101112530Y-26167219D01*
X101102656Y-26168191D01*
X101100022Y-26168004D01*
X101096558Y-26168791D01*
X101093021Y-26169140D01*
X101090579Y-26170151D01*
X101080907Y-26172351D01*
X100938050Y-26219970D01*
X100920150Y-26227961D01*
X100917434Y-26230316D01*
X100914116Y-26231691D01*
X100898962Y-26244127D01*
X100803724Y-26339365D01*
X100797429Y-26347035D01*
X100795435Y-26348765D01*
X100793541Y-26351772D01*
X100791288Y-26354519D01*
X100790277Y-26356958D01*
X100784992Y-26365355D01*
X100737373Y-26460593D01*
X100736827Y-26462019D01*
X100736397Y-26462600D01*
X100733475Y-26470776D01*
X100730367Y-26478901D01*
X100730315Y-26479623D01*
X100729802Y-26481061D01*
X100682183Y-26671536D01*
X100681682Y-26674917D01*
X100681118Y-26676281D01*
X100680394Y-26683631D01*
X100679315Y-26690929D01*
X100679532Y-26692387D01*
X100679197Y-26695790D01*
X100408415Y-26695790D01*
X100255017Y-26235596D01*
X100247026Y-26217696D01*
X100242341Y-26212294D01*
X100239148Y-26205908D01*
X100229679Y-26197695D01*
X100221461Y-26188220D01*
X100215069Y-26185023D01*
X100209672Y-26180343D01*
X100197778Y-26176378D01*
X100186562Y-26170770D01*
X100179434Y-26170263D01*
X100172656Y-26168004D01*
X100160151Y-26168893D01*
X100147642Y-26168004D01*
X100140860Y-26170264D01*
X100133736Y-26170771D01*
X100122527Y-26176374D01*
X100110626Y-26180342D01*
X100105225Y-26185025D01*
X100098837Y-26188220D01*
X100090621Y-26197691D01*
X100081150Y-26205907D01*
X100077955Y-26212296D01*
X100073272Y-26217696D01*
X100065281Y-26235597D01*
X99731948Y-27235596D01*
X99727601Y-27254712D01*
X99616490Y-27254712D01*
X99616490Y-26056108D01*
X102464577Y-26056108D01*
X102464577Y-27478330D01*
G37*
X86858958Y-34881981D02*
X86763720Y-34834362D01*
X86763720Y-34834362D02*
X86620863Y-34834362D01*
X86620863Y-34834362D02*
X86478006Y-34881981D01*
X86478006Y-34881981D02*
X86382768Y-34977219D01*
X86382768Y-34977219D02*
X86335149Y-35072457D01*
X86335149Y-35072457D02*
X86287530Y-35262933D01*
X86287530Y-35262933D02*
X86287530Y-35405790D01*
X86287530Y-35405790D02*
X86335149Y-35596266D01*
X86335149Y-35596266D02*
X86382768Y-35691504D01*
X86382768Y-35691504D02*
X86478006Y-35786743D01*
X86478006Y-35786743D02*
X86620863Y-35834362D01*
X86620863Y-35834362D02*
X86716101Y-35834362D01*
X86716101Y-35834362D02*
X86858958Y-35786743D01*
X86858958Y-35786743D02*
X86906577Y-35739123D01*
X86906577Y-35739123D02*
X86906577Y-35405790D01*
X86906577Y-35405790D02*
X86716101Y-35405790D01*
X87335149Y-35834362D02*
X87335149Y-34834362D01*
X87335149Y-34834362D02*
X87906577Y-35834362D01*
X87906577Y-35834362D02*
X87906577Y-34834362D01*
X88382768Y-35834362D02*
X88382768Y-34834362D01*
X88382768Y-34834362D02*
X88620863Y-34834362D01*
X88620863Y-34834362D02*
X88763720Y-34881981D01*
X88763720Y-34881981D02*
X88858958Y-34977219D01*
X88858958Y-34977219D02*
X88906577Y-35072457D01*
X88906577Y-35072457D02*
X88954196Y-35262933D01*
X88954196Y-35262933D02*
X88954196Y-35405790D01*
X88954196Y-35405790D02*
X88906577Y-35596266D01*
X88906577Y-35596266D02*
X88858958Y-35691504D01*
X88858958Y-35691504D02*
X88763720Y-35786743D01*
X88763720Y-35786743D02*
X88620863Y-35834362D01*
X88620863Y-35834362D02*
X88382768Y-35834362D01*
G36*
X100209502Y-93381504D02*
G01*
X100010797Y-93381504D01*
X100110149Y-93083446D01*
X100209502Y-93381504D01*
G37*
G36*
X102414577Y-93978330D02*
G01*
X99566490Y-93978330D01*
X99566490Y-93754712D01*
X99677601Y-93754712D01*
X99680367Y-93793632D01*
X99697817Y-93828531D01*
X99727293Y-93854096D01*
X99764309Y-93866434D01*
X99803229Y-93863668D01*
X99838128Y-93846218D01*
X99863693Y-93816742D01*
X99871684Y-93798842D01*
X99944130Y-93581504D01*
X100276168Y-93581504D01*
X100348614Y-93798841D01*
X100356605Y-93816742D01*
X100382170Y-93846218D01*
X100417069Y-93863667D01*
X100455989Y-93866434D01*
X100493005Y-93854095D01*
X100522481Y-93828530D01*
X100539931Y-93793631D01*
X100542697Y-93754711D01*
X100538350Y-93735596D01*
X100358415Y-93195790D01*
X100629197Y-93195790D01*
X100629197Y-93338647D01*
X100629532Y-93342049D01*
X100629315Y-93343508D01*
X100630394Y-93350805D01*
X100631118Y-93358156D01*
X100631682Y-93359519D01*
X100632183Y-93362901D01*
X100679802Y-93553376D01*
X100680315Y-93554813D01*
X100680367Y-93555536D01*
X100683475Y-93563660D01*
X100686397Y-93571837D01*
X100686827Y-93572417D01*
X100687373Y-93573844D01*
X100734992Y-93669082D01*
X100740274Y-93677474D01*
X100741287Y-93679918D01*
X100743543Y-93682667D01*
X100745435Y-93685672D01*
X100747429Y-93687401D01*
X100753724Y-93695071D01*
X100848962Y-93790311D01*
X100864115Y-93802747D01*
X100867434Y-93804122D01*
X100870150Y-93806477D01*
X100888050Y-93814468D01*
X101030907Y-93862087D01*
X101040579Y-93864286D01*
X101043021Y-93865298D01*
X101046558Y-93865646D01*
X101050022Y-93866434D01*
X101052656Y-93866246D01*
X101062530Y-93867219D01*
X101157768Y-93867219D01*
X101167641Y-93866246D01*
X101170275Y-93866434D01*
X101173738Y-93865646D01*
X101177277Y-93865298D01*
X101179719Y-93864286D01*
X101189391Y-93862087D01*
X101332247Y-93814468D01*
X101350148Y-93806477D01*
X101352863Y-93804122D01*
X101356183Y-93802747D01*
X101371336Y-93790310D01*
X101418955Y-93742690D01*
X101431392Y-93727537D01*
X101446323Y-93691488D01*
X101446322Y-93652470D01*
X101431391Y-93616422D01*
X101403800Y-93588832D01*
X101367752Y-93573901D01*
X101328734Y-93573902D01*
X101292686Y-93588833D01*
X101277532Y-93601270D01*
X101246605Y-93632197D01*
X101141541Y-93667219D01*
X101078756Y-93667219D01*
X100973691Y-93632197D01*
X100906621Y-93565127D01*
X100871167Y-93494218D01*
X100829197Y-93326337D01*
X100829197Y-93208100D01*
X100871167Y-93040218D01*
X100906620Y-92969312D01*
X100973692Y-92902240D01*
X101078756Y-92867219D01*
X101141541Y-92867219D01*
X101246606Y-92902240D01*
X101277533Y-92933167D01*
X101292686Y-92945604D01*
X101328735Y-92960535D01*
X101367753Y-92960535D01*
X101403801Y-92945604D01*
X101431391Y-92918014D01*
X101446322Y-92881966D01*
X101446322Y-92842948D01*
X101431391Y-92806899D01*
X101418954Y-92791746D01*
X101374919Y-92747710D01*
X101535880Y-92747710D01*
X101535880Y-92786728D01*
X101550812Y-92822776D01*
X101578402Y-92850366D01*
X101614450Y-92865298D01*
X101633959Y-92867219D01*
X101819673Y-92867219D01*
X101819673Y-93767219D01*
X101821594Y-93786728D01*
X101836526Y-93822776D01*
X101864116Y-93850366D01*
X101900164Y-93865298D01*
X101939182Y-93865298D01*
X101975230Y-93850366D01*
X102002820Y-93822776D01*
X102017752Y-93786728D01*
X102019673Y-93767219D01*
X102019673Y-92867219D01*
X102205387Y-92867219D01*
X102224896Y-92865298D01*
X102260944Y-92850366D01*
X102288534Y-92822776D01*
X102303466Y-92786728D01*
X102303466Y-92747710D01*
X102288534Y-92711662D01*
X102260944Y-92684072D01*
X102224896Y-92669140D01*
X102205387Y-92667219D01*
X101633959Y-92667219D01*
X101614450Y-92669140D01*
X101578402Y-92684072D01*
X101550812Y-92711662D01*
X101535880Y-92747710D01*
X101374919Y-92747710D01*
X101371336Y-92744127D01*
X101356182Y-92731691D01*
X101352863Y-92730316D01*
X101350148Y-92727961D01*
X101332247Y-92719970D01*
X101189391Y-92672351D01*
X101179719Y-92670151D01*
X101177277Y-92669140D01*
X101173738Y-92668791D01*
X101170275Y-92668004D01*
X101167641Y-92668191D01*
X101157768Y-92667219D01*
X101062530Y-92667219D01*
X101052656Y-92668191D01*
X101050022Y-92668004D01*
X101046558Y-92668791D01*
X101043021Y-92669140D01*
X101040579Y-92670151D01*
X101030907Y-92672351D01*
X100888050Y-92719970D01*
X100870150Y-92727961D01*
X100867434Y-92730316D01*
X100864116Y-92731691D01*
X100848962Y-92744127D01*
X100753724Y-92839365D01*
X100747429Y-92847035D01*
X100745435Y-92848765D01*
X100743541Y-92851772D01*
X100741288Y-92854519D01*
X100740277Y-92856958D01*
X100734992Y-92865355D01*
X100687373Y-92960593D01*
X100686827Y-92962019D01*
X100686397Y-92962600D01*
X100683475Y-92970776D01*
X100680367Y-92978901D01*
X100680315Y-92979623D01*
X100679802Y-92981061D01*
X100632183Y-93171536D01*
X100631682Y-93174917D01*
X100631118Y-93176281D01*
X100630394Y-93183631D01*
X100629315Y-93190929D01*
X100629532Y-93192387D01*
X100629197Y-93195790D01*
X100358415Y-93195790D01*
X100205017Y-92735596D01*
X100197026Y-92717696D01*
X100192341Y-92712294D01*
X100189148Y-92705908D01*
X100179679Y-92697695D01*
X100171461Y-92688220D01*
X100165069Y-92685023D01*
X100159672Y-92680343D01*
X100147778Y-92676378D01*
X100136562Y-92670770D01*
X100129434Y-92670263D01*
X100122656Y-92668004D01*
X100110151Y-92668893D01*
X100097642Y-92668004D01*
X100090860Y-92670264D01*
X100083736Y-92670771D01*
X100072527Y-92676374D01*
X100060626Y-92680342D01*
X100055225Y-92685025D01*
X100048837Y-92688220D01*
X100040621Y-92697691D01*
X100031150Y-92705907D01*
X100027955Y-92712296D01*
X100023272Y-92717696D01*
X100015281Y-92735597D01*
X99681948Y-93735596D01*
X99677601Y-93754712D01*
X99566490Y-93754712D01*
X99566490Y-92556108D01*
X102414577Y-92556108D01*
X102414577Y-93978330D01*
G37*
X84716102Y-45941029D02*
X84858959Y-45988648D01*
X84858959Y-45988648D02*
X85097054Y-45988648D01*
X85097054Y-45988648D02*
X85192292Y-45941029D01*
X85192292Y-45941029D02*
X85239911Y-45893409D01*
X85239911Y-45893409D02*
X85287530Y-45798171D01*
X85287530Y-45798171D02*
X85287530Y-45702933D01*
X85287530Y-45702933D02*
X85239911Y-45607695D01*
X85239911Y-45607695D02*
X85192292Y-45560076D01*
X85192292Y-45560076D02*
X85097054Y-45512457D01*
X85097054Y-45512457D02*
X84906578Y-45464838D01*
X84906578Y-45464838D02*
X84811340Y-45417219D01*
X84811340Y-45417219D02*
X84763721Y-45369600D01*
X84763721Y-45369600D02*
X84716102Y-45274362D01*
X84716102Y-45274362D02*
X84716102Y-45179124D01*
X84716102Y-45179124D02*
X84763721Y-45083886D01*
X84763721Y-45083886D02*
X84811340Y-45036267D01*
X84811340Y-45036267D02*
X84906578Y-44988648D01*
X84906578Y-44988648D02*
X85144673Y-44988648D01*
X85144673Y-44988648D02*
X85287530Y-45036267D01*
X85620864Y-44988648D02*
X85858959Y-45988648D01*
X85858959Y-45988648D02*
X86049435Y-45274362D01*
X86049435Y-45274362D02*
X86239911Y-45988648D01*
X86239911Y-45988648D02*
X86478007Y-44988648D01*
X86858959Y-45988648D02*
X86858959Y-44988648D01*
X86858959Y-44988648D02*
X87097054Y-44988648D01*
X87097054Y-44988648D02*
X87239911Y-45036267D01*
X87239911Y-45036267D02*
X87335149Y-45131505D01*
X87335149Y-45131505D02*
X87382768Y-45226743D01*
X87382768Y-45226743D02*
X87430387Y-45417219D01*
X87430387Y-45417219D02*
X87430387Y-45560076D01*
X87430387Y-45560076D02*
X87382768Y-45750552D01*
X87382768Y-45750552D02*
X87335149Y-45845790D01*
X87335149Y-45845790D02*
X87239911Y-45941029D01*
X87239911Y-45941029D02*
X87097054Y-45988648D01*
X87097054Y-45988648D02*
X86858959Y-45988648D01*
X87858959Y-45988648D02*
X87858959Y-44988648D01*
X88525625Y-44988648D02*
X88716101Y-44988648D01*
X88716101Y-44988648D02*
X88811339Y-45036267D01*
X88811339Y-45036267D02*
X88906577Y-45131505D01*
X88906577Y-45131505D02*
X88954196Y-45321981D01*
X88954196Y-45321981D02*
X88954196Y-45655314D01*
X88954196Y-45655314D02*
X88906577Y-45845790D01*
X88906577Y-45845790D02*
X88811339Y-45941029D01*
X88811339Y-45941029D02*
X88716101Y-45988648D01*
X88716101Y-45988648D02*
X88525625Y-45988648D01*
X88525625Y-45988648D02*
X88430387Y-45941029D01*
X88430387Y-45941029D02*
X88335149Y-45845790D01*
X88335149Y-45845790D02*
X88287530Y-45655314D01*
X88287530Y-45655314D02*
X88287530Y-45321981D01*
X88287530Y-45321981D02*
X88335149Y-45131505D01*
X88335149Y-45131505D02*
X88430387Y-45036267D01*
X88430387Y-45036267D02*
X88525625Y-44988648D01*
X86049435Y-37377219D02*
X86668482Y-37377219D01*
X86668482Y-37377219D02*
X86335149Y-37758171D01*
X86335149Y-37758171D02*
X86478006Y-37758171D01*
X86478006Y-37758171D02*
X86573244Y-37805790D01*
X86573244Y-37805790D02*
X86620863Y-37853409D01*
X86620863Y-37853409D02*
X86668482Y-37948647D01*
X86668482Y-37948647D02*
X86668482Y-38186742D01*
X86668482Y-38186742D02*
X86620863Y-38281980D01*
X86620863Y-38281980D02*
X86573244Y-38329600D01*
X86573244Y-38329600D02*
X86478006Y-38377219D01*
X86478006Y-38377219D02*
X86192292Y-38377219D01*
X86192292Y-38377219D02*
X86097054Y-38329600D01*
X86097054Y-38329600D02*
X86049435Y-38281980D01*
X87097054Y-38281980D02*
X87144673Y-38329600D01*
X87144673Y-38329600D02*
X87097054Y-38377219D01*
X87097054Y-38377219D02*
X87049435Y-38329600D01*
X87049435Y-38329600D02*
X87097054Y-38281980D01*
X87097054Y-38281980D02*
X87097054Y-38377219D01*
X87478006Y-37377219D02*
X88097053Y-37377219D01*
X88097053Y-37377219D02*
X87763720Y-37758171D01*
X87763720Y-37758171D02*
X87906577Y-37758171D01*
X87906577Y-37758171D02*
X88001815Y-37805790D01*
X88001815Y-37805790D02*
X88049434Y-37853409D01*
X88049434Y-37853409D02*
X88097053Y-37948647D01*
X88097053Y-37948647D02*
X88097053Y-38186742D01*
X88097053Y-38186742D02*
X88049434Y-38281980D01*
X88049434Y-38281980D02*
X88001815Y-38329600D01*
X88001815Y-38329600D02*
X87906577Y-38377219D01*
X87906577Y-38377219D02*
X87620863Y-38377219D01*
X87620863Y-38377219D02*
X87525625Y-38329600D01*
X87525625Y-38329600D02*
X87478006Y-38281980D01*
X88382768Y-37377219D02*
X88716101Y-38377219D01*
X88716101Y-38377219D02*
X89049434Y-37377219D01*
X86858958Y-39967695D02*
X86763720Y-39920076D01*
X86763720Y-39920076D02*
X86620863Y-39920076D01*
X86620863Y-39920076D02*
X86478006Y-39967695D01*
X86478006Y-39967695D02*
X86382768Y-40062933D01*
X86382768Y-40062933D02*
X86335149Y-40158171D01*
X86335149Y-40158171D02*
X86287530Y-40348647D01*
X86287530Y-40348647D02*
X86287530Y-40491504D01*
X86287530Y-40491504D02*
X86335149Y-40681980D01*
X86335149Y-40681980D02*
X86382768Y-40777218D01*
X86382768Y-40777218D02*
X86478006Y-40872457D01*
X86478006Y-40872457D02*
X86620863Y-40920076D01*
X86620863Y-40920076D02*
X86716101Y-40920076D01*
X86716101Y-40920076D02*
X86858958Y-40872457D01*
X86858958Y-40872457D02*
X86906577Y-40824837D01*
X86906577Y-40824837D02*
X86906577Y-40491504D01*
X86906577Y-40491504D02*
X86716101Y-40491504D01*
X87335149Y-40920076D02*
X87335149Y-39920076D01*
X87335149Y-39920076D02*
X87906577Y-40920076D01*
X87906577Y-40920076D02*
X87906577Y-39920076D01*
X88382768Y-40920076D02*
X88382768Y-39920076D01*
X88382768Y-39920076D02*
X88620863Y-39920076D01*
X88620863Y-39920076D02*
X88763720Y-39967695D01*
X88763720Y-39967695D02*
X88858958Y-40062933D01*
X88858958Y-40062933D02*
X88906577Y-40158171D01*
X88906577Y-40158171D02*
X88954196Y-40348647D01*
X88954196Y-40348647D02*
X88954196Y-40491504D01*
X88954196Y-40491504D02*
X88906577Y-40681980D01*
X88906577Y-40681980D02*
X88858958Y-40777218D01*
X88858958Y-40777218D02*
X88763720Y-40872457D01*
X88763720Y-40872457D02*
X88620863Y-40920076D01*
X88620863Y-40920076D02*
X88382768Y-40920076D01*
X87001815Y-33302933D02*
X86668482Y-32826742D01*
X86430387Y-33302933D02*
X86430387Y-32302933D01*
X86430387Y-32302933D02*
X86811339Y-32302933D01*
X86811339Y-32302933D02*
X86906577Y-32350552D01*
X86906577Y-32350552D02*
X86954196Y-32398171D01*
X86954196Y-32398171D02*
X87001815Y-32493409D01*
X87001815Y-32493409D02*
X87001815Y-32636266D01*
X87001815Y-32636266D02*
X86954196Y-32731504D01*
X86954196Y-32731504D02*
X86906577Y-32779123D01*
X86906577Y-32779123D02*
X86811339Y-32826742D01*
X86811339Y-32826742D02*
X86430387Y-32826742D01*
X87335149Y-32302933D02*
X88001815Y-33302933D01*
X88001815Y-32302933D02*
X87335149Y-33302933D01*
X88382768Y-33302933D02*
X88382768Y-32302933D01*
X88382768Y-32302933D02*
X88620863Y-32302933D01*
X88620863Y-32302933D02*
X88763720Y-32350552D01*
X88763720Y-32350552D02*
X88858958Y-32445790D01*
X88858958Y-32445790D02*
X88906577Y-32541028D01*
X88906577Y-32541028D02*
X88954196Y-32731504D01*
X88954196Y-32731504D02*
X88954196Y-32874361D01*
X88954196Y-32874361D02*
X88906577Y-33064837D01*
X88906577Y-33064837D02*
X88858958Y-33160075D01*
X88858958Y-33160075D02*
X88763720Y-33255314D01*
X88763720Y-33255314D02*
X88620863Y-33302933D01*
X88620863Y-33302933D02*
X88382768Y-33302933D01*
X85763720Y-42784838D02*
X85763720Y-43451505D01*
X85763720Y-42880076D02*
X85811339Y-42832457D01*
X85811339Y-42832457D02*
X85906577Y-42784838D01*
X85906577Y-42784838D02*
X86049434Y-42784838D01*
X86049434Y-42784838D02*
X86144672Y-42832457D01*
X86144672Y-42832457D02*
X86192291Y-42927695D01*
X86192291Y-42927695D02*
X86192291Y-43451505D01*
X87239910Y-43451505D02*
X86906577Y-42975314D01*
X86668482Y-43451505D02*
X86668482Y-42451505D01*
X86668482Y-42451505D02*
X87049434Y-42451505D01*
X87049434Y-42451505D02*
X87144672Y-42499124D01*
X87144672Y-42499124D02*
X87192291Y-42546743D01*
X87192291Y-42546743D02*
X87239910Y-42641981D01*
X87239910Y-42641981D02*
X87239910Y-42784838D01*
X87239910Y-42784838D02*
X87192291Y-42880076D01*
X87192291Y-42880076D02*
X87144672Y-42927695D01*
X87144672Y-42927695D02*
X87049434Y-42975314D01*
X87049434Y-42975314D02*
X86668482Y-42975314D01*
X87620863Y-43403886D02*
X87763720Y-43451505D01*
X87763720Y-43451505D02*
X88001815Y-43451505D01*
X88001815Y-43451505D02*
X88097053Y-43403886D01*
X88097053Y-43403886D02*
X88144672Y-43356266D01*
X88144672Y-43356266D02*
X88192291Y-43261028D01*
X88192291Y-43261028D02*
X88192291Y-43165790D01*
X88192291Y-43165790D02*
X88144672Y-43070552D01*
X88144672Y-43070552D02*
X88097053Y-43022933D01*
X88097053Y-43022933D02*
X88001815Y-42975314D01*
X88001815Y-42975314D02*
X87811339Y-42927695D01*
X87811339Y-42927695D02*
X87716101Y-42880076D01*
X87716101Y-42880076D02*
X87668482Y-42832457D01*
X87668482Y-42832457D02*
X87620863Y-42737219D01*
X87620863Y-42737219D02*
X87620863Y-42641981D01*
X87620863Y-42641981D02*
X87668482Y-42546743D01*
X87668482Y-42546743D02*
X87716101Y-42499124D01*
X87716101Y-42499124D02*
X87811339Y-42451505D01*
X87811339Y-42451505D02*
X88049434Y-42451505D01*
X88049434Y-42451505D02*
X88192291Y-42499124D01*
X88478006Y-42451505D02*
X89049434Y-42451505D01*
X88763720Y-43451505D02*
X88763720Y-42451505D01*
G36*
X96146605Y-92902240D02*
G01*
X96213678Y-92969313D01*
X96249130Y-93040218D01*
X96291101Y-93208099D01*
X96291101Y-93326337D01*
X96249130Y-93494218D01*
X96213677Y-93565124D01*
X96146606Y-93632197D01*
X96041541Y-93667219D01*
X95919673Y-93667219D01*
X95919673Y-92867219D01*
X96041541Y-92867219D01*
X96146605Y-92902240D01*
G37*
G36*
X95236627Y-92897024D02*
G01*
X95261296Y-92921692D01*
X95291101Y-92981302D01*
X95291101Y-93076945D01*
X95261296Y-93136554D01*
X95236627Y-93161222D01*
X95177018Y-93191028D01*
X94919673Y-93191028D01*
X94919673Y-92867219D01*
X95177018Y-92867219D01*
X95236627Y-92897024D01*
G37*
G36*
X97554568Y-93978330D02*
G01*
X94608562Y-93978330D01*
X94608562Y-92767219D01*
X94719673Y-92767219D01*
X94719673Y-93767219D01*
X94721594Y-93786728D01*
X94736526Y-93822776D01*
X94764116Y-93850366D01*
X94800164Y-93865298D01*
X94839182Y-93865298D01*
X94875230Y-93850366D01*
X94902820Y-93822776D01*
X94917752Y-93786728D01*
X94919673Y-93767219D01*
X94919673Y-93391028D01*
X95005703Y-93391028D01*
X95309178Y-93824565D01*
X95321939Y-93839446D01*
X95354844Y-93860415D01*
X95393269Y-93867196D01*
X95431363Y-93858756D01*
X95463328Y-93836381D01*
X95484297Y-93803476D01*
X95491078Y-93765052D01*
X95482638Y-93726957D01*
X95473024Y-93709873D01*
X95243056Y-93381347D01*
X95245346Y-93380471D01*
X95340584Y-93332852D01*
X95348980Y-93327566D01*
X95351420Y-93326556D01*
X95354166Y-93324302D01*
X95357174Y-93322409D01*
X95358903Y-93320414D01*
X95366574Y-93314120D01*
X95414192Y-93266501D01*
X95420484Y-93258834D01*
X95422482Y-93257102D01*
X95424375Y-93254093D01*
X95426629Y-93251348D01*
X95427639Y-93248907D01*
X95432925Y-93240511D01*
X95480544Y-93145274D01*
X95487550Y-93126965D01*
X95487804Y-93123381D01*
X95489180Y-93120061D01*
X95491101Y-93100552D01*
X95491101Y-92957695D01*
X95489180Y-92938186D01*
X95487804Y-92934865D01*
X95487550Y-92931282D01*
X95480544Y-92912973D01*
X95432925Y-92817736D01*
X95427639Y-92809339D01*
X95426629Y-92806899D01*
X95424375Y-92804153D01*
X95422482Y-92801145D01*
X95420484Y-92799412D01*
X95414192Y-92791746D01*
X95389666Y-92767219D01*
X95719673Y-92767219D01*
X95719673Y-93767219D01*
X95721594Y-93786728D01*
X95736526Y-93822776D01*
X95764116Y-93850366D01*
X95800164Y-93865298D01*
X95819673Y-93867219D01*
X96057768Y-93867219D01*
X96067641Y-93866246D01*
X96070275Y-93866434D01*
X96073738Y-93865646D01*
X96077277Y-93865298D01*
X96079719Y-93864286D01*
X96089391Y-93862087D01*
X96232247Y-93814468D01*
X96250148Y-93806477D01*
X96252863Y-93804122D01*
X96256183Y-93802747D01*
X96271336Y-93790310D01*
X96366574Y-93695071D01*
X96372866Y-93687404D01*
X96374863Y-93685673D01*
X96376756Y-93682665D01*
X96379011Y-93679918D01*
X96380022Y-93677476D01*
X96385306Y-93669082D01*
X96432925Y-93573845D01*
X96433471Y-93572416D01*
X96433901Y-93571837D01*
X96436822Y-93563660D01*
X96439931Y-93555536D01*
X96439982Y-93554815D01*
X96440496Y-93553377D01*
X96488115Y-93362901D01*
X96488615Y-93359519D01*
X96489180Y-93358156D01*
X96489903Y-93350805D01*
X96490983Y-93343508D01*
X96490765Y-93342049D01*
X96491101Y-93338647D01*
X96491101Y-93195790D01*
X96490765Y-93192387D01*
X96490983Y-93190929D01*
X96489903Y-93183631D01*
X96489180Y-93176281D01*
X96488615Y-93174917D01*
X96488115Y-93171536D01*
X96440496Y-92981060D01*
X96439982Y-92979621D01*
X96439931Y-92978901D01*
X96436822Y-92970776D01*
X96433901Y-92962600D01*
X96433471Y-92962020D01*
X96432925Y-92960592D01*
X96385306Y-92865355D01*
X96380019Y-92856956D01*
X96379010Y-92854519D01*
X96376758Y-92851775D01*
X96374863Y-92848764D01*
X96372865Y-92847031D01*
X96366574Y-92839365D01*
X96292196Y-92764987D01*
X96576841Y-92764987D01*
X96583597Y-92803416D01*
X96592450Y-92820907D01*
X96910149Y-93320148D01*
X96910149Y-93767219D01*
X96912070Y-93786728D01*
X96927002Y-93822776D01*
X96954592Y-93850366D01*
X96990640Y-93865298D01*
X97029658Y-93865298D01*
X97065706Y-93850366D01*
X97093296Y-93822776D01*
X97108228Y-93786728D01*
X97110149Y-93767219D01*
X97110149Y-93320148D01*
X97427848Y-92820906D01*
X97436701Y-92803416D01*
X97443457Y-92764987D01*
X97434993Y-92726898D01*
X97412597Y-92694947D01*
X97379679Y-92673999D01*
X97341250Y-92667244D01*
X97303161Y-92675708D01*
X97271211Y-92698104D01*
X97259116Y-92713531D01*
X97010148Y-93104765D01*
X96761182Y-92713531D01*
X96749088Y-92698104D01*
X96717137Y-92675708D01*
X96679048Y-92667244D01*
X96640619Y-92674000D01*
X96607701Y-92694947D01*
X96585305Y-92726898D01*
X96576841Y-92764987D01*
X96292196Y-92764987D01*
X96271336Y-92744127D01*
X96256182Y-92731691D01*
X96252863Y-92730316D01*
X96250148Y-92727961D01*
X96232247Y-92719970D01*
X96089391Y-92672351D01*
X96079719Y-92670151D01*
X96077277Y-92669140D01*
X96073738Y-92668791D01*
X96070275Y-92668004D01*
X96067641Y-92668191D01*
X96057768Y-92667219D01*
X95819673Y-92667219D01*
X95800164Y-92669140D01*
X95764116Y-92684072D01*
X95736526Y-92711662D01*
X95721594Y-92747710D01*
X95719673Y-92767219D01*
X95389666Y-92767219D01*
X95366574Y-92744127D01*
X95358903Y-92737832D01*
X95357174Y-92735838D01*
X95354166Y-92733944D01*
X95351420Y-92731691D01*
X95348980Y-92730680D01*
X95340584Y-92725395D01*
X95245346Y-92677776D01*
X95227038Y-92670770D01*
X95223454Y-92670515D01*
X95220134Y-92669140D01*
X95200625Y-92667219D01*
X94819673Y-92667219D01*
X94800164Y-92669140D01*
X94764116Y-92684072D01*
X94736526Y-92711662D01*
X94721594Y-92747710D01*
X94719673Y-92767219D01*
X94608562Y-92767219D01*
X94608562Y-92556108D01*
X97554568Y-92556108D01*
X97554568Y-93978330D01*
G37*
D11*
X70804819Y-64666665D02*
X70804819Y-63999999D01*
X70804819Y-63999999D02*
X71804819Y-64428570D01*
X70804819Y-63428570D02*
X70804819Y-63333332D01*
X70804819Y-63333332D02*
X70852438Y-63238094D01*
X70852438Y-63238094D02*
X70900057Y-63190475D01*
X70900057Y-63190475D02*
X70995295Y-63142856D01*
X70995295Y-63142856D02*
X71185771Y-63095237D01*
X71185771Y-63095237D02*
X71423866Y-63095237D01*
X71423866Y-63095237D02*
X71614342Y-63142856D01*
X71614342Y-63142856D02*
X71709580Y-63190475D01*
X71709580Y-63190475D02*
X71757200Y-63238094D01*
X71757200Y-63238094D02*
X71804819Y-63333332D01*
X71804819Y-63333332D02*
X71804819Y-63428570D01*
X71804819Y-63428570D02*
X71757200Y-63523808D01*
X71757200Y-63523808D02*
X71709580Y-63571427D01*
X71709580Y-63571427D02*
X71614342Y-63619046D01*
X71614342Y-63619046D02*
X71423866Y-63666665D01*
X71423866Y-63666665D02*
X71185771Y-63666665D01*
X71185771Y-63666665D02*
X70995295Y-63619046D01*
X70995295Y-63619046D02*
X70900057Y-63571427D01*
X70900057Y-63571427D02*
X70852438Y-63523808D01*
X70852438Y-63523808D02*
X70804819Y-63428570D01*
X71709580Y-62666665D02*
X71757200Y-62619046D01*
X71757200Y-62619046D02*
X71804819Y-62666665D01*
X71804819Y-62666665D02*
X71757200Y-62714284D01*
X71757200Y-62714284D02*
X71709580Y-62666665D01*
X71709580Y-62666665D02*
X71804819Y-62666665D01*
X70804819Y-61999999D02*
X70804819Y-61904761D01*
X70804819Y-61904761D02*
X70852438Y-61809523D01*
X70852438Y-61809523D02*
X70900057Y-61761904D01*
X70900057Y-61761904D02*
X70995295Y-61714285D01*
X70995295Y-61714285D02*
X71185771Y-61666666D01*
X71185771Y-61666666D02*
X71423866Y-61666666D01*
X71423866Y-61666666D02*
X71614342Y-61714285D01*
X71614342Y-61714285D02*
X71709580Y-61761904D01*
X71709580Y-61761904D02*
X71757200Y-61809523D01*
X71757200Y-61809523D02*
X71804819Y-61904761D01*
X71804819Y-61904761D02*
X71804819Y-61999999D01*
X71804819Y-61999999D02*
X71757200Y-62095237D01*
X71757200Y-62095237D02*
X71709580Y-62142856D01*
X71709580Y-62142856D02*
X71614342Y-62190475D01*
X71614342Y-62190475D02*
X71423866Y-62238094D01*
X71423866Y-62238094D02*
X71185771Y-62238094D01*
X71185771Y-62238094D02*
X70995295Y-62190475D01*
X70995295Y-62190475D02*
X70900057Y-62142856D01*
X70900057Y-62142856D02*
X70852438Y-62095237D01*
X70852438Y-62095237D02*
X70804819Y-61999999D01*
X70804819Y-61047618D02*
X70804819Y-60952380D01*
X70804819Y-60952380D02*
X70852438Y-60857142D01*
X70852438Y-60857142D02*
X70900057Y-60809523D01*
X70900057Y-60809523D02*
X70995295Y-60761904D01*
X70995295Y-60761904D02*
X71185771Y-60714285D01*
X71185771Y-60714285D02*
X71423866Y-60714285D01*
X71423866Y-60714285D02*
X71614342Y-60761904D01*
X71614342Y-60761904D02*
X71709580Y-60809523D01*
X71709580Y-60809523D02*
X71757200Y-60857142D01*
X71757200Y-60857142D02*
X71804819Y-60952380D01*
X71804819Y-60952380D02*
X71804819Y-61047618D01*
X71804819Y-61047618D02*
X71757200Y-61142856D01*
X71757200Y-61142856D02*
X71709580Y-61190475D01*
X71709580Y-61190475D02*
X71614342Y-61238094D01*
X71614342Y-61238094D02*
X71423866Y-61285713D01*
X71423866Y-61285713D02*
X71185771Y-61285713D01*
X71185771Y-61285713D02*
X70995295Y-61238094D01*
X70995295Y-61238094D02*
X70900057Y-61190475D01*
X70900057Y-61190475D02*
X70852438Y-61142856D01*
X70852438Y-61142856D02*
X70804819Y-61047618D01*
X70804819Y-60095237D02*
X70804819Y-59999999D01*
X70804819Y-59999999D02*
X70852438Y-59904761D01*
X70852438Y-59904761D02*
X70900057Y-59857142D01*
X70900057Y-59857142D02*
X70995295Y-59809523D01*
X70995295Y-59809523D02*
X71185771Y-59761904D01*
X71185771Y-59761904D02*
X71423866Y-59761904D01*
X71423866Y-59761904D02*
X71614342Y-59809523D01*
X71614342Y-59809523D02*
X71709580Y-59857142D01*
X71709580Y-59857142D02*
X71757200Y-59904761D01*
X71757200Y-59904761D02*
X71804819Y-59999999D01*
X71804819Y-59999999D02*
X71804819Y-60095237D01*
X71804819Y-60095237D02*
X71757200Y-60190475D01*
X71757200Y-60190475D02*
X71709580Y-60238094D01*
X71709580Y-60238094D02*
X71614342Y-60285713D01*
X71614342Y-60285713D02*
X71423866Y-60333332D01*
X71423866Y-60333332D02*
X71185771Y-60333332D01*
X71185771Y-60333332D02*
X70995295Y-60285713D01*
X70995295Y-60285713D02*
X70900057Y-60238094D01*
X70900057Y-60238094D02*
X70852438Y-60190475D01*
X70852438Y-60190475D02*
X70804819Y-60095237D01*
X70804819Y-59142856D02*
X70804819Y-59047618D01*
X70804819Y-59047618D02*
X70852438Y-58952380D01*
X70852438Y-58952380D02*
X70900057Y-58904761D01*
X70900057Y-58904761D02*
X70995295Y-58857142D01*
X70995295Y-58857142D02*
X71185771Y-58809523D01*
X71185771Y-58809523D02*
X71423866Y-58809523D01*
X71423866Y-58809523D02*
X71614342Y-58857142D01*
X71614342Y-58857142D02*
X71709580Y-58904761D01*
X71709580Y-58904761D02*
X71757200Y-58952380D01*
X71757200Y-58952380D02*
X71804819Y-59047618D01*
X71804819Y-59047618D02*
X71804819Y-59142856D01*
X71804819Y-59142856D02*
X71757200Y-59238094D01*
X71757200Y-59238094D02*
X71709580Y-59285713D01*
X71709580Y-59285713D02*
X71614342Y-59333332D01*
X71614342Y-59333332D02*
X71423866Y-59380951D01*
X71423866Y-59380951D02*
X71185771Y-59380951D01*
X71185771Y-59380951D02*
X70995295Y-59333332D01*
X70995295Y-59333332D02*
X70900057Y-59285713D01*
X70900057Y-59285713D02*
X70852438Y-59238094D01*
X70852438Y-59238094D02*
X70804819Y-59142856D01*
X71804819Y-57619046D02*
X71138152Y-57619046D01*
X71233390Y-57619046D02*
X71185771Y-57571427D01*
X71185771Y-57571427D02*
X71138152Y-57476189D01*
X71138152Y-57476189D02*
X71138152Y-57333332D01*
X71138152Y-57333332D02*
X71185771Y-57238094D01*
X71185771Y-57238094D02*
X71281009Y-57190475D01*
X71281009Y-57190475D02*
X71804819Y-57190475D01*
X71281009Y-57190475D02*
X71185771Y-57142856D01*
X71185771Y-57142856D02*
X71138152Y-57047618D01*
X71138152Y-57047618D02*
X71138152Y-56904761D01*
X71138152Y-56904761D02*
X71185771Y-56809522D01*
X71185771Y-56809522D02*
X71281009Y-56761903D01*
X71281009Y-56761903D02*
X71804819Y-56761903D01*
X71804819Y-56285713D02*
X71138152Y-56285713D01*
X71233390Y-56285713D02*
X71185771Y-56238094D01*
X71185771Y-56238094D02*
X71138152Y-56142856D01*
X71138152Y-56142856D02*
X71138152Y-55999999D01*
X71138152Y-55999999D02*
X71185771Y-55904761D01*
X71185771Y-55904761D02*
X71281009Y-55857142D01*
X71281009Y-55857142D02*
X71804819Y-55857142D01*
X71281009Y-55857142D02*
X71185771Y-55809523D01*
X71185771Y-55809523D02*
X71138152Y-55714285D01*
X71138152Y-55714285D02*
X71138152Y-55571428D01*
X71138152Y-55571428D02*
X71185771Y-55476189D01*
X71185771Y-55476189D02*
X71281009Y-55428570D01*
X71281009Y-55428570D02*
X71804819Y-55428570D01*
X74500000Y-25000000D02*
X71913580Y-25000000D01*
X74500000Y-95000000D02*
X71913580Y-95000000D01*
X72500000Y-25000000D02*
X72500000Y-95000000D01*
X72500000Y-25000000D02*
X72500000Y-95000000D01*
X72500000Y-25000000D02*
X73086421Y-26126504D01*
X72500000Y-25000000D02*
X71913579Y-26126504D01*
X72500000Y-95000000D02*
X71913579Y-93873496D01*
X72500000Y-95000000D02*
X73086421Y-93873496D01*
X98904762Y-95904819D02*
X98428572Y-95904819D01*
X98428572Y-95904819D02*
X98380953Y-96381009D01*
X98380953Y-96381009D02*
X98428572Y-96333390D01*
X98428572Y-96333390D02*
X98523810Y-96285771D01*
X98523810Y-96285771D02*
X98761905Y-96285771D01*
X98761905Y-96285771D02*
X98857143Y-96333390D01*
X98857143Y-96333390D02*
X98904762Y-96381009D01*
X98904762Y-96381009D02*
X98952381Y-96476247D01*
X98952381Y-96476247D02*
X98952381Y-96714342D01*
X98952381Y-96714342D02*
X98904762Y-96809580D01*
X98904762Y-96809580D02*
X98857143Y-96857200D01*
X98857143Y-96857200D02*
X98761905Y-96904819D01*
X98761905Y-96904819D02*
X98523810Y-96904819D01*
X98523810Y-96904819D02*
X98428572Y-96857200D01*
X98428572Y-96857200D02*
X98380953Y-96809580D01*
X99809524Y-95904819D02*
X99619048Y-95904819D01*
X99619048Y-95904819D02*
X99523810Y-95952438D01*
X99523810Y-95952438D02*
X99476191Y-96000057D01*
X99476191Y-96000057D02*
X99380953Y-96142914D01*
X99380953Y-96142914D02*
X99333334Y-96333390D01*
X99333334Y-96333390D02*
X99333334Y-96714342D01*
X99333334Y-96714342D02*
X99380953Y-96809580D01*
X99380953Y-96809580D02*
X99428572Y-96857200D01*
X99428572Y-96857200D02*
X99523810Y-96904819D01*
X99523810Y-96904819D02*
X99714286Y-96904819D01*
X99714286Y-96904819D02*
X99809524Y-96857200D01*
X99809524Y-96857200D02*
X99857143Y-96809580D01*
X99857143Y-96809580D02*
X99904762Y-96714342D01*
X99904762Y-96714342D02*
X99904762Y-96476247D01*
X99904762Y-96476247D02*
X99857143Y-96381009D01*
X99857143Y-96381009D02*
X99809524Y-96333390D01*
X99809524Y-96333390D02*
X99714286Y-96285771D01*
X99714286Y-96285771D02*
X99523810Y-96285771D01*
X99523810Y-96285771D02*
X99428572Y-96333390D01*
X99428572Y-96333390D02*
X99380953Y-96381009D01*
X99380953Y-96381009D02*
X99333334Y-96476247D01*
X100333334Y-96809580D02*
X100380953Y-96857200D01*
X100380953Y-96857200D02*
X100333334Y-96904819D01*
X100333334Y-96904819D02*
X100285715Y-96857200D01*
X100285715Y-96857200D02*
X100333334Y-96809580D01*
X100333334Y-96809580D02*
X100333334Y-96904819D01*
X101000000Y-95904819D02*
X101095238Y-95904819D01*
X101095238Y-95904819D02*
X101190476Y-95952438D01*
X101190476Y-95952438D02*
X101238095Y-96000057D01*
X101238095Y-96000057D02*
X101285714Y-96095295D01*
X101285714Y-96095295D02*
X101333333Y-96285771D01*
X101333333Y-96285771D02*
X101333333Y-96523866D01*
X101333333Y-96523866D02*
X101285714Y-96714342D01*
X101285714Y-96714342D02*
X101238095Y-96809580D01*
X101238095Y-96809580D02*
X101190476Y-96857200D01*
X101190476Y-96857200D02*
X101095238Y-96904819D01*
X101095238Y-96904819D02*
X101000000Y-96904819D01*
X101000000Y-96904819D02*
X100904762Y-96857200D01*
X100904762Y-96857200D02*
X100857143Y-96809580D01*
X100857143Y-96809580D02*
X100809524Y-96714342D01*
X100809524Y-96714342D02*
X100761905Y-96523866D01*
X100761905Y-96523866D02*
X100761905Y-96285771D01*
X100761905Y-96285771D02*
X100809524Y-96095295D01*
X100809524Y-96095295D02*
X100857143Y-96000057D01*
X100857143Y-96000057D02*
X100904762Y-95952438D01*
X100904762Y-95952438D02*
X101000000Y-95904819D01*
X101952381Y-95904819D02*
X102047619Y-95904819D01*
X102047619Y-95904819D02*
X102142857Y-95952438D01*
X102142857Y-95952438D02*
X102190476Y-96000057D01*
X102190476Y-96000057D02*
X102238095Y-96095295D01*
X102238095Y-96095295D02*
X102285714Y-96285771D01*
X102285714Y-96285771D02*
X102285714Y-96523866D01*
X102285714Y-96523866D02*
X102238095Y-96714342D01*
X102238095Y-96714342D02*
X102190476Y-96809580D01*
X102190476Y-96809580D02*
X102142857Y-96857200D01*
X102142857Y-96857200D02*
X102047619Y-96904819D01*
X102047619Y-96904819D02*
X101952381Y-96904819D01*
X101952381Y-96904819D02*
X101857143Y-96857200D01*
X101857143Y-96857200D02*
X101809524Y-96809580D01*
X101809524Y-96809580D02*
X101761905Y-96714342D01*
X101761905Y-96714342D02*
X101714286Y-96523866D01*
X101714286Y-96523866D02*
X101714286Y-96285771D01*
X101714286Y-96285771D02*
X101761905Y-96095295D01*
X101761905Y-96095295D02*
X101809524Y-96000057D01*
X101809524Y-96000057D02*
X101857143Y-95952438D01*
X101857143Y-95952438D02*
X101952381Y-95904819D01*
X102904762Y-95904819D02*
X103000000Y-95904819D01*
X103000000Y-95904819D02*
X103095238Y-95952438D01*
X103095238Y-95952438D02*
X103142857Y-96000057D01*
X103142857Y-96000057D02*
X103190476Y-96095295D01*
X103190476Y-96095295D02*
X103238095Y-96285771D01*
X103238095Y-96285771D02*
X103238095Y-96523866D01*
X103238095Y-96523866D02*
X103190476Y-96714342D01*
X103190476Y-96714342D02*
X103142857Y-96809580D01*
X103142857Y-96809580D02*
X103095238Y-96857200D01*
X103095238Y-96857200D02*
X103000000Y-96904819D01*
X103000000Y-96904819D02*
X102904762Y-96904819D01*
X102904762Y-96904819D02*
X102809524Y-96857200D01*
X102809524Y-96857200D02*
X102761905Y-96809580D01*
X102761905Y-96809580D02*
X102714286Y-96714342D01*
X102714286Y-96714342D02*
X102666667Y-96523866D01*
X102666667Y-96523866D02*
X102666667Y-96285771D01*
X102666667Y-96285771D02*
X102714286Y-96095295D01*
X102714286Y-96095295D02*
X102761905Y-96000057D01*
X102761905Y-96000057D02*
X102809524Y-95952438D01*
X102809524Y-95952438D02*
X102904762Y-95904819D01*
X103857143Y-95904819D02*
X103952381Y-95904819D01*
X103952381Y-95904819D02*
X104047619Y-95952438D01*
X104047619Y-95952438D02*
X104095238Y-96000057D01*
X104095238Y-96000057D02*
X104142857Y-96095295D01*
X104142857Y-96095295D02*
X104190476Y-96285771D01*
X104190476Y-96285771D02*
X104190476Y-96523866D01*
X104190476Y-96523866D02*
X104142857Y-96714342D01*
X104142857Y-96714342D02*
X104095238Y-96809580D01*
X104095238Y-96809580D02*
X104047619Y-96857200D01*
X104047619Y-96857200D02*
X103952381Y-96904819D01*
X103952381Y-96904819D02*
X103857143Y-96904819D01*
X103857143Y-96904819D02*
X103761905Y-96857200D01*
X103761905Y-96857200D02*
X103714286Y-96809580D01*
X103714286Y-96809580D02*
X103666667Y-96714342D01*
X103666667Y-96714342D02*
X103619048Y-96523866D01*
X103619048Y-96523866D02*
X103619048Y-96285771D01*
X103619048Y-96285771D02*
X103666667Y-96095295D01*
X103666667Y-96095295D02*
X103714286Y-96000057D01*
X103714286Y-96000057D02*
X103761905Y-95952438D01*
X103761905Y-95952438D02*
X103857143Y-95904819D01*
X105380953Y-96904819D02*
X105380953Y-96238152D01*
X105380953Y-96333390D02*
X105428572Y-96285771D01*
X105428572Y-96285771D02*
X105523810Y-96238152D01*
X105523810Y-96238152D02*
X105666667Y-96238152D01*
X105666667Y-96238152D02*
X105761905Y-96285771D01*
X105761905Y-96285771D02*
X105809524Y-96381009D01*
X105809524Y-96381009D02*
X105809524Y-96904819D01*
X105809524Y-96381009D02*
X105857143Y-96285771D01*
X105857143Y-96285771D02*
X105952381Y-96238152D01*
X105952381Y-96238152D02*
X106095238Y-96238152D01*
X106095238Y-96238152D02*
X106190477Y-96285771D01*
X106190477Y-96285771D02*
X106238096Y-96381009D01*
X106238096Y-96381009D02*
X106238096Y-96904819D01*
X106714286Y-96904819D02*
X106714286Y-96238152D01*
X106714286Y-96333390D02*
X106761905Y-96285771D01*
X106761905Y-96285771D02*
X106857143Y-96238152D01*
X106857143Y-96238152D02*
X107000000Y-96238152D01*
X107000000Y-96238152D02*
X107095238Y-96285771D01*
X107095238Y-96285771D02*
X107142857Y-96381009D01*
X107142857Y-96381009D02*
X107142857Y-96904819D01*
X107142857Y-96381009D02*
X107190476Y-96285771D01*
X107190476Y-96285771D02*
X107285714Y-96238152D01*
X107285714Y-96238152D02*
X107428571Y-96238152D01*
X107428571Y-96238152D02*
X107523810Y-96285771D01*
X107523810Y-96285771D02*
X107571429Y-96381009D01*
X107571429Y-96381009D02*
X107571429Y-96904819D01*
X131000000Y-95500000D02*
X131000000Y-98186420D01*
X75000000Y-95500000D02*
X75000000Y-98186420D01*
X131000000Y-97600000D02*
X75000000Y-97600000D01*
X131000000Y-97600000D02*
X75000000Y-97600000D01*
X131000000Y-97600000D02*
X129873496Y-98186421D01*
X131000000Y-97600000D02*
X129873496Y-97013579D01*
X75000000Y-97600000D02*
X76126504Y-97013579D01*
X75000000Y-97600000D02*
X76126504Y-98186421D01*
X105938095Y-36334819D02*
X105938095Y-37144342D01*
X105938095Y-37144342D02*
X105985714Y-37239580D01*
X105985714Y-37239580D02*
X106033333Y-37287200D01*
X106033333Y-37287200D02*
X106128571Y-37334819D01*
X106128571Y-37334819D02*
X106319047Y-37334819D01*
X106319047Y-37334819D02*
X106414285Y-37287200D01*
X106414285Y-37287200D02*
X106461904Y-37239580D01*
X106461904Y-37239580D02*
X106509523Y-37144342D01*
X106509523Y-37144342D02*
X106509523Y-36334819D01*
X107509523Y-37334819D02*
X106938095Y-37334819D01*
X107223809Y-37334819D02*
X107223809Y-36334819D01*
X107223809Y-36334819D02*
X107128571Y-36477676D01*
X107128571Y-36477676D02*
X107033333Y-36572914D01*
X107033333Y-36572914D02*
X106938095Y-36620533D01*
X86638095Y-71792319D02*
X86638095Y-72601842D01*
X86638095Y-72601842D02*
X86685714Y-72697080D01*
X86685714Y-72697080D02*
X86733333Y-72744700D01*
X86733333Y-72744700D02*
X86828571Y-72792319D01*
X86828571Y-72792319D02*
X87019047Y-72792319D01*
X87019047Y-72792319D02*
X87114285Y-72744700D01*
X87114285Y-72744700D02*
X87161904Y-72697080D01*
X87161904Y-72697080D02*
X87209523Y-72601842D01*
X87209523Y-72601842D02*
X87209523Y-71792319D01*
X88161904Y-71792319D02*
X87685714Y-71792319D01*
X87685714Y-71792319D02*
X87638095Y-72268509D01*
X87638095Y-72268509D02*
X87685714Y-72220890D01*
X87685714Y-72220890D02*
X87780952Y-72173271D01*
X87780952Y-72173271D02*
X88019047Y-72173271D01*
X88019047Y-72173271D02*
X88114285Y-72220890D01*
X88114285Y-72220890D02*
X88161904Y-72268509D01*
X88161904Y-72268509D02*
X88209523Y-72363747D01*
X88209523Y-72363747D02*
X88209523Y-72601842D01*
X88209523Y-72601842D02*
X88161904Y-72697080D01*
X88161904Y-72697080D02*
X88114285Y-72744700D01*
X88114285Y-72744700D02*
X88019047Y-72792319D01*
X88019047Y-72792319D02*
X87780952Y-72792319D01*
X87780952Y-72792319D02*
X87685714Y-72744700D01*
X87685714Y-72744700D02*
X87638095Y-72697080D01*
X105938095Y-73334819D02*
X105938095Y-74144342D01*
X105938095Y-74144342D02*
X105985714Y-74239580D01*
X105985714Y-74239580D02*
X106033333Y-74287200D01*
X106033333Y-74287200D02*
X106128571Y-74334819D01*
X106128571Y-74334819D02*
X106319047Y-74334819D01*
X106319047Y-74334819D02*
X106414285Y-74287200D01*
X106414285Y-74287200D02*
X106461904Y-74239580D01*
X106461904Y-74239580D02*
X106509523Y-74144342D01*
X106509523Y-74144342D02*
X106509523Y-73334819D01*
X107414285Y-73668152D02*
X107414285Y-74334819D01*
X107176190Y-73287200D02*
X106938095Y-74001485D01*
X106938095Y-74001485D02*
X107557142Y-74001485D01*
X111788095Y-46604819D02*
X111788095Y-47414342D01*
X111788095Y-47414342D02*
X111835714Y-47509580D01*
X111835714Y-47509580D02*
X111883333Y-47557200D01*
X111883333Y-47557200D02*
X111978571Y-47604819D01*
X111978571Y-47604819D02*
X112169047Y-47604819D01*
X112169047Y-47604819D02*
X112264285Y-47557200D01*
X112264285Y-47557200D02*
X112311904Y-47509580D01*
X112311904Y-47509580D02*
X112359523Y-47414342D01*
X112359523Y-47414342D02*
X112359523Y-46604819D01*
X112788095Y-46700057D02*
X112835714Y-46652438D01*
X112835714Y-46652438D02*
X112930952Y-46604819D01*
X112930952Y-46604819D02*
X113169047Y-46604819D01*
X113169047Y-46604819D02*
X113264285Y-46652438D01*
X113264285Y-46652438D02*
X113311904Y-46700057D01*
X113311904Y-46700057D02*
X113359523Y-46795295D01*
X113359523Y-46795295D02*
X113359523Y-46890533D01*
X113359523Y-46890533D02*
X113311904Y-47033390D01*
X113311904Y-47033390D02*
X112740476Y-47604819D01*
X112740476Y-47604819D02*
X113359523Y-47604819D01*
X111838095Y-65954819D02*
X111838095Y-66764342D01*
X111838095Y-66764342D02*
X111885714Y-66859580D01*
X111885714Y-66859580D02*
X111933333Y-66907200D01*
X111933333Y-66907200D02*
X112028571Y-66954819D01*
X112028571Y-66954819D02*
X112219047Y-66954819D01*
X112219047Y-66954819D02*
X112314285Y-66907200D01*
X112314285Y-66907200D02*
X112361904Y-66859580D01*
X112361904Y-66859580D02*
X112409523Y-66764342D01*
X112409523Y-66764342D02*
X112409523Y-65954819D01*
X112790476Y-65954819D02*
X113457142Y-65954819D01*
X113457142Y-65954819D02*
X113028571Y-66954819D01*
D13*
X92140000Y-67059420D02*
X92140000Y-67340580D01*
X93160000Y-67059420D02*
X93160000Y-67340580D01*
X97077500Y-40962742D02*
X97077500Y-41437258D01*
X98122500Y-40962742D02*
X98122500Y-41437258D01*
X104200000Y-37715000D02*
X104200000Y-38005000D01*
X104200000Y-47085000D02*
X104200000Y-46795000D01*
X106700000Y-37715000D02*
X104200000Y-37715000D01*
X106700000Y-37715000D02*
X109200000Y-37715000D01*
X106700000Y-47085000D02*
X104200000Y-47085000D01*
X106700000Y-47085000D02*
X109200000Y-47085000D01*
X109200000Y-37715000D02*
X109200000Y-38005000D01*
X109200000Y-47085000D02*
X109200000Y-46795000D01*
X102195000Y-38005000D02*
X101855000Y-37535000D01*
X102535000Y-37535000D01*
X102195000Y-38005000D01*
G36*
X102195000Y-38005000D02*
G01*
X101855000Y-37535000D01*
X102535000Y-37535000D01*
X102195000Y-38005000D01*
G37*
X95477500Y-87237258D02*
X95477500Y-86762742D01*
X96522500Y-87237258D02*
X96522500Y-86762742D01*
X96840580Y-48290000D02*
X96559420Y-48290000D01*
X96840580Y-49310000D02*
X96559420Y-49310000D01*
X82036252Y-66090000D02*
X81513748Y-66090000D01*
X82036252Y-67560000D02*
X81513748Y-67560000D01*
X115937258Y-74877500D02*
X115462742Y-74877500D01*
X115937258Y-75922500D02*
X115462742Y-75922500D01*
X92877500Y-44337742D02*
X92877500Y-44812258D01*
X93922500Y-44337742D02*
X93922500Y-44812258D01*
X89437221Y-56715000D02*
X89762779Y-56715000D01*
X89437221Y-57735000D02*
X89762779Y-57735000D01*
X89790580Y-52090000D02*
X89509420Y-52090000D01*
X89790580Y-53110000D02*
X89509420Y-53110000D01*
X97265000Y-71688748D02*
X97265000Y-72211252D01*
X98735000Y-71688748D02*
X98735000Y-72211252D01*
D14*
G36*
X79726339Y-83433575D02*
G01*
X79742038Y-83458819D01*
X79781566Y-83524814D01*
X79840675Y-83624340D01*
X79915120Y-83750179D01*
X80000655Y-83895114D01*
X80093034Y-84051924D01*
X80188010Y-84213393D01*
X80281339Y-84372301D01*
X80368773Y-84521431D01*
X80446067Y-84653563D01*
X80508975Y-84761479D01*
X80553251Y-84837961D01*
X80574400Y-84875324D01*
X80594905Y-84922435D01*
X80596179Y-84940209D01*
X80570737Y-84928659D01*
X80502976Y-84892623D01*
X80398738Y-84835353D01*
X80263869Y-84760099D01*
X80104212Y-84670112D01*
X79925613Y-84568644D01*
X79830010Y-84514033D01*
X79644153Y-84406927D01*
X79474824Y-84307907D01*
X79327817Y-84220475D01*
X79208927Y-84148133D01*
X79123947Y-84094384D01*
X79078672Y-84062730D01*
X79072734Y-84056291D01*
X79091263Y-84027058D01*
X79141023Y-83969944D01*
X79212829Y-83895221D01*
X79246939Y-83861459D01*
X79331791Y-83772688D01*
X79403767Y-83686554D01*
X79450569Y-83618115D01*
X79457906Y-83603175D01*
X79514535Y-83523468D01*
X79606449Y-83470312D01*
X79676153Y-83444748D01*
X79719992Y-83433064D01*
X79726339Y-83433575D01*
G37*
G36*
X78537619Y-81394213D02*
G01*
X78578432Y-81457734D01*
X78637753Y-81554229D01*
X78711097Y-81676029D01*
X78793979Y-81815465D01*
X78881914Y-81964869D01*
X78970416Y-82116571D01*
X79054999Y-82262903D01*
X79131180Y-82396195D01*
X79194472Y-82508779D01*
X79240390Y-82592986D01*
X79264450Y-82641146D01*
X79266958Y-82648832D01*
X79244657Y-82688466D01*
X79187851Y-82741839D01*
X79111682Y-82797711D01*
X79031293Y-82844838D01*
X78968677Y-82870263D01*
X78906676Y-82882968D01*
X78800963Y-82900140D01*
X78663063Y-82920094D01*
X78504501Y-82941141D01*
X78377680Y-82956780D01*
X78183000Y-82981216D01*
X78035416Y-83003607D01*
X77926638Y-83026574D01*
X77848379Y-83052738D01*
X77792351Y-83084720D01*
X77750264Y-83125140D01*
X77721808Y-83164173D01*
X77677049Y-83216615D01*
X77627512Y-83227441D01*
X77553687Y-83200668D01*
X77550930Y-83199343D01*
X77503287Y-83167589D01*
X77488402Y-83144403D01*
X77501817Y-83114577D01*
X77539538Y-83043956D01*
X77597780Y-82939043D01*
X77672759Y-82806347D01*
X77760691Y-82652371D01*
X77857791Y-82483624D01*
X77960274Y-82306610D01*
X78064355Y-82127836D01*
X78166251Y-81953808D01*
X78262176Y-81791032D01*
X78348345Y-81646014D01*
X78420975Y-81525260D01*
X78476281Y-81435276D01*
X78510477Y-81382568D01*
X78519800Y-81371335D01*
X78537619Y-81394213D01*
G37*
G36*
X77377407Y-83469560D02*
G01*
X77438116Y-83506243D01*
X77473462Y-83537268D01*
X77473703Y-83537648D01*
X77470306Y-83574153D01*
X77445599Y-83644515D01*
X77404871Y-83733785D01*
X77403018Y-83737470D01*
X77353066Y-83856225D01*
X77328390Y-83973157D01*
X77329009Y-84101196D01*
X77354943Y-84253272D01*
X77404061Y-84435176D01*
X77438501Y-84543484D01*
X77465861Y-84608406D01*
X77492438Y-84640500D01*
X77524529Y-84650325D01*
X77532495Y-84650547D01*
X77575804Y-84654181D01*
X77605051Y-84672821D01*
X77628088Y-84718075D01*
X77652769Y-84801550D01*
X77664022Y-84844964D01*
X77686476Y-84926999D01*
X77703982Y-84963611D01*
X77724387Y-84963462D01*
X77750441Y-84940338D01*
X77754108Y-84932677D01*
X78026023Y-84932677D01*
X78044910Y-84993806D01*
X78090811Y-85013708D01*
X78154783Y-84988150D01*
X78213523Y-84929015D01*
X78364238Y-84929015D01*
X78366428Y-84939209D01*
X78404515Y-84977644D01*
X78459363Y-84978049D01*
X78508509Y-84941768D01*
X78515652Y-84930274D01*
X78542547Y-84842044D01*
X78529262Y-84766038D01*
X78505623Y-84736314D01*
X78474307Y-84724637D01*
X78440809Y-84751072D01*
X78408028Y-84799253D01*
X78374424Y-84870537D01*
X78364238Y-84929015D01*
X78213523Y-84929015D01*
X78222850Y-84919625D01*
X78270042Y-84844015D01*
X78298328Y-84772908D01*
X78300687Y-84759833D01*
X78296106Y-84709238D01*
X78256791Y-84687365D01*
X78230102Y-84683277D01*
X78147469Y-84690116D01*
X78088229Y-84737762D01*
X78043459Y-84833432D01*
X78043089Y-84834551D01*
X78026023Y-84932677D01*
X77754108Y-84932677D01*
X77779433Y-84879775D01*
X77792571Y-84785105D01*
X77790727Y-84675221D01*
X77774775Y-84569019D01*
X77745587Y-84485393D01*
X77728256Y-84460040D01*
X77696358Y-84413671D01*
X77695329Y-84363562D01*
X77700179Y-84347927D01*
X77813526Y-84347927D01*
X77827438Y-84428057D01*
X77851961Y-84488746D01*
X77880868Y-84511598D01*
X77908533Y-84488613D01*
X77933647Y-84440529D01*
X77944973Y-84382509D01*
X77926009Y-84323029D01*
X77894647Y-84272301D01*
X77828626Y-84175143D01*
X77815174Y-84266798D01*
X77813526Y-84347927D01*
X77700179Y-84347927D01*
X77711373Y-84311838D01*
X77729784Y-84237782D01*
X77720953Y-84168595D01*
X77700025Y-84112012D01*
X77694836Y-84098349D01*
X77795841Y-84098349D01*
X77813490Y-84132674D01*
X77838173Y-84127575D01*
X77868252Y-84086894D01*
X77893649Y-84028431D01*
X77904266Y-83972334D01*
X77901910Y-83936782D01*
X77883554Y-83940447D01*
X77849671Y-83969694D01*
X77804301Y-84033463D01*
X77795841Y-84098349D01*
X77694836Y-84098349D01*
X77674312Y-84044302D01*
X77673133Y-83999524D01*
X77701093Y-83953516D01*
X77738544Y-83909831D01*
X77788806Y-83847123D01*
X77818477Y-83799544D01*
X77821881Y-83788093D01*
X77839693Y-83762251D01*
X77877980Y-83765709D01*
X77914018Y-83792795D01*
X77924145Y-83813621D01*
X77954208Y-83852688D01*
X77991018Y-83852065D01*
X78026079Y-83844843D01*
X78039732Y-83853921D01*
X78031606Y-83889604D01*
X78001327Y-83962198D01*
X77985764Y-83997471D01*
X77951545Y-84086840D01*
X77944057Y-84148577D01*
X77957378Y-84195533D01*
X77990653Y-84251184D01*
X78013829Y-84254180D01*
X78025043Y-84206833D01*
X78022689Y-84114499D01*
X78019690Y-84017392D01*
X78032695Y-83958827D01*
X78055812Y-83929905D01*
X78102533Y-83905657D01*
X78122139Y-83924588D01*
X78109150Y-83978681D01*
X78100762Y-83995651D01*
X78079947Y-84064157D01*
X78087726Y-84121852D01*
X78120867Y-84149853D01*
X78127228Y-84150329D01*
X78144354Y-84127810D01*
X78141719Y-84087801D01*
X78139305Y-84013542D01*
X78168265Y-83972683D01*
X78220940Y-83974586D01*
X78230534Y-83979203D01*
X78304608Y-84026817D01*
X78332101Y-84072090D01*
X78312829Y-84124891D01*
X78246609Y-84195091D01*
X78226185Y-84213441D01*
X78142130Y-84299611D01*
X78066799Y-84396759D01*
X78031387Y-84455634D01*
X77992688Y-84547395D01*
X77963444Y-84643256D01*
X77946365Y-84729398D01*
X77944158Y-84792003D01*
X77959532Y-84817250D01*
X77960503Y-84817287D01*
X77986079Y-84795068D01*
X77988621Y-84779350D01*
X78004752Y-84732579D01*
X78043814Y-84671279D01*
X78046218Y-84668190D01*
X78124426Y-84608743D01*
X78217921Y-84596510D01*
X78307271Y-84632533D01*
X78334821Y-84646451D01*
X78365109Y-84641482D01*
X78381919Y-84629560D01*
X78523588Y-84629560D01*
X78546538Y-84678544D01*
X78560483Y-84702315D01*
X78614949Y-84767415D01*
X78668051Y-84777702D01*
X78718123Y-84732905D01*
X78721009Y-84728436D01*
X78733865Y-84669667D01*
X78721968Y-84597868D01*
X78692048Y-84538902D01*
X78666734Y-84519903D01*
X78625211Y-84528496D01*
X78572125Y-84561658D01*
X78531489Y-84598177D01*
X78523588Y-84629560D01*
X78381919Y-84629560D01*
X78407221Y-84611615D01*
X78470242Y-84550839D01*
X78538268Y-84479688D01*
X78619088Y-84396944D01*
X78687425Y-84332363D01*
X78733446Y-84294978D01*
X78745524Y-84289278D01*
X78774921Y-84302526D01*
X78845423Y-84339619D01*
X78950018Y-84396583D01*
X79081696Y-84469445D01*
X79233443Y-84554230D01*
X79398249Y-84646965D01*
X79569102Y-84743675D01*
X79738990Y-84840387D01*
X79900903Y-84933126D01*
X80047828Y-85017920D01*
X80172753Y-85090793D01*
X80268668Y-85147771D01*
X80328560Y-85184882D01*
X80341972Y-85194101D01*
X80345201Y-85201392D01*
X80332073Y-85207729D01*
X80299195Y-85213177D01*
X80243172Y-85217803D01*
X80160610Y-85221672D01*
X80048116Y-85224851D01*
X79902296Y-85227405D01*
X79719756Y-85229401D01*
X79497103Y-85230905D01*
X79230942Y-85231982D01*
X78917879Y-85232698D01*
X78554521Y-85233120D01*
X78329048Y-85233252D01*
X77995885Y-85233236D01*
X77679392Y-85232912D01*
X77383885Y-85232304D01*
X77113682Y-85231435D01*
X76873101Y-85230329D01*
X76666460Y-85229009D01*
X76498077Y-85227498D01*
X76372269Y-85225821D01*
X76293353Y-85223999D01*
X76265649Y-85222058D01*
X76265645Y-85222035D01*
X76279074Y-85195770D01*
X76316919Y-85127944D01*
X76375515Y-85024963D01*
X76451200Y-84893230D01*
X76526990Y-84762183D01*
X77521785Y-84762183D01*
X77526778Y-84793796D01*
X77548927Y-84866231D01*
X77579137Y-84923036D01*
X77608168Y-84949020D01*
X77619243Y-84945819D01*
X77619942Y-84914307D01*
X77607678Y-84849225D01*
X77600317Y-84820092D01*
X77572595Y-84745628D01*
X77544752Y-84709184D01*
X77525058Y-84713716D01*
X77521785Y-84762183D01*
X76526990Y-84762183D01*
X76540311Y-84739150D01*
X76635224Y-84575919D01*
X76743956Y-84389168D01*
X76852181Y-84202894D01*
X76954036Y-84027211D01*
X77043663Y-83872235D01*
X77115202Y-83748082D01*
X77151264Y-83685130D01*
X77297726Y-83428356D01*
X77377407Y-83469560D01*
G37*
D13*
X100265000Y-28200000D02*
X100265000Y-30485000D01*
X100265000Y-30485000D02*
X101735000Y-30485000D01*
X101735000Y-30485000D02*
X101735000Y-28200000D01*
X84062742Y-51777500D02*
X84537258Y-51777500D01*
X84062742Y-52822500D02*
X84537258Y-52822500D01*
X110359420Y-57390000D02*
X110640580Y-57390000D01*
X110359420Y-58410000D02*
X110640580Y-58410000D01*
X100362742Y-80177500D02*
X100837258Y-80177500D01*
X100362742Y-81222500D02*
X100837258Y-81222500D01*
X87400000Y-73177500D02*
X86600000Y-73177500D01*
X87400000Y-73177500D02*
X88200000Y-73177500D01*
X87400000Y-76297500D02*
X86600000Y-76297500D01*
X87400000Y-76297500D02*
X88200000Y-76297500D01*
X86100000Y-73227500D02*
X85860000Y-72897500D01*
X86340000Y-72897500D01*
X86100000Y-73227500D01*
G36*
X86100000Y-73227500D02*
G01*
X85860000Y-72897500D01*
X86340000Y-72897500D01*
X86100000Y-73227500D01*
G37*
X100400000Y-76640000D02*
X99750000Y-76640000D01*
X100400000Y-76640000D02*
X101050000Y-76640000D01*
X100400000Y-79760000D02*
X99750000Y-79760000D01*
X100400000Y-79760000D02*
X101050000Y-79760000D01*
X99237500Y-76690000D02*
X98997500Y-76360000D01*
X99477500Y-76360000D01*
X99237500Y-76690000D01*
G36*
X99237500Y-76690000D02*
G01*
X98997500Y-76360000D01*
X99477500Y-76360000D01*
X99237500Y-76690000D01*
G37*
X95710000Y-68849420D02*
X95710000Y-69130580D01*
X96730000Y-68849420D02*
X96730000Y-69130580D01*
X89790580Y-50490000D02*
X89509420Y-50490000D01*
X89790580Y-51510000D02*
X89509420Y-51510000D01*
X115937258Y-37877500D02*
X115462742Y-37877500D01*
X115937258Y-38922500D02*
X115462742Y-38922500D01*
X89715000Y-74476248D02*
X89715000Y-74998752D01*
X91185000Y-74476248D02*
X91185000Y-74998752D01*
X85765000Y-64912779D02*
X85765000Y-64587221D01*
X86785000Y-64912779D02*
X86785000Y-64587221D01*
X78265000Y-73496250D02*
X78265000Y-75781250D01*
X79735000Y-73496250D02*
X78265000Y-73496250D01*
X79735000Y-75781250D02*
X79735000Y-73496250D01*
X112837258Y-60277500D02*
X112362742Y-60277500D01*
X112837258Y-61322500D02*
X112362742Y-61322500D01*
X115800000Y-77840000D02*
X115150000Y-77840000D01*
X115800000Y-77840000D02*
X116450000Y-77840000D01*
X115800000Y-80960000D02*
X115150000Y-80960000D01*
X115800000Y-80960000D02*
X116450000Y-80960000D01*
X117202500Y-81240000D02*
X116722500Y-81240000D01*
X116962500Y-80910000D01*
X117202500Y-81240000D01*
G36*
X117202500Y-81240000D02*
G01*
X116722500Y-81240000D01*
X116962500Y-80910000D01*
X117202500Y-81240000D01*
G37*
X100462742Y-38077500D02*
X100937258Y-38077500D01*
X100462742Y-39122500D02*
X100937258Y-39122500D01*
X100477500Y-87237258D02*
X100477500Y-86762742D01*
X101522500Y-87237258D02*
X101522500Y-86762742D01*
X107640000Y-70040580D02*
X107640000Y-69759420D01*
X108660000Y-70040580D02*
X108660000Y-69759420D01*
X107640000Y-50640580D02*
X107640000Y-50359420D01*
X108660000Y-50640580D02*
X108660000Y-50359420D01*
X89840580Y-60190000D02*
X89559420Y-60190000D01*
X89840580Y-61210000D02*
X89559420Y-61210000D01*
X100415580Y-47990000D02*
X100134420Y-47990000D01*
X100415580Y-49010000D02*
X100134420Y-49010000D01*
X89040580Y-62115000D02*
X88759420Y-62115000D01*
X89040580Y-63135000D02*
X88759420Y-63135000D01*
X97077500Y-77962742D02*
X97077500Y-78437258D01*
X98122500Y-77962742D02*
X98122500Y-78437258D01*
X83977500Y-56737258D02*
X83977500Y-56262742D01*
X85022500Y-56737258D02*
X85022500Y-56262742D01*
X92877500Y-47837258D02*
X92877500Y-47362742D01*
X93922500Y-47837258D02*
X93922500Y-47362742D01*
X110509420Y-62890000D02*
X110790580Y-62890000D01*
X110509420Y-63910000D02*
X110790580Y-63910000D01*
X104200000Y-74715000D02*
X104200000Y-75005000D01*
X104200000Y-84085000D02*
X104200000Y-83795000D01*
X106700000Y-74715000D02*
X104200000Y-74715000D01*
X106700000Y-74715000D02*
X109200000Y-74715000D01*
X106700000Y-84085000D02*
X104200000Y-84085000D01*
X106700000Y-84085000D02*
X109200000Y-84085000D01*
X109200000Y-74715000D02*
X109200000Y-75005000D01*
X109200000Y-84085000D02*
X109200000Y-83795000D01*
X102195000Y-75005000D02*
X101855000Y-74535000D01*
X102535000Y-74535000D01*
X102195000Y-75005000D01*
G36*
X102195000Y-75005000D02*
G01*
X101855000Y-74535000D01*
X102535000Y-74535000D01*
X102195000Y-75005000D01*
G37*
D15*
X117868200Y-62777400D02*
X117868200Y-94222600D01*
X117868200Y-94222600D02*
X131127000Y-94222600D01*
X130873000Y-69914800D02*
X130873000Y-87085200D01*
X130873000Y-87085200D02*
X137299200Y-87085200D01*
X131127000Y-62777400D02*
X117868200Y-62777400D01*
X131127000Y-94222600D02*
X131127000Y-62777400D01*
X137299200Y-69914800D02*
X130873000Y-69914800D01*
X137299200Y-87085200D02*
X137299200Y-69914800D01*
D16*
X117207800Y-84215000D02*
G75*
G02*
X116852200Y-84215000I-177800J0D01*
G01*
X116852200Y-84215000D02*
G75*
G02*
X117207800Y-84215000I177800J0D01*
G01*
D13*
X112740580Y-72990000D02*
X112459420Y-72990000D01*
X112740580Y-74010000D02*
X112459420Y-74010000D01*
D15*
X117868200Y-25777400D02*
X117868200Y-57222600D01*
X117868200Y-57222600D02*
X131127000Y-57222600D01*
X130873000Y-32914800D02*
X130873000Y-50085200D01*
X130873000Y-50085200D02*
X137299200Y-50085200D01*
X131127000Y-25777400D02*
X117868200Y-25777400D01*
X131127000Y-57222600D02*
X131127000Y-25777400D01*
X137299200Y-32914800D02*
X130873000Y-32914800D01*
X137299200Y-50085200D02*
X137299200Y-32914800D01*
D16*
X117207800Y-47215000D02*
G75*
G02*
X116852200Y-47215000I-177800J0D01*
G01*
X116852200Y-47215000D02*
G75*
G02*
X117207800Y-47215000I177800J0D01*
G01*
D13*
X100037742Y-46377500D02*
X100512258Y-46377500D01*
X100037742Y-47422500D02*
X100512258Y-47422500D01*
X89137258Y-63652500D02*
X88662742Y-63652500D01*
X89137258Y-64697500D02*
X88662742Y-64697500D01*
X105477500Y-32762742D02*
X105477500Y-33237258D01*
X106522500Y-32762742D02*
X106522500Y-33237258D01*
X86527500Y-56187742D02*
X86527500Y-56662258D01*
X87572500Y-56187742D02*
X87572500Y-56662258D01*
X98942779Y-68940000D02*
X98617221Y-68940000D01*
X98942779Y-69960000D02*
X98617221Y-69960000D01*
X112837258Y-55577500D02*
X112362742Y-55577500D01*
X112837258Y-56622500D02*
X112362742Y-56622500D01*
X115937258Y-76377500D02*
X115462742Y-76377500D01*
X115937258Y-77422500D02*
X115462742Y-77422500D01*
X80100000Y-53035000D02*
X82385000Y-53035000D01*
X82385000Y-51565000D02*
X80100000Y-51565000D01*
X82385000Y-53035000D02*
X82385000Y-51565000D01*
X100265000Y-89515000D02*
X100265000Y-91800000D01*
X101735000Y-89515000D02*
X100265000Y-89515000D01*
X101735000Y-91800000D02*
X101735000Y-89515000D01*
X101890580Y-67390000D02*
X101609420Y-67390000D01*
X101890580Y-68410000D02*
X101609420Y-68410000D01*
X95265000Y-89515000D02*
X95265000Y-91800000D01*
X96735000Y-89515000D02*
X95265000Y-89515000D01*
X96735000Y-91800000D02*
X96735000Y-89515000D01*
X100462742Y-75077500D02*
X100937258Y-75077500D01*
X100462742Y-76122500D02*
X100937258Y-76122500D01*
X78775000Y-55330000D02*
X80475000Y-55330000D01*
X78775000Y-64670000D02*
X80475000Y-64670000D01*
X77900000Y-40000000D02*
X77900000Y-46000000D01*
X77900000Y-48700000D02*
X77900000Y-47700000D01*
X78900000Y-48700000D02*
X77900000Y-48700000D01*
X79700000Y-39900000D02*
X82300000Y-39900000D01*
X79700000Y-46100000D02*
X82300000Y-46100000D01*
X84100000Y-40000000D02*
X84100000Y-46000000D01*
X82390000Y-71337221D02*
X82390000Y-71662779D01*
X83410000Y-71337221D02*
X83410000Y-71662779D01*
D17*
X89271536Y-85275427D02*
X89384118Y-85872618D01*
X89799531Y-86043865D01*
X90214945Y-86215112D01*
X90713302Y-85876233D01*
X90852869Y-85781877D01*
X90979029Y-85697630D01*
X91085896Y-85627338D01*
X91167583Y-85574847D01*
X91218202Y-85544004D01*
X91231987Y-85537353D01*
X91256821Y-85554458D01*
X91309889Y-85601744D01*
X91385241Y-85673172D01*
X91476930Y-85762700D01*
X91579008Y-85864289D01*
X91685527Y-85971898D01*
X91790537Y-86079487D01*
X91888092Y-86181015D01*
X91972243Y-86270441D01*
X92037041Y-86341726D01*
X92076538Y-86388828D01*
X92085981Y-86404592D01*
X92072392Y-86433653D01*
X92034294Y-86497321D01*
X91975694Y-86589367D01*
X91900598Y-86703564D01*
X91813009Y-86833684D01*
X91762255Y-86907901D01*
X91669746Y-87043422D01*
X91587541Y-87165716D01*
X91519631Y-87268695D01*
X91470001Y-87346273D01*
X91442641Y-87392361D01*
X91438530Y-87402047D01*
X91447850Y-87429574D01*
X91473255Y-87493728D01*
X91510912Y-87585490D01*
X91556987Y-87695839D01*
X91607647Y-87815755D01*
X91659060Y-87936219D01*
X91707390Y-88048209D01*
X91748807Y-88142707D01*
X91779475Y-88210692D01*
X91795562Y-88243143D01*
X91796512Y-88244420D01*
X91821773Y-88250617D01*
X91889046Y-88264440D01*
X91991361Y-88284532D01*
X92121742Y-88309534D01*
X92273217Y-88338086D01*
X92361594Y-88354551D01*
X92523453Y-88385369D01*
X92669650Y-88414694D01*
X92792788Y-88440921D01*
X92885470Y-88462446D01*
X92940302Y-88477665D01*
X92951324Y-88482493D01*
X92962119Y-88515174D01*
X92970830Y-88588985D01*
X92977461Y-88695292D01*
X92982019Y-88825467D01*
X92984510Y-88970876D01*
X92984939Y-89122890D01*
X92983312Y-89272877D01*
X92979636Y-89412206D01*
X92973916Y-89532245D01*
X92966158Y-89624365D01*
X92956369Y-89679932D01*
X92950497Y-89691500D01*
X92915400Y-89705365D01*
X92841029Y-89725188D01*
X92737224Y-89748639D01*
X92613820Y-89773391D01*
X92570742Y-89781398D01*
X92363048Y-89819441D01*
X92198985Y-89850079D01*
X92073131Y-89874529D01*
X91980066Y-89894009D01*
X91914368Y-89909736D01*
X91870618Y-89922928D01*
X91843393Y-89934804D01*
X91827273Y-89946580D01*
X91825018Y-89948908D01*
X91802504Y-89986400D01*
X91768159Y-90059365D01*
X91725412Y-90158867D01*
X91677693Y-90275973D01*
X91628431Y-90401748D01*
X91581056Y-90527257D01*
X91538996Y-90643565D01*
X91505681Y-90741739D01*
X91484542Y-90812843D01*
X91479006Y-90847942D01*
X91479467Y-90849172D01*
X91498224Y-90877861D01*
X91540777Y-90940985D01*
X91602654Y-91031973D01*
X91679383Y-91144255D01*
X91766492Y-91271260D01*
X91791299Y-91307353D01*
X91879753Y-91438203D01*
X91957589Y-91557591D01*
X92020567Y-91658662D01*
X92064446Y-91734559D01*
X92084986Y-91778427D01*
X92085981Y-91783817D01*
X92068723Y-91812144D01*
X92021036Y-91868261D01*
X91949051Y-91946137D01*
X91858898Y-92039740D01*
X91756706Y-92143041D01*
X91648606Y-92250006D01*
X91540729Y-92354606D01*
X91439205Y-92450809D01*
X91350163Y-92532584D01*
X91279734Y-92593900D01*
X91234048Y-92628726D01*
X91221410Y-92634412D01*
X91191992Y-92621020D01*
X91131762Y-92584899D01*
X91050530Y-92532136D01*
X90988031Y-92489667D01*
X90874786Y-92411740D01*
X90740675Y-92319984D01*
X90606156Y-92228375D01*
X90533834Y-92179346D01*
X90289039Y-92013770D01*
X90083551Y-92124875D01*
X89989937Y-92173548D01*
X89910331Y-92211381D01*
X89856468Y-92232958D01*
X89842758Y-92235961D01*
X89826271Y-92213793D01*
X89793746Y-92151149D01*
X89747609Y-92053809D01*
X89690291Y-91927549D01*
X89624217Y-91778150D01*
X89551816Y-91611388D01*
X89475517Y-91433042D01*
X89397747Y-91248891D01*
X89320935Y-91064712D01*
X89247507Y-90886285D01*
X89179893Y-90719387D01*
X89120521Y-90569797D01*
X89071817Y-90443293D01*
X89036211Y-90345654D01*
X89016131Y-90282657D01*
X89012901Y-90261021D01*
X89038497Y-90233424D01*
X89094539Y-90188625D01*
X89169312Y-90135934D01*
X89175588Y-90131765D01*
X89368846Y-89977069D01*
X89524675Y-89796591D01*
X89641725Y-89596102D01*
X89718646Y-89381374D01*
X89754087Y-89158177D01*
X89746698Y-88932281D01*
X89695128Y-88709459D01*
X89598027Y-88495479D01*
X89569459Y-88448664D01*
X89420869Y-88259618D01*
X89245328Y-88107812D01*
X89048911Y-87994034D01*
X88837694Y-87919075D01*
X88617754Y-87883722D01*
X88395164Y-87888767D01*
X88176002Y-87934999D01*
X87966343Y-88023206D01*
X87772262Y-88154179D01*
X87712227Y-88207337D01*
X87559436Y-88373739D01*
X87448098Y-88548912D01*
X87371724Y-88745266D01*
X87329188Y-88939717D01*
X87318687Y-89158342D01*
X87353701Y-89378052D01*
X87430674Y-89591420D01*
X87546048Y-89791022D01*
X87696266Y-89969429D01*
X87877774Y-90119217D01*
X87901628Y-90135006D01*
X87977202Y-90186712D01*
X88034652Y-90231512D01*
X88062118Y-90260117D01*
X88062518Y-90261021D01*
X88056621Y-90291964D01*
X88033246Y-90362191D01*
X87994822Y-90465925D01*
X87943778Y-90597390D01*
X87882543Y-90750807D01*
X87813545Y-90920401D01*
X87739214Y-91100393D01*
X87661979Y-91285008D01*
X87584269Y-91468468D01*
X87508512Y-91644996D01*
X87437138Y-91808814D01*
X87372575Y-91954147D01*
X87317253Y-92075217D01*
X87273601Y-92166247D01*
X87244047Y-92221460D01*
X87232145Y-92235961D01*
X87195778Y-92224669D01*
X87127731Y-92194385D01*
X87039737Y-92150520D01*
X86991351Y-92124875D01*
X86785864Y-92013770D01*
X86541069Y-92179346D01*
X86416107Y-92264170D01*
X86279296Y-92357516D01*
X86151089Y-92445408D01*
X86086872Y-92489667D01*
X85996552Y-92550318D01*
X85920072Y-92598381D01*
X85867408Y-92627770D01*
X85850303Y-92633982D01*
X85825406Y-92617223D01*
X85770306Y-92570436D01*
X85690344Y-92498480D01*
X85590861Y-92406212D01*
X85477201Y-92298490D01*
X85405316Y-92229326D01*
X85279552Y-92105757D01*
X85170864Y-91995234D01*
X85083646Y-91902485D01*
X85022290Y-91832237D01*
X84991192Y-91789220D01*
X84988209Y-91780490D01*
X85002054Y-91747284D01*
X85040313Y-91680142D01*
X85098742Y-91585863D01*
X85173098Y-91471245D01*
X85259136Y-91343083D01*
X85283603Y-91307353D01*
X85372755Y-91177489D01*
X85452739Y-91060569D01*
X85519081Y-90963162D01*
X85567312Y-90891839D01*
X85592958Y-90853170D01*
X85595436Y-90849172D01*
X85591730Y-90818355D01*
X85572062Y-90750599D01*
X85539861Y-90654839D01*
X85498556Y-90540009D01*
X85451576Y-90415044D01*
X85402350Y-90288879D01*
X85354309Y-90170448D01*
X85310882Y-90068685D01*
X85275497Y-89992526D01*
X85251585Y-89950904D01*
X85249885Y-89948908D01*
X85235263Y-89937013D01*
X85210566Y-89925250D01*
X85170373Y-89912401D01*
X85109264Y-89897249D01*
X85021818Y-89878576D01*
X84902613Y-89855165D01*
X84746228Y-89825797D01*
X84547244Y-89789255D01*
X84504161Y-89781398D01*
X84376471Y-89756727D01*
X84265154Y-89732593D01*
X84180046Y-89711324D01*
X84130984Y-89695248D01*
X84124406Y-89691500D01*
X84113565Y-89658273D01*
X84104754Y-89584021D01*
X84097977Y-89477376D01*
X84093241Y-89346967D01*
X84090551Y-89201427D01*
X84089914Y-89049386D01*
X84091335Y-88899476D01*
X84094821Y-88760328D01*
X84100377Y-88640572D01*
X84108009Y-88548841D01*
X84117723Y-88493766D01*
X84123579Y-88482493D01*
X84156181Y-88471123D01*
X84230419Y-88452624D01*
X84338897Y-88428602D01*
X84474218Y-88400662D01*
X84628986Y-88370408D01*
X84713308Y-88354551D01*
X84873297Y-88324644D01*
X85015968Y-88297550D01*
X85134349Y-88274631D01*
X85221466Y-88257243D01*
X85270346Y-88246747D01*
X85278391Y-88244420D01*
X85291988Y-88218186D01*
X85320730Y-88154995D01*
X85360786Y-88063877D01*
X85408325Y-87953857D01*
X85459516Y-87833965D01*
X85510527Y-87713227D01*
X85557527Y-87600671D01*
X85596685Y-87505326D01*
X85624170Y-87436217D01*
X85636150Y-87402374D01*
X85636373Y-87400895D01*
X85622792Y-87374197D01*
X85584716Y-87312760D01*
X85526148Y-87222689D01*
X85451089Y-87110090D01*
X85363541Y-86981070D01*
X85312648Y-86906961D01*
X85219910Y-86771077D01*
X85137542Y-86647709D01*
X85069562Y-86543097D01*
X85019989Y-86463483D01*
X84992843Y-86415107D01*
X84988922Y-86404262D01*
X85005776Y-86379020D01*
X85052369Y-86325124D01*
X85122749Y-86248613D01*
X85210966Y-86155523D01*
X85311066Y-86051895D01*
X85417099Y-85943764D01*
X85523112Y-85837170D01*
X85623153Y-85738150D01*
X85711271Y-85652742D01*
X85781514Y-85586985D01*
X85827929Y-85546916D01*
X85843457Y-85537353D01*
X85868740Y-85550800D01*
X85929212Y-85588575D01*
X86018993Y-85646835D01*
X86132204Y-85721734D01*
X86262964Y-85809425D01*
X86361600Y-85876233D01*
X86859958Y-86215112D01*
X87275371Y-86043865D01*
X87690785Y-85872618D01*
X87803367Y-85275427D01*
X87915950Y-84678235D01*
X89158953Y-84678235D01*
X89271536Y-85275427D01*
G36*
X89271536Y-85275427D02*
G01*
X89384118Y-85872618D01*
X89799531Y-86043865D01*
X90214945Y-86215112D01*
X90713302Y-85876233D01*
X90852869Y-85781877D01*
X90979029Y-85697630D01*
X91085896Y-85627338D01*
X91167583Y-85574847D01*
X91218202Y-85544004D01*
X91231987Y-85537353D01*
X91256821Y-85554458D01*
X91309889Y-85601744D01*
X91385241Y-85673172D01*
X91476930Y-85762700D01*
X91579008Y-85864289D01*
X91685527Y-85971898D01*
X91790537Y-86079487D01*
X91888092Y-86181015D01*
X91972243Y-86270441D01*
X92037041Y-86341726D01*
X92076538Y-86388828D01*
X92085981Y-86404592D01*
X92072392Y-86433653D01*
X92034294Y-86497321D01*
X91975694Y-86589367D01*
X91900598Y-86703564D01*
X91813009Y-86833684D01*
X91762255Y-86907901D01*
X91669746Y-87043422D01*
X91587541Y-87165716D01*
X91519631Y-87268695D01*
X91470001Y-87346273D01*
X91442641Y-87392361D01*
X91438530Y-87402047D01*
X91447850Y-87429574D01*
X91473255Y-87493728D01*
X91510912Y-87585490D01*
X91556987Y-87695839D01*
X91607647Y-87815755D01*
X91659060Y-87936219D01*
X91707390Y-88048209D01*
X91748807Y-88142707D01*
X91779475Y-88210692D01*
X91795562Y-88243143D01*
X91796512Y-88244420D01*
X91821773Y-88250617D01*
X91889046Y-88264440D01*
X91991361Y-88284532D01*
X92121742Y-88309534D01*
X92273217Y-88338086D01*
X92361594Y-88354551D01*
X92523453Y-88385369D01*
X92669650Y-88414694D01*
X92792788Y-88440921D01*
X92885470Y-88462446D01*
X92940302Y-88477665D01*
X92951324Y-88482493D01*
X92962119Y-88515174D01*
X92970830Y-88588985D01*
X92977461Y-88695292D01*
X92982019Y-88825467D01*
X92984510Y-88970876D01*
X92984939Y-89122890D01*
X92983312Y-89272877D01*
X92979636Y-89412206D01*
X92973916Y-89532245D01*
X92966158Y-89624365D01*
X92956369Y-89679932D01*
X92950497Y-89691500D01*
X92915400Y-89705365D01*
X92841029Y-89725188D01*
X92737224Y-89748639D01*
X92613820Y-89773391D01*
X92570742Y-89781398D01*
X92363048Y-89819441D01*
X92198985Y-89850079D01*
X92073131Y-89874529D01*
X91980066Y-89894009D01*
X91914368Y-89909736D01*
X91870618Y-89922928D01*
X91843393Y-89934804D01*
X91827273Y-89946580D01*
X91825018Y-89948908D01*
X91802504Y-89986400D01*
X91768159Y-90059365D01*
X91725412Y-90158867D01*
X91677693Y-90275973D01*
X91628431Y-90401748D01*
X91581056Y-90527257D01*
X91538996Y-90643565D01*
X91505681Y-90741739D01*
X91484542Y-90812843D01*
X91479006Y-90847942D01*
X91479467Y-90849172D01*
X91498224Y-90877861D01*
X91540777Y-90940985D01*
X91602654Y-91031973D01*
X91679383Y-91144255D01*
X91766492Y-91271260D01*
X91791299Y-91307353D01*
X91879753Y-91438203D01*
X91957589Y-91557591D01*
X92020567Y-91658662D01*
X92064446Y-91734559D01*
X92084986Y-91778427D01*
X92085981Y-91783817D01*
X92068723Y-91812144D01*
X92021036Y-91868261D01*
X91949051Y-91946137D01*
X91858898Y-92039740D01*
X91756706Y-92143041D01*
X91648606Y-92250006D01*
X91540729Y-92354606D01*
X91439205Y-92450809D01*
X91350163Y-92532584D01*
X91279734Y-92593900D01*
X91234048Y-92628726D01*
X91221410Y-92634412D01*
X91191992Y-92621020D01*
X91131762Y-92584899D01*
X91050530Y-92532136D01*
X90988031Y-92489667D01*
X90874786Y-92411740D01*
X90740675Y-92319984D01*
X90606156Y-92228375D01*
X90533834Y-92179346D01*
X90289039Y-92013770D01*
X90083551Y-92124875D01*
X89989937Y-92173548D01*
X89910331Y-92211381D01*
X89856468Y-92232958D01*
X89842758Y-92235961D01*
X89826271Y-92213793D01*
X89793746Y-92151149D01*
X89747609Y-92053809D01*
X89690291Y-91927549D01*
X89624217Y-91778150D01*
X89551816Y-91611388D01*
X89475517Y-91433042D01*
X89397747Y-91248891D01*
X89320935Y-91064712D01*
X89247507Y-90886285D01*
X89179893Y-90719387D01*
X89120521Y-90569797D01*
X89071817Y-90443293D01*
X89036211Y-90345654D01*
X89016131Y-90282657D01*
X89012901Y-90261021D01*
X89038497Y-90233424D01*
X89094539Y-90188625D01*
X89169312Y-90135934D01*
X89175588Y-90131765D01*
X89368846Y-89977069D01*
X89524675Y-89796591D01*
X89641725Y-89596102D01*
X89718646Y-89381374D01*
X89754087Y-89158177D01*
X89746698Y-88932281D01*
X89695128Y-88709459D01*
X89598027Y-88495479D01*
X89569459Y-88448664D01*
X89420869Y-88259618D01*
X89245328Y-88107812D01*
X89048911Y-87994034D01*
X88837694Y-87919075D01*
X88617754Y-87883722D01*
X88395164Y-87888767D01*
X88176002Y-87934999D01*
X87966343Y-88023206D01*
X87772262Y-88154179D01*
X87712227Y-88207337D01*
X87559436Y-88373739D01*
X87448098Y-88548912D01*
X87371724Y-88745266D01*
X87329188Y-88939717D01*
X87318687Y-89158342D01*
X87353701Y-89378052D01*
X87430674Y-89591420D01*
X87546048Y-89791022D01*
X87696266Y-89969429D01*
X87877774Y-90119217D01*
X87901628Y-90135006D01*
X87977202Y-90186712D01*
X88034652Y-90231512D01*
X88062118Y-90260117D01*
X88062518Y-90261021D01*
X88056621Y-90291964D01*
X88033246Y-90362191D01*
X87994822Y-90465925D01*
X87943778Y-90597390D01*
X87882543Y-90750807D01*
X87813545Y-90920401D01*
X87739214Y-91100393D01*
X87661979Y-91285008D01*
X87584269Y-91468468D01*
X87508512Y-91644996D01*
X87437138Y-91808814D01*
X87372575Y-91954147D01*
X87317253Y-92075217D01*
X87273601Y-92166247D01*
X87244047Y-92221460D01*
X87232145Y-92235961D01*
X87195778Y-92224669D01*
X87127731Y-92194385D01*
X87039737Y-92150520D01*
X86991351Y-92124875D01*
X86785864Y-92013770D01*
X86541069Y-92179346D01*
X86416107Y-92264170D01*
X86279296Y-92357516D01*
X86151089Y-92445408D01*
X86086872Y-92489667D01*
X85996552Y-92550318D01*
X85920072Y-92598381D01*
X85867408Y-92627770D01*
X85850303Y-92633982D01*
X85825406Y-92617223D01*
X85770306Y-92570436D01*
X85690344Y-92498480D01*
X85590861Y-92406212D01*
X85477201Y-92298490D01*
X85405316Y-92229326D01*
X85279552Y-92105757D01*
X85170864Y-91995234D01*
X85083646Y-91902485D01*
X85022290Y-91832237D01*
X84991192Y-91789220D01*
X84988209Y-91780490D01*
X85002054Y-91747284D01*
X85040313Y-91680142D01*
X85098742Y-91585863D01*
X85173098Y-91471245D01*
X85259136Y-91343083D01*
X85283603Y-91307353D01*
X85372755Y-91177489D01*
X85452739Y-91060569D01*
X85519081Y-90963162D01*
X85567312Y-90891839D01*
X85592958Y-90853170D01*
X85595436Y-90849172D01*
X85591730Y-90818355D01*
X85572062Y-90750599D01*
X85539861Y-90654839D01*
X85498556Y-90540009D01*
X85451576Y-90415044D01*
X85402350Y-90288879D01*
X85354309Y-90170448D01*
X85310882Y-90068685D01*
X85275497Y-89992526D01*
X85251585Y-89950904D01*
X85249885Y-89948908D01*
X85235263Y-89937013D01*
X85210566Y-89925250D01*
X85170373Y-89912401D01*
X85109264Y-89897249D01*
X85021818Y-89878576D01*
X84902613Y-89855165D01*
X84746228Y-89825797D01*
X84547244Y-89789255D01*
X84504161Y-89781398D01*
X84376471Y-89756727D01*
X84265154Y-89732593D01*
X84180046Y-89711324D01*
X84130984Y-89695248D01*
X84124406Y-89691500D01*
X84113565Y-89658273D01*
X84104754Y-89584021D01*
X84097977Y-89477376D01*
X84093241Y-89346967D01*
X84090551Y-89201427D01*
X84089914Y-89049386D01*
X84091335Y-88899476D01*
X84094821Y-88760328D01*
X84100377Y-88640572D01*
X84108009Y-88548841D01*
X84117723Y-88493766D01*
X84123579Y-88482493D01*
X84156181Y-88471123D01*
X84230419Y-88452624D01*
X84338897Y-88428602D01*
X84474218Y-88400662D01*
X84628986Y-88370408D01*
X84713308Y-88354551D01*
X84873297Y-88324644D01*
X85015968Y-88297550D01*
X85134349Y-88274631D01*
X85221466Y-88257243D01*
X85270346Y-88246747D01*
X85278391Y-88244420D01*
X85291988Y-88218186D01*
X85320730Y-88154995D01*
X85360786Y-88063877D01*
X85408325Y-87953857D01*
X85459516Y-87833965D01*
X85510527Y-87713227D01*
X85557527Y-87600671D01*
X85596685Y-87505326D01*
X85624170Y-87436217D01*
X85636150Y-87402374D01*
X85636373Y-87400895D01*
X85622792Y-87374197D01*
X85584716Y-87312760D01*
X85526148Y-87222689D01*
X85451089Y-87110090D01*
X85363541Y-86981070D01*
X85312648Y-86906961D01*
X85219910Y-86771077D01*
X85137542Y-86647709D01*
X85069562Y-86543097D01*
X85019989Y-86463483D01*
X84992843Y-86415107D01*
X84988922Y-86404262D01*
X85005776Y-86379020D01*
X85052369Y-86325124D01*
X85122749Y-86248613D01*
X85210966Y-86155523D01*
X85311066Y-86051895D01*
X85417099Y-85943764D01*
X85523112Y-85837170D01*
X85623153Y-85738150D01*
X85711271Y-85652742D01*
X85781514Y-85586985D01*
X85827929Y-85546916D01*
X85843457Y-85537353D01*
X85868740Y-85550800D01*
X85929212Y-85588575D01*
X86018993Y-85646835D01*
X86132204Y-85721734D01*
X86262964Y-85809425D01*
X86361600Y-85876233D01*
X86859958Y-86215112D01*
X87275371Y-86043865D01*
X87690785Y-85872618D01*
X87803367Y-85275427D01*
X87915950Y-84678235D01*
X89158953Y-84678235D01*
X89271536Y-85275427D01*
G37*
D13*
X100362742Y-43177500D02*
X100837258Y-43177500D01*
X100362742Y-44222500D02*
X100837258Y-44222500D01*
X89040580Y-65125000D02*
X88759420Y-65125000D01*
X89040580Y-66145000D02*
X88759420Y-66145000D01*
X115937258Y-39377500D02*
X115462742Y-39377500D01*
X115937258Y-40422500D02*
X115462742Y-40422500D01*
X105200000Y-40700000D02*
X105200000Y-41300000D01*
X105200000Y-41300000D02*
X105500000Y-41000000D01*
X105500000Y-41000000D02*
X105200000Y-40700000D01*
X105750000Y-39650000D02*
X107700000Y-39650000D01*
X105750000Y-45150000D02*
X105750000Y-39650000D01*
X107700000Y-39650000D02*
X107700000Y-45150000D01*
X107700000Y-45150000D02*
X105750000Y-45150000D01*
X100400000Y-39640000D02*
X99750000Y-39640000D01*
X100400000Y-39640000D02*
X101050000Y-39640000D01*
X100400000Y-42760000D02*
X99750000Y-42760000D01*
X100400000Y-42760000D02*
X101050000Y-42760000D01*
X99237500Y-39690000D02*
X98997500Y-39360000D01*
X99477500Y-39360000D01*
X99237500Y-39690000D01*
G36*
X99237500Y-39690000D02*
G01*
X98997500Y-39360000D01*
X99477500Y-39360000D01*
X99237500Y-39690000D01*
G37*
X89370000Y-28895000D02*
X90700000Y-28895000D01*
X89370000Y-30225000D02*
X89370000Y-28895000D01*
X89370000Y-31495000D02*
X89370000Y-49335000D01*
X89370000Y-31495000D02*
X92030000Y-31495000D01*
X89370000Y-49335000D02*
X92030000Y-49335000D01*
X92030000Y-31495000D02*
X92030000Y-49335000D01*
X89890580Y-55240000D02*
X89609420Y-55240000D01*
X89890580Y-56260000D02*
X89609420Y-56260000D01*
X105200000Y-77700000D02*
X105200000Y-78300000D01*
X105200000Y-78300000D02*
X105500000Y-78000000D01*
X105500000Y-78000000D02*
X105200000Y-77700000D01*
X105750000Y-76650000D02*
X107700000Y-76650000D01*
X105750000Y-82150000D02*
X105750000Y-76650000D01*
X107700000Y-76650000D02*
X107700000Y-82150000D01*
X107700000Y-82150000D02*
X105750000Y-82150000D01*
X89890580Y-53690000D02*
X89609420Y-53690000D01*
X89890580Y-54710000D02*
X89609420Y-54710000D01*
X95477500Y-32762742D02*
X95477500Y-33237258D01*
X96522500Y-32762742D02*
X96522500Y-33237258D01*
X105265000Y-28200000D02*
X105265000Y-30485000D01*
X105265000Y-30485000D02*
X106735000Y-30485000D01*
X106735000Y-30485000D02*
X106735000Y-28200000D01*
X112740580Y-53590000D02*
X112459420Y-53590000D01*
X112740580Y-54610000D02*
X112459420Y-54610000D01*
X83615000Y-74476248D02*
X83615000Y-74998752D01*
X85085000Y-74476248D02*
X85085000Y-74998752D01*
X81040580Y-49490000D02*
X80759420Y-49490000D01*
X81040580Y-50510000D02*
X80759420Y-50510000D01*
X105477500Y-87237258D02*
X105477500Y-86762742D01*
X106522500Y-87237258D02*
X106522500Y-86762742D01*
X105265000Y-89515000D02*
X105265000Y-91800000D01*
X106735000Y-89515000D02*
X105265000Y-89515000D01*
X106735000Y-91800000D02*
X106735000Y-89515000D01*
X96840580Y-46730000D02*
X96559420Y-46730000D01*
X96840580Y-47750000D02*
X96559420Y-47750000D01*
X95265000Y-28200000D02*
X95265000Y-30485000D01*
X95265000Y-30485000D02*
X96735000Y-30485000D01*
X96735000Y-30485000D02*
X96735000Y-28200000D01*
X101890580Y-68940000D02*
X101609420Y-68940000D01*
X101890580Y-69960000D02*
X101609420Y-69960000D01*
X91775000Y-66575000D02*
X86375000Y-66575000D01*
X91775000Y-71075000D02*
X91775000Y-66575000D01*
X115937258Y-44377500D02*
X115462742Y-44377500D01*
X115937258Y-45422500D02*
X115462742Y-45422500D01*
X100477500Y-32762742D02*
X100477500Y-33237258D01*
X101522500Y-32762742D02*
X101522500Y-33237258D01*
X115937258Y-81377500D02*
X115462742Y-81377500D01*
X115937258Y-82422500D02*
X115462742Y-82422500D01*
X84277500Y-64512742D02*
X84277500Y-64987258D01*
X85322500Y-64512742D02*
X85322500Y-64987258D01*
X115800000Y-40840000D02*
X115150000Y-40840000D01*
X115800000Y-40840000D02*
X116450000Y-40840000D01*
X115800000Y-43960000D02*
X115150000Y-43960000D01*
X115800000Y-43960000D02*
X116450000Y-43960000D01*
X117202500Y-44240000D02*
X116722500Y-44240000D01*
X116962500Y-43910000D01*
X117202500Y-44240000D01*
G36*
X117202500Y-44240000D02*
G01*
X116722500Y-44240000D01*
X116962500Y-43910000D01*
X117202500Y-44240000D01*
G37*
X78477500Y-71218508D02*
X78477500Y-70743992D01*
X79522500Y-71218508D02*
X79522500Y-70743992D01*
X94250000Y-68849420D02*
X94250000Y-69130580D01*
X95270000Y-68849420D02*
X95270000Y-69130580D01*
X92315000Y-70388748D02*
X92315000Y-70911252D01*
X93785000Y-70388748D02*
X93785000Y-70911252D01*
X112600000Y-47940000D02*
X110650000Y-47940000D01*
X112600000Y-47940000D02*
X114550000Y-47940000D01*
X112600000Y-53060000D02*
X110650000Y-53060000D01*
X112600000Y-53060000D02*
X114550000Y-53060000D01*
X109900000Y-48035000D02*
X109660000Y-47705000D01*
X110140000Y-47705000D01*
X109900000Y-48035000D01*
G36*
X109900000Y-48035000D02*
G01*
X109660000Y-47705000D01*
X110140000Y-47705000D01*
X109900000Y-48035000D01*
G37*
X92890000Y-51290000D02*
X93590000Y-51290000D01*
X92890000Y-51990000D02*
X92890000Y-51290000D01*
X92890000Y-64810000D02*
X92890000Y-65510000D01*
X92890000Y-65510000D02*
X93590000Y-65510000D01*
X107110000Y-51290000D02*
X106410000Y-51290000D01*
X107110000Y-51990000D02*
X107110000Y-51290000D01*
X107110000Y-64810000D02*
X107110000Y-65510000D01*
X107110000Y-65510000D02*
X106410000Y-65510000D01*
X93590000Y-66137500D02*
X93120000Y-66477500D01*
X93120000Y-65797500D01*
X93590000Y-66137500D01*
G36*
X93590000Y-66137500D02*
G01*
X93120000Y-66477500D01*
X93120000Y-65797500D01*
X93590000Y-66137500D01*
G37*
X84140000Y-59850000D02*
X84140000Y-61150000D01*
X87260000Y-61150000D02*
X87260000Y-59880000D01*
X87540000Y-59740000D02*
X87210000Y-59500000D01*
X87540000Y-59260000D01*
X87540000Y-59740000D01*
G36*
X87540000Y-59740000D02*
G01*
X87210000Y-59500000D01*
X87540000Y-59260000D01*
X87540000Y-59740000D01*
G37*
X112259420Y-41890000D02*
X112540580Y-41890000D01*
X112259420Y-42910000D02*
X112540580Y-42910000D01*
X104709420Y-67380000D02*
X104990580Y-67380000D01*
X104709420Y-68400000D02*
X104990580Y-68400000D01*
X85237258Y-49477500D02*
X84762742Y-49477500D01*
X85237258Y-50522500D02*
X84762742Y-50522500D01*
X98639420Y-67390000D02*
X98920580Y-67390000D01*
X98639420Y-68410000D02*
X98920580Y-68410000D01*
X84990000Y-68890580D02*
X84990000Y-68609420D01*
X86010000Y-68890580D02*
X86010000Y-68609420D01*
X115937258Y-82877500D02*
X115462742Y-82877500D01*
X115937258Y-83922500D02*
X115462742Y-83922500D01*
X112600000Y-67340000D02*
X110650000Y-67340000D01*
X112600000Y-67340000D02*
X114550000Y-67340000D01*
X112600000Y-72460000D02*
X110650000Y-72460000D01*
X112600000Y-72460000D02*
X114550000Y-72460000D01*
X109900000Y-67435000D02*
X109660000Y-67105000D01*
X110140000Y-67105000D01*
X109900000Y-67435000D01*
G36*
X109900000Y-67435000D02*
G01*
X109660000Y-67105000D01*
X110140000Y-67105000D01*
X109900000Y-67435000D01*
G37*
X115937258Y-45877500D02*
X115462742Y-45877500D01*
X115937258Y-46922500D02*
X115462742Y-46922500D01*
X86790000Y-52637221D02*
X86790000Y-52962779D01*
X87810000Y-52637221D02*
X87810000Y-52962779D01*
X89736252Y-58215000D02*
X89213748Y-58215000D01*
X89736252Y-59685000D02*
X89213748Y-59685000D01*
X112259420Y-78890000D02*
X112540580Y-78890000D01*
X112259420Y-79910000D02*
X112540580Y-79910000D01*
%LPC*%
D18*
X92650000Y-66425000D03*
X92650000Y-67975000D03*
D19*
X97600000Y-40375000D03*
X97600000Y-42025000D03*
D20*
X103450000Y-38590000D03*
X103450000Y-41130000D03*
X103450000Y-43670000D03*
X103450000Y-46210000D03*
X109950000Y-46210000D03*
X109950000Y-43670000D03*
X109950000Y-41130000D03*
X109950000Y-38590000D03*
D21*
X96000000Y-87825000D03*
X96000000Y-86175000D03*
D22*
X97475000Y-48800000D03*
X95925000Y-48800000D03*
D23*
X82725000Y-66825000D03*
X80825000Y-66825000D03*
D24*
X116525000Y-75400000D03*
X114875000Y-75400000D03*
D19*
X93400000Y-43750000D03*
X93400000Y-45400000D03*
D25*
X88812500Y-57225000D03*
X90387500Y-57225000D03*
D22*
X90425000Y-52600000D03*
X88875000Y-52600000D03*
D26*
X98000000Y-71000000D03*
X98000000Y-72900000D03*
D27*
X101000000Y-29787500D03*
X101000000Y-28212500D03*
D28*
X83475000Y-52300000D03*
X85125000Y-52300000D03*
D29*
X109725000Y-57900000D03*
X111275000Y-57900000D03*
D28*
X99775000Y-80700000D03*
X101425000Y-80700000D03*
D30*
X86262500Y-73787500D03*
X86262500Y-74737500D03*
X86262500Y-75687500D03*
X88537500Y-75687500D03*
X88537500Y-73787500D03*
D31*
X99462500Y-77250000D03*
X99462500Y-79150000D03*
X101337500Y-78200000D03*
D18*
X96220000Y-68215000D03*
X96220000Y-69765000D03*
D22*
X90425000Y-51000000D03*
X88875000Y-51000000D03*
D24*
X116525000Y-38400000D03*
X114875000Y-38400000D03*
D26*
X90450000Y-73787500D03*
X90450000Y-75687500D03*
D27*
X86275000Y-65537500D03*
X86275000Y-63962500D03*
D32*
X79000000Y-74193750D03*
X79000000Y-75768750D03*
D24*
X113425000Y-60800000D03*
X111775000Y-60800000D03*
D33*
X116737500Y-80350000D03*
X116737500Y-78450000D03*
X114862500Y-79400000D03*
D28*
X99875000Y-38600000D03*
X101525000Y-38600000D03*
D21*
X101000000Y-87825000D03*
X101000000Y-86175000D03*
D34*
X80000000Y-30000000D03*
D35*
X108150000Y-70675000D03*
X108150000Y-69125000D03*
X108150000Y-51275000D03*
X108150000Y-49725000D03*
D22*
X90475000Y-60700000D03*
X88925000Y-60700000D03*
X101050000Y-48500000D03*
X99500000Y-48500000D03*
X89675000Y-62625000D03*
X88125000Y-62625000D03*
D19*
X97600000Y-77375000D03*
X97600000Y-79025000D03*
D21*
X84500000Y-57325000D03*
X84500000Y-55675000D03*
X93400000Y-48425000D03*
X93400000Y-46775000D03*
D29*
X109875000Y-63400000D03*
X111425000Y-63400000D03*
D20*
X103450000Y-75590000D03*
X103450000Y-78130000D03*
X103450000Y-80670000D03*
X103450000Y-83210000D03*
X109950000Y-83210000D03*
X109950000Y-80670000D03*
X109950000Y-78130000D03*
X109950000Y-75590000D03*
D36*
X120078000Y-83986400D03*
X120078000Y-81243200D03*
X120078000Y-78500000D03*
X120078000Y-75756800D03*
X120078000Y-73013600D03*
X122922800Y-82614800D03*
X122922800Y-79871600D03*
X122922800Y-77128400D03*
X122922800Y-74385200D03*
D37*
X121475000Y-66003200D03*
X121475000Y-90996800D03*
D22*
X113375000Y-73500000D03*
X111825000Y-73500000D03*
D36*
X120078000Y-46986400D03*
X120078000Y-44243200D03*
X120078000Y-41500000D03*
X120078000Y-38756800D03*
X120078000Y-36013600D03*
X122922800Y-45614800D03*
X122922800Y-42871600D03*
X122922800Y-40128400D03*
X122922800Y-37385200D03*
D37*
X121475000Y-29003200D03*
X121475000Y-53996800D03*
D28*
X99450000Y-46900000D03*
X101100000Y-46900000D03*
D34*
X80000000Y-90000000D03*
D24*
X89725000Y-64175000D03*
X88075000Y-64175000D03*
D19*
X106000000Y-32175000D03*
X106000000Y-33825000D03*
X87050000Y-55600000D03*
X87050000Y-57250000D03*
D38*
X99567500Y-69450000D03*
X97992500Y-69450000D03*
D24*
X113425000Y-56100000D03*
X111775000Y-56100000D03*
X116525000Y-76900000D03*
X114875000Y-76900000D03*
D38*
X81687500Y-52300000D03*
X80112500Y-52300000D03*
D32*
X101000000Y-90212500D03*
X101000000Y-91787500D03*
D22*
X102525000Y-67900000D03*
X100975000Y-67900000D03*
D34*
X113000000Y-30000000D03*
D32*
X96000000Y-90212500D03*
X96000000Y-91787500D03*
D28*
X99875000Y-75600000D03*
X101525000Y-75600000D03*
D39*
X81280000Y-57110000D03*
X81280000Y-62890000D03*
D40*
X82355000Y-56800000D03*
X82355000Y-57600000D03*
D41*
X82355000Y-58750000D03*
X82355000Y-59750000D03*
X82355000Y-60250000D03*
X82355000Y-61250000D03*
D40*
X82355000Y-62400000D03*
X82355000Y-63200000D03*
X82355000Y-63200000D03*
X82355000Y-62400000D03*
D41*
X82355000Y-61750000D03*
X82355000Y-60750000D03*
X82355000Y-59250000D03*
X82355000Y-58250000D03*
D40*
X82355000Y-57600000D03*
X82355000Y-56800000D03*
D42*
X81780000Y-55680000D03*
D43*
X77600000Y-55680000D03*
D42*
X81780000Y-64320000D03*
D43*
X77600000Y-64320000D03*
D44*
X78750000Y-47550000D03*
X78750000Y-38450000D03*
X83250000Y-47550000D03*
X83250000Y-38450000D03*
D32*
X82900000Y-70712500D03*
X82900000Y-72287500D03*
D28*
X99775000Y-43700000D03*
X101425000Y-43700000D03*
D22*
X89675000Y-65635000D03*
X88125000Y-65635000D03*
D24*
X116525000Y-39900000D03*
X114875000Y-39900000D03*
D45*
X106700000Y-41200000D03*
X106700000Y-43600000D03*
D46*
X106700000Y-40400000D03*
D47*
X106700000Y-44400000D03*
D31*
X99462500Y-40250000D03*
X99462500Y-42150000D03*
X101337500Y-41200000D03*
D48*
X90550000Y-30225000D03*
D49*
X90850000Y-32765000D03*
X90550000Y-35305000D03*
X90850000Y-37845000D03*
X90550000Y-40385000D03*
X90850000Y-42925000D03*
X90550000Y-45465000D03*
X90850000Y-48005000D03*
D22*
X90525000Y-55750000D03*
X88975000Y-55750000D03*
D45*
X106700000Y-78200000D03*
X106700000Y-80600000D03*
D46*
X106700000Y-77400000D03*
D47*
X106700000Y-81400000D03*
D22*
X90525000Y-54200000D03*
X88975000Y-54200000D03*
D19*
X96000000Y-32175000D03*
X96000000Y-33825000D03*
D27*
X106000000Y-29787500D03*
X106000000Y-28212500D03*
D22*
X113375000Y-54100000D03*
X111825000Y-54100000D03*
D26*
X84350000Y-73787500D03*
X84350000Y-75687500D03*
D22*
X81675000Y-50000000D03*
X80125000Y-50000000D03*
D21*
X106000000Y-87825000D03*
X106000000Y-86175000D03*
D32*
X106000000Y-90212500D03*
X106000000Y-91787500D03*
D22*
X97475000Y-47240000D03*
X95925000Y-47240000D03*
D27*
X96000000Y-29787500D03*
X96000000Y-28212500D03*
D22*
X102525000Y-69450000D03*
X100975000Y-69450000D03*
D50*
X90525000Y-67675000D03*
X87625000Y-67675000D03*
X87625000Y-69975000D03*
X90525000Y-69975000D03*
D24*
X116525000Y-44900000D03*
X114875000Y-44900000D03*
D19*
X101000000Y-32175000D03*
X101000000Y-33825000D03*
D24*
X116525000Y-81900000D03*
X114875000Y-81900000D03*
D19*
X84800000Y-63925000D03*
X84800000Y-65575000D03*
D33*
X116737500Y-43350000D03*
X116737500Y-41450000D03*
X114862500Y-42400000D03*
D21*
X79000000Y-71806250D03*
X79000000Y-70156250D03*
D18*
X94760000Y-68215000D03*
X94760000Y-69765000D03*
D26*
X93050000Y-69700000D03*
X93050000Y-71600000D03*
D51*
X110125000Y-48595000D03*
X110125000Y-49865000D03*
X110125000Y-51135000D03*
X110125000Y-52405000D03*
X115075000Y-52405000D03*
X115075000Y-51135000D03*
X115075000Y-49865000D03*
X115075000Y-48595000D03*
D34*
X113000000Y-90000000D03*
D52*
X94000000Y-66075000D03*
X94500000Y-66075000D03*
X95000000Y-66075000D03*
X95500000Y-66075000D03*
X96000000Y-66075000D03*
X96500000Y-66075000D03*
X97000000Y-66075000D03*
X97500000Y-66075000D03*
X98000000Y-66075000D03*
X98500000Y-66075000D03*
X99000000Y-66075000D03*
X99500000Y-66075000D03*
X100000000Y-66075000D03*
X100500000Y-66075000D03*
X101000000Y-66075000D03*
X101500000Y-66075000D03*
X102000000Y-66075000D03*
X102500000Y-66075000D03*
X103000000Y-66075000D03*
X103500000Y-66075000D03*
X104000000Y-66075000D03*
X104500000Y-66075000D03*
X105000000Y-66075000D03*
X105500000Y-66075000D03*
X106000000Y-66075000D03*
D53*
X107675000Y-64400000D03*
X107675000Y-63900000D03*
X107675000Y-63400000D03*
X107675000Y-62900000D03*
X107675000Y-62400000D03*
X107675000Y-61900000D03*
X107675000Y-61400000D03*
X107675000Y-60900000D03*
X107675000Y-60400000D03*
X107675000Y-59900000D03*
X107675000Y-59400000D03*
X107675000Y-58900000D03*
X107675000Y-58400000D03*
X107675000Y-57900000D03*
X107675000Y-57400000D03*
X107675000Y-56900000D03*
X107675000Y-56400000D03*
X107675000Y-55900000D03*
X107675000Y-55400000D03*
X107675000Y-54900000D03*
X107675000Y-54400000D03*
X107675000Y-53900000D03*
X107675000Y-53400000D03*
X107675000Y-52900000D03*
X107675000Y-52400000D03*
D52*
X106000000Y-50725000D03*
X105500000Y-50725000D03*
X105000000Y-50725000D03*
X104500000Y-50725000D03*
X104000000Y-50725000D03*
X103500000Y-50725000D03*
X103000000Y-50725000D03*
X102500000Y-50725000D03*
X102000000Y-50725000D03*
X101500000Y-50725000D03*
X101000000Y-50725000D03*
X100500000Y-50725000D03*
X100000000Y-50725000D03*
X99500000Y-50725000D03*
X99000000Y-50725000D03*
X98500000Y-50725000D03*
X98000000Y-50725000D03*
X97500000Y-50725000D03*
X97000000Y-50725000D03*
X96500000Y-50725000D03*
X96000000Y-50725000D03*
X95500000Y-50725000D03*
X95000000Y-50725000D03*
X94500000Y-50725000D03*
X94000000Y-50725000D03*
D53*
X92325000Y-52400000D03*
X92325000Y-52900000D03*
X92325000Y-53400000D03*
X92325000Y-53900000D03*
X92325000Y-54400000D03*
X92325000Y-54900000D03*
X92325000Y-55400000D03*
X92325000Y-55900000D03*
X92325000Y-56400000D03*
X92325000Y-56900000D03*
X92325000Y-57400000D03*
X92325000Y-57900000D03*
X92325000Y-58400000D03*
X92325000Y-58900000D03*
X92325000Y-59400000D03*
X92325000Y-59900000D03*
X92325000Y-60400000D03*
X92325000Y-60900000D03*
X92325000Y-61400000D03*
X92325000Y-61900000D03*
X92325000Y-62400000D03*
X92325000Y-62900000D03*
X92325000Y-63400000D03*
X92325000Y-63900000D03*
X92325000Y-64400000D03*
D54*
X86450000Y-59500000D03*
D55*
X84750000Y-59500000D03*
X84750000Y-61500000D03*
X86650000Y-61500000D03*
D29*
X111625000Y-42400000D03*
X113175000Y-42400000D03*
X104075000Y-67890000D03*
X105625000Y-67890000D03*
D24*
X85825000Y-50000000D03*
X84175000Y-50000000D03*
D29*
X98005000Y-67900000D03*
X99555000Y-67900000D03*
D35*
X85500000Y-69525000D03*
X85500000Y-67975000D03*
D24*
X116525000Y-83400000D03*
X114875000Y-83400000D03*
D51*
X110125000Y-67995000D03*
X110125000Y-69265000D03*
X110125000Y-70535000D03*
X110125000Y-71805000D03*
X115075000Y-71805000D03*
X115075000Y-70535000D03*
X115075000Y-69265000D03*
X115075000Y-67995000D03*
D24*
X116525000Y-46400000D03*
X114875000Y-46400000D03*
D32*
X87300000Y-52012500D03*
X87300000Y-53587500D03*
D23*
X90425000Y-58950000D03*
X88525000Y-58950000D03*
D29*
X111625000Y-79400000D03*
X113175000Y-79400000D03*
%LPD*%
M02*
