M48
; DRILL file {KiCad 8.0.5} date 2024-10-15T19:35:18+0200
; FORMAT={-:-/ absolute / metric / decimal}
; #@! TF.CreationDate,2024-10-15T19:35:18+02:00
; #@! TF.GenerationSoftware,Kicad,Pcbnew,8.0.5
; #@! TF.FileFunction,Plated,1,4,PTH
FMAT,2
METRIC
; #@! TA.AperFunction,Plated,PTH,ViaDrill
T1C0.300
; #@! TA.AperFunction,Plated,PTH,ComponentDrill
T2C0.600
; #@! TA.AperFunction,Plated,PTH,ComponentDrill
T3C1.000
; #@! TA.AperFunction,Plated,PTH,ComponentDrill
T4C1.143
; #@! TA.AperFunction,Plated,PTH,ComponentDrill
T5C3.302
%
G90
G05
T1
X76.0Y-30.0
X76.0Y-40.0
X76.0Y-50.0
X76.0Y-60.0
X76.0Y-70.0
X76.0Y-80.0
X76.0Y-90.0
X78.75Y-49.025
X79.0Y-69.331
X79.225Y-50.025
X79.875Y-66.825
X80.0Y-26.0
X80.0Y-94.0
X82.0Y-35.0
X82.9Y-69.8
X83.075Y-63.55
X83.175Y-56.35
X83.33Y-57.6
X83.33Y-62.4
X83.8Y-66.85
X84.5Y-54.825
X84.5Y-68.0
X84.5Y-69.475
X84.8Y-51.2
X84.875Y-66.425
X85.0Y-77.2
X85.0Y-85.0
X85.125Y-74.75
X85.7Y-70.6
X85.725Y-61.525
X85.9Y-42.125
X86.0Y-52.3
X86.075Y-66.425
X86.182Y-68.79
X86.475Y-58.475
X86.52Y-62.4
X86.675Y-50.0
X87.05Y-54.75
X87.225Y-62.625
X87.225Y-64.185
X87.225Y-65.635
X87.3Y-51.125
X87.35Y-71.325
X87.35Y-74.75
X87.625Y-58.95
X87.975Y-55.75
X88.05Y-54.35
X88.4Y-50.05
X88.875Y-66.2
X89.125Y-71.325
X89.65Y-59.95
X90.0Y-26.0
X90.0Y-80.0
X90.0Y-90.0
X90.45Y-72.812
X90.45Y-76.675
X90.7Y-71.325
X91.0Y-94.0
X91.225Y-60.9
X91.51Y-51.49
X91.8Y-65.725
X92.1Y-70.6
X92.125Y-68.875
X92.7Y-33.925
X93.05Y-72.55
X93.4Y-42.9
X93.4Y-49.275
X93.475Y-53.4
X93.475Y-54.9
X93.5Y-60.4
X93.9Y-68.2
X94.1Y-52.3
X94.75Y-70.675
X95.0Y-64.9
X95.125Y-67.325
X95.75Y-42.25
X96.0Y-34.675
X96.0Y-64.9
X96.0Y-85.325
X96.2Y-70.675
X97.0Y-64.9
X97.6Y-39.525
X97.6Y-42.875
X97.6Y-76.525
X97.6Y-79.875
X98.0Y-73.85
X98.2Y-52.0
X98.25Y-48.0
X98.5Y-64.9
X98.6Y-34.6
X98.6Y-46.875
X98.6Y-85.4
X98.925Y-43.7
X98.925Y-80.7
X99.0Y-26.0
X99.0Y-49.25
X99.0Y-51.9
X99.025Y-38.6
X99.025Y-75.6
X99.45Y-52.45
X100.06Y-70.83
X100.07Y-73.73
X100.5Y-49.55
X101.0Y-34.675
X101.0Y-85.325
X101.3Y-64.8
X102.0Y-64.9
X102.175Y-47.725
X102.5Y-67.15
X102.8Y-64.85
X103.4Y-67.35
X103.5Y-64.9
X103.5Y-94.0
X104.0Y-51.9
X104.5Y-64.9
X105.0Y-51.875
X105.2Y-64.8
X105.5Y-49.55
X105.5Y-52.4
X106.0Y-34.675
X106.0Y-51.9
X106.0Y-85.325
X106.5Y-52.9
X106.5Y-53.9
X106.5Y-57.9
X106.525Y-56.9
X106.525Y-58.9
X106.525Y-59.9
X106.525Y-67.875
X106.525Y-70.81
X106.525Y-73.73
X106.6Y-50.9
X107.225Y-51.25
X108.15Y-48.825
X108.15Y-68.225
X108.15Y-71.575
X108.7Y-48.1
X108.95Y-63.4
X109.0Y-26.0
X109.4Y-53.8
X109.45Y-72.9
X109.65Y-47.0
X110.0Y-86.0
X110.1Y-47.555
X110.125Y-53.45
X110.125Y-66.975
X110.15Y-72.87
X110.2Y-66.2
X110.4Y-56.1
X110.65Y-73.5
X110.8Y-53.2
X110.85Y-72.8
X110.9Y-67.25
X110.925Y-54.1
X112.2Y-57.9
X112.325Y-63.41
X113.635Y-48.6
X113.9Y-42.4
X113.9Y-79.4
X114.175Y-73.5
X114.25Y-54.1
X114.275Y-56.1
X114.275Y-60.8
X115.0Y-34.0
X116.0Y-94.0
X116.49Y-70.55
X116.5Y-69.275
X116.515Y-49.875
X116.515Y-51.125
X117.0Y-26.0
X117.15Y-71.25
X117.2Y-77.675
X117.275Y-49.0
X118.375Y-44.8
X124.0Y-60.0
X125.0Y-26.0
X126.0Y-94.0
X130.0Y-31.0
X130.0Y-41.0
X130.0Y-51.0
X130.0Y-61.0
X130.0Y-71.0
X130.0Y-81.0
X130.0Y-90.0
T3
X90.55Y-30.225
X90.55Y-35.305
X90.55Y-40.385
X90.55Y-45.465
X90.85Y-32.765
X90.85Y-37.845
X90.85Y-42.925
X90.85Y-48.005
T4
X120.078Y-36.014
X120.078Y-38.757
X120.078Y-41.5
X120.078Y-44.243
X120.078Y-46.986
X120.078Y-73.014
X120.078Y-75.757
X120.078Y-78.5
X120.078Y-81.243
X120.078Y-83.986
X122.923Y-37.385
X122.923Y-40.128
X122.923Y-42.872
X122.923Y-45.615
X122.923Y-74.385
X122.923Y-77.128
X122.923Y-79.872
X122.923Y-82.615
T5
X121.475Y-29.003
X121.475Y-53.997
X121.475Y-66.003
X121.475Y-90.997
T2
X78.0Y-55.68G85X77.2Y-55.68
G05
X78.0Y-64.32G85X77.2Y-64.32
G05
X82.33Y-55.68G85X81.23Y-55.68
G05
X82.33Y-64.32G85X81.23Y-64.32
G05
M30
