%TF.GenerationSoftware,KiCad,Pcbnew,8.0.5*%
%TF.CreationDate,2024-10-15T19:35:21+02:00*%
%TF.ProjectId,CANbardo,43414e62-6172-4646-9f2e-6b696361645f,Rev1*%
%TF.SameCoordinates,Original*%
%TF.FileFunction,Drillmap*%
%TF.FilePolarity,Positive*%
%FSLAX45Y45*%
G04 Gerber Fmt 4.5, Leading zero omitted, Abs format (unit mm)*
G04 Created by KiCad (PCBNEW 8.0.5) date 2024-10-15 19:35:21*
%MOMM*%
%LPD*%
G01*
G04 APERTURE LIST*
%ADD10C,0.100000*%
%ADD11C,0.200000*%
%ADD12C,0.114300*%
%ADD13C,0.330200*%
G04 APERTURE END LIST*
D10*
X8000000Y-9500000D02*
G75*
G02*
X7500000Y-9000000I0J500000D01*
G01*
X13100000Y-9000000D02*
G75*
G02*
X12600000Y-9500000I-500000J0D01*
G01*
X13100000Y-3000000D02*
X13100000Y-9000000D01*
X12600000Y-2500000D02*
X8000000Y-2500000D01*
X7500000Y-3000000D02*
G75*
G02*
X8000000Y-2500000I500000J0D01*
G01*
X7500000Y-3000000D02*
X7500000Y-9000000D01*
X8000000Y-9500000D02*
X12600000Y-9500000D01*
X12600000Y-2500000D02*
G75*
G02*
X13100000Y-3000000I0J-500000D01*
G01*
D11*
D10*
X7585000Y-2985000D02*
X7615000Y-3015000D01*
X7615000Y-2985000D02*
X7585000Y-3015000D01*
X7585000Y-3985000D02*
X7615000Y-4015000D01*
X7615000Y-3985000D02*
X7585000Y-4015000D01*
X7585000Y-4985000D02*
X7615000Y-5015000D01*
X7615000Y-4985000D02*
X7585000Y-5015000D01*
X7585000Y-5985000D02*
X7615000Y-6015000D01*
X7615000Y-5985000D02*
X7585000Y-6015000D01*
X7585000Y-6985000D02*
X7615000Y-7015000D01*
X7615000Y-6985000D02*
X7585000Y-7015000D01*
X7585000Y-7985000D02*
X7615000Y-8015000D01*
X7615000Y-7985000D02*
X7585000Y-8015000D01*
X7585000Y-8985000D02*
X7615000Y-9015000D01*
X7615000Y-8985000D02*
X7585000Y-9015000D01*
X7860000Y-4887500D02*
X7890000Y-4917500D01*
X7890000Y-4887500D02*
X7860000Y-4917500D01*
X7885000Y-6918125D02*
X7915000Y-6948125D01*
X7915000Y-6918125D02*
X7885000Y-6948125D01*
X7907500Y-4987500D02*
X7937500Y-5017500D01*
X7937500Y-4987500D02*
X7907500Y-5017500D01*
X7972500Y-6667500D02*
X8002500Y-6697500D01*
X8002500Y-6667500D02*
X7972500Y-6697500D01*
X7985000Y-2585000D02*
X8015000Y-2615000D01*
X8015000Y-2585000D02*
X7985000Y-2615000D01*
X7985000Y-9385000D02*
X8015000Y-9415000D01*
X8015000Y-9385000D02*
X7985000Y-9415000D01*
X8185000Y-3485000D02*
X8215000Y-3515000D01*
X8215000Y-3485000D02*
X8185000Y-3515000D01*
X8275000Y-6965000D02*
X8305000Y-6995000D01*
X8305000Y-6965000D02*
X8275000Y-6995000D01*
X8292500Y-6340000D02*
X8322500Y-6370000D01*
X8322500Y-6340000D02*
X8292500Y-6370000D01*
X8302500Y-5620000D02*
X8332500Y-5650000D01*
X8332500Y-5620000D02*
X8302500Y-5650000D01*
X8318000Y-5745000D02*
X8348000Y-5775000D01*
X8348000Y-5745000D02*
X8318000Y-5775000D01*
X8318000Y-6225000D02*
X8348000Y-6255000D01*
X8348000Y-6225000D02*
X8318000Y-6255000D01*
X8365000Y-6670000D02*
X8395000Y-6700000D01*
X8395000Y-6670000D02*
X8365000Y-6700000D01*
X8435000Y-5467500D02*
X8465000Y-5497500D01*
X8465000Y-5467500D02*
X8435000Y-5497500D01*
X8435000Y-6785000D02*
X8465000Y-6815000D01*
X8465000Y-6785000D02*
X8435000Y-6815000D01*
X8435000Y-6932500D02*
X8465000Y-6962500D01*
X8465000Y-6932500D02*
X8435000Y-6962500D01*
X8465000Y-5105000D02*
X8495000Y-5135000D01*
X8495000Y-5105000D02*
X8465000Y-5135000D01*
X8472500Y-6627500D02*
X8502500Y-6657500D01*
X8502500Y-6627500D02*
X8472500Y-6657500D01*
X8485000Y-7705000D02*
X8515000Y-7735000D01*
X8515000Y-7705000D02*
X8485000Y-7735000D01*
X8485000Y-8485000D02*
X8515000Y-8515000D01*
X8515000Y-8485000D02*
X8485000Y-8515000D01*
X8497500Y-7460000D02*
X8527500Y-7490000D01*
X8527500Y-7460000D02*
X8497500Y-7490000D01*
X8555000Y-7045000D02*
X8585000Y-7075000D01*
X8585000Y-7045000D02*
X8555000Y-7075000D01*
X8557500Y-6137500D02*
X8587500Y-6167500D01*
X8587500Y-6137500D02*
X8557500Y-6167500D01*
X8575000Y-4197500D02*
X8605000Y-4227500D01*
X8605000Y-4197500D02*
X8575000Y-4227500D01*
X8585000Y-5215000D02*
X8615000Y-5245000D01*
X8615000Y-5215000D02*
X8585000Y-5245000D01*
X8592500Y-6627500D02*
X8622500Y-6657500D01*
X8622500Y-6627500D02*
X8592500Y-6657500D01*
X8603190Y-6864028D02*
X8633190Y-6894028D01*
X8633190Y-6864028D02*
X8603190Y-6894028D01*
X8632500Y-5832500D02*
X8662500Y-5862500D01*
X8662500Y-5832500D02*
X8632500Y-5862500D01*
X8637041Y-6225000D02*
X8667041Y-6255000D01*
X8667041Y-6225000D02*
X8637041Y-6255000D01*
X8652500Y-4985000D02*
X8682500Y-5015000D01*
X8682500Y-4985000D02*
X8652500Y-5015000D01*
X8690000Y-5460000D02*
X8720000Y-5490000D01*
X8720000Y-5460000D02*
X8690000Y-5490000D01*
X8707500Y-6247500D02*
X8737500Y-6277500D01*
X8737500Y-6247500D02*
X8707500Y-6277500D01*
X8707500Y-6403500D02*
X8737500Y-6433500D01*
X8737500Y-6403500D02*
X8707500Y-6433500D01*
X8707500Y-6548500D02*
X8737500Y-6578500D01*
X8737500Y-6548500D02*
X8707500Y-6578500D01*
X8715000Y-5097500D02*
X8745000Y-5127500D01*
X8745000Y-5097500D02*
X8715000Y-5127500D01*
X8720000Y-7117500D02*
X8750000Y-7147500D01*
X8750000Y-7117500D02*
X8720000Y-7147500D01*
X8720000Y-7460000D02*
X8750000Y-7490000D01*
X8750000Y-7460000D02*
X8720000Y-7490000D01*
X8747500Y-5880000D02*
X8777500Y-5910000D01*
X8777500Y-5880000D02*
X8747500Y-5910000D01*
X8782500Y-5560000D02*
X8812500Y-5590000D01*
X8812500Y-5560000D02*
X8782500Y-5590000D01*
X8790000Y-5420000D02*
X8820000Y-5450000D01*
X8820000Y-5420000D02*
X8790000Y-5450000D01*
X8825000Y-4990000D02*
X8855000Y-5020000D01*
X8855000Y-4990000D02*
X8825000Y-5020000D01*
X8872500Y-6605000D02*
X8902500Y-6635000D01*
X8902500Y-6605000D02*
X8872500Y-6635000D01*
X8897500Y-7117500D02*
X8927500Y-7147500D01*
X8927500Y-7117500D02*
X8897500Y-7147500D01*
X8950000Y-5980000D02*
X8980000Y-6010000D01*
X8980000Y-5980000D02*
X8950000Y-6010000D01*
X8985000Y-2585000D02*
X9015000Y-2615000D01*
X9015000Y-2585000D02*
X8985000Y-2615000D01*
X8985000Y-7985000D02*
X9015000Y-8015000D01*
X9015000Y-7985000D02*
X8985000Y-8015000D01*
X8985000Y-8985000D02*
X9015000Y-9015000D01*
X9015000Y-8985000D02*
X8985000Y-9015000D01*
X9030000Y-7266250D02*
X9060000Y-7296250D01*
X9060000Y-7266250D02*
X9030000Y-7296250D01*
X9030000Y-7652500D02*
X9060000Y-7682500D01*
X9060000Y-7652500D02*
X9030000Y-7682500D01*
X9055000Y-7117500D02*
X9085000Y-7147500D01*
X9085000Y-7117500D02*
X9055000Y-7147500D01*
X9085000Y-9385000D02*
X9115000Y-9415000D01*
X9115000Y-9385000D02*
X9085000Y-9415000D01*
X9107500Y-6075000D02*
X9137500Y-6105000D01*
X9137500Y-6075000D02*
X9107500Y-6105000D01*
X9136000Y-5134000D02*
X9166000Y-5164000D01*
X9166000Y-5134000D02*
X9136000Y-5164000D01*
X9165000Y-6557500D02*
X9195000Y-6587500D01*
X9195000Y-6557500D02*
X9165000Y-6587500D01*
X9195000Y-7045000D02*
X9225000Y-7075000D01*
X9225000Y-7045000D02*
X9195000Y-7075000D01*
X9197500Y-6872500D02*
X9227500Y-6902500D01*
X9227500Y-6872500D02*
X9197500Y-6902500D01*
X9255000Y-3377500D02*
X9285000Y-3407500D01*
X9285000Y-3377500D02*
X9255000Y-3407500D01*
X9290000Y-7240000D02*
X9320000Y-7270000D01*
X9320000Y-7240000D02*
X9290000Y-7270000D01*
X9325000Y-4275000D02*
X9355000Y-4305000D01*
X9355000Y-4275000D02*
X9325000Y-4305000D01*
X9325000Y-4912500D02*
X9355000Y-4942500D01*
X9355000Y-4912500D02*
X9325000Y-4942500D01*
X9332500Y-5325000D02*
X9362500Y-5355000D01*
X9362500Y-5325000D02*
X9332500Y-5355000D01*
X9332500Y-5475000D02*
X9362500Y-5505000D01*
X9362500Y-5475000D02*
X9332500Y-5505000D01*
X9335000Y-6025000D02*
X9365000Y-6055000D01*
X9365000Y-6025000D02*
X9335000Y-6055000D01*
X9375000Y-6805000D02*
X9405000Y-6835000D01*
X9405000Y-6805000D02*
X9375000Y-6835000D01*
X9395000Y-5215000D02*
X9425000Y-5245000D01*
X9425000Y-5215000D02*
X9395000Y-5245000D01*
X9460000Y-7052500D02*
X9490000Y-7082500D01*
X9490000Y-7052500D02*
X9460000Y-7082500D01*
X9485000Y-6475000D02*
X9515000Y-6505000D01*
X9515000Y-6475000D02*
X9485000Y-6505000D01*
X9497500Y-6717500D02*
X9527500Y-6747500D01*
X9527500Y-6717500D02*
X9497500Y-6747500D01*
X9560000Y-4210000D02*
X9590000Y-4240000D01*
X9590000Y-4210000D02*
X9560000Y-4240000D01*
X9585000Y-3452500D02*
X9615000Y-3482500D01*
X9615000Y-3452500D02*
X9585000Y-3482500D01*
X9585000Y-6475000D02*
X9615000Y-6505000D01*
X9615000Y-6475000D02*
X9585000Y-6505000D01*
X9585000Y-8517500D02*
X9615000Y-8547500D01*
X9615000Y-8517500D02*
X9585000Y-8547500D01*
X9605000Y-7052500D02*
X9635000Y-7082500D01*
X9635000Y-7052500D02*
X9605000Y-7082500D01*
X9685000Y-6475000D02*
X9715000Y-6505000D01*
X9715000Y-6475000D02*
X9685000Y-6505000D01*
X9745000Y-3937500D02*
X9775000Y-3967500D01*
X9775000Y-3937500D02*
X9745000Y-3967500D01*
X9745000Y-4272500D02*
X9775000Y-4302500D01*
X9775000Y-4272500D02*
X9745000Y-4302500D01*
X9745000Y-7637500D02*
X9775000Y-7667500D01*
X9775000Y-7637500D02*
X9745000Y-7667500D01*
X9745000Y-7972500D02*
X9775000Y-8002500D01*
X9775000Y-7972500D02*
X9745000Y-8002500D01*
X9785000Y-7370000D02*
X9815000Y-7400000D01*
X9815000Y-7370000D02*
X9785000Y-7400000D01*
X9805000Y-5185000D02*
X9835000Y-5215000D01*
X9835000Y-5185000D02*
X9805000Y-5215000D01*
X9810000Y-4785000D02*
X9840000Y-4815000D01*
X9840000Y-4785000D02*
X9810000Y-4815000D01*
X9835000Y-6475000D02*
X9865000Y-6505000D01*
X9865000Y-6475000D02*
X9835000Y-6505000D01*
X9845000Y-3445000D02*
X9875000Y-3475000D01*
X9875000Y-3445000D02*
X9845000Y-3475000D01*
X9845000Y-4672500D02*
X9875000Y-4702500D01*
X9875000Y-4672500D02*
X9845000Y-4702500D01*
X9845000Y-8525000D02*
X9875000Y-8555000D01*
X9875000Y-8525000D02*
X9845000Y-8555000D01*
X9877500Y-4355000D02*
X9907500Y-4385000D01*
X9907500Y-4355000D02*
X9877500Y-4385000D01*
X9877500Y-8055000D02*
X9907500Y-8085000D01*
X9907500Y-8055000D02*
X9877500Y-8085000D01*
X9885000Y-2585000D02*
X9915000Y-2615000D01*
X9915000Y-2585000D02*
X9885000Y-2615000D01*
X9885000Y-4910000D02*
X9915000Y-4940000D01*
X9915000Y-4910000D02*
X9885000Y-4940000D01*
X9885000Y-5175000D02*
X9915000Y-5205000D01*
X9915000Y-5175000D02*
X9885000Y-5205000D01*
X9887500Y-3845000D02*
X9917500Y-3875000D01*
X9917500Y-3845000D02*
X9887500Y-3875000D01*
X9887500Y-7545000D02*
X9917500Y-7575000D01*
X9917500Y-7545000D02*
X9887500Y-7575000D01*
X9930000Y-5230000D02*
X9960000Y-5260000D01*
X9960000Y-5230000D02*
X9930000Y-5260000D01*
X9991000Y-7068000D02*
X10021000Y-7098000D01*
X10021000Y-7068000D02*
X9991000Y-7098000D01*
X9992000Y-7358000D02*
X10022000Y-7388000D01*
X10022000Y-7358000D02*
X9992000Y-7388000D01*
X10035000Y-4940000D02*
X10065000Y-4970000D01*
X10065000Y-4940000D02*
X10035000Y-4970000D01*
X10085000Y-3452500D02*
X10115000Y-3482500D01*
X10115000Y-3452500D02*
X10085000Y-3482500D01*
X10085000Y-8517500D02*
X10115000Y-8547500D01*
X10115000Y-8517500D02*
X10085000Y-8547500D01*
X10115000Y-6465000D02*
X10145000Y-6495000D01*
X10145000Y-6465000D02*
X10115000Y-6495000D01*
X10185000Y-6475000D02*
X10215000Y-6505000D01*
X10215000Y-6475000D02*
X10185000Y-6505000D01*
X10202500Y-4757500D02*
X10232500Y-4787500D01*
X10232500Y-4757500D02*
X10202500Y-4787500D01*
X10235000Y-6700000D02*
X10265000Y-6730000D01*
X10265000Y-6700000D02*
X10235000Y-6730000D01*
X10265000Y-6470000D02*
X10295000Y-6500000D01*
X10295000Y-6470000D02*
X10265000Y-6500000D01*
X10325000Y-6720000D02*
X10355000Y-6750000D01*
X10355000Y-6720000D02*
X10325000Y-6750000D01*
X10335000Y-6475000D02*
X10365000Y-6505000D01*
X10365000Y-6475000D02*
X10335000Y-6505000D01*
X10335000Y-9385000D02*
X10365000Y-9415000D01*
X10365000Y-9385000D02*
X10335000Y-9415000D01*
X10385000Y-5175000D02*
X10415000Y-5205000D01*
X10415000Y-5175000D02*
X10385000Y-5205000D01*
X10435000Y-6475000D02*
X10465000Y-6505000D01*
X10465000Y-6475000D02*
X10435000Y-6505000D01*
X10485000Y-5172500D02*
X10515000Y-5202500D01*
X10515000Y-5172500D02*
X10485000Y-5202500D01*
X10505000Y-6465000D02*
X10535000Y-6495000D01*
X10535000Y-6465000D02*
X10505000Y-6495000D01*
X10535000Y-4940000D02*
X10565000Y-4970000D01*
X10565000Y-4940000D02*
X10535000Y-4970000D01*
X10535000Y-5225000D02*
X10565000Y-5255000D01*
X10565000Y-5225000D02*
X10535000Y-5255000D01*
X10585000Y-3452500D02*
X10615000Y-3482500D01*
X10615000Y-3452500D02*
X10585000Y-3482500D01*
X10585000Y-5175000D02*
X10615000Y-5205000D01*
X10615000Y-5175000D02*
X10585000Y-5205000D01*
X10585000Y-8517500D02*
X10615000Y-8547500D01*
X10615000Y-8517500D02*
X10585000Y-8547500D01*
X10635000Y-5275000D02*
X10665000Y-5305000D01*
X10665000Y-5275000D02*
X10635000Y-5305000D01*
X10635000Y-5375000D02*
X10665000Y-5405000D01*
X10665000Y-5375000D02*
X10635000Y-5405000D01*
X10635000Y-5775000D02*
X10665000Y-5805000D01*
X10665000Y-5775000D02*
X10635000Y-5805000D01*
X10637500Y-5675000D02*
X10667500Y-5705000D01*
X10667500Y-5675000D02*
X10637500Y-5705000D01*
X10637500Y-5875000D02*
X10667500Y-5905000D01*
X10667500Y-5875000D02*
X10637500Y-5905000D01*
X10637500Y-5975000D02*
X10667500Y-6005000D01*
X10667500Y-5975000D02*
X10637500Y-6005000D01*
X10637500Y-6772500D02*
X10667500Y-6802500D01*
X10667500Y-6772500D02*
X10637500Y-6802500D01*
X10637500Y-7066000D02*
X10667500Y-7096000D01*
X10667500Y-7066000D02*
X10637500Y-7096000D01*
X10637500Y-7358000D02*
X10667500Y-7388000D01*
X10667500Y-7358000D02*
X10637500Y-7388000D01*
X10645000Y-5075000D02*
X10675000Y-5105000D01*
X10675000Y-5075000D02*
X10645000Y-5105000D01*
X10707500Y-5110000D02*
X10737500Y-5140000D01*
X10737500Y-5110000D02*
X10707500Y-5140000D01*
X10800000Y-4867500D02*
X10830000Y-4897500D01*
X10830000Y-4867500D02*
X10800000Y-4897500D01*
X10800000Y-6807500D02*
X10830000Y-6837500D01*
X10830000Y-6807500D02*
X10800000Y-6837500D01*
X10800000Y-7142500D02*
X10830000Y-7172500D01*
X10830000Y-7142500D02*
X10800000Y-7172500D01*
X10855000Y-4795000D02*
X10885000Y-4825000D01*
X10885000Y-4795000D02*
X10855000Y-4825000D01*
X10880000Y-6325000D02*
X10910000Y-6355000D01*
X10910000Y-6325000D02*
X10880000Y-6355000D01*
X10885000Y-2585000D02*
X10915000Y-2615000D01*
X10915000Y-2585000D02*
X10885000Y-2615000D01*
X10925000Y-5365000D02*
X10955000Y-5395000D01*
X10955000Y-5365000D02*
X10925000Y-5395000D01*
X10930000Y-7275000D02*
X10960000Y-7305000D01*
X10960000Y-7275000D02*
X10930000Y-7305000D01*
X10950000Y-4685000D02*
X10980000Y-4715000D01*
X10980000Y-4685000D02*
X10950000Y-4715000D01*
X10985000Y-8585000D02*
X11015000Y-8615000D01*
X11015000Y-8585000D02*
X10985000Y-8615000D01*
X10995000Y-4740500D02*
X11025000Y-4770500D01*
X11025000Y-4740500D02*
X10995000Y-4770500D01*
X10997500Y-5330000D02*
X11027500Y-5360000D01*
X11027500Y-5330000D02*
X10997500Y-5360000D01*
X10997500Y-6682500D02*
X11027500Y-6712500D01*
X11027500Y-6682500D02*
X10997500Y-6712500D01*
X11000000Y-7272000D02*
X11030000Y-7302000D01*
X11030000Y-7272000D02*
X11000000Y-7302000D01*
X11005000Y-6605000D02*
X11035000Y-6635000D01*
X11035000Y-6605000D02*
X11005000Y-6635000D01*
X11025000Y-5595000D02*
X11055000Y-5625000D01*
X11055000Y-5595000D02*
X11025000Y-5625000D01*
X11050000Y-7335000D02*
X11080000Y-7365000D01*
X11080000Y-7335000D02*
X11050000Y-7365000D01*
X11065000Y-5305000D02*
X11095000Y-5335000D01*
X11095000Y-5305000D02*
X11065000Y-5335000D01*
X11070000Y-7265000D02*
X11100000Y-7295000D01*
X11100000Y-7265000D02*
X11070000Y-7295000D01*
X11075000Y-6710000D02*
X11105000Y-6740000D01*
X11105000Y-6710000D02*
X11075000Y-6740000D01*
X11077500Y-5395000D02*
X11107500Y-5425000D01*
X11107500Y-5395000D02*
X11077500Y-5425000D01*
X11205000Y-5775000D02*
X11235000Y-5805000D01*
X11235000Y-5775000D02*
X11205000Y-5805000D01*
X11217500Y-6326000D02*
X11247500Y-6356000D01*
X11247500Y-6326000D02*
X11217500Y-6356000D01*
X11348500Y-4845000D02*
X11378500Y-4875000D01*
X11378500Y-4845000D02*
X11348500Y-4875000D01*
X11375000Y-4225000D02*
X11405000Y-4255000D01*
X11405000Y-4225000D02*
X11375000Y-4255000D01*
X11375000Y-7925000D02*
X11405000Y-7955000D01*
X11405000Y-7925000D02*
X11375000Y-7955000D01*
X11402500Y-7335000D02*
X11432500Y-7365000D01*
X11432500Y-7335000D02*
X11402500Y-7365000D01*
X11410000Y-5395000D02*
X11440000Y-5425000D01*
X11440000Y-5395000D02*
X11410000Y-5425000D01*
X11412500Y-5595000D02*
X11442500Y-5625000D01*
X11442500Y-5595000D02*
X11412500Y-5625000D01*
X11412500Y-6065000D02*
X11442500Y-6095000D01*
X11442500Y-6065000D02*
X11412500Y-6095000D01*
X11485000Y-3385000D02*
X11515000Y-3415000D01*
X11515000Y-3385000D02*
X11485000Y-3415000D01*
X11585000Y-9385000D02*
X11615000Y-9415000D01*
X11615000Y-9385000D02*
X11585000Y-9415000D01*
X11634000Y-7040000D02*
X11664000Y-7070000D01*
X11664000Y-7040000D02*
X11634000Y-7070000D01*
X11635000Y-6912500D02*
X11665000Y-6942500D01*
X11665000Y-6912500D02*
X11635000Y-6942500D01*
X11636500Y-4972500D02*
X11666500Y-5002500D01*
X11666500Y-4972500D02*
X11636500Y-5002500D01*
X11636500Y-5097500D02*
X11666500Y-5127500D01*
X11666500Y-5097500D02*
X11636500Y-5127500D01*
X11685000Y-2585000D02*
X11715000Y-2615000D01*
X11715000Y-2585000D02*
X11685000Y-2615000D01*
X11700000Y-7110000D02*
X11730000Y-7140000D01*
X11730000Y-7110000D02*
X11700000Y-7140000D01*
X11705000Y-7752500D02*
X11735000Y-7782500D01*
X11735000Y-7752500D02*
X11705000Y-7782500D01*
X11712500Y-4885000D02*
X11742500Y-4915000D01*
X11742500Y-4885000D02*
X11712500Y-4915000D01*
X11822500Y-4465000D02*
X11852500Y-4495000D01*
X11852500Y-4465000D02*
X11822500Y-4495000D01*
X12385000Y-5985000D02*
X12415000Y-6015000D01*
X12415000Y-5985000D02*
X12385000Y-6015000D01*
X12485000Y-2585000D02*
X12515000Y-2615000D01*
X12515000Y-2585000D02*
X12485000Y-2615000D01*
X12585000Y-9385000D02*
X12615000Y-9415000D01*
X12615000Y-9385000D02*
X12585000Y-9415000D01*
X12985000Y-3085000D02*
X13015000Y-3115000D01*
X13015000Y-3085000D02*
X12985000Y-3115000D01*
X12985000Y-4085000D02*
X13015000Y-4115000D01*
X13015000Y-4085000D02*
X12985000Y-4115000D01*
X12985000Y-5085000D02*
X13015000Y-5115000D01*
X13015000Y-5085000D02*
X12985000Y-5115000D01*
X12985000Y-6085000D02*
X13015000Y-6115000D01*
X13015000Y-6085000D02*
X12985000Y-6115000D01*
X12985000Y-7085000D02*
X13015000Y-7115000D01*
X13015000Y-7085000D02*
X12985000Y-7115000D01*
X12985000Y-8085000D02*
X13015000Y-8115000D01*
X13015000Y-8085000D02*
X12985000Y-8115000D01*
X12985000Y-8985000D02*
X13015000Y-9015000D01*
X13015000Y-8985000D02*
X12985000Y-9015000D01*
X7790000Y-5568000D02*
G75*
G02*
X7730000Y-5568000I-30000J0D01*
G01*
X7730000Y-5568000D02*
G75*
G02*
X7790000Y-5568000I30000J0D01*
G01*
X7800000Y-5538000D02*
X7720000Y-5538000D01*
X7720000Y-5598000D02*
G75*
G02*
X7720000Y-5538000I0J30000D01*
G01*
X7720000Y-5598000D02*
X7800000Y-5598000D01*
X7800000Y-5598000D02*
G75*
G03*
X7800000Y-5538000I0J30000D01*
G01*
X7790000Y-6432000D02*
G75*
G02*
X7730000Y-6432000I-30000J0D01*
G01*
X7730000Y-6432000D02*
G75*
G02*
X7790000Y-6432000I30000J0D01*
G01*
X7800000Y-6402000D02*
X7720000Y-6402000D01*
X7720000Y-6462000D02*
G75*
G02*
X7720000Y-6402000I0J30000D01*
G01*
X7720000Y-6462000D02*
X7800000Y-6462000D01*
X7800000Y-6462000D02*
G75*
G03*
X7800000Y-6402000I0J30000D01*
G01*
X8208000Y-5568000D02*
G75*
G02*
X8148000Y-5568000I-30000J0D01*
G01*
X8148000Y-5568000D02*
G75*
G02*
X8208000Y-5568000I30000J0D01*
G01*
X8233000Y-5538000D02*
X8123000Y-5538000D01*
X8123000Y-5598000D02*
G75*
G02*
X8123000Y-5538000I0J30000D01*
G01*
X8123000Y-5598000D02*
X8233000Y-5598000D01*
X8233000Y-5598000D02*
G75*
G03*
X8233000Y-5538000I0J30000D01*
G01*
X8208000Y-6432000D02*
G75*
G02*
X8148000Y-6432000I-30000J0D01*
G01*
X8148000Y-6432000D02*
G75*
G02*
X8208000Y-6432000I30000J0D01*
G01*
X8233000Y-6402000D02*
X8123000Y-6402000D01*
X8123000Y-6462000D02*
G75*
G02*
X8123000Y-6402000I0J30000D01*
G01*
X8123000Y-6462000D02*
X8233000Y-6462000D01*
X8233000Y-6462000D02*
G75*
G03*
X8233000Y-6402000I0J30000D01*
G01*
X9055000Y-2972500D02*
X9055000Y-3072500D01*
X9005000Y-3022500D02*
X9105000Y-3022500D01*
X9055000Y-3480500D02*
X9055000Y-3580500D01*
X9005000Y-3530500D02*
X9105000Y-3530500D01*
X9055000Y-3988500D02*
X9055000Y-4088500D01*
X9005000Y-4038500D02*
X9105000Y-4038500D01*
X9055000Y-4496500D02*
X9055000Y-4596500D01*
X9005000Y-4546500D02*
X9105000Y-4546500D01*
X9085000Y-3226500D02*
X9085000Y-3326500D01*
X9035000Y-3276500D02*
X9135000Y-3276500D01*
X9085000Y-3734500D02*
X9085000Y-3834500D01*
X9035000Y-3784500D02*
X9135000Y-3784500D01*
X9085000Y-4242500D02*
X9085000Y-4342500D01*
X9035000Y-4292500D02*
X9135000Y-4292500D01*
X9085000Y-4750500D02*
X9085000Y-4850500D01*
X9035000Y-4800500D02*
X9135000Y-4800500D01*
D12*
X12048211Y-3641771D02*
X12048211Y-3560948D01*
X11967388Y-3560948D01*
X11967388Y-3641771D01*
X12048211Y-3641771D01*
X12048211Y-3916091D02*
X12048211Y-3835268D01*
X11967388Y-3835268D01*
X11967388Y-3916091D01*
X12048211Y-3916091D01*
X12048211Y-4190411D02*
X12048211Y-4109588D01*
X11967388Y-4109588D01*
X11967388Y-4190411D01*
X12048211Y-4190411D01*
X12048211Y-4464732D02*
X12048211Y-4383909D01*
X11967388Y-4383909D01*
X11967388Y-4464732D01*
X12048211Y-4464732D01*
X12048211Y-4739052D02*
X12048211Y-4658229D01*
X11967388Y-4658229D01*
X11967388Y-4739052D01*
X12048211Y-4739052D01*
X12048211Y-7341771D02*
X12048211Y-7260948D01*
X11967388Y-7260948D01*
X11967388Y-7341771D01*
X12048211Y-7341771D01*
X12048211Y-7616091D02*
X12048211Y-7535268D01*
X11967388Y-7535268D01*
X11967388Y-7616091D01*
X12048211Y-7616091D01*
X12048211Y-7890411D02*
X12048211Y-7809588D01*
X11967388Y-7809588D01*
X11967388Y-7890411D01*
X12048211Y-7890411D01*
X12048211Y-8164731D02*
X12048211Y-8083908D01*
X11967388Y-8083908D01*
X11967388Y-8164731D01*
X12048211Y-8164731D01*
X12048211Y-8439052D02*
X12048211Y-8358228D01*
X11967388Y-8358228D01*
X11967388Y-8439052D01*
X12048211Y-8439052D01*
X12332691Y-3778931D02*
X12332691Y-3698108D01*
X12251868Y-3698108D01*
X12251868Y-3778931D01*
X12332691Y-3778931D01*
X12332691Y-4053251D02*
X12332691Y-3972428D01*
X12251868Y-3972428D01*
X12251868Y-4053251D01*
X12332691Y-4053251D01*
X12332691Y-4327572D02*
X12332691Y-4246749D01*
X12251868Y-4246749D01*
X12251868Y-4327572D01*
X12332691Y-4327572D01*
X12332691Y-4601892D02*
X12332691Y-4521069D01*
X12251868Y-4521069D01*
X12251868Y-4601892D01*
X12332691Y-4601892D01*
X12332691Y-7478931D02*
X12332691Y-7398108D01*
X12251868Y-7398108D01*
X12251868Y-7478931D01*
X12332691Y-7478931D01*
X12332691Y-7753251D02*
X12332691Y-7672428D01*
X12251868Y-7672428D01*
X12251868Y-7753251D01*
X12332691Y-7753251D01*
X12332691Y-8027571D02*
X12332691Y-7946748D01*
X12251868Y-7946748D01*
X12251868Y-8027571D01*
X12332691Y-8027571D01*
X12332691Y-8301891D02*
X12332691Y-8221068D01*
X12251868Y-8221068D01*
X12251868Y-8301891D01*
X12332691Y-8301891D01*
D13*
X12147500Y-3065420D02*
X12312600Y-2900320D01*
X12147500Y-2735220D01*
X11982400Y-2900320D01*
X12147500Y-3065420D01*
X12147500Y-5564780D02*
X12312600Y-5399680D01*
X12147500Y-5234580D01*
X11982400Y-5399680D01*
X12147500Y-5564780D01*
X12147500Y-6765420D02*
X12312600Y-6600320D01*
X12147500Y-6435220D01*
X11982400Y-6600320D01*
X12147500Y-6765420D01*
X12147500Y-9264780D02*
X12312600Y-9099680D01*
X12147500Y-8934580D01*
X11982400Y-9099680D01*
X12147500Y-9264780D01*
D11*
X7755777Y-9816484D02*
X7755777Y-9616484D01*
X7755777Y-9616484D02*
X7803396Y-9616484D01*
X7803396Y-9616484D02*
X7831967Y-9626008D01*
X7831967Y-9626008D02*
X7851015Y-9645055D01*
X7851015Y-9645055D02*
X7860539Y-9664103D01*
X7860539Y-9664103D02*
X7870062Y-9702198D01*
X7870062Y-9702198D02*
X7870062Y-9730770D01*
X7870062Y-9730770D02*
X7860539Y-9768865D01*
X7860539Y-9768865D02*
X7851015Y-9787912D01*
X7851015Y-9787912D02*
X7831967Y-9806960D01*
X7831967Y-9806960D02*
X7803396Y-9816484D01*
X7803396Y-9816484D02*
X7755777Y-9816484D01*
X7955777Y-9816484D02*
X7955777Y-9683150D01*
X7955777Y-9721246D02*
X7965301Y-9702198D01*
X7965301Y-9702198D02*
X7974824Y-9692674D01*
X7974824Y-9692674D02*
X7993872Y-9683150D01*
X7993872Y-9683150D02*
X8012920Y-9683150D01*
X8079586Y-9816484D02*
X8079586Y-9683150D01*
X8079586Y-9616484D02*
X8070062Y-9626008D01*
X8070062Y-9626008D02*
X8079586Y-9635531D01*
X8079586Y-9635531D02*
X8089110Y-9626008D01*
X8089110Y-9626008D02*
X8079586Y-9616484D01*
X8079586Y-9616484D02*
X8079586Y-9635531D01*
X8203396Y-9816484D02*
X8184348Y-9806960D01*
X8184348Y-9806960D02*
X8174824Y-9787912D01*
X8174824Y-9787912D02*
X8174824Y-9616484D01*
X8308158Y-9816484D02*
X8289110Y-9806960D01*
X8289110Y-9806960D02*
X8279586Y-9787912D01*
X8279586Y-9787912D02*
X8279586Y-9616484D01*
X8536729Y-9816484D02*
X8536729Y-9616484D01*
X8536729Y-9616484D02*
X8603396Y-9759341D01*
X8603396Y-9759341D02*
X8670063Y-9616484D01*
X8670063Y-9616484D02*
X8670063Y-9816484D01*
X8851015Y-9816484D02*
X8851015Y-9711722D01*
X8851015Y-9711722D02*
X8841491Y-9692674D01*
X8841491Y-9692674D02*
X8822444Y-9683150D01*
X8822444Y-9683150D02*
X8784348Y-9683150D01*
X8784348Y-9683150D02*
X8765301Y-9692674D01*
X8851015Y-9806960D02*
X8831967Y-9816484D01*
X8831967Y-9816484D02*
X8784348Y-9816484D01*
X8784348Y-9816484D02*
X8765301Y-9806960D01*
X8765301Y-9806960D02*
X8755777Y-9787912D01*
X8755777Y-9787912D02*
X8755777Y-9768865D01*
X8755777Y-9768865D02*
X8765301Y-9749817D01*
X8765301Y-9749817D02*
X8784348Y-9740293D01*
X8784348Y-9740293D02*
X8831967Y-9740293D01*
X8831967Y-9740293D02*
X8851015Y-9730770D01*
X8946253Y-9683150D02*
X8946253Y-9883150D01*
X8946253Y-9692674D02*
X8965301Y-9683150D01*
X8965301Y-9683150D02*
X9003396Y-9683150D01*
X9003396Y-9683150D02*
X9022444Y-9692674D01*
X9022444Y-9692674D02*
X9031967Y-9702198D01*
X9031967Y-9702198D02*
X9041491Y-9721246D01*
X9041491Y-9721246D02*
X9041491Y-9778389D01*
X9041491Y-9778389D02*
X9031967Y-9797436D01*
X9031967Y-9797436D02*
X9022444Y-9806960D01*
X9022444Y-9806960D02*
X9003396Y-9816484D01*
X9003396Y-9816484D02*
X8965301Y-9816484D01*
X8965301Y-9816484D02*
X8946253Y-9806960D01*
X9127205Y-9797436D02*
X9136729Y-9806960D01*
X9136729Y-9806960D02*
X9127205Y-9816484D01*
X9127205Y-9816484D02*
X9117682Y-9806960D01*
X9117682Y-9806960D02*
X9127205Y-9797436D01*
X9127205Y-9797436D02*
X9127205Y-9816484D01*
X9127205Y-9692674D02*
X9136729Y-9702198D01*
X9136729Y-9702198D02*
X9127205Y-9711722D01*
X9127205Y-9711722D02*
X9117682Y-9702198D01*
X9117682Y-9702198D02*
X9127205Y-9692674D01*
X9127205Y-9692674D02*
X9127205Y-9711722D01*
D10*
X7465000Y-10130000D02*
X7495000Y-10160000D01*
X7495000Y-10130000D02*
X7465000Y-10160000D01*
D11*
X7793872Y-10036484D02*
X7812920Y-10036484D01*
X7812920Y-10036484D02*
X7831967Y-10046008D01*
X7831967Y-10046008D02*
X7841491Y-10055531D01*
X7841491Y-10055531D02*
X7851015Y-10074579D01*
X7851015Y-10074579D02*
X7860539Y-10112674D01*
X7860539Y-10112674D02*
X7860539Y-10160293D01*
X7860539Y-10160293D02*
X7851015Y-10198389D01*
X7851015Y-10198389D02*
X7841491Y-10217436D01*
X7841491Y-10217436D02*
X7831967Y-10226960D01*
X7831967Y-10226960D02*
X7812920Y-10236484D01*
X7812920Y-10236484D02*
X7793872Y-10236484D01*
X7793872Y-10236484D02*
X7774824Y-10226960D01*
X7774824Y-10226960D02*
X7765301Y-10217436D01*
X7765301Y-10217436D02*
X7755777Y-10198389D01*
X7755777Y-10198389D02*
X7746253Y-10160293D01*
X7746253Y-10160293D02*
X7746253Y-10112674D01*
X7746253Y-10112674D02*
X7755777Y-10074579D01*
X7755777Y-10074579D02*
X7765301Y-10055531D01*
X7765301Y-10055531D02*
X7774824Y-10046008D01*
X7774824Y-10046008D02*
X7793872Y-10036484D01*
X7946253Y-10217436D02*
X7955777Y-10226960D01*
X7955777Y-10226960D02*
X7946253Y-10236484D01*
X7946253Y-10236484D02*
X7936729Y-10226960D01*
X7936729Y-10226960D02*
X7946253Y-10217436D01*
X7946253Y-10217436D02*
X7946253Y-10236484D01*
X8022443Y-10036484D02*
X8146253Y-10036484D01*
X8146253Y-10036484D02*
X8079586Y-10112674D01*
X8079586Y-10112674D02*
X8108158Y-10112674D01*
X8108158Y-10112674D02*
X8127205Y-10122198D01*
X8127205Y-10122198D02*
X8136729Y-10131722D01*
X8136729Y-10131722D02*
X8146253Y-10150770D01*
X8146253Y-10150770D02*
X8146253Y-10198389D01*
X8146253Y-10198389D02*
X8136729Y-10217436D01*
X8136729Y-10217436D02*
X8127205Y-10226960D01*
X8127205Y-10226960D02*
X8108158Y-10236484D01*
X8108158Y-10236484D02*
X8051015Y-10236484D01*
X8051015Y-10236484D02*
X8031967Y-10226960D01*
X8031967Y-10226960D02*
X8022443Y-10217436D01*
X8270062Y-10036484D02*
X8289110Y-10036484D01*
X8289110Y-10036484D02*
X8308158Y-10046008D01*
X8308158Y-10046008D02*
X8317682Y-10055531D01*
X8317682Y-10055531D02*
X8327205Y-10074579D01*
X8327205Y-10074579D02*
X8336729Y-10112674D01*
X8336729Y-10112674D02*
X8336729Y-10160293D01*
X8336729Y-10160293D02*
X8327205Y-10198389D01*
X8327205Y-10198389D02*
X8317682Y-10217436D01*
X8317682Y-10217436D02*
X8308158Y-10226960D01*
X8308158Y-10226960D02*
X8289110Y-10236484D01*
X8289110Y-10236484D02*
X8270062Y-10236484D01*
X8270062Y-10236484D02*
X8251015Y-10226960D01*
X8251015Y-10226960D02*
X8241491Y-10217436D01*
X8241491Y-10217436D02*
X8231967Y-10198389D01*
X8231967Y-10198389D02*
X8222443Y-10160293D01*
X8222443Y-10160293D02*
X8222443Y-10112674D01*
X8222443Y-10112674D02*
X8231967Y-10074579D01*
X8231967Y-10074579D02*
X8241491Y-10055531D01*
X8241491Y-10055531D02*
X8251015Y-10046008D01*
X8251015Y-10046008D02*
X8270062Y-10036484D01*
X8460539Y-10036484D02*
X8479586Y-10036484D01*
X8479586Y-10036484D02*
X8498634Y-10046008D01*
X8498634Y-10046008D02*
X8508158Y-10055531D01*
X8508158Y-10055531D02*
X8517682Y-10074579D01*
X8517682Y-10074579D02*
X8527205Y-10112674D01*
X8527205Y-10112674D02*
X8527205Y-10160293D01*
X8527205Y-10160293D02*
X8517682Y-10198389D01*
X8517682Y-10198389D02*
X8508158Y-10217436D01*
X8508158Y-10217436D02*
X8498634Y-10226960D01*
X8498634Y-10226960D02*
X8479586Y-10236484D01*
X8479586Y-10236484D02*
X8460539Y-10236484D01*
X8460539Y-10236484D02*
X8441491Y-10226960D01*
X8441491Y-10226960D02*
X8431967Y-10217436D01*
X8431967Y-10217436D02*
X8422444Y-10198389D01*
X8422444Y-10198389D02*
X8412920Y-10160293D01*
X8412920Y-10160293D02*
X8412920Y-10112674D01*
X8412920Y-10112674D02*
X8422444Y-10074579D01*
X8422444Y-10074579D02*
X8431967Y-10055531D01*
X8431967Y-10055531D02*
X8441491Y-10046008D01*
X8441491Y-10046008D02*
X8460539Y-10036484D01*
X8612920Y-10236484D02*
X8612920Y-10103150D01*
X8612920Y-10122198D02*
X8622444Y-10112674D01*
X8622444Y-10112674D02*
X8641491Y-10103150D01*
X8641491Y-10103150D02*
X8670063Y-10103150D01*
X8670063Y-10103150D02*
X8689110Y-10112674D01*
X8689110Y-10112674D02*
X8698634Y-10131722D01*
X8698634Y-10131722D02*
X8698634Y-10236484D01*
X8698634Y-10131722D02*
X8708158Y-10112674D01*
X8708158Y-10112674D02*
X8727205Y-10103150D01*
X8727205Y-10103150D02*
X8755777Y-10103150D01*
X8755777Y-10103150D02*
X8774825Y-10112674D01*
X8774825Y-10112674D02*
X8784348Y-10131722D01*
X8784348Y-10131722D02*
X8784348Y-10236484D01*
X8879586Y-10236484D02*
X8879586Y-10103150D01*
X8879586Y-10122198D02*
X8889110Y-10112674D01*
X8889110Y-10112674D02*
X8908158Y-10103150D01*
X8908158Y-10103150D02*
X8936729Y-10103150D01*
X8936729Y-10103150D02*
X8955777Y-10112674D01*
X8955777Y-10112674D02*
X8965301Y-10131722D01*
X8965301Y-10131722D02*
X8965301Y-10236484D01*
X8965301Y-10131722D02*
X8974825Y-10112674D01*
X8974825Y-10112674D02*
X8993872Y-10103150D01*
X8993872Y-10103150D02*
X9022444Y-10103150D01*
X9022444Y-10103150D02*
X9041491Y-10112674D01*
X9041491Y-10112674D02*
X9051015Y-10131722D01*
X9051015Y-10131722D02*
X9051015Y-10236484D01*
X9441491Y-10026960D02*
X9270063Y-10284103D01*
X9698634Y-10036484D02*
X9717682Y-10036484D01*
X9717682Y-10036484D02*
X9736729Y-10046008D01*
X9736729Y-10046008D02*
X9746253Y-10055531D01*
X9746253Y-10055531D02*
X9755777Y-10074579D01*
X9755777Y-10074579D02*
X9765301Y-10112674D01*
X9765301Y-10112674D02*
X9765301Y-10160293D01*
X9765301Y-10160293D02*
X9755777Y-10198389D01*
X9755777Y-10198389D02*
X9746253Y-10217436D01*
X9746253Y-10217436D02*
X9736729Y-10226960D01*
X9736729Y-10226960D02*
X9717682Y-10236484D01*
X9717682Y-10236484D02*
X9698634Y-10236484D01*
X9698634Y-10236484D02*
X9679587Y-10226960D01*
X9679587Y-10226960D02*
X9670063Y-10217436D01*
X9670063Y-10217436D02*
X9660539Y-10198389D01*
X9660539Y-10198389D02*
X9651015Y-10160293D01*
X9651015Y-10160293D02*
X9651015Y-10112674D01*
X9651015Y-10112674D02*
X9660539Y-10074579D01*
X9660539Y-10074579D02*
X9670063Y-10055531D01*
X9670063Y-10055531D02*
X9679587Y-10046008D01*
X9679587Y-10046008D02*
X9698634Y-10036484D01*
X9851015Y-10217436D02*
X9860539Y-10226960D01*
X9860539Y-10226960D02*
X9851015Y-10236484D01*
X9851015Y-10236484D02*
X9841491Y-10226960D01*
X9841491Y-10226960D02*
X9851015Y-10217436D01*
X9851015Y-10217436D02*
X9851015Y-10236484D01*
X9984348Y-10036484D02*
X10003396Y-10036484D01*
X10003396Y-10036484D02*
X10022444Y-10046008D01*
X10022444Y-10046008D02*
X10031968Y-10055531D01*
X10031968Y-10055531D02*
X10041491Y-10074579D01*
X10041491Y-10074579D02*
X10051015Y-10112674D01*
X10051015Y-10112674D02*
X10051015Y-10160293D01*
X10051015Y-10160293D02*
X10041491Y-10198389D01*
X10041491Y-10198389D02*
X10031968Y-10217436D01*
X10031968Y-10217436D02*
X10022444Y-10226960D01*
X10022444Y-10226960D02*
X10003396Y-10236484D01*
X10003396Y-10236484D02*
X9984348Y-10236484D01*
X9984348Y-10236484D02*
X9965301Y-10226960D01*
X9965301Y-10226960D02*
X9955777Y-10217436D01*
X9955777Y-10217436D02*
X9946253Y-10198389D01*
X9946253Y-10198389D02*
X9936729Y-10160293D01*
X9936729Y-10160293D02*
X9936729Y-10112674D01*
X9936729Y-10112674D02*
X9946253Y-10074579D01*
X9946253Y-10074579D02*
X9955777Y-10055531D01*
X9955777Y-10055531D02*
X9965301Y-10046008D01*
X9965301Y-10046008D02*
X9984348Y-10036484D01*
X10241491Y-10236484D02*
X10127206Y-10236484D01*
X10184348Y-10236484D02*
X10184348Y-10036484D01*
X10184348Y-10036484D02*
X10165301Y-10065055D01*
X10165301Y-10065055D02*
X10146253Y-10084103D01*
X10146253Y-10084103D02*
X10127206Y-10093627D01*
X10431968Y-10236484D02*
X10317682Y-10236484D01*
X10374825Y-10236484D02*
X10374825Y-10036484D01*
X10374825Y-10036484D02*
X10355777Y-10065055D01*
X10355777Y-10065055D02*
X10336729Y-10084103D01*
X10336729Y-10084103D02*
X10317682Y-10093627D01*
X10546253Y-10122198D02*
X10527206Y-10112674D01*
X10527206Y-10112674D02*
X10517682Y-10103150D01*
X10517682Y-10103150D02*
X10508158Y-10084103D01*
X10508158Y-10084103D02*
X10508158Y-10074579D01*
X10508158Y-10074579D02*
X10517682Y-10055531D01*
X10517682Y-10055531D02*
X10527206Y-10046008D01*
X10527206Y-10046008D02*
X10546253Y-10036484D01*
X10546253Y-10036484D02*
X10584349Y-10036484D01*
X10584349Y-10036484D02*
X10603396Y-10046008D01*
X10603396Y-10046008D02*
X10612920Y-10055531D01*
X10612920Y-10055531D02*
X10622444Y-10074579D01*
X10622444Y-10074579D02*
X10622444Y-10084103D01*
X10622444Y-10084103D02*
X10612920Y-10103150D01*
X10612920Y-10103150D02*
X10603396Y-10112674D01*
X10603396Y-10112674D02*
X10584349Y-10122198D01*
X10584349Y-10122198D02*
X10546253Y-10122198D01*
X10546253Y-10122198D02*
X10527206Y-10131722D01*
X10527206Y-10131722D02*
X10517682Y-10141246D01*
X10517682Y-10141246D02*
X10508158Y-10160293D01*
X10508158Y-10160293D02*
X10508158Y-10198389D01*
X10508158Y-10198389D02*
X10517682Y-10217436D01*
X10517682Y-10217436D02*
X10527206Y-10226960D01*
X10527206Y-10226960D02*
X10546253Y-10236484D01*
X10546253Y-10236484D02*
X10584349Y-10236484D01*
X10584349Y-10236484D02*
X10603396Y-10226960D01*
X10603396Y-10226960D02*
X10612920Y-10217436D01*
X10612920Y-10217436D02*
X10622444Y-10198389D01*
X10622444Y-10198389D02*
X10622444Y-10160293D01*
X10622444Y-10160293D02*
X10612920Y-10141246D01*
X10612920Y-10141246D02*
X10603396Y-10131722D01*
X10603396Y-10131722D02*
X10584349Y-10122198D01*
X10698634Y-10036484D02*
X10698634Y-10074579D01*
X10774825Y-10036484D02*
X10774825Y-10074579D01*
X11070063Y-10312674D02*
X11060539Y-10303150D01*
X11060539Y-10303150D02*
X11041491Y-10274579D01*
X11041491Y-10274579D02*
X11031968Y-10255531D01*
X11031968Y-10255531D02*
X11022444Y-10226960D01*
X11022444Y-10226960D02*
X11012920Y-10179341D01*
X11012920Y-10179341D02*
X11012920Y-10141246D01*
X11012920Y-10141246D02*
X11022444Y-10093627D01*
X11022444Y-10093627D02*
X11031968Y-10065055D01*
X11031968Y-10065055D02*
X11041491Y-10046008D01*
X11041491Y-10046008D02*
X11060539Y-10017436D01*
X11060539Y-10017436D02*
X11070063Y-10007912D01*
X11251015Y-10236484D02*
X11136730Y-10236484D01*
X11193872Y-10236484D02*
X11193872Y-10036484D01*
X11193872Y-10036484D02*
X11174825Y-10065055D01*
X11174825Y-10065055D02*
X11155777Y-10084103D01*
X11155777Y-10084103D02*
X11136730Y-10093627D01*
X11365301Y-10122198D02*
X11346253Y-10112674D01*
X11346253Y-10112674D02*
X11336729Y-10103150D01*
X11336729Y-10103150D02*
X11327206Y-10084103D01*
X11327206Y-10084103D02*
X11327206Y-10074579D01*
X11327206Y-10074579D02*
X11336729Y-10055531D01*
X11336729Y-10055531D02*
X11346253Y-10046008D01*
X11346253Y-10046008D02*
X11365301Y-10036484D01*
X11365301Y-10036484D02*
X11403396Y-10036484D01*
X11403396Y-10036484D02*
X11422444Y-10046008D01*
X11422444Y-10046008D02*
X11431968Y-10055531D01*
X11431968Y-10055531D02*
X11441491Y-10074579D01*
X11441491Y-10074579D02*
X11441491Y-10084103D01*
X11441491Y-10084103D02*
X11431968Y-10103150D01*
X11431968Y-10103150D02*
X11422444Y-10112674D01*
X11422444Y-10112674D02*
X11403396Y-10122198D01*
X11403396Y-10122198D02*
X11365301Y-10122198D01*
X11365301Y-10122198D02*
X11346253Y-10131722D01*
X11346253Y-10131722D02*
X11336729Y-10141246D01*
X11336729Y-10141246D02*
X11327206Y-10160293D01*
X11327206Y-10160293D02*
X11327206Y-10198389D01*
X11327206Y-10198389D02*
X11336729Y-10217436D01*
X11336729Y-10217436D02*
X11346253Y-10226960D01*
X11346253Y-10226960D02*
X11365301Y-10236484D01*
X11365301Y-10236484D02*
X11403396Y-10236484D01*
X11403396Y-10236484D02*
X11422444Y-10226960D01*
X11422444Y-10226960D02*
X11431968Y-10217436D01*
X11431968Y-10217436D02*
X11441491Y-10198389D01*
X11441491Y-10198389D02*
X11441491Y-10160293D01*
X11441491Y-10160293D02*
X11431968Y-10141246D01*
X11431968Y-10141246D02*
X11422444Y-10131722D01*
X11422444Y-10131722D02*
X11403396Y-10122198D01*
X11612920Y-10103150D02*
X11612920Y-10236484D01*
X11565301Y-10026960D02*
X11517682Y-10169817D01*
X11517682Y-10169817D02*
X11641491Y-10169817D01*
X11870063Y-10236484D02*
X11870063Y-10036484D01*
X11955777Y-10236484D02*
X11955777Y-10131722D01*
X11955777Y-10131722D02*
X11946253Y-10112674D01*
X11946253Y-10112674D02*
X11927206Y-10103150D01*
X11927206Y-10103150D02*
X11898634Y-10103150D01*
X11898634Y-10103150D02*
X11879587Y-10112674D01*
X11879587Y-10112674D02*
X11870063Y-10122198D01*
X12079587Y-10236484D02*
X12060539Y-10226960D01*
X12060539Y-10226960D02*
X12051015Y-10217436D01*
X12051015Y-10217436D02*
X12041491Y-10198389D01*
X12041491Y-10198389D02*
X12041491Y-10141246D01*
X12041491Y-10141246D02*
X12051015Y-10122198D01*
X12051015Y-10122198D02*
X12060539Y-10112674D01*
X12060539Y-10112674D02*
X12079587Y-10103150D01*
X12079587Y-10103150D02*
X12108158Y-10103150D01*
X12108158Y-10103150D02*
X12127206Y-10112674D01*
X12127206Y-10112674D02*
X12136730Y-10122198D01*
X12136730Y-10122198D02*
X12146253Y-10141246D01*
X12146253Y-10141246D02*
X12146253Y-10198389D01*
X12146253Y-10198389D02*
X12136730Y-10217436D01*
X12136730Y-10217436D02*
X12127206Y-10226960D01*
X12127206Y-10226960D02*
X12108158Y-10236484D01*
X12108158Y-10236484D02*
X12079587Y-10236484D01*
X12260539Y-10236484D02*
X12241491Y-10226960D01*
X12241491Y-10226960D02*
X12231968Y-10207912D01*
X12231968Y-10207912D02*
X12231968Y-10036484D01*
X12412920Y-10226960D02*
X12393872Y-10236484D01*
X12393872Y-10236484D02*
X12355777Y-10236484D01*
X12355777Y-10236484D02*
X12336730Y-10226960D01*
X12336730Y-10226960D02*
X12327206Y-10207912D01*
X12327206Y-10207912D02*
X12327206Y-10131722D01*
X12327206Y-10131722D02*
X12336730Y-10112674D01*
X12336730Y-10112674D02*
X12355777Y-10103150D01*
X12355777Y-10103150D02*
X12393872Y-10103150D01*
X12393872Y-10103150D02*
X12412920Y-10112674D01*
X12412920Y-10112674D02*
X12422444Y-10131722D01*
X12422444Y-10131722D02*
X12422444Y-10150770D01*
X12422444Y-10150770D02*
X12327206Y-10169817D01*
X12498634Y-10226960D02*
X12517682Y-10236484D01*
X12517682Y-10236484D02*
X12555777Y-10236484D01*
X12555777Y-10236484D02*
X12574825Y-10226960D01*
X12574825Y-10226960D02*
X12584349Y-10207912D01*
X12584349Y-10207912D02*
X12584349Y-10198389D01*
X12584349Y-10198389D02*
X12574825Y-10179341D01*
X12574825Y-10179341D02*
X12555777Y-10169817D01*
X12555777Y-10169817D02*
X12527206Y-10169817D01*
X12527206Y-10169817D02*
X12508158Y-10160293D01*
X12508158Y-10160293D02*
X12498634Y-10141246D01*
X12498634Y-10141246D02*
X12498634Y-10131722D01*
X12498634Y-10131722D02*
X12508158Y-10112674D01*
X12508158Y-10112674D02*
X12527206Y-10103150D01*
X12527206Y-10103150D02*
X12555777Y-10103150D01*
X12555777Y-10103150D02*
X12574825Y-10112674D01*
X12651015Y-10312674D02*
X12660539Y-10303150D01*
X12660539Y-10303150D02*
X12679587Y-10274579D01*
X12679587Y-10274579D02*
X12689111Y-10255531D01*
X12689111Y-10255531D02*
X12698634Y-10226960D01*
X12698634Y-10226960D02*
X12708158Y-10179341D01*
X12708158Y-10179341D02*
X12708158Y-10141246D01*
X12708158Y-10141246D02*
X12698634Y-10093627D01*
X12698634Y-10093627D02*
X12689111Y-10065055D01*
X12689111Y-10065055D02*
X12679587Y-10046008D01*
X12679587Y-10046008D02*
X12660539Y-10017436D01*
X12660539Y-10017436D02*
X12651015Y-10007912D01*
D10*
X7495000Y-10409000D02*
G75*
G02*
X7435000Y-10409000I-30000J0D01*
G01*
X7435000Y-10409000D02*
G75*
G02*
X7495000Y-10409000I30000J0D01*
G01*
D11*
X7793872Y-10300484D02*
X7812920Y-10300484D01*
X7812920Y-10300484D02*
X7831967Y-10310008D01*
X7831967Y-10310008D02*
X7841491Y-10319531D01*
X7841491Y-10319531D02*
X7851015Y-10338579D01*
X7851015Y-10338579D02*
X7860539Y-10376674D01*
X7860539Y-10376674D02*
X7860539Y-10424293D01*
X7860539Y-10424293D02*
X7851015Y-10462389D01*
X7851015Y-10462389D02*
X7841491Y-10481436D01*
X7841491Y-10481436D02*
X7831967Y-10490960D01*
X7831967Y-10490960D02*
X7812920Y-10500484D01*
X7812920Y-10500484D02*
X7793872Y-10500484D01*
X7793872Y-10500484D02*
X7774824Y-10490960D01*
X7774824Y-10490960D02*
X7765301Y-10481436D01*
X7765301Y-10481436D02*
X7755777Y-10462389D01*
X7755777Y-10462389D02*
X7746253Y-10424293D01*
X7746253Y-10424293D02*
X7746253Y-10376674D01*
X7746253Y-10376674D02*
X7755777Y-10338579D01*
X7755777Y-10338579D02*
X7765301Y-10319531D01*
X7765301Y-10319531D02*
X7774824Y-10310008D01*
X7774824Y-10310008D02*
X7793872Y-10300484D01*
X7946253Y-10481436D02*
X7955777Y-10490960D01*
X7955777Y-10490960D02*
X7946253Y-10500484D01*
X7946253Y-10500484D02*
X7936729Y-10490960D01*
X7936729Y-10490960D02*
X7946253Y-10481436D01*
X7946253Y-10481436D02*
X7946253Y-10500484D01*
X8127205Y-10300484D02*
X8089110Y-10300484D01*
X8089110Y-10300484D02*
X8070062Y-10310008D01*
X8070062Y-10310008D02*
X8060539Y-10319531D01*
X8060539Y-10319531D02*
X8041491Y-10348103D01*
X8041491Y-10348103D02*
X8031967Y-10386198D01*
X8031967Y-10386198D02*
X8031967Y-10462389D01*
X8031967Y-10462389D02*
X8041491Y-10481436D01*
X8041491Y-10481436D02*
X8051015Y-10490960D01*
X8051015Y-10490960D02*
X8070062Y-10500484D01*
X8070062Y-10500484D02*
X8108158Y-10500484D01*
X8108158Y-10500484D02*
X8127205Y-10490960D01*
X8127205Y-10490960D02*
X8136729Y-10481436D01*
X8136729Y-10481436D02*
X8146253Y-10462389D01*
X8146253Y-10462389D02*
X8146253Y-10414770D01*
X8146253Y-10414770D02*
X8136729Y-10395722D01*
X8136729Y-10395722D02*
X8127205Y-10386198D01*
X8127205Y-10386198D02*
X8108158Y-10376674D01*
X8108158Y-10376674D02*
X8070062Y-10376674D01*
X8070062Y-10376674D02*
X8051015Y-10386198D01*
X8051015Y-10386198D02*
X8041491Y-10395722D01*
X8041491Y-10395722D02*
X8031967Y-10414770D01*
X8270062Y-10300484D02*
X8289110Y-10300484D01*
X8289110Y-10300484D02*
X8308158Y-10310008D01*
X8308158Y-10310008D02*
X8317682Y-10319531D01*
X8317682Y-10319531D02*
X8327205Y-10338579D01*
X8327205Y-10338579D02*
X8336729Y-10376674D01*
X8336729Y-10376674D02*
X8336729Y-10424293D01*
X8336729Y-10424293D02*
X8327205Y-10462389D01*
X8327205Y-10462389D02*
X8317682Y-10481436D01*
X8317682Y-10481436D02*
X8308158Y-10490960D01*
X8308158Y-10490960D02*
X8289110Y-10500484D01*
X8289110Y-10500484D02*
X8270062Y-10500484D01*
X8270062Y-10500484D02*
X8251015Y-10490960D01*
X8251015Y-10490960D02*
X8241491Y-10481436D01*
X8241491Y-10481436D02*
X8231967Y-10462389D01*
X8231967Y-10462389D02*
X8222443Y-10424293D01*
X8222443Y-10424293D02*
X8222443Y-10376674D01*
X8222443Y-10376674D02*
X8231967Y-10338579D01*
X8231967Y-10338579D02*
X8241491Y-10319531D01*
X8241491Y-10319531D02*
X8251015Y-10310008D01*
X8251015Y-10310008D02*
X8270062Y-10300484D01*
X8460539Y-10300484D02*
X8479586Y-10300484D01*
X8479586Y-10300484D02*
X8498634Y-10310008D01*
X8498634Y-10310008D02*
X8508158Y-10319531D01*
X8508158Y-10319531D02*
X8517682Y-10338579D01*
X8517682Y-10338579D02*
X8527205Y-10376674D01*
X8527205Y-10376674D02*
X8527205Y-10424293D01*
X8527205Y-10424293D02*
X8517682Y-10462389D01*
X8517682Y-10462389D02*
X8508158Y-10481436D01*
X8508158Y-10481436D02*
X8498634Y-10490960D01*
X8498634Y-10490960D02*
X8479586Y-10500484D01*
X8479586Y-10500484D02*
X8460539Y-10500484D01*
X8460539Y-10500484D02*
X8441491Y-10490960D01*
X8441491Y-10490960D02*
X8431967Y-10481436D01*
X8431967Y-10481436D02*
X8422444Y-10462389D01*
X8422444Y-10462389D02*
X8412920Y-10424293D01*
X8412920Y-10424293D02*
X8412920Y-10376674D01*
X8412920Y-10376674D02*
X8422444Y-10338579D01*
X8422444Y-10338579D02*
X8431967Y-10319531D01*
X8431967Y-10319531D02*
X8441491Y-10310008D01*
X8441491Y-10310008D02*
X8460539Y-10300484D01*
X8612920Y-10500484D02*
X8612920Y-10367150D01*
X8612920Y-10386198D02*
X8622444Y-10376674D01*
X8622444Y-10376674D02*
X8641491Y-10367150D01*
X8641491Y-10367150D02*
X8670063Y-10367150D01*
X8670063Y-10367150D02*
X8689110Y-10376674D01*
X8689110Y-10376674D02*
X8698634Y-10395722D01*
X8698634Y-10395722D02*
X8698634Y-10500484D01*
X8698634Y-10395722D02*
X8708158Y-10376674D01*
X8708158Y-10376674D02*
X8727205Y-10367150D01*
X8727205Y-10367150D02*
X8755777Y-10367150D01*
X8755777Y-10367150D02*
X8774825Y-10376674D01*
X8774825Y-10376674D02*
X8784348Y-10395722D01*
X8784348Y-10395722D02*
X8784348Y-10500484D01*
X8879586Y-10500484D02*
X8879586Y-10367150D01*
X8879586Y-10386198D02*
X8889110Y-10376674D01*
X8889110Y-10376674D02*
X8908158Y-10367150D01*
X8908158Y-10367150D02*
X8936729Y-10367150D01*
X8936729Y-10367150D02*
X8955777Y-10376674D01*
X8955777Y-10376674D02*
X8965301Y-10395722D01*
X8965301Y-10395722D02*
X8965301Y-10500484D01*
X8965301Y-10395722D02*
X8974825Y-10376674D01*
X8974825Y-10376674D02*
X8993872Y-10367150D01*
X8993872Y-10367150D02*
X9022444Y-10367150D01*
X9022444Y-10367150D02*
X9041491Y-10376674D01*
X9041491Y-10376674D02*
X9051015Y-10395722D01*
X9051015Y-10395722D02*
X9051015Y-10500484D01*
X9441491Y-10290960D02*
X9270063Y-10548103D01*
X9698634Y-10300484D02*
X9717682Y-10300484D01*
X9717682Y-10300484D02*
X9736729Y-10310008D01*
X9736729Y-10310008D02*
X9746253Y-10319531D01*
X9746253Y-10319531D02*
X9755777Y-10338579D01*
X9755777Y-10338579D02*
X9765301Y-10376674D01*
X9765301Y-10376674D02*
X9765301Y-10424293D01*
X9765301Y-10424293D02*
X9755777Y-10462389D01*
X9755777Y-10462389D02*
X9746253Y-10481436D01*
X9746253Y-10481436D02*
X9736729Y-10490960D01*
X9736729Y-10490960D02*
X9717682Y-10500484D01*
X9717682Y-10500484D02*
X9698634Y-10500484D01*
X9698634Y-10500484D02*
X9679587Y-10490960D01*
X9679587Y-10490960D02*
X9670063Y-10481436D01*
X9670063Y-10481436D02*
X9660539Y-10462389D01*
X9660539Y-10462389D02*
X9651015Y-10424293D01*
X9651015Y-10424293D02*
X9651015Y-10376674D01*
X9651015Y-10376674D02*
X9660539Y-10338579D01*
X9660539Y-10338579D02*
X9670063Y-10319531D01*
X9670063Y-10319531D02*
X9679587Y-10310008D01*
X9679587Y-10310008D02*
X9698634Y-10300484D01*
X9851015Y-10481436D02*
X9860539Y-10490960D01*
X9860539Y-10490960D02*
X9851015Y-10500484D01*
X9851015Y-10500484D02*
X9841491Y-10490960D01*
X9841491Y-10490960D02*
X9851015Y-10481436D01*
X9851015Y-10481436D02*
X9851015Y-10500484D01*
X9984348Y-10300484D02*
X10003396Y-10300484D01*
X10003396Y-10300484D02*
X10022444Y-10310008D01*
X10022444Y-10310008D02*
X10031968Y-10319531D01*
X10031968Y-10319531D02*
X10041491Y-10338579D01*
X10041491Y-10338579D02*
X10051015Y-10376674D01*
X10051015Y-10376674D02*
X10051015Y-10424293D01*
X10051015Y-10424293D02*
X10041491Y-10462389D01*
X10041491Y-10462389D02*
X10031968Y-10481436D01*
X10031968Y-10481436D02*
X10022444Y-10490960D01*
X10022444Y-10490960D02*
X10003396Y-10500484D01*
X10003396Y-10500484D02*
X9984348Y-10500484D01*
X9984348Y-10500484D02*
X9965301Y-10490960D01*
X9965301Y-10490960D02*
X9955777Y-10481436D01*
X9955777Y-10481436D02*
X9946253Y-10462389D01*
X9946253Y-10462389D02*
X9936729Y-10424293D01*
X9936729Y-10424293D02*
X9936729Y-10376674D01*
X9936729Y-10376674D02*
X9946253Y-10338579D01*
X9946253Y-10338579D02*
X9955777Y-10319531D01*
X9955777Y-10319531D02*
X9965301Y-10310008D01*
X9965301Y-10310008D02*
X9984348Y-10300484D01*
X10127206Y-10319531D02*
X10136729Y-10310008D01*
X10136729Y-10310008D02*
X10155777Y-10300484D01*
X10155777Y-10300484D02*
X10203396Y-10300484D01*
X10203396Y-10300484D02*
X10222444Y-10310008D01*
X10222444Y-10310008D02*
X10231968Y-10319531D01*
X10231968Y-10319531D02*
X10241491Y-10338579D01*
X10241491Y-10338579D02*
X10241491Y-10357627D01*
X10241491Y-10357627D02*
X10231968Y-10386198D01*
X10231968Y-10386198D02*
X10117682Y-10500484D01*
X10117682Y-10500484D02*
X10241491Y-10500484D01*
X10308158Y-10300484D02*
X10431968Y-10300484D01*
X10431968Y-10300484D02*
X10365301Y-10376674D01*
X10365301Y-10376674D02*
X10393872Y-10376674D01*
X10393872Y-10376674D02*
X10412920Y-10386198D01*
X10412920Y-10386198D02*
X10422444Y-10395722D01*
X10422444Y-10395722D02*
X10431968Y-10414770D01*
X10431968Y-10414770D02*
X10431968Y-10462389D01*
X10431968Y-10462389D02*
X10422444Y-10481436D01*
X10422444Y-10481436D02*
X10412920Y-10490960D01*
X10412920Y-10490960D02*
X10393872Y-10500484D01*
X10393872Y-10500484D02*
X10336729Y-10500484D01*
X10336729Y-10500484D02*
X10317682Y-10490960D01*
X10317682Y-10490960D02*
X10308158Y-10481436D01*
X10603396Y-10300484D02*
X10565301Y-10300484D01*
X10565301Y-10300484D02*
X10546253Y-10310008D01*
X10546253Y-10310008D02*
X10536729Y-10319531D01*
X10536729Y-10319531D02*
X10517682Y-10348103D01*
X10517682Y-10348103D02*
X10508158Y-10386198D01*
X10508158Y-10386198D02*
X10508158Y-10462389D01*
X10508158Y-10462389D02*
X10517682Y-10481436D01*
X10517682Y-10481436D02*
X10527206Y-10490960D01*
X10527206Y-10490960D02*
X10546253Y-10500484D01*
X10546253Y-10500484D02*
X10584349Y-10500484D01*
X10584349Y-10500484D02*
X10603396Y-10490960D01*
X10603396Y-10490960D02*
X10612920Y-10481436D01*
X10612920Y-10481436D02*
X10622444Y-10462389D01*
X10622444Y-10462389D02*
X10622444Y-10414770D01*
X10622444Y-10414770D02*
X10612920Y-10395722D01*
X10612920Y-10395722D02*
X10603396Y-10386198D01*
X10603396Y-10386198D02*
X10584349Y-10376674D01*
X10584349Y-10376674D02*
X10546253Y-10376674D01*
X10546253Y-10376674D02*
X10527206Y-10386198D01*
X10527206Y-10386198D02*
X10517682Y-10395722D01*
X10517682Y-10395722D02*
X10508158Y-10414770D01*
X10698634Y-10300484D02*
X10698634Y-10338579D01*
X10774825Y-10300484D02*
X10774825Y-10338579D01*
X11070063Y-10576674D02*
X11060539Y-10567150D01*
X11060539Y-10567150D02*
X11041491Y-10538579D01*
X11041491Y-10538579D02*
X11031968Y-10519531D01*
X11031968Y-10519531D02*
X11022444Y-10490960D01*
X11022444Y-10490960D02*
X11012920Y-10443341D01*
X11012920Y-10443341D02*
X11012920Y-10405246D01*
X11012920Y-10405246D02*
X11022444Y-10357627D01*
X11022444Y-10357627D02*
X11031968Y-10329055D01*
X11031968Y-10329055D02*
X11041491Y-10310008D01*
X11041491Y-10310008D02*
X11060539Y-10281436D01*
X11060539Y-10281436D02*
X11070063Y-10271912D01*
X11184349Y-10300484D02*
X11203396Y-10300484D01*
X11203396Y-10300484D02*
X11222444Y-10310008D01*
X11222444Y-10310008D02*
X11231968Y-10319531D01*
X11231968Y-10319531D02*
X11241491Y-10338579D01*
X11241491Y-10338579D02*
X11251015Y-10376674D01*
X11251015Y-10376674D02*
X11251015Y-10424293D01*
X11251015Y-10424293D02*
X11241491Y-10462389D01*
X11241491Y-10462389D02*
X11231968Y-10481436D01*
X11231968Y-10481436D02*
X11222444Y-10490960D01*
X11222444Y-10490960D02*
X11203396Y-10500484D01*
X11203396Y-10500484D02*
X11184349Y-10500484D01*
X11184349Y-10500484D02*
X11165301Y-10490960D01*
X11165301Y-10490960D02*
X11155777Y-10481436D01*
X11155777Y-10481436D02*
X11146253Y-10462389D01*
X11146253Y-10462389D02*
X11136730Y-10424293D01*
X11136730Y-10424293D02*
X11136730Y-10376674D01*
X11136730Y-10376674D02*
X11146253Y-10338579D01*
X11146253Y-10338579D02*
X11155777Y-10319531D01*
X11155777Y-10319531D02*
X11165301Y-10310008D01*
X11165301Y-10310008D02*
X11184349Y-10300484D01*
X11489110Y-10500484D02*
X11489110Y-10300484D01*
X11574825Y-10500484D02*
X11574825Y-10395722D01*
X11574825Y-10395722D02*
X11565301Y-10376674D01*
X11565301Y-10376674D02*
X11546253Y-10367150D01*
X11546253Y-10367150D02*
X11517682Y-10367150D01*
X11517682Y-10367150D02*
X11498634Y-10376674D01*
X11498634Y-10376674D02*
X11489110Y-10386198D01*
X11698634Y-10500484D02*
X11679587Y-10490960D01*
X11679587Y-10490960D02*
X11670063Y-10481436D01*
X11670063Y-10481436D02*
X11660539Y-10462389D01*
X11660539Y-10462389D02*
X11660539Y-10405246D01*
X11660539Y-10405246D02*
X11670063Y-10386198D01*
X11670063Y-10386198D02*
X11679587Y-10376674D01*
X11679587Y-10376674D02*
X11698634Y-10367150D01*
X11698634Y-10367150D02*
X11727206Y-10367150D01*
X11727206Y-10367150D02*
X11746253Y-10376674D01*
X11746253Y-10376674D02*
X11755777Y-10386198D01*
X11755777Y-10386198D02*
X11765301Y-10405246D01*
X11765301Y-10405246D02*
X11765301Y-10462389D01*
X11765301Y-10462389D02*
X11755777Y-10481436D01*
X11755777Y-10481436D02*
X11746253Y-10490960D01*
X11746253Y-10490960D02*
X11727206Y-10500484D01*
X11727206Y-10500484D02*
X11698634Y-10500484D01*
X11879587Y-10500484D02*
X11860539Y-10490960D01*
X11860539Y-10490960D02*
X11851015Y-10471912D01*
X11851015Y-10471912D02*
X11851015Y-10300484D01*
X12031968Y-10490960D02*
X12012920Y-10500484D01*
X12012920Y-10500484D02*
X11974825Y-10500484D01*
X11974825Y-10500484D02*
X11955777Y-10490960D01*
X11955777Y-10490960D02*
X11946253Y-10471912D01*
X11946253Y-10471912D02*
X11946253Y-10395722D01*
X11946253Y-10395722D02*
X11955777Y-10376674D01*
X11955777Y-10376674D02*
X11974825Y-10367150D01*
X11974825Y-10367150D02*
X12012920Y-10367150D01*
X12012920Y-10367150D02*
X12031968Y-10376674D01*
X12031968Y-10376674D02*
X12041491Y-10395722D01*
X12041491Y-10395722D02*
X12041491Y-10414770D01*
X12041491Y-10414770D02*
X11946253Y-10433817D01*
X12117682Y-10490960D02*
X12136730Y-10500484D01*
X12136730Y-10500484D02*
X12174825Y-10500484D01*
X12174825Y-10500484D02*
X12193872Y-10490960D01*
X12193872Y-10490960D02*
X12203396Y-10471912D01*
X12203396Y-10471912D02*
X12203396Y-10462389D01*
X12203396Y-10462389D02*
X12193872Y-10443341D01*
X12193872Y-10443341D02*
X12174825Y-10433817D01*
X12174825Y-10433817D02*
X12146253Y-10433817D01*
X12146253Y-10433817D02*
X12127206Y-10424293D01*
X12127206Y-10424293D02*
X12117682Y-10405246D01*
X12117682Y-10405246D02*
X12117682Y-10395722D01*
X12117682Y-10395722D02*
X12127206Y-10376674D01*
X12127206Y-10376674D02*
X12146253Y-10367150D01*
X12146253Y-10367150D02*
X12174825Y-10367150D01*
X12174825Y-10367150D02*
X12193872Y-10376674D01*
X12441492Y-10424293D02*
X12593873Y-10424293D01*
X12517682Y-10500484D02*
X12517682Y-10348103D01*
X12927206Y-10367150D02*
X12927206Y-10500484D01*
X12879587Y-10290960D02*
X12831968Y-10433817D01*
X12831968Y-10433817D02*
X12955777Y-10433817D01*
X13174825Y-10490960D02*
X13193873Y-10500484D01*
X13193873Y-10500484D02*
X13231968Y-10500484D01*
X13231968Y-10500484D02*
X13251015Y-10490960D01*
X13251015Y-10490960D02*
X13260539Y-10471912D01*
X13260539Y-10471912D02*
X13260539Y-10462389D01*
X13260539Y-10462389D02*
X13251015Y-10443341D01*
X13251015Y-10443341D02*
X13231968Y-10433817D01*
X13231968Y-10433817D02*
X13203396Y-10433817D01*
X13203396Y-10433817D02*
X13184349Y-10424293D01*
X13184349Y-10424293D02*
X13174825Y-10405246D01*
X13174825Y-10405246D02*
X13174825Y-10395722D01*
X13174825Y-10395722D02*
X13184349Y-10376674D01*
X13184349Y-10376674D02*
X13203396Y-10367150D01*
X13203396Y-10367150D02*
X13231968Y-10367150D01*
X13231968Y-10367150D02*
X13251015Y-10376674D01*
X13374825Y-10500484D02*
X13355777Y-10490960D01*
X13355777Y-10490960D02*
X13346254Y-10471912D01*
X13346254Y-10471912D02*
X13346254Y-10300484D01*
X13479587Y-10500484D02*
X13460539Y-10490960D01*
X13460539Y-10490960D02*
X13451015Y-10481436D01*
X13451015Y-10481436D02*
X13441492Y-10462389D01*
X13441492Y-10462389D02*
X13441492Y-10405246D01*
X13441492Y-10405246D02*
X13451015Y-10386198D01*
X13451015Y-10386198D02*
X13460539Y-10376674D01*
X13460539Y-10376674D02*
X13479587Y-10367150D01*
X13479587Y-10367150D02*
X13508158Y-10367150D01*
X13508158Y-10367150D02*
X13527206Y-10376674D01*
X13527206Y-10376674D02*
X13536730Y-10386198D01*
X13536730Y-10386198D02*
X13546254Y-10405246D01*
X13546254Y-10405246D02*
X13546254Y-10462389D01*
X13546254Y-10462389D02*
X13536730Y-10481436D01*
X13536730Y-10481436D02*
X13527206Y-10490960D01*
X13527206Y-10490960D02*
X13508158Y-10500484D01*
X13508158Y-10500484D02*
X13479587Y-10500484D01*
X13603396Y-10367150D02*
X13679587Y-10367150D01*
X13631968Y-10300484D02*
X13631968Y-10471912D01*
X13631968Y-10471912D02*
X13641492Y-10490960D01*
X13641492Y-10490960D02*
X13660539Y-10500484D01*
X13660539Y-10500484D02*
X13679587Y-10500484D01*
X13736730Y-10490960D02*
X13755777Y-10500484D01*
X13755777Y-10500484D02*
X13793873Y-10500484D01*
X13793873Y-10500484D02*
X13812920Y-10490960D01*
X13812920Y-10490960D02*
X13822444Y-10471912D01*
X13822444Y-10471912D02*
X13822444Y-10462389D01*
X13822444Y-10462389D02*
X13812920Y-10443341D01*
X13812920Y-10443341D02*
X13793873Y-10433817D01*
X13793873Y-10433817D02*
X13765301Y-10433817D01*
X13765301Y-10433817D02*
X13746254Y-10424293D01*
X13746254Y-10424293D02*
X13736730Y-10405246D01*
X13736730Y-10405246D02*
X13736730Y-10395722D01*
X13736730Y-10395722D02*
X13746254Y-10376674D01*
X13746254Y-10376674D02*
X13765301Y-10367150D01*
X13765301Y-10367150D02*
X13793873Y-10367150D01*
X13793873Y-10367150D02*
X13812920Y-10376674D01*
X13889111Y-10576674D02*
X13898635Y-10567150D01*
X13898635Y-10567150D02*
X13917682Y-10538579D01*
X13917682Y-10538579D02*
X13927206Y-10519531D01*
X13927206Y-10519531D02*
X13936730Y-10490960D01*
X13936730Y-10490960D02*
X13946254Y-10443341D01*
X13946254Y-10443341D02*
X13946254Y-10405246D01*
X13946254Y-10405246D02*
X13936730Y-10357627D01*
X13936730Y-10357627D02*
X13927206Y-10329055D01*
X13927206Y-10329055D02*
X13917682Y-10310008D01*
X13917682Y-10310008D02*
X13898635Y-10281436D01*
X13898635Y-10281436D02*
X13889111Y-10271912D01*
D10*
X7445000Y-10623000D02*
X7445000Y-10723000D01*
X7395000Y-10673000D02*
X7495000Y-10673000D01*
D11*
X7860539Y-10764484D02*
X7746253Y-10764484D01*
X7803396Y-10764484D02*
X7803396Y-10564484D01*
X7803396Y-10564484D02*
X7784348Y-10593055D01*
X7784348Y-10593055D02*
X7765301Y-10612103D01*
X7765301Y-10612103D02*
X7746253Y-10621627D01*
X7946253Y-10745436D02*
X7955777Y-10754960D01*
X7955777Y-10754960D02*
X7946253Y-10764484D01*
X7946253Y-10764484D02*
X7936729Y-10754960D01*
X7936729Y-10754960D02*
X7946253Y-10745436D01*
X7946253Y-10745436D02*
X7946253Y-10764484D01*
X8079586Y-10564484D02*
X8098634Y-10564484D01*
X8098634Y-10564484D02*
X8117682Y-10574008D01*
X8117682Y-10574008D02*
X8127205Y-10583531D01*
X8127205Y-10583531D02*
X8136729Y-10602579D01*
X8136729Y-10602579D02*
X8146253Y-10640674D01*
X8146253Y-10640674D02*
X8146253Y-10688293D01*
X8146253Y-10688293D02*
X8136729Y-10726389D01*
X8136729Y-10726389D02*
X8127205Y-10745436D01*
X8127205Y-10745436D02*
X8117682Y-10754960D01*
X8117682Y-10754960D02*
X8098634Y-10764484D01*
X8098634Y-10764484D02*
X8079586Y-10764484D01*
X8079586Y-10764484D02*
X8060539Y-10754960D01*
X8060539Y-10754960D02*
X8051015Y-10745436D01*
X8051015Y-10745436D02*
X8041491Y-10726389D01*
X8041491Y-10726389D02*
X8031967Y-10688293D01*
X8031967Y-10688293D02*
X8031967Y-10640674D01*
X8031967Y-10640674D02*
X8041491Y-10602579D01*
X8041491Y-10602579D02*
X8051015Y-10583531D01*
X8051015Y-10583531D02*
X8060539Y-10574008D01*
X8060539Y-10574008D02*
X8079586Y-10564484D01*
X8270062Y-10564484D02*
X8289110Y-10564484D01*
X8289110Y-10564484D02*
X8308158Y-10574008D01*
X8308158Y-10574008D02*
X8317682Y-10583531D01*
X8317682Y-10583531D02*
X8327205Y-10602579D01*
X8327205Y-10602579D02*
X8336729Y-10640674D01*
X8336729Y-10640674D02*
X8336729Y-10688293D01*
X8336729Y-10688293D02*
X8327205Y-10726389D01*
X8327205Y-10726389D02*
X8317682Y-10745436D01*
X8317682Y-10745436D02*
X8308158Y-10754960D01*
X8308158Y-10754960D02*
X8289110Y-10764484D01*
X8289110Y-10764484D02*
X8270062Y-10764484D01*
X8270062Y-10764484D02*
X8251015Y-10754960D01*
X8251015Y-10754960D02*
X8241491Y-10745436D01*
X8241491Y-10745436D02*
X8231967Y-10726389D01*
X8231967Y-10726389D02*
X8222443Y-10688293D01*
X8222443Y-10688293D02*
X8222443Y-10640674D01*
X8222443Y-10640674D02*
X8231967Y-10602579D01*
X8231967Y-10602579D02*
X8241491Y-10583531D01*
X8241491Y-10583531D02*
X8251015Y-10574008D01*
X8251015Y-10574008D02*
X8270062Y-10564484D01*
X8460539Y-10564484D02*
X8479586Y-10564484D01*
X8479586Y-10564484D02*
X8498634Y-10574008D01*
X8498634Y-10574008D02*
X8508158Y-10583531D01*
X8508158Y-10583531D02*
X8517682Y-10602579D01*
X8517682Y-10602579D02*
X8527205Y-10640674D01*
X8527205Y-10640674D02*
X8527205Y-10688293D01*
X8527205Y-10688293D02*
X8517682Y-10726389D01*
X8517682Y-10726389D02*
X8508158Y-10745436D01*
X8508158Y-10745436D02*
X8498634Y-10754960D01*
X8498634Y-10754960D02*
X8479586Y-10764484D01*
X8479586Y-10764484D02*
X8460539Y-10764484D01*
X8460539Y-10764484D02*
X8441491Y-10754960D01*
X8441491Y-10754960D02*
X8431967Y-10745436D01*
X8431967Y-10745436D02*
X8422444Y-10726389D01*
X8422444Y-10726389D02*
X8412920Y-10688293D01*
X8412920Y-10688293D02*
X8412920Y-10640674D01*
X8412920Y-10640674D02*
X8422444Y-10602579D01*
X8422444Y-10602579D02*
X8431967Y-10583531D01*
X8431967Y-10583531D02*
X8441491Y-10574008D01*
X8441491Y-10574008D02*
X8460539Y-10564484D01*
X8612920Y-10764484D02*
X8612920Y-10631150D01*
X8612920Y-10650198D02*
X8622444Y-10640674D01*
X8622444Y-10640674D02*
X8641491Y-10631150D01*
X8641491Y-10631150D02*
X8670063Y-10631150D01*
X8670063Y-10631150D02*
X8689110Y-10640674D01*
X8689110Y-10640674D02*
X8698634Y-10659722D01*
X8698634Y-10659722D02*
X8698634Y-10764484D01*
X8698634Y-10659722D02*
X8708158Y-10640674D01*
X8708158Y-10640674D02*
X8727205Y-10631150D01*
X8727205Y-10631150D02*
X8755777Y-10631150D01*
X8755777Y-10631150D02*
X8774825Y-10640674D01*
X8774825Y-10640674D02*
X8784348Y-10659722D01*
X8784348Y-10659722D02*
X8784348Y-10764484D01*
X8879586Y-10764484D02*
X8879586Y-10631150D01*
X8879586Y-10650198D02*
X8889110Y-10640674D01*
X8889110Y-10640674D02*
X8908158Y-10631150D01*
X8908158Y-10631150D02*
X8936729Y-10631150D01*
X8936729Y-10631150D02*
X8955777Y-10640674D01*
X8955777Y-10640674D02*
X8965301Y-10659722D01*
X8965301Y-10659722D02*
X8965301Y-10764484D01*
X8965301Y-10659722D02*
X8974825Y-10640674D01*
X8974825Y-10640674D02*
X8993872Y-10631150D01*
X8993872Y-10631150D02*
X9022444Y-10631150D01*
X9022444Y-10631150D02*
X9041491Y-10640674D01*
X9041491Y-10640674D02*
X9051015Y-10659722D01*
X9051015Y-10659722D02*
X9051015Y-10764484D01*
X9441491Y-10554960D02*
X9270063Y-10812103D01*
X9698634Y-10564484D02*
X9717682Y-10564484D01*
X9717682Y-10564484D02*
X9736729Y-10574008D01*
X9736729Y-10574008D02*
X9746253Y-10583531D01*
X9746253Y-10583531D02*
X9755777Y-10602579D01*
X9755777Y-10602579D02*
X9765301Y-10640674D01*
X9765301Y-10640674D02*
X9765301Y-10688293D01*
X9765301Y-10688293D02*
X9755777Y-10726389D01*
X9755777Y-10726389D02*
X9746253Y-10745436D01*
X9746253Y-10745436D02*
X9736729Y-10754960D01*
X9736729Y-10754960D02*
X9717682Y-10764484D01*
X9717682Y-10764484D02*
X9698634Y-10764484D01*
X9698634Y-10764484D02*
X9679587Y-10754960D01*
X9679587Y-10754960D02*
X9670063Y-10745436D01*
X9670063Y-10745436D02*
X9660539Y-10726389D01*
X9660539Y-10726389D02*
X9651015Y-10688293D01*
X9651015Y-10688293D02*
X9651015Y-10640674D01*
X9651015Y-10640674D02*
X9660539Y-10602579D01*
X9660539Y-10602579D02*
X9670063Y-10583531D01*
X9670063Y-10583531D02*
X9679587Y-10574008D01*
X9679587Y-10574008D02*
X9698634Y-10564484D01*
X9851015Y-10745436D02*
X9860539Y-10754960D01*
X9860539Y-10754960D02*
X9851015Y-10764484D01*
X9851015Y-10764484D02*
X9841491Y-10754960D01*
X9841491Y-10754960D02*
X9851015Y-10745436D01*
X9851015Y-10745436D02*
X9851015Y-10764484D01*
X9984348Y-10564484D02*
X10003396Y-10564484D01*
X10003396Y-10564484D02*
X10022444Y-10574008D01*
X10022444Y-10574008D02*
X10031968Y-10583531D01*
X10031968Y-10583531D02*
X10041491Y-10602579D01*
X10041491Y-10602579D02*
X10051015Y-10640674D01*
X10051015Y-10640674D02*
X10051015Y-10688293D01*
X10051015Y-10688293D02*
X10041491Y-10726389D01*
X10041491Y-10726389D02*
X10031968Y-10745436D01*
X10031968Y-10745436D02*
X10022444Y-10754960D01*
X10022444Y-10754960D02*
X10003396Y-10764484D01*
X10003396Y-10764484D02*
X9984348Y-10764484D01*
X9984348Y-10764484D02*
X9965301Y-10754960D01*
X9965301Y-10754960D02*
X9955777Y-10745436D01*
X9955777Y-10745436D02*
X9946253Y-10726389D01*
X9946253Y-10726389D02*
X9936729Y-10688293D01*
X9936729Y-10688293D02*
X9936729Y-10640674D01*
X9936729Y-10640674D02*
X9946253Y-10602579D01*
X9946253Y-10602579D02*
X9955777Y-10583531D01*
X9955777Y-10583531D02*
X9965301Y-10574008D01*
X9965301Y-10574008D02*
X9984348Y-10564484D01*
X10117682Y-10564484D02*
X10241491Y-10564484D01*
X10241491Y-10564484D02*
X10174825Y-10640674D01*
X10174825Y-10640674D02*
X10203396Y-10640674D01*
X10203396Y-10640674D02*
X10222444Y-10650198D01*
X10222444Y-10650198D02*
X10231968Y-10659722D01*
X10231968Y-10659722D02*
X10241491Y-10678770D01*
X10241491Y-10678770D02*
X10241491Y-10726389D01*
X10241491Y-10726389D02*
X10231968Y-10745436D01*
X10231968Y-10745436D02*
X10222444Y-10754960D01*
X10222444Y-10754960D02*
X10203396Y-10764484D01*
X10203396Y-10764484D02*
X10146253Y-10764484D01*
X10146253Y-10764484D02*
X10127206Y-10754960D01*
X10127206Y-10754960D02*
X10117682Y-10745436D01*
X10336729Y-10764484D02*
X10374825Y-10764484D01*
X10374825Y-10764484D02*
X10393872Y-10754960D01*
X10393872Y-10754960D02*
X10403396Y-10745436D01*
X10403396Y-10745436D02*
X10422444Y-10716865D01*
X10422444Y-10716865D02*
X10431968Y-10678770D01*
X10431968Y-10678770D02*
X10431968Y-10602579D01*
X10431968Y-10602579D02*
X10422444Y-10583531D01*
X10422444Y-10583531D02*
X10412920Y-10574008D01*
X10412920Y-10574008D02*
X10393872Y-10564484D01*
X10393872Y-10564484D02*
X10355777Y-10564484D01*
X10355777Y-10564484D02*
X10336729Y-10574008D01*
X10336729Y-10574008D02*
X10327206Y-10583531D01*
X10327206Y-10583531D02*
X10317682Y-10602579D01*
X10317682Y-10602579D02*
X10317682Y-10650198D01*
X10317682Y-10650198D02*
X10327206Y-10669246D01*
X10327206Y-10669246D02*
X10336729Y-10678770D01*
X10336729Y-10678770D02*
X10355777Y-10688293D01*
X10355777Y-10688293D02*
X10393872Y-10688293D01*
X10393872Y-10688293D02*
X10412920Y-10678770D01*
X10412920Y-10678770D02*
X10422444Y-10669246D01*
X10422444Y-10669246D02*
X10431968Y-10650198D01*
X10603396Y-10631150D02*
X10603396Y-10764484D01*
X10555777Y-10554960D02*
X10508158Y-10697817D01*
X10508158Y-10697817D02*
X10631968Y-10697817D01*
X10698634Y-10564484D02*
X10698634Y-10602579D01*
X10774825Y-10564484D02*
X10774825Y-10602579D01*
X11070063Y-10840674D02*
X11060539Y-10831150D01*
X11060539Y-10831150D02*
X11041491Y-10802579D01*
X11041491Y-10802579D02*
X11031968Y-10783531D01*
X11031968Y-10783531D02*
X11022444Y-10754960D01*
X11022444Y-10754960D02*
X11012920Y-10707341D01*
X11012920Y-10707341D02*
X11012920Y-10669246D01*
X11012920Y-10669246D02*
X11022444Y-10621627D01*
X11022444Y-10621627D02*
X11031968Y-10593055D01*
X11031968Y-10593055D02*
X11041491Y-10574008D01*
X11041491Y-10574008D02*
X11060539Y-10545436D01*
X11060539Y-10545436D02*
X11070063Y-10535912D01*
X11174825Y-10650198D02*
X11155777Y-10640674D01*
X11155777Y-10640674D02*
X11146253Y-10631150D01*
X11146253Y-10631150D02*
X11136730Y-10612103D01*
X11136730Y-10612103D02*
X11136730Y-10602579D01*
X11136730Y-10602579D02*
X11146253Y-10583531D01*
X11146253Y-10583531D02*
X11155777Y-10574008D01*
X11155777Y-10574008D02*
X11174825Y-10564484D01*
X11174825Y-10564484D02*
X11212920Y-10564484D01*
X11212920Y-10564484D02*
X11231968Y-10574008D01*
X11231968Y-10574008D02*
X11241491Y-10583531D01*
X11241491Y-10583531D02*
X11251015Y-10602579D01*
X11251015Y-10602579D02*
X11251015Y-10612103D01*
X11251015Y-10612103D02*
X11241491Y-10631150D01*
X11241491Y-10631150D02*
X11231968Y-10640674D01*
X11231968Y-10640674D02*
X11212920Y-10650198D01*
X11212920Y-10650198D02*
X11174825Y-10650198D01*
X11174825Y-10650198D02*
X11155777Y-10659722D01*
X11155777Y-10659722D02*
X11146253Y-10669246D01*
X11146253Y-10669246D02*
X11136730Y-10688293D01*
X11136730Y-10688293D02*
X11136730Y-10726389D01*
X11136730Y-10726389D02*
X11146253Y-10745436D01*
X11146253Y-10745436D02*
X11155777Y-10754960D01*
X11155777Y-10754960D02*
X11174825Y-10764484D01*
X11174825Y-10764484D02*
X11212920Y-10764484D01*
X11212920Y-10764484D02*
X11231968Y-10754960D01*
X11231968Y-10754960D02*
X11241491Y-10745436D01*
X11241491Y-10745436D02*
X11251015Y-10726389D01*
X11251015Y-10726389D02*
X11251015Y-10688293D01*
X11251015Y-10688293D02*
X11241491Y-10669246D01*
X11241491Y-10669246D02*
X11231968Y-10659722D01*
X11231968Y-10659722D02*
X11212920Y-10650198D01*
X11489110Y-10764484D02*
X11489110Y-10564484D01*
X11574825Y-10764484D02*
X11574825Y-10659722D01*
X11574825Y-10659722D02*
X11565301Y-10640674D01*
X11565301Y-10640674D02*
X11546253Y-10631150D01*
X11546253Y-10631150D02*
X11517682Y-10631150D01*
X11517682Y-10631150D02*
X11498634Y-10640674D01*
X11498634Y-10640674D02*
X11489110Y-10650198D01*
X11698634Y-10764484D02*
X11679587Y-10754960D01*
X11679587Y-10754960D02*
X11670063Y-10745436D01*
X11670063Y-10745436D02*
X11660539Y-10726389D01*
X11660539Y-10726389D02*
X11660539Y-10669246D01*
X11660539Y-10669246D02*
X11670063Y-10650198D01*
X11670063Y-10650198D02*
X11679587Y-10640674D01*
X11679587Y-10640674D02*
X11698634Y-10631150D01*
X11698634Y-10631150D02*
X11727206Y-10631150D01*
X11727206Y-10631150D02*
X11746253Y-10640674D01*
X11746253Y-10640674D02*
X11755777Y-10650198D01*
X11755777Y-10650198D02*
X11765301Y-10669246D01*
X11765301Y-10669246D02*
X11765301Y-10726389D01*
X11765301Y-10726389D02*
X11755777Y-10745436D01*
X11755777Y-10745436D02*
X11746253Y-10754960D01*
X11746253Y-10754960D02*
X11727206Y-10764484D01*
X11727206Y-10764484D02*
X11698634Y-10764484D01*
X11879587Y-10764484D02*
X11860539Y-10754960D01*
X11860539Y-10754960D02*
X11851015Y-10735912D01*
X11851015Y-10735912D02*
X11851015Y-10564484D01*
X12031968Y-10754960D02*
X12012920Y-10764484D01*
X12012920Y-10764484D02*
X11974825Y-10764484D01*
X11974825Y-10764484D02*
X11955777Y-10754960D01*
X11955777Y-10754960D02*
X11946253Y-10735912D01*
X11946253Y-10735912D02*
X11946253Y-10659722D01*
X11946253Y-10659722D02*
X11955777Y-10640674D01*
X11955777Y-10640674D02*
X11974825Y-10631150D01*
X11974825Y-10631150D02*
X12012920Y-10631150D01*
X12012920Y-10631150D02*
X12031968Y-10640674D01*
X12031968Y-10640674D02*
X12041491Y-10659722D01*
X12041491Y-10659722D02*
X12041491Y-10678770D01*
X12041491Y-10678770D02*
X11946253Y-10697817D01*
X12117682Y-10754960D02*
X12136730Y-10764484D01*
X12136730Y-10764484D02*
X12174825Y-10764484D01*
X12174825Y-10764484D02*
X12193872Y-10754960D01*
X12193872Y-10754960D02*
X12203396Y-10735912D01*
X12203396Y-10735912D02*
X12203396Y-10726389D01*
X12203396Y-10726389D02*
X12193872Y-10707341D01*
X12193872Y-10707341D02*
X12174825Y-10697817D01*
X12174825Y-10697817D02*
X12146253Y-10697817D01*
X12146253Y-10697817D02*
X12127206Y-10688293D01*
X12127206Y-10688293D02*
X12117682Y-10669246D01*
X12117682Y-10669246D02*
X12117682Y-10659722D01*
X12117682Y-10659722D02*
X12127206Y-10640674D01*
X12127206Y-10640674D02*
X12146253Y-10631150D01*
X12146253Y-10631150D02*
X12174825Y-10631150D01*
X12174825Y-10631150D02*
X12193872Y-10640674D01*
X12270063Y-10840674D02*
X12279587Y-10831150D01*
X12279587Y-10831150D02*
X12298634Y-10802579D01*
X12298634Y-10802579D02*
X12308158Y-10783531D01*
X12308158Y-10783531D02*
X12317682Y-10754960D01*
X12317682Y-10754960D02*
X12327206Y-10707341D01*
X12327206Y-10707341D02*
X12327206Y-10669246D01*
X12327206Y-10669246D02*
X12317682Y-10621627D01*
X12317682Y-10621627D02*
X12308158Y-10593055D01*
X12308158Y-10593055D02*
X12298634Y-10574008D01*
X12298634Y-10574008D02*
X12279587Y-10545436D01*
X12279587Y-10545436D02*
X12270063Y-10535912D01*
D12*
X7478261Y-10977412D02*
X7478261Y-10896589D01*
X7397438Y-10896589D01*
X7397438Y-10977412D01*
X7478261Y-10977412D01*
D11*
X7860539Y-11028484D02*
X7746253Y-11028484D01*
X7803396Y-11028484D02*
X7803396Y-10828484D01*
X7803396Y-10828484D02*
X7784348Y-10857055D01*
X7784348Y-10857055D02*
X7765301Y-10876103D01*
X7765301Y-10876103D02*
X7746253Y-10885627D01*
X7946253Y-11009436D02*
X7955777Y-11018960D01*
X7955777Y-11018960D02*
X7946253Y-11028484D01*
X7946253Y-11028484D02*
X7936729Y-11018960D01*
X7936729Y-11018960D02*
X7946253Y-11009436D01*
X7946253Y-11009436D02*
X7946253Y-11028484D01*
X8146253Y-11028484D02*
X8031967Y-11028484D01*
X8089110Y-11028484D02*
X8089110Y-10828484D01*
X8089110Y-10828484D02*
X8070062Y-10857055D01*
X8070062Y-10857055D02*
X8051015Y-10876103D01*
X8051015Y-10876103D02*
X8031967Y-10885627D01*
X8317682Y-10895150D02*
X8317682Y-11028484D01*
X8270062Y-10818960D02*
X8222443Y-10961817D01*
X8222443Y-10961817D02*
X8346253Y-10961817D01*
X8403396Y-10828484D02*
X8527205Y-10828484D01*
X8527205Y-10828484D02*
X8460539Y-10904674D01*
X8460539Y-10904674D02*
X8489110Y-10904674D01*
X8489110Y-10904674D02*
X8508158Y-10914198D01*
X8508158Y-10914198D02*
X8517682Y-10923722D01*
X8517682Y-10923722D02*
X8527205Y-10942770D01*
X8527205Y-10942770D02*
X8527205Y-10990389D01*
X8527205Y-10990389D02*
X8517682Y-11009436D01*
X8517682Y-11009436D02*
X8508158Y-11018960D01*
X8508158Y-11018960D02*
X8489110Y-11028484D01*
X8489110Y-11028484D02*
X8431967Y-11028484D01*
X8431967Y-11028484D02*
X8412920Y-11018960D01*
X8412920Y-11018960D02*
X8403396Y-11009436D01*
X8612920Y-11028484D02*
X8612920Y-10895150D01*
X8612920Y-10914198D02*
X8622444Y-10904674D01*
X8622444Y-10904674D02*
X8641491Y-10895150D01*
X8641491Y-10895150D02*
X8670063Y-10895150D01*
X8670063Y-10895150D02*
X8689110Y-10904674D01*
X8689110Y-10904674D02*
X8698634Y-10923722D01*
X8698634Y-10923722D02*
X8698634Y-11028484D01*
X8698634Y-10923722D02*
X8708158Y-10904674D01*
X8708158Y-10904674D02*
X8727205Y-10895150D01*
X8727205Y-10895150D02*
X8755777Y-10895150D01*
X8755777Y-10895150D02*
X8774825Y-10904674D01*
X8774825Y-10904674D02*
X8784348Y-10923722D01*
X8784348Y-10923722D02*
X8784348Y-11028484D01*
X8879586Y-11028484D02*
X8879586Y-10895150D01*
X8879586Y-10914198D02*
X8889110Y-10904674D01*
X8889110Y-10904674D02*
X8908158Y-10895150D01*
X8908158Y-10895150D02*
X8936729Y-10895150D01*
X8936729Y-10895150D02*
X8955777Y-10904674D01*
X8955777Y-10904674D02*
X8965301Y-10923722D01*
X8965301Y-10923722D02*
X8965301Y-11028484D01*
X8965301Y-10923722D02*
X8974825Y-10904674D01*
X8974825Y-10904674D02*
X8993872Y-10895150D01*
X8993872Y-10895150D02*
X9022444Y-10895150D01*
X9022444Y-10895150D02*
X9041491Y-10904674D01*
X9041491Y-10904674D02*
X9051015Y-10923722D01*
X9051015Y-10923722D02*
X9051015Y-11028484D01*
X9441491Y-10818960D02*
X9270063Y-11076103D01*
X9698634Y-10828484D02*
X9717682Y-10828484D01*
X9717682Y-10828484D02*
X9736729Y-10838008D01*
X9736729Y-10838008D02*
X9746253Y-10847531D01*
X9746253Y-10847531D02*
X9755777Y-10866579D01*
X9755777Y-10866579D02*
X9765301Y-10904674D01*
X9765301Y-10904674D02*
X9765301Y-10952293D01*
X9765301Y-10952293D02*
X9755777Y-10990389D01*
X9755777Y-10990389D02*
X9746253Y-11009436D01*
X9746253Y-11009436D02*
X9736729Y-11018960D01*
X9736729Y-11018960D02*
X9717682Y-11028484D01*
X9717682Y-11028484D02*
X9698634Y-11028484D01*
X9698634Y-11028484D02*
X9679587Y-11018960D01*
X9679587Y-11018960D02*
X9670063Y-11009436D01*
X9670063Y-11009436D02*
X9660539Y-10990389D01*
X9660539Y-10990389D02*
X9651015Y-10952293D01*
X9651015Y-10952293D02*
X9651015Y-10904674D01*
X9651015Y-10904674D02*
X9660539Y-10866579D01*
X9660539Y-10866579D02*
X9670063Y-10847531D01*
X9670063Y-10847531D02*
X9679587Y-10838008D01*
X9679587Y-10838008D02*
X9698634Y-10828484D01*
X9851015Y-11009436D02*
X9860539Y-11018960D01*
X9860539Y-11018960D02*
X9851015Y-11028484D01*
X9851015Y-11028484D02*
X9841491Y-11018960D01*
X9841491Y-11018960D02*
X9851015Y-11009436D01*
X9851015Y-11009436D02*
X9851015Y-11028484D01*
X9984348Y-10828484D02*
X10003396Y-10828484D01*
X10003396Y-10828484D02*
X10022444Y-10838008D01*
X10022444Y-10838008D02*
X10031968Y-10847531D01*
X10031968Y-10847531D02*
X10041491Y-10866579D01*
X10041491Y-10866579D02*
X10051015Y-10904674D01*
X10051015Y-10904674D02*
X10051015Y-10952293D01*
X10051015Y-10952293D02*
X10041491Y-10990389D01*
X10041491Y-10990389D02*
X10031968Y-11009436D01*
X10031968Y-11009436D02*
X10022444Y-11018960D01*
X10022444Y-11018960D02*
X10003396Y-11028484D01*
X10003396Y-11028484D02*
X9984348Y-11028484D01*
X9984348Y-11028484D02*
X9965301Y-11018960D01*
X9965301Y-11018960D02*
X9955777Y-11009436D01*
X9955777Y-11009436D02*
X9946253Y-10990389D01*
X9946253Y-10990389D02*
X9936729Y-10952293D01*
X9936729Y-10952293D02*
X9936729Y-10904674D01*
X9936729Y-10904674D02*
X9946253Y-10866579D01*
X9946253Y-10866579D02*
X9955777Y-10847531D01*
X9955777Y-10847531D02*
X9965301Y-10838008D01*
X9965301Y-10838008D02*
X9984348Y-10828484D01*
X10222444Y-10895150D02*
X10222444Y-11028484D01*
X10174825Y-10818960D02*
X10127206Y-10961817D01*
X10127206Y-10961817D02*
X10251015Y-10961817D01*
X10422444Y-10828484D02*
X10327206Y-10828484D01*
X10327206Y-10828484D02*
X10317682Y-10923722D01*
X10317682Y-10923722D02*
X10327206Y-10914198D01*
X10327206Y-10914198D02*
X10346253Y-10904674D01*
X10346253Y-10904674D02*
X10393872Y-10904674D01*
X10393872Y-10904674D02*
X10412920Y-10914198D01*
X10412920Y-10914198D02*
X10422444Y-10923722D01*
X10422444Y-10923722D02*
X10431968Y-10942770D01*
X10431968Y-10942770D02*
X10431968Y-10990389D01*
X10431968Y-10990389D02*
X10422444Y-11009436D01*
X10422444Y-11009436D02*
X10412920Y-11018960D01*
X10412920Y-11018960D02*
X10393872Y-11028484D01*
X10393872Y-11028484D02*
X10346253Y-11028484D01*
X10346253Y-11028484D02*
X10327206Y-11018960D01*
X10327206Y-11018960D02*
X10317682Y-11009436D01*
X10555777Y-10828484D02*
X10574825Y-10828484D01*
X10574825Y-10828484D02*
X10593872Y-10838008D01*
X10593872Y-10838008D02*
X10603396Y-10847531D01*
X10603396Y-10847531D02*
X10612920Y-10866579D01*
X10612920Y-10866579D02*
X10622444Y-10904674D01*
X10622444Y-10904674D02*
X10622444Y-10952293D01*
X10622444Y-10952293D02*
X10612920Y-10990389D01*
X10612920Y-10990389D02*
X10603396Y-11009436D01*
X10603396Y-11009436D02*
X10593872Y-11018960D01*
X10593872Y-11018960D02*
X10574825Y-11028484D01*
X10574825Y-11028484D02*
X10555777Y-11028484D01*
X10555777Y-11028484D02*
X10536729Y-11018960D01*
X10536729Y-11018960D02*
X10527206Y-11009436D01*
X10527206Y-11009436D02*
X10517682Y-10990389D01*
X10517682Y-10990389D02*
X10508158Y-10952293D01*
X10508158Y-10952293D02*
X10508158Y-10904674D01*
X10508158Y-10904674D02*
X10517682Y-10866579D01*
X10517682Y-10866579D02*
X10527206Y-10847531D01*
X10527206Y-10847531D02*
X10536729Y-10838008D01*
X10536729Y-10838008D02*
X10555777Y-10828484D01*
X10698634Y-10828484D02*
X10698634Y-10866579D01*
X10774825Y-10828484D02*
X10774825Y-10866579D01*
X11070063Y-11104674D02*
X11060539Y-11095150D01*
X11060539Y-11095150D02*
X11041491Y-11066579D01*
X11041491Y-11066579D02*
X11031968Y-11047531D01*
X11031968Y-11047531D02*
X11022444Y-11018960D01*
X11022444Y-11018960D02*
X11012920Y-10971341D01*
X11012920Y-10971341D02*
X11012920Y-10933246D01*
X11012920Y-10933246D02*
X11022444Y-10885627D01*
X11022444Y-10885627D02*
X11031968Y-10857055D01*
X11031968Y-10857055D02*
X11041491Y-10838008D01*
X11041491Y-10838008D02*
X11060539Y-10809436D01*
X11060539Y-10809436D02*
X11070063Y-10799912D01*
X11251015Y-11028484D02*
X11136730Y-11028484D01*
X11193872Y-11028484D02*
X11193872Y-10828484D01*
X11193872Y-10828484D02*
X11174825Y-10857055D01*
X11174825Y-10857055D02*
X11155777Y-10876103D01*
X11155777Y-10876103D02*
X11136730Y-10885627D01*
X11365301Y-10914198D02*
X11346253Y-10904674D01*
X11346253Y-10904674D02*
X11336729Y-10895150D01*
X11336729Y-10895150D02*
X11327206Y-10876103D01*
X11327206Y-10876103D02*
X11327206Y-10866579D01*
X11327206Y-10866579D02*
X11336729Y-10847531D01*
X11336729Y-10847531D02*
X11346253Y-10838008D01*
X11346253Y-10838008D02*
X11365301Y-10828484D01*
X11365301Y-10828484D02*
X11403396Y-10828484D01*
X11403396Y-10828484D02*
X11422444Y-10838008D01*
X11422444Y-10838008D02*
X11431968Y-10847531D01*
X11431968Y-10847531D02*
X11441491Y-10866579D01*
X11441491Y-10866579D02*
X11441491Y-10876103D01*
X11441491Y-10876103D02*
X11431968Y-10895150D01*
X11431968Y-10895150D02*
X11422444Y-10904674D01*
X11422444Y-10904674D02*
X11403396Y-10914198D01*
X11403396Y-10914198D02*
X11365301Y-10914198D01*
X11365301Y-10914198D02*
X11346253Y-10923722D01*
X11346253Y-10923722D02*
X11336729Y-10933246D01*
X11336729Y-10933246D02*
X11327206Y-10952293D01*
X11327206Y-10952293D02*
X11327206Y-10990389D01*
X11327206Y-10990389D02*
X11336729Y-11009436D01*
X11336729Y-11009436D02*
X11346253Y-11018960D01*
X11346253Y-11018960D02*
X11365301Y-11028484D01*
X11365301Y-11028484D02*
X11403396Y-11028484D01*
X11403396Y-11028484D02*
X11422444Y-11018960D01*
X11422444Y-11018960D02*
X11431968Y-11009436D01*
X11431968Y-11009436D02*
X11441491Y-10990389D01*
X11441491Y-10990389D02*
X11441491Y-10952293D01*
X11441491Y-10952293D02*
X11431968Y-10933246D01*
X11431968Y-10933246D02*
X11422444Y-10923722D01*
X11422444Y-10923722D02*
X11403396Y-10914198D01*
X11679587Y-11028484D02*
X11679587Y-10828484D01*
X11765301Y-11028484D02*
X11765301Y-10923722D01*
X11765301Y-10923722D02*
X11755777Y-10904674D01*
X11755777Y-10904674D02*
X11736730Y-10895150D01*
X11736730Y-10895150D02*
X11708158Y-10895150D01*
X11708158Y-10895150D02*
X11689110Y-10904674D01*
X11689110Y-10904674D02*
X11679587Y-10914198D01*
X11889110Y-11028484D02*
X11870063Y-11018960D01*
X11870063Y-11018960D02*
X11860539Y-11009436D01*
X11860539Y-11009436D02*
X11851015Y-10990389D01*
X11851015Y-10990389D02*
X11851015Y-10933246D01*
X11851015Y-10933246D02*
X11860539Y-10914198D01*
X11860539Y-10914198D02*
X11870063Y-10904674D01*
X11870063Y-10904674D02*
X11889110Y-10895150D01*
X11889110Y-10895150D02*
X11917682Y-10895150D01*
X11917682Y-10895150D02*
X11936730Y-10904674D01*
X11936730Y-10904674D02*
X11946253Y-10914198D01*
X11946253Y-10914198D02*
X11955777Y-10933246D01*
X11955777Y-10933246D02*
X11955777Y-10990389D01*
X11955777Y-10990389D02*
X11946253Y-11009436D01*
X11946253Y-11009436D02*
X11936730Y-11018960D01*
X11936730Y-11018960D02*
X11917682Y-11028484D01*
X11917682Y-11028484D02*
X11889110Y-11028484D01*
X12070063Y-11028484D02*
X12051015Y-11018960D01*
X12051015Y-11018960D02*
X12041491Y-10999912D01*
X12041491Y-10999912D02*
X12041491Y-10828484D01*
X12222444Y-11018960D02*
X12203396Y-11028484D01*
X12203396Y-11028484D02*
X12165301Y-11028484D01*
X12165301Y-11028484D02*
X12146253Y-11018960D01*
X12146253Y-11018960D02*
X12136730Y-10999912D01*
X12136730Y-10999912D02*
X12136730Y-10923722D01*
X12136730Y-10923722D02*
X12146253Y-10904674D01*
X12146253Y-10904674D02*
X12165301Y-10895150D01*
X12165301Y-10895150D02*
X12203396Y-10895150D01*
X12203396Y-10895150D02*
X12222444Y-10904674D01*
X12222444Y-10904674D02*
X12231968Y-10923722D01*
X12231968Y-10923722D02*
X12231968Y-10942770D01*
X12231968Y-10942770D02*
X12136730Y-10961817D01*
X12308158Y-11018960D02*
X12327206Y-11028484D01*
X12327206Y-11028484D02*
X12365301Y-11028484D01*
X12365301Y-11028484D02*
X12384349Y-11018960D01*
X12384349Y-11018960D02*
X12393872Y-10999912D01*
X12393872Y-10999912D02*
X12393872Y-10990389D01*
X12393872Y-10990389D02*
X12384349Y-10971341D01*
X12384349Y-10971341D02*
X12365301Y-10961817D01*
X12365301Y-10961817D02*
X12336730Y-10961817D01*
X12336730Y-10961817D02*
X12317682Y-10952293D01*
X12317682Y-10952293D02*
X12308158Y-10933246D01*
X12308158Y-10933246D02*
X12308158Y-10923722D01*
X12308158Y-10923722D02*
X12317682Y-10904674D01*
X12317682Y-10904674D02*
X12336730Y-10895150D01*
X12336730Y-10895150D02*
X12365301Y-10895150D01*
X12365301Y-10895150D02*
X12384349Y-10904674D01*
X12460539Y-11104674D02*
X12470063Y-11095150D01*
X12470063Y-11095150D02*
X12489111Y-11066579D01*
X12489111Y-11066579D02*
X12498634Y-11047531D01*
X12498634Y-11047531D02*
X12508158Y-11018960D01*
X12508158Y-11018960D02*
X12517682Y-10971341D01*
X12517682Y-10971341D02*
X12517682Y-10933246D01*
X12517682Y-10933246D02*
X12508158Y-10885627D01*
X12508158Y-10885627D02*
X12498634Y-10857055D01*
X12498634Y-10857055D02*
X12489111Y-10838008D01*
X12489111Y-10838008D02*
X12470063Y-10809436D01*
X12470063Y-10809436D02*
X12460539Y-10799912D01*
X7395000Y-11301000D02*
X7495000Y-11201000D01*
X7395000Y-11101000D01*
X7295000Y-11201000D01*
X7395000Y-11301000D01*
X7736729Y-11092484D02*
X7860539Y-11092484D01*
X7860539Y-11092484D02*
X7793872Y-11168674D01*
X7793872Y-11168674D02*
X7822443Y-11168674D01*
X7822443Y-11168674D02*
X7841491Y-11178198D01*
X7841491Y-11178198D02*
X7851015Y-11187722D01*
X7851015Y-11187722D02*
X7860539Y-11206769D01*
X7860539Y-11206769D02*
X7860539Y-11254388D01*
X7860539Y-11254388D02*
X7851015Y-11273436D01*
X7851015Y-11273436D02*
X7841491Y-11282960D01*
X7841491Y-11282960D02*
X7822443Y-11292484D01*
X7822443Y-11292484D02*
X7765301Y-11292484D01*
X7765301Y-11292484D02*
X7746253Y-11282960D01*
X7746253Y-11282960D02*
X7736729Y-11273436D01*
X7946253Y-11273436D02*
X7955777Y-11282960D01*
X7955777Y-11282960D02*
X7946253Y-11292484D01*
X7946253Y-11292484D02*
X7936729Y-11282960D01*
X7936729Y-11282960D02*
X7946253Y-11273436D01*
X7946253Y-11273436D02*
X7946253Y-11292484D01*
X8022443Y-11092484D02*
X8146253Y-11092484D01*
X8146253Y-11092484D02*
X8079586Y-11168674D01*
X8079586Y-11168674D02*
X8108158Y-11168674D01*
X8108158Y-11168674D02*
X8127205Y-11178198D01*
X8127205Y-11178198D02*
X8136729Y-11187722D01*
X8136729Y-11187722D02*
X8146253Y-11206769D01*
X8146253Y-11206769D02*
X8146253Y-11254388D01*
X8146253Y-11254388D02*
X8136729Y-11273436D01*
X8136729Y-11273436D02*
X8127205Y-11282960D01*
X8127205Y-11282960D02*
X8108158Y-11292484D01*
X8108158Y-11292484D02*
X8051015Y-11292484D01*
X8051015Y-11292484D02*
X8031967Y-11282960D01*
X8031967Y-11282960D02*
X8022443Y-11273436D01*
X8270062Y-11092484D02*
X8289110Y-11092484D01*
X8289110Y-11092484D02*
X8308158Y-11102008D01*
X8308158Y-11102008D02*
X8317682Y-11111531D01*
X8317682Y-11111531D02*
X8327205Y-11130579D01*
X8327205Y-11130579D02*
X8336729Y-11168674D01*
X8336729Y-11168674D02*
X8336729Y-11216293D01*
X8336729Y-11216293D02*
X8327205Y-11254388D01*
X8327205Y-11254388D02*
X8317682Y-11273436D01*
X8317682Y-11273436D02*
X8308158Y-11282960D01*
X8308158Y-11282960D02*
X8289110Y-11292484D01*
X8289110Y-11292484D02*
X8270062Y-11292484D01*
X8270062Y-11292484D02*
X8251015Y-11282960D01*
X8251015Y-11282960D02*
X8241491Y-11273436D01*
X8241491Y-11273436D02*
X8231967Y-11254388D01*
X8231967Y-11254388D02*
X8222443Y-11216293D01*
X8222443Y-11216293D02*
X8222443Y-11168674D01*
X8222443Y-11168674D02*
X8231967Y-11130579D01*
X8231967Y-11130579D02*
X8241491Y-11111531D01*
X8241491Y-11111531D02*
X8251015Y-11102008D01*
X8251015Y-11102008D02*
X8270062Y-11092484D01*
X8412920Y-11111531D02*
X8422444Y-11102008D01*
X8422444Y-11102008D02*
X8441491Y-11092484D01*
X8441491Y-11092484D02*
X8489110Y-11092484D01*
X8489110Y-11092484D02*
X8508158Y-11102008D01*
X8508158Y-11102008D02*
X8517682Y-11111531D01*
X8517682Y-11111531D02*
X8527205Y-11130579D01*
X8527205Y-11130579D02*
X8527205Y-11149627D01*
X8527205Y-11149627D02*
X8517682Y-11178198D01*
X8517682Y-11178198D02*
X8403396Y-11292484D01*
X8403396Y-11292484D02*
X8527205Y-11292484D01*
X8612920Y-11292484D02*
X8612920Y-11159150D01*
X8612920Y-11178198D02*
X8622444Y-11168674D01*
X8622444Y-11168674D02*
X8641491Y-11159150D01*
X8641491Y-11159150D02*
X8670063Y-11159150D01*
X8670063Y-11159150D02*
X8689110Y-11168674D01*
X8689110Y-11168674D02*
X8698634Y-11187722D01*
X8698634Y-11187722D02*
X8698634Y-11292484D01*
X8698634Y-11187722D02*
X8708158Y-11168674D01*
X8708158Y-11168674D02*
X8727205Y-11159150D01*
X8727205Y-11159150D02*
X8755777Y-11159150D01*
X8755777Y-11159150D02*
X8774825Y-11168674D01*
X8774825Y-11168674D02*
X8784348Y-11187722D01*
X8784348Y-11187722D02*
X8784348Y-11292484D01*
X8879586Y-11292484D02*
X8879586Y-11159150D01*
X8879586Y-11178198D02*
X8889110Y-11168674D01*
X8889110Y-11168674D02*
X8908158Y-11159150D01*
X8908158Y-11159150D02*
X8936729Y-11159150D01*
X8936729Y-11159150D02*
X8955777Y-11168674D01*
X8955777Y-11168674D02*
X8965301Y-11187722D01*
X8965301Y-11187722D02*
X8965301Y-11292484D01*
X8965301Y-11187722D02*
X8974825Y-11168674D01*
X8974825Y-11168674D02*
X8993872Y-11159150D01*
X8993872Y-11159150D02*
X9022444Y-11159150D01*
X9022444Y-11159150D02*
X9041491Y-11168674D01*
X9041491Y-11168674D02*
X9051015Y-11187722D01*
X9051015Y-11187722D02*
X9051015Y-11292484D01*
X9441491Y-11082960D02*
X9270063Y-11340103D01*
X9698634Y-11092484D02*
X9717682Y-11092484D01*
X9717682Y-11092484D02*
X9736729Y-11102008D01*
X9736729Y-11102008D02*
X9746253Y-11111531D01*
X9746253Y-11111531D02*
X9755777Y-11130579D01*
X9755777Y-11130579D02*
X9765301Y-11168674D01*
X9765301Y-11168674D02*
X9765301Y-11216293D01*
X9765301Y-11216293D02*
X9755777Y-11254388D01*
X9755777Y-11254388D02*
X9746253Y-11273436D01*
X9746253Y-11273436D02*
X9736729Y-11282960D01*
X9736729Y-11282960D02*
X9717682Y-11292484D01*
X9717682Y-11292484D02*
X9698634Y-11292484D01*
X9698634Y-11292484D02*
X9679587Y-11282960D01*
X9679587Y-11282960D02*
X9670063Y-11273436D01*
X9670063Y-11273436D02*
X9660539Y-11254388D01*
X9660539Y-11254388D02*
X9651015Y-11216293D01*
X9651015Y-11216293D02*
X9651015Y-11168674D01*
X9651015Y-11168674D02*
X9660539Y-11130579D01*
X9660539Y-11130579D02*
X9670063Y-11111531D01*
X9670063Y-11111531D02*
X9679587Y-11102008D01*
X9679587Y-11102008D02*
X9698634Y-11092484D01*
X9851015Y-11273436D02*
X9860539Y-11282960D01*
X9860539Y-11282960D02*
X9851015Y-11292484D01*
X9851015Y-11292484D02*
X9841491Y-11282960D01*
X9841491Y-11282960D02*
X9851015Y-11273436D01*
X9851015Y-11273436D02*
X9851015Y-11292484D01*
X10051015Y-11292484D02*
X9936729Y-11292484D01*
X9993872Y-11292484D02*
X9993872Y-11092484D01*
X9993872Y-11092484D02*
X9974825Y-11121055D01*
X9974825Y-11121055D02*
X9955777Y-11140103D01*
X9955777Y-11140103D02*
X9936729Y-11149627D01*
X10117682Y-11092484D02*
X10241491Y-11092484D01*
X10241491Y-11092484D02*
X10174825Y-11168674D01*
X10174825Y-11168674D02*
X10203396Y-11168674D01*
X10203396Y-11168674D02*
X10222444Y-11178198D01*
X10222444Y-11178198D02*
X10231968Y-11187722D01*
X10231968Y-11187722D02*
X10241491Y-11206769D01*
X10241491Y-11206769D02*
X10241491Y-11254388D01*
X10241491Y-11254388D02*
X10231968Y-11273436D01*
X10231968Y-11273436D02*
X10222444Y-11282960D01*
X10222444Y-11282960D02*
X10203396Y-11292484D01*
X10203396Y-11292484D02*
X10146253Y-11292484D01*
X10146253Y-11292484D02*
X10127206Y-11282960D01*
X10127206Y-11282960D02*
X10117682Y-11273436D01*
X10365301Y-11092484D02*
X10384349Y-11092484D01*
X10384349Y-11092484D02*
X10403396Y-11102008D01*
X10403396Y-11102008D02*
X10412920Y-11111531D01*
X10412920Y-11111531D02*
X10422444Y-11130579D01*
X10422444Y-11130579D02*
X10431968Y-11168674D01*
X10431968Y-11168674D02*
X10431968Y-11216293D01*
X10431968Y-11216293D02*
X10422444Y-11254388D01*
X10422444Y-11254388D02*
X10412920Y-11273436D01*
X10412920Y-11273436D02*
X10403396Y-11282960D01*
X10403396Y-11282960D02*
X10384349Y-11292484D01*
X10384349Y-11292484D02*
X10365301Y-11292484D01*
X10365301Y-11292484D02*
X10346253Y-11282960D01*
X10346253Y-11282960D02*
X10336729Y-11273436D01*
X10336729Y-11273436D02*
X10327206Y-11254388D01*
X10327206Y-11254388D02*
X10317682Y-11216293D01*
X10317682Y-11216293D02*
X10317682Y-11168674D01*
X10317682Y-11168674D02*
X10327206Y-11130579D01*
X10327206Y-11130579D02*
X10336729Y-11111531D01*
X10336729Y-11111531D02*
X10346253Y-11102008D01*
X10346253Y-11102008D02*
X10365301Y-11092484D01*
X10555777Y-11092484D02*
X10574825Y-11092484D01*
X10574825Y-11092484D02*
X10593872Y-11102008D01*
X10593872Y-11102008D02*
X10603396Y-11111531D01*
X10603396Y-11111531D02*
X10612920Y-11130579D01*
X10612920Y-11130579D02*
X10622444Y-11168674D01*
X10622444Y-11168674D02*
X10622444Y-11216293D01*
X10622444Y-11216293D02*
X10612920Y-11254388D01*
X10612920Y-11254388D02*
X10603396Y-11273436D01*
X10603396Y-11273436D02*
X10593872Y-11282960D01*
X10593872Y-11282960D02*
X10574825Y-11292484D01*
X10574825Y-11292484D02*
X10555777Y-11292484D01*
X10555777Y-11292484D02*
X10536729Y-11282960D01*
X10536729Y-11282960D02*
X10527206Y-11273436D01*
X10527206Y-11273436D02*
X10517682Y-11254388D01*
X10517682Y-11254388D02*
X10508158Y-11216293D01*
X10508158Y-11216293D02*
X10508158Y-11168674D01*
X10508158Y-11168674D02*
X10517682Y-11130579D01*
X10517682Y-11130579D02*
X10527206Y-11111531D01*
X10527206Y-11111531D02*
X10536729Y-11102008D01*
X10536729Y-11102008D02*
X10555777Y-11092484D01*
X10698634Y-11092484D02*
X10698634Y-11130579D01*
X10774825Y-11092484D02*
X10774825Y-11130579D01*
X11070063Y-11368674D02*
X11060539Y-11359150D01*
X11060539Y-11359150D02*
X11041491Y-11330579D01*
X11041491Y-11330579D02*
X11031968Y-11311531D01*
X11031968Y-11311531D02*
X11022444Y-11282960D01*
X11022444Y-11282960D02*
X11012920Y-11235341D01*
X11012920Y-11235341D02*
X11012920Y-11197246D01*
X11012920Y-11197246D02*
X11022444Y-11149627D01*
X11022444Y-11149627D02*
X11031968Y-11121055D01*
X11031968Y-11121055D02*
X11041491Y-11102008D01*
X11041491Y-11102008D02*
X11060539Y-11073436D01*
X11060539Y-11073436D02*
X11070063Y-11063912D01*
X11231968Y-11159150D02*
X11231968Y-11292484D01*
X11184349Y-11082960D02*
X11136730Y-11225817D01*
X11136730Y-11225817D02*
X11260539Y-11225817D01*
X11489110Y-11292484D02*
X11489110Y-11092484D01*
X11574825Y-11292484D02*
X11574825Y-11187722D01*
X11574825Y-11187722D02*
X11565301Y-11168674D01*
X11565301Y-11168674D02*
X11546253Y-11159150D01*
X11546253Y-11159150D02*
X11517682Y-11159150D01*
X11517682Y-11159150D02*
X11498634Y-11168674D01*
X11498634Y-11168674D02*
X11489110Y-11178198D01*
X11698634Y-11292484D02*
X11679587Y-11282960D01*
X11679587Y-11282960D02*
X11670063Y-11273436D01*
X11670063Y-11273436D02*
X11660539Y-11254388D01*
X11660539Y-11254388D02*
X11660539Y-11197246D01*
X11660539Y-11197246D02*
X11670063Y-11178198D01*
X11670063Y-11178198D02*
X11679587Y-11168674D01*
X11679587Y-11168674D02*
X11698634Y-11159150D01*
X11698634Y-11159150D02*
X11727206Y-11159150D01*
X11727206Y-11159150D02*
X11746253Y-11168674D01*
X11746253Y-11168674D02*
X11755777Y-11178198D01*
X11755777Y-11178198D02*
X11765301Y-11197246D01*
X11765301Y-11197246D02*
X11765301Y-11254388D01*
X11765301Y-11254388D02*
X11755777Y-11273436D01*
X11755777Y-11273436D02*
X11746253Y-11282960D01*
X11746253Y-11282960D02*
X11727206Y-11292484D01*
X11727206Y-11292484D02*
X11698634Y-11292484D01*
X11879587Y-11292484D02*
X11860539Y-11282960D01*
X11860539Y-11282960D02*
X11851015Y-11263912D01*
X11851015Y-11263912D02*
X11851015Y-11092484D01*
X12031968Y-11282960D02*
X12012920Y-11292484D01*
X12012920Y-11292484D02*
X11974825Y-11292484D01*
X11974825Y-11292484D02*
X11955777Y-11282960D01*
X11955777Y-11282960D02*
X11946253Y-11263912D01*
X11946253Y-11263912D02*
X11946253Y-11187722D01*
X11946253Y-11187722D02*
X11955777Y-11168674D01*
X11955777Y-11168674D02*
X11974825Y-11159150D01*
X11974825Y-11159150D02*
X12012920Y-11159150D01*
X12012920Y-11159150D02*
X12031968Y-11168674D01*
X12031968Y-11168674D02*
X12041491Y-11187722D01*
X12041491Y-11187722D02*
X12041491Y-11206769D01*
X12041491Y-11206769D02*
X11946253Y-11225817D01*
X12117682Y-11282960D02*
X12136730Y-11292484D01*
X12136730Y-11292484D02*
X12174825Y-11292484D01*
X12174825Y-11292484D02*
X12193872Y-11282960D01*
X12193872Y-11282960D02*
X12203396Y-11263912D01*
X12203396Y-11263912D02*
X12203396Y-11254388D01*
X12203396Y-11254388D02*
X12193872Y-11235341D01*
X12193872Y-11235341D02*
X12174825Y-11225817D01*
X12174825Y-11225817D02*
X12146253Y-11225817D01*
X12146253Y-11225817D02*
X12127206Y-11216293D01*
X12127206Y-11216293D02*
X12117682Y-11197246D01*
X12117682Y-11197246D02*
X12117682Y-11187722D01*
X12117682Y-11187722D02*
X12127206Y-11168674D01*
X12127206Y-11168674D02*
X12146253Y-11159150D01*
X12146253Y-11159150D02*
X12174825Y-11159150D01*
X12174825Y-11159150D02*
X12193872Y-11168674D01*
X12270063Y-11368674D02*
X12279587Y-11359150D01*
X12279587Y-11359150D02*
X12298634Y-11330579D01*
X12298634Y-11330579D02*
X12308158Y-11311531D01*
X12308158Y-11311531D02*
X12317682Y-11282960D01*
X12317682Y-11282960D02*
X12327206Y-11235341D01*
X12327206Y-11235341D02*
X12327206Y-11197246D01*
X12327206Y-11197246D02*
X12317682Y-11149627D01*
X12317682Y-11149627D02*
X12308158Y-11121055D01*
X12308158Y-11121055D02*
X12298634Y-11102008D01*
X12298634Y-11102008D02*
X12279587Y-11073436D01*
X12279587Y-11073436D02*
X12270063Y-11063912D01*
M02*
